<svg width="1920" height="818" viewBox="0 0 1920 818" fill="none" xmlns="http://www.w3.org/2000/svg">
<rect width="1925" height="814" transform="translate(1)" fill="#AC9FFF"/>
<g clip-path="url(#clip0_122_70)">
<mask id="mask0_122_70" style="mask-type:luminance" maskUnits="userSpaceOnUse" x="944" y="340" width="1340" height="479">
<path d="M2283.11 340.572H944.417V818.247H2283.11V340.572Z" fill="white"/>
</mask>
<g mask="url(#mask0_122_70)">
<path d="M2368.4 589.888C2357.32 578.843 2349.57 567.438 2343.07 558.43C2339.81 553.925 2336.88 550.009 2333.84 546.982C2330.8 543.956 2327.52 541.675 2323.59 541.244C2320.37 540.886 2317.93 541.273 2316.31 541.675C2315.31 541.933 2315.04 542.005 2315.01 542.062C2314.85 541.861 2314.7 541.66 2314.36 541.087C2313.43 539.48 2312 536.496 2309.8 531.791C2305.45 522.51 2301.36 512.181 2297.67 504.32C2295.81 500.39 2294.1 497.105 2292.25 494.666C2291.33 493.447 2290.4 492.4 2289.07 491.625C2287.75 490.85 2285.6 490.52 2283.95 491.338C2282.41 492.113 2280.1 492.227 2277.32 491.438C2274.55 490.65 2271.41 488.971 2268.54 486.69C2266.05 484.711 2262.14 479.661 2258.03 475.257C2255.98 473.048 2253.85 470.968 2251.47 469.405C2249.1 467.841 2246.32 466.693 2243.28 467.195C2238.89 467.927 2236.56 469.089 2234.84 468.659C2233.13 468.228 2230.12 466.019 2225.23 457.498C2220.12 448.59 2216.25 443.053 2212.57 439.395C2208.9 435.737 2205.22 434.044 2201.61 433.327C2199.47 432.896 2197.26 431.792 2194.28 431.734C2193.59 431.734 2192.87 431.763 2192.09 431.892C2187.97 432.538 2183.71 435.278 2177.21 441.747C2170.28 448.633 2166.11 458.158 2162.75 467.081C2159.4 476.003 2156.75 484.495 2154.06 488.785C2151.28 493.217 2147.38 496.273 2143.48 498.066C2139.59 499.859 2135.69 500.289 2133.53 499.859C2131.27 499.414 2128.87 499.845 2127.02 501.035C2125.19 502.226 2123.93 503.947 2122.86 505.898C2120.72 509.8 2119.24 514.921 2117.38 521.032C2115.52 527.115 2114 529.281 2111.98 530.557C2109.95 531.848 2106.45 532.494 2100.68 533.771C2087.95 536.582 2082.24 546.466 2076.19 553.696C2074.98 555.145 2071.17 558.76 2066.17 562.991C2062.59 566.018 1999.64 595.311 1962.01 613.342C1961.92 613.228 1961.84 613.127 1961.75 613.027C1952.02 600.92 1937.71 583.95 1923.31 568.701C1908.92 553.452 1894.96 540.011 1883.6 534.359C1873.15 529.152 1861.77 526.541 1850.92 526.612C1840.07 526.684 1829.74 529.453 1821.41 534.99C1807.39 544.3 1786.65 555.044 1771.52 585.183C1768.75 590.706 1761.58 597.118 1751.85 602.842C1742.12 608.566 1729.98 613.715 1717.75 617.832C1705.51 621.95 1693.15 625.034 1682.98 626.784C1672.81 628.534 1664.27 628.534 1662.3 627.96C1657.94 626.726 1654.97 625.952 1651.86 625.952C1648.75 625.952 1645.4 627.53 1643.54 629.38C1639.81 633.096 1638.5 636.754 1630.59 643.51C1627.65 646.02 1624.38 648.287 1620.9 650.224C1615.4 649.019 1606.14 646.408 1597.56 643.496C1592.32 641.717 1587.28 639.809 1583.4 638.059C1581.45 637.184 1579.8 636.338 1578.6 635.62C1577.41 634.903 1576.67 634.186 1576.69 634.214C1573.1 629.294 1572.59 625.249 1573.19 623.097C1573.58 621.749 1573.32 621.132 1573.16 620.443C1573 619.755 1572.77 619.066 1572.49 618.306C1571.91 616.785 1571.07 614.963 1570.05 612.883C1568.01 608.723 1565.17 603.53 1562.16 598.208C1556.13 587.579 1549.45 576.591 1546.8 572.646C1544.53 569.246 1541.02 562.547 1538.01 556.048C1535 549.55 1532.38 542.937 1531.8 540.398C1530.26 533.742 1528.26 527.43 1524.75 522.768C1523.38 520.946 1521.54 519.799 1519.22 518.45C1516.91 517.116 1514.17 515.782 1511.33 514.62C1508.5 513.458 1505.59 512.44 1502.93 511.765C1500.26 511.091 1497.96 510.632 1495.59 511.062C1495.15 511.149 1494.68 511.062 1493.89 510.589C1493.08 510.101 1492.1 509.198 1491.17 508.05C1489.29 505.755 1487.61 502.57 1486.69 500.519C1485.25 497.306 1482.38 495.426 1479.64 494.609C1477.91 494.107 1476.2 493.935 1474.58 493.935C1473.62 493.935 1472.68 494.021 1471.82 494.121C1469.07 494.465 1466.65 495.972 1465.17 497.965C1463.69 499.974 1462.89 502.269 1462.1 504.865C1462.07 504.937 1461.12 506.529 1459.55 508.107C1457.98 509.685 1455.87 511.478 1453.65 513.142C1451.44 514.807 1449.12 516.37 1447.15 517.532C1445.17 518.694 1443.33 519.454 1443.07 519.512C1440.55 520.071 1439.08 521.62 1437.53 523.399C1435.97 525.178 1434.49 527.344 1433.11 529.682C1430.35 534.344 1428.03 539.466 1427.12 543.353C1426.89 544.372 1425.85 546.997 1424.41 550.038C1422.98 553.079 1421.16 556.651 1419.29 560.252C1415.56 567.438 1411.76 574.41 1410.28 578.24C1409.93 579.13 1408.58 581.224 1406.72 583.519C1404.87 585.814 1402.52 588.411 1400.13 591.007C1397.74 593.604 1395.31 596.186 1393.26 598.524C1391.2 600.848 1389.55 602.785 1388.5 604.707C1386.54 608.264 1386.47 612.41 1386.63 616.298C1383.99 617.287 1381.73 619.21 1379.77 621.663C1377.28 624.761 1374.25 628.147 1371.63 629.395C1370.32 630.011 1369.25 630.184 1368.04 629.897C1366.83 629.61 1365.26 628.749 1363.38 626.583C1358.82 621.39 1355.42 618.406 1351.6 617.287C1347.77 616.168 1344.15 617.732 1341.31 619.841C1339.77 620.988 1336.7 621.706 1331.77 621.706C1328.77 621.706 1299.65 621.261 1295.45 620.945L1258.34 633.268L1244.42 642.52L1202.67 691.824L1182.57 701.077L1160.92 727.271L1162.46 753.465C1160.1 754.512 1148.76 767.996 1147 768.871C1146.82 768.957 1147.19 782.657 1147 782.743L1126.91 796.614C1127.37 796.399 1092.27 830.583 1095.99 828.977L1173.3 839.764C1166.71 844.857 1248.19 844.929 1242.89 850.552C1239.43 854.224 1297.38 824.401 1292.14 827.686V874.235V893.745V941.284C1292.81 940.968 1293.6 940.639 1294.24 940.323C1296.73 939.089 1299.65 937.741 1302.89 936.335C1306.13 934.929 1309.68 933.452 1313.43 931.96C1317.17 930.468 1321.1 928.947 1325.09 927.427C1329.07 925.921 1333.13 924.429 1337.12 922.98C1345.1 920.096 1352.81 917.4 1359.26 915.233C1363.13 913.928 1366.55 912.823 1369.28 911.963C1369.42 911.92 1369.57 911.877 1369.7 911.834C1369.74 911.834 1369.77 911.805 1369.81 911.791C1370.5 911.575 1371.15 911.375 1371.76 911.188C1372.52 910.959 1373.2 910.758 1373.77 910.586C1375.23 910.17 1377.04 909.782 1379.13 909.438C1381.21 909.094 1383.58 908.793 1386.12 908.549C1388.67 908.305 1391.42 908.118 1394.26 908.004C1396.99 907.889 1399.81 907.86 1402.66 907.903V920.627V924.271C1403.79 923.754 1404.88 923.224 1405.92 922.707C1411.79 919.781 1420.89 916.066 1430.58 912.393C1430.62 912.408 1430.68 912.436 1430.72 912.451C1431.71 912.895 1432.62 913.369 1433.46 913.885C1434.29 914.401 1435.13 914.86 1436 915.276C1436.87 915.692 1437.75 916.051 1438.64 916.367C1439.53 916.682 1440.44 916.955 1441.36 917.184C1442.28 917.414 1443.22 917.586 1444.15 917.73C1445.09 917.859 1446.04 917.959 1446.99 918.002C1447.94 918.059 1448.9 918.059 1449.85 918.031C1450.82 918.002 1451.77 917.93 1452.73 917.83C1453.7 917.715 1454.66 917.572 1455.61 917.4C1456.57 917.213 1457.52 916.998 1458.47 916.754C1458.73 916.682 1458.98 916.611 1459.24 916.539C1459.27 916.539 1459.29 916.525 1459.34 916.51C1460 916.324 1460.65 916.123 1461.3 915.908C1463.17 915.276 1465 914.531 1466.77 913.655C1468.54 912.795 1470.25 911.819 1471.89 910.743C1473.53 909.682 1475.09 908.52 1476.53 907.272C1477.98 906.038 1479.16 904.905 1480.17 903.872C1481.16 902.839 1481.97 901.907 1482.64 901.089C1484 899.44 1484.82 898.206 1485.65 897.374C1486.07 896.958 1486.49 896.657 1486.96 896.441C1487.44 896.241 1487.98 896.126 1488.66 896.126C1489.34 896.126 1490.14 896.226 1491.14 896.441C1491.19 896.441 1491.25 896.47 1491.3 896.47C1491.9 896.599 1492.61 896.771 1493.35 896.972C1493.8 897.087 1494.26 897.216 1494.77 897.36C1495.48 897.56 1496.39 897.704 1497.46 897.776C1498.52 897.833 1499.75 897.833 1501.1 897.776C1502.45 897.704 1503.95 897.575 1505.56 897.388C1506.01 897.331 1506.47 897.273 1506.93 897.216C1506.97 897.216 1507.02 897.216 1507.04 897.202C1508.18 897.044 1509.36 896.872 1510.59 896.657C1515.13 897.446 1518.98 898.593 1521.32 900.042C1534.27 908.104 1551.14 903.313 1561.9 894.132C1567.16 889.642 1569.22 886.156 1569.85 885.525C1569.91 885.468 1569.92 885.439 1569.94 885.41C1569.97 885.41 1570.01 885.425 1570.1 885.425C1570.57 885.425 1572.01 885.668 1574.4 886.357C1578.19 887.433 1583.07 886.916 1589.43 885.826C1595.78 884.736 1603.28 882.857 1610.76 880.332C1618.25 877.822 1625.71 874.68 1631.97 870.993C1638.23 867.307 1643.4 863.161 1646 857.954C1654.09 841.83 1664.26 836.881 1672.99 831.071C1675.64 829.307 1679 828.159 1682.68 827.657H1690.82C1712.09 859.374 1705.18 901.864 1706.97 946.936C1707.61 963.447 1709.51 980.288 1714.48 997.014H1718.48H1734.56H1738.67H1753.92H1788.21H1792.66H1804.39H1807.45H1819.54H1822.95H1863.73H1866.88H1950.28V995.035V986.112V984.276V984.09V972.154V971.667V970.648V970.161V966.56V962.644V955.055V952.272V951.125V948.858V945.501V842.447C1948.97 841.959 1947.58 841.471 1946.36 840.984C1944.03 840.023 1941.88 839.061 1940.01 838.129C1939.08 837.656 1938.21 837.197 1937.44 836.737C1936.64 836.278 1935.94 835.834 1935.33 835.389C1934.72 834.944 1934.04 834.557 1933.32 834.198C1932.6 833.84 1931.82 833.539 1931.02 833.252C1930.21 832.979 1929.35 832.735 1928.47 832.534C1927.58 832.334 1926.65 832.176 1925.72 832.032C1924.77 831.903 1923.79 831.803 1922.8 831.731C1921.8 831.659 1920.78 831.631 1919.74 831.616C1917.69 831.588 1915.56 831.688 1913.44 831.86C1911.32 832.032 1909.21 832.305 1907.13 832.635C1906.14 832.793 1905.16 832.965 1904.2 833.151C1900.05 832.793 1895.69 832.922 1891.36 833.28C1886.82 833.653 1882.35 834.342 1878.2 835.231C1877.8 835.073 1877.41 834.901 1877 834.715C1875.16 833.897 1873.28 832.922 1871.43 831.875C1870.44 831.315 1869.46 830.727 1868.5 830.124V827.657H1898.45H1905.28H1932.74H1939.74H1965.81H1972.99H1997.68H2002.59H2024.38H2031.98H2052.02H2057.25H2077.91H2083.74H2108.87H2116.01H2153.4H2158.79H2251.53C2251.53 827.657 2251.59 827.657 2251.6 827.657H2301.22V826.71V809.052V775.685V769V751.614C2301.94 752.504 2302.66 753.407 2303.35 754.34C2305.04 756.563 2306.66 758.887 2308.25 761.268C2309.83 763.635 2311.38 766.06 2312.88 768.455C2314.38 770.851 2315.83 773.232 2317.24 775.513C2318.65 777.794 2320.02 780.003 2321.35 782.04C2322.67 784.091 2323.95 785.97 2325.19 787.649C2325.81 788.481 2326.41 789.255 2327.02 789.987C2327.61 790.704 2328.2 791.364 2328.77 791.938C2329.35 792.526 2329.91 793.028 2330.46 793.459C2331 793.889 2331.55 794.248 2332.08 794.506C2333.15 795.037 2334.29 795.696 2335.51 796.428C2336.73 797.16 2338.02 797.977 2339.37 798.809C2340.71 799.641 2342.12 800.502 2343.56 801.32C2345 802.152 2346.48 802.941 2347.98 803.644C2348.73 803.988 2349.49 804.318 2350.24 804.619C2351 804.92 2351.76 805.193 2352.53 805.422C2353.29 805.666 2354.05 805.853 2354.81 806.01C2355.58 806.168 2356.34 806.283 2357.1 806.355C2357.87 806.426 2358.63 806.441 2359.38 806.398C2360.13 806.355 2360.88 806.254 2361.62 806.097C2362.36 805.939 2363.11 805.709 2363.83 805.422C2364.56 805.135 2365.27 804.762 2365.97 804.332C2367.38 803.457 2368.66 802.754 2369.86 802.209C2370.46 801.936 2371.04 801.707 2371.6 801.506C2372.16 801.305 2372.72 801.162 2373.27 801.033C2373.82 800.918 2374.35 800.832 2374.9 800.775C2375.43 800.717 2375.98 800.703 2376.52 800.717C2377.62 800.746 2378.73 800.904 2379.92 801.162C2380.22 801.234 2380.6 801.363 2380.91 801.449V600.819C2376.58 597.52 2372.38 593.905 2368.33 589.874L2368.4 589.888Z" fill="#AC9FFF"/>
<path d="M1474.64 493.934C1473.68 493.934 1472.74 494.021 1471.88 494.121C1469.13 494.465 1466.71 495.971 1465.23 497.965C1463.74 499.974 1462.95 502.269 1462.16 504.865C1462.13 504.937 1461.18 506.529 1459.61 508.107C1458.04 509.685 1455.93 511.478 1453.71 513.142C1451.49 514.806 1449.17 516.37 1447.2 517.532C1445.23 518.694 1443.39 519.454 1443.13 519.512C1440.61 520.071 1439.14 521.62 1437.59 523.399C1436.03 525.178 1434.55 527.344 1433.17 529.682C1430.4 534.344 1428.09 539.466 1427.18 543.353C1426.95 544.372 1425.91 546.997 1424.47 550.038C1423.03 553.079 1421.22 556.651 1419.35 560.252C1415.62 567.438 1411.82 574.41 1410.34 578.24C1409.99 579.13 1408.64 581.224 1406.78 583.519C1404.92 585.814 1402.58 588.411 1400.19 591.007C1397.8 593.604 1395.37 596.186 1393.32 598.524C1391.26 600.848 1389.61 602.784 1388.56 604.707C1386.41 608.609 1386.53 613.213 1386.73 617.416C1386.93 621.634 1387.3 625.808 1387.19 626.741C1387.23 626.439 1386.64 628.147 1385.53 629.854C1384.42 631.561 1382.87 633.598 1381.21 635.52C1379.56 637.442 1377.77 639.25 1376.25 640.526C1374.72 641.803 1373.2 642.348 1373.6 642.305C1370.91 642.606 1367.99 643.424 1365.47 645.174C1362.96 646.924 1360.85 650.109 1361.22 653.824C1361.13 652.992 1361.19 653.781 1360.67 654.771C1360.15 655.761 1359.28 657.123 1358.17 658.673C1355.95 661.771 1352.78 665.616 1349.4 669.446C1346.02 673.276 1342.4 677.106 1339.27 680.219C1336.13 683.346 1333.32 685.813 1332.16 686.631C1330.05 688.08 1325.72 690.59 1320.94 693.173V700.575C1326.94 697.433 1332.75 694.162 1335.88 691.996C1337.96 690.576 1340.63 688.08 1343.9 684.838C1347.16 681.596 1350.85 677.694 1354.32 673.749C1357.81 669.804 1361.06 665.86 1363.49 662.46C1364.72 660.767 1365.71 659.218 1366.46 657.798C1367.21 656.378 1367.93 655.244 1367.71 653.179C1367.58 651.931 1367.97 651.371 1369.21 650.525C1370.45 649.664 1372.51 648.99 1374.3 648.789C1376.94 648.502 1378.54 647.125 1380.45 645.518C1382.37 643.912 1384.32 641.903 1386.17 639.78C1387.99 637.657 1389.69 635.434 1391.02 633.397C1392.34 631.36 1393.39 629.839 1393.67 627.544C1394.04 624.503 1393.42 620.974 1393.25 617.101C1393.06 613.228 1393.44 609.369 1394.29 607.805C1394.73 607.002 1396.26 605.022 1398.22 602.799C1400.17 600.59 1402.58 598.008 1405 595.382C1407.41 592.757 1409.83 590.075 1411.86 587.579C1413.89 585.083 1415.53 582.888 1416.44 580.55C1417.46 577.91 1421.39 570.465 1425.15 563.221C1427.02 559.606 1428.88 555.977 1430.39 552.792C1431.89 549.607 1433.04 547.025 1433.56 544.802C1434.15 542.234 1436.32 537.156 1438.8 532.982C1440.03 530.902 1441.36 528.994 1442.51 527.674C1443.66 526.354 1444.81 525.795 1444.55 525.866C1446.53 525.436 1448.31 524.446 1450.56 523.127C1452.79 521.807 1455.28 520.128 1457.68 518.321C1460.09 516.514 1462.4 514.577 1464.29 512.669C1466.18 510.761 1467.73 509.126 1468.45 506.716C1469.17 504.349 1469.88 502.671 1470.51 501.81C1471.14 500.949 1471.47 500.72 1472.71 500.562C1474.4 500.347 1476.38 500.39 1477.86 500.834C1479.35 501.265 1480.23 501.867 1480.79 503.13C1481.87 505.554 1483.68 509.083 1486.17 512.138C1487.41 513.659 1488.83 515.079 1490.58 516.141C1492.32 517.202 1494.53 517.876 1496.85 517.46C1497.21 517.389 1499.17 517.489 1501.42 518.063C1503.66 518.637 1506.34 519.555 1508.93 520.616C1511.52 521.692 1514.05 522.911 1516.03 524.059C1518 525.207 1519.48 526.483 1519.6 526.641C1522.07 529.926 1524.06 535.549 1525.51 541.832C1526.42 545.763 1529.05 552.075 1532.16 558.76C1535.26 565.444 1538.74 572.172 1541.46 576.232C1543.81 579.746 1550.6 590.892 1556.56 601.393C1559.54 606.643 1562.32 611.779 1564.28 615.724C1565.26 617.703 1566.02 619.396 1566.47 620.572C1566.67 621.117 1566.81 621.548 1566.87 621.792C1565.73 626.511 1567.26 632.206 1571.51 638.002C1572.53 639.407 1573.78 640.225 1575.32 641.157C1576.86 642.09 1578.72 643.008 1580.81 643.955C1584.99 645.848 1590.19 647.799 1595.56 649.621C1606.3 653.265 1617.5 656.392 1623.09 657.224C1628.09 657.97 1633.05 658.744 1636.78 660.495C1640.5 662.245 1643.08 664.626 1644.36 669.704C1645.87 675.729 1647.27 680.606 1649.13 684.594C1650.98 688.568 1653.46 691.767 1656.96 693.66C1662.93 696.917 1663 694.908 1669.29 704.075C1671.15 706.772 1673.84 707.489 1677.28 708.45C1680.72 709.411 1685.06 710.186 1690.07 710.917C1700.09 712.352 1712.81 713.528 1725.72 714.891C1738.64 716.254 1751.77 717.789 1762.39 719.926C1773.01 722.063 1781.15 725.248 1783.45 727.773C1790.17 735.146 1796.48 745.546 1802.15 754.713C1804.98 759.303 1807.66 763.564 1810.25 767.078C1812.84 770.578 1815.22 773.376 1818.31 774.91C1822.03 776.761 1827.84 781.079 1834.26 784.091C1840.69 787.104 1848.49 788.911 1855.4 784.608C1860.69 781.308 1862.77 780.95 1866.9 781.868C1867.43 781.983 1890.22 785.225 1890.82 785.397V778.655C1890.72 778.626 1868.41 775.527 1868.32 775.499C1862.93 774.308 1857.93 775.341 1851.93 779.085C1847.55 781.81 1842.63 780.806 1837.06 778.195C1831.49 775.585 1826 771.453 1821.24 769.086C1820.1 768.513 1817.87 766.389 1815.52 763.219C1813.18 760.035 1810.56 755.875 1807.73 751.313C1802.11 742.189 1795.7 731.502 1788.3 723.397C1783.55 718.19 1774.73 715.766 1763.68 713.542C1752.64 711.333 1739.39 709.784 1726.41 708.421C1713.44 707.058 1700.75 705.882 1691 704.476C1686.14 703.773 1682.01 703.013 1679.04 702.196C1676.09 701.378 1674.45 700.072 1674.68 700.417C1668 690.691 1665.06 690.676 1660.07 687.951C1658.08 686.875 1656.55 685.082 1655.04 681.854C1653.53 678.627 1652.18 674.051 1650.7 668.14C1648.98 661.298 1644.56 656.951 1639.55 654.599C1634.54 652.246 1629.02 651.529 1624.04 650.783C1619.64 650.123 1608.13 647.025 1597.65 643.467C1592.41 641.688 1587.37 639.78 1583.48 638.03C1581.54 637.155 1579.88 636.309 1578.69 635.592C1577.5 634.874 1576.76 634.157 1576.78 634.186C1573.19 629.265 1572.67 625.22 1573.28 623.068C1573.67 621.72 1573.41 621.103 1573.25 620.415C1573.09 619.726 1572.86 619.037 1572.57 618.277C1572 616.757 1571.16 614.935 1570.14 612.855C1568.09 608.695 1565.26 603.502 1562.25 598.18C1556.22 587.55 1549.54 576.562 1546.89 572.617C1544.62 569.217 1541.1 562.518 1538.09 556.02C1535.09 549.521 1532.47 542.908 1531.89 540.369C1530.35 533.713 1528.35 527.401 1524.84 522.739C1523.47 520.917 1521.63 519.77 1519.31 518.421C1516.99 517.087 1514.26 515.753 1511.42 514.591C1508.58 513.429 1505.68 512.411 1503.01 511.737C1500.35 511.062 1498.05 510.603 1495.67 511.034C1495.24 511.12 1494.76 511.034 1493.97 510.56C1493.17 510.073 1492.19 509.169 1491.25 508.021C1489.38 505.726 1487.7 502.541 1486.78 500.49C1485.34 497.277 1482.47 495.398 1479.72 494.58C1477.99 494.078 1476.28 493.906 1474.67 493.906L1474.64 493.934ZM1566.86 621.863C1566.86 621.863 1566.86 621.878 1566.86 621.892C1566.89 622.05 1566.81 622.107 1566.86 621.863Z" fill="#E7ECF8"/>
<path d="M1349.76 623.542C1351.29 623.986 1354.19 626.038 1358.46 630.886C1360.97 633.741 1363.67 635.549 1366.5 636.237C1369.34 636.926 1372.15 636.381 1374.46 635.29C1379.1 633.081 1382.35 628.935 1384.9 625.751C1387.13 622.968 1388.21 622.236 1390.28 622.107C1390.17 620.601 1390.04 618.966 1389.97 617.273C1389.94 616.714 1389.92 616.154 1389.91 615.595C1385.82 615.853 1382.52 618.263 1379.79 621.663C1377.3 624.761 1374.26 628.146 1371.64 629.395C1370.33 630.011 1369.27 630.183 1368.06 629.897C1366.85 629.61 1365.28 628.749 1363.39 626.583C1358.83 621.39 1355.43 618.406 1351.62 617.287C1347.79 616.168 1344.16 617.732 1341.33 619.841C1339.78 620.988 1336.72 621.706 1331.78 621.706C1328.79 621.706 1325.12 621.462 1320.9 621.146V627.687C1324.94 627.989 1328.59 628.218 1331.78 628.218" fill="#E7ECF8"/>
<path d="M1632.56 656.378C1641.53 648.717 1650.42 638.332 1651.52 637.241C1651.6 637.155 1651.65 637.098 1651.67 637.04C1651.73 637.04 1651.8 637.069 1651.93 637.069C1652.75 637.069 1655.2 637.485 1659.29 638.647C1665.75 640.483 1674.1 639.594 1684.94 637.729C1695.8 635.864 1708.61 632.651 1721.39 628.362C1734.17 624.073 1746.91 618.708 1757.61 612.41C1768.31 606.127 1777.12 599.026 1781.58 590.132C1795.38 562.604 1812.74 554.141 1827.67 544.228C1839.92 536.08 1860.98 535.478 1878.66 544.286C1886.59 548.23 1901.13 561.37 1915.24 576.304C1929.33 591.222 1943.53 608.049 1953.1 619.956C1973.35 645.188 1999.87 655.99 2026.08 650.769C2037.15 648.56 2066.23 646.078 2094.75 646.967C2109 647.412 2123.21 648.674 2135.1 651.099C2146.99 653.523 2156.48 657.296 2161.11 661.456C2185.81 683.604 2214.62 700.316 2243.06 726.281C2251.56 734.042 2265.26 739.966 2281.82 745.446C2287.98 747.483 2294.51 749.419 2301.29 751.256V739.693C2295.74 738.144 2290.37 736.552 2285.33 734.888C2269.41 729.623 2256.58 723.541 2250.61 718.09C2221.17 691.207 2192.1 674.294 2168.58 653.193C2161.17 646.537 2150.16 642.807 2137.33 640.196C2124.49 637.586 2109.78 636.295 2095.09 635.85C2065.73 634.932 2036.92 637.256 2023.88 639.866C2001.87 644.256 1980.15 635.835 1961.81 613.013C1952.08 600.905 1937.77 583.935 1923.37 568.686C1908.98 553.438 1895.01 539.996 1883.66 534.344C1873.2 529.137 1861.83 526.526 1850.98 526.598C1840.12 526.67 1829.8 529.438 1821.47 534.976C1807.45 544.286 1786.7 555.03 1771.57 585.169C1768.81 590.692 1761.64 597.104 1751.91 602.828C1742.18 608.551 1730.04 613.701 1717.81 617.818C1705.57 621.935 1693.2 625.019 1683.04 626.769C1672.86 628.52 1664.33 628.52 1662.36 627.946C1657.99 626.712 1655.03 625.937 1651.92 625.937C1648.81 625.937 1645.46 627.515 1643.6 629.366C1639.87 633.081 1626.54 646.537 1618.64 653.293M1314.13 721.002L1850.98 526.598Z" fill="#E7ECF8"/>
<path d="M1859.46 532.766C1857.31 533.455 1856.45 536.008 1857.73 537.859C1894.52 592.083 1882.62 664.884 1885.67 742.132C1886.78 770.32 1890.02 799.111 1898.51 827.657H1905.33C1896.68 799.211 1893.5 770.392 1892.36 741.874C1889.34 665.501 1901.98 591.165 1863.27 534.129C1863.03 533.771 1862.72 533.455 1862.36 533.211C1861.39 533.039 1860.41 532.91 1859.43 532.781L1859.46 532.766ZM1878.5 538.074C1876.82 539.078 1876.36 541.302 1877.51 542.894C1912.06 592.141 1904.67 668.413 1914.1 746.694C1917.37 773.792 1922.77 801.162 1932.82 827.643H1939.81C1929.52 801.09 1924.08 773.49 1920.75 745.891C1911.57 669.604 1919.41 593.36 1884.45 541.187C1883.3 540.47 1882.19 539.839 1881.14 539.308C1880.26 538.877 1879.38 538.461 1878.49 538.074H1878.5ZM1902.46 555.647C1900.64 556.608 1900.12 558.96 1901.36 560.596C1933.68 604.893 1929.79 681.381 1944.59 757.539C1949.2 781.265 1955.73 804.978 1965.9 827.628H1973.08C1962.56 804.748 1955.92 780.62 1951.18 756.262C1937.48 685.684 1940.86 613.342 1912.63 565.545C1911.32 564.211 1910 562.877 1908.7 561.6C1906.59 559.52 1904.51 557.526 1902.47 555.632L1902.46 555.647ZM1929.26 583.39C1927.43 583.447 1926.45 585.556 1927.58 586.991C1942.82 606.945 1950.32 635.477 1956.37 668.011C1962.41 700.546 1967.02 737.025 1976.89 772.802C1982.06 791.493 1988.71 809.998 1997.75 827.628H2002.66C1993.3 809.726 1986.5 790.819 1981.2 771.626C1971.44 736.265 1966.83 699.929 1960.76 667.208C1955.2 637.241 1948.42 610.244 1935 589.774C1933.33 587.866 1931.63 585.943 1929.91 584.036C1929.72 583.82 1929.52 583.605 1929.32 583.39H1929.25H1929.26ZM1953.83 612.023C1951.43 612.611 1950.46 615.494 1952.05 617.402C1965.95 634.616 1973.73 661.083 1980.88 691.623C1988.04 722.164 1994.66 756.692 2007.1 790.016C2011.87 802.84 2017.56 815.493 2024.46 827.643H2032.06C2024.56 814.833 2018.48 801.406 2013.37 787.692C2001.21 755.057 1994.61 720.844 1987.4 690.117C1981.63 665.487 1975.53 643.065 1965.49 625.421C1965.29 625.22 1965.09 625.034 1964.89 624.819C1963.61 623.542 1962.35 622.208 1961.12 620.816C1959.88 619.425 1958.66 617.976 1957.45 616.484C1956.31 615.064 1955.1 613.572 1953.83 612.023ZM1977.12 635.003C1975.53 635.434 1974.94 637.385 1976.03 638.633C2005.51 672.702 2008.74 759.188 2052.1 827.643H2057.32C2014.51 761.025 2011.6 675.313 1980.77 637.342C1979.54 636.61 1978.32 635.835 1977.12 635.018V635.003ZM1987.91 641.057C1987.98 641.387 1988.12 641.688 1988.32 641.946C2014.02 676.131 2023.2 740.898 2056.18 796.901C2062.46 807.56 2069.64 817.903 2077.96 827.643H2083.79C2074.61 817.286 2066.81 806.168 2060.03 794.649C2028.95 741.874 2019.6 680.391 1995.06 643.783C1994.6 643.639 1994.15 643.496 1993.69 643.352C1992.24 642.865 1990.8 642.319 1989.37 641.717C1988.89 641.502 1988.38 641.287 1987.89 641.057H1987.91ZM2035.8 643.697C2033.25 643.998 2030.95 644.313 2028.92 644.629C2028.98 644.887 2029.06 645.145 2029.18 645.389C2053.05 696.085 2078.15 740.454 2123.86 770.162C2163.63 796.012 2218.66 810.529 2301.29 809.037V802.353C2219.51 803.844 2165.9 789.499 2127.53 764.553C2083.78 736.122 2059.38 693.617 2035.8 643.697ZM2000.39 645.174C2024.66 683.576 2037.89 741.63 2073.21 789.987C2083.12 803.543 2094.81 816.31 2108.96 827.643H2116.1C2100.31 815.736 2087.55 802.023 2076.83 787.362C2043.16 741.271 2029.9 685.469 2006.22 646.121C2004.98 645.977 2003.74 645.805 2002.52 645.59C2001.81 645.461 2001.11 645.318 2000.39 645.174ZM2024.15 645.461C2023.38 645.604 2022.61 645.734 2021.84 645.848C2045.76 691.824 2066.63 739.909 2108.06 775.312C2140.09 802.682 2184.4 822.378 2251.67 827.643H2301.29V826.696C2205.54 828.719 2148.4 806.843 2109.53 773.619C2068.77 738.79 2047.99 691.322 2024.15 645.461ZM2014.84 646.479C2013.99 646.508 2013.14 646.508 2012.29 646.508C2036.15 688.568 2053.17 740.956 2091.08 782.327C2107.32 800.057 2127.41 815.722 2153.47 827.657H2158.87C2130.88 815.622 2109.71 799.369 2092.72 780.835C2055.54 740.267 2038.53 688.64 2014.84 646.494V646.479Z" fill="#E7ECF8"/>
<path d="M1467.13 663.751C1465.17 663.737 1463.18 663.952 1461.18 664.497C1456.62 665.745 1452.28 668.786 1448.57 673.85C1441.53 683.504 1438.82 692.627 1435.73 697.906C1434.17 700.546 1432.74 702.11 1430.71 703.056C1428.68 704.003 1425.7 704.448 1420.77 703.687C1414.77 702.769 1409.93 703.687 1406.87 706.815C1403.8 709.942 1403.12 714.045 1402.69 718.219C1401.81 726.553 1402.13 736.38 1396.98 745.173C1391.98 753.694 1377.34 765.041 1362.16 774.853C1346.97 784.665 1331.39 793.215 1323.58 798.408C1315.41 803.83 1310.65 810.773 1304.67 817.142C1301.22 820.815 1297.36 824.386 1292.12 827.671V836.494C1300.15 832.176 1305.75 827.212 1310.29 822.378C1316.74 815.521 1321.1 809.267 1327.85 804.777C1334.95 800.057 1350.87 791.278 1366.34 781.265C1381.82 771.267 1397.01 760.322 1403.63 749.018C1410.08 738.001 1409.57 726.353 1410.35 719.008C1410.74 715.336 1411.52 713.04 1412.39 712.151C1413.27 711.247 1414.84 710.516 1419.62 711.247C1425.47 712.151 1430.16 711.764 1433.99 709.971C1437.82 708.177 1440.41 705.108 1442.38 701.765C1446.32 695.066 1448.6 686.861 1454.8 678.34C1457.73 674.323 1460.43 672.63 1463.22 671.856C1466.02 671.096 1469.16 671.325 1472.77 672.171C1480 673.879 1488.53 678.254 1498.1 678.254C1505.75 678.254 1516.63 680.248 1525.59 684.121C1534.54 687.994 1541.15 693.603 1542.41 699.943C1544.4 709.813 1552.27 717.731 1561.21 723.828C1570.15 729.91 1580.37 734.171 1588.45 735.964C1595.39 737.499 1604.73 741.128 1612.46 745.475C1620.19 749.821 1626.12 755.373 1627.07 758.213C1628.2 761.555 1630.48 762.861 1633.45 764.869C1636.42 766.877 1640.27 769.043 1644.81 771.353C1653.88 775.972 1665.65 781.165 1677.72 786.143C1689.79 791.12 1702.16 795.883 1712.35 799.613C1722.56 803.342 1730.37 806.011 1734.19 806.957C1740.31 808.478 1754.67 813.499 1768.61 816.87C1775.57 818.548 1782.48 819.853 1788.59 820.069C1794.69 820.284 1800.29 819.681 1804.14 815.851C1806.35 813.642 1807.85 812.939 1808.31 812.853C1808.77 812.767 1808.67 812.695 1809.5 813.384C1811.16 814.775 1814 819.524 1818.59 824.1C1823.09 828.59 1831.47 835.246 1840.53 840.41C1845.06 842.992 1849.74 845.187 1854.3 846.449C1858.87 847.712 1863.43 848.156 1867.56 846.377C1872.76 844.168 1882.53 841.687 1892.06 840.898C1901.58 840.109 1910.89 841.256 1915.2 844.326C1919.7 847.525 1926.75 850.738 1934.97 853.693V845.445C1928.17 842.82 1922.57 840.166 1919.67 838.1C1912.37 832.907 1901.79 832.405 1891.43 833.266C1881.06 834.127 1870.96 836.608 1864.54 839.348C1862.88 840.066 1859.99 840.08 1856.36 839.076C1852.73 838.072 1848.5 836.135 1844.34 833.768C1836.01 829.02 1827.8 822.464 1824.02 818.706C1820.33 815.034 1818.19 810.701 1814.46 807.545C1812.59 805.967 1809.69 804.762 1806.8 805.351C1803.89 805.924 1801.44 807.703 1798.69 810.457C1797.57 811.576 1794.06 812.624 1788.86 812.437C1783.67 812.251 1777.12 811.06 1770.41 809.439C1757 806.197 1743.19 801.32 1736.05 799.541C1733.22 798.838 1725.1 796.141 1715 792.44C1704.89 788.739 1692.61 784.005 1680.65 779.085C1668.69 774.15 1657.04 769.015 1648.31 764.553C1643.93 762.33 1640.29 760.25 1637.75 758.557C1635.23 756.85 1634.05 754.957 1634.34 755.817C1631.98 748.745 1624.64 743.567 1616.22 738.833C1607.8 734.099 1598.07 730.283 1590.09 728.519C1583.25 726.998 1573.58 723.01 1565.53 717.53C1557.49 712.051 1551.27 705.122 1549.93 698.48C1547.88 688.295 1538.74 681.524 1528.64 677.149C1518.53 672.774 1507.03 670.637 1498.1 670.637C1491.09 670.637 1483.08 666.763 1474.54 664.755C1472.41 664.253 1470.21 663.88 1467.98 663.78C1467.7 663.78 1467.41 663.751 1467.14 663.751H1467.13Z" fill="#E7ECF8"/>
<path d="M1466.76 668C1466.04 668 1465.33 668.014 1464.63 668.086C1464.08 668.143 1463.53 668.23 1463 668.33C1463.06 668.689 1463.19 669.019 1463.39 669.305C1488.68 706.574 1480.5 756.609 1482.59 809.7C1483.74 838.864 1488.19 868.931 1503.32 898.008C1503.94 897.951 1504.57 897.893 1505.22 897.807C1506.13 897.707 1507.09 897.563 1508.07 897.42C1492.7 868.673 1488.36 838.878 1487.2 809.514C1485.15 757.599 1493.62 707.061 1468.07 668.043C1467.87 668.043 1467.66 668.029 1467.46 668.014C1467.22 668.014 1466.99 668 1466.74 668H1466.76ZM1494.7 674.699C1494.71 675.043 1494.81 675.388 1494.97 675.689C1514.1 711.609 1501.57 755.906 1499.05 803.976C1497.49 833.656 1500.04 864.785 1516.71 895.813C1518.18 895.483 1519.69 895.139 1521.21 894.752C1504.46 864.283 1502.1 833.843 1503.65 804.22C1506.1 757.398 1518.97 712.642 1499.77 674.929C1499.07 674.9 1498.4 674.886 1497.74 674.886C1496.71 674.886 1495.71 674.814 1494.68 674.713L1494.7 674.699ZM1530.15 683.837C1528.57 683.909 1527.53 685.501 1528.11 686.964C1541.12 721.536 1523.85 758.847 1516.32 800.648C1511.17 829.224 1510.97 859.922 1528.79 892.686C1530.23 892.256 1531.68 891.797 1533.13 891.323C1515.33 859.348 1515.76 829.74 1520.85 801.466C1528.25 760.425 1546.28 722.167 1532.43 685.357C1532.11 684.482 1531.32 683.894 1530.38 683.837C1530.31 683.837 1530.23 683.837 1530.15 683.837ZM1561.59 720.115C1561.59 720.202 1561.61 720.302 1561.64 720.388C1565.09 737.014 1561.42 751.345 1555.22 765.417C1549.01 779.49 1540.23 793.203 1533.87 808.223C1527.51 823.242 1523.6 839.681 1527.43 858.875C1529.32 868.3 1533.03 878.355 1539.15 889.243C1539.86 888.985 1540.55 888.727 1541.25 888.469C1542 888.182 1542.75 887.881 1543.5 887.579C1537.4 876.835 1533.75 867.037 1531.95 857.986C1528.34 839.868 1531.95 824.547 1538.11 810.001C1544.28 795.456 1553.03 781.77 1559.43 767.253C1565.34 753.855 1569.21 739.639 1566.86 723.558C1565.55 722.784 1564.26 721.966 1563 721.105C1562.53 720.775 1562.05 720.445 1561.58 720.115H1561.59ZM1596.73 735.665C1595.87 735.665 1595.18 736.397 1595.21 737.258C1595.65 753.41 1589.29 765.46 1580.54 776.377C1571.79 787.293 1560.63 796.933 1551.8 808.007C1542.98 819.082 1536.52 831.705 1537.54 848.274C1538.19 858.774 1541.79 870.81 1549.52 885.04C1550.45 884.61 1551.39 884.165 1552.31 883.72C1544.69 869.72 1541.22 858.072 1540.61 848.087C1539.64 832.394 1545.64 820.674 1554.21 809.915C1562.77 799.157 1573.94 789.502 1582.94 778.299C1591.94 767.081 1598.75 754.185 1598.29 737.186C1598.29 736.34 1597.58 735.665 1596.73 735.68V735.665ZM1628.83 754.515C1626.17 770.151 1617.06 779.949 1605.73 787.695C1594.39 795.456 1580.84 801.05 1569.63 808.151C1558.41 815.252 1549.47 823.945 1547.69 837.816C1546.31 848.532 1549.17 862.217 1558.25 880.579C1558.5 880.435 1558.74 880.292 1558.99 880.163C1559.19 880.048 1559.39 879.919 1559.59 879.804C1550.64 861.672 1547.9 848.288 1549.21 838.017C1550.93 824.705 1559.41 816.428 1570.45 809.442C1581.49 802.456 1595.06 796.847 1606.59 788.957C1617.66 781.397 1626.86 771.643 1630 756.581C1629.86 756.251 1629.68 755.906 1629.5 755.576C1629.3 755.232 1629.08 754.873 1628.83 754.515ZM1660.46 775.157C1659.58 779.117 1657.64 782.258 1654.82 784.926C1651.22 788.34 1646.15 790.937 1640.15 793.06C1628.14 797.306 1612.51 799.63 1598 803.546C1583.49 807.477 1569.94 813.014 1562.34 824.203C1554.76 835.378 1553.49 851.875 1562.79 876.792C1562.87 877.05 1563.05 877.28 1563.25 877.452C1563.48 877.294 1563.72 877.122 1563.95 876.964C1564.54 876.548 1565.11 876.132 1565.65 875.702C1556.56 851.301 1557.98 836.081 1564.88 825.924C1571.77 815.768 1584.53 810.374 1598.79 806.516C1613.06 802.657 1628.7 800.362 1641.17 795.958C1647.4 793.748 1652.86 791.009 1656.92 787.15C1659.97 784.252 1662.2 780.709 1663.3 776.434C1662.65 776.147 1661.97 775.86 1661.34 775.573C1661.04 775.444 1660.75 775.301 1660.45 775.172L1660.46 775.157ZM1692.88 788.699C1684.33 802.169 1671.88 807.792 1657.63 810.231C1643.1 812.727 1626.86 811.708 1612.06 811.981C1597.25 812.254 1583.62 813.745 1574.65 822.266C1565.67 830.802 1562.27 845.821 1566.78 871.326C1566.95 872.273 1567.7 873.019 1568.65 873.191C1569.63 872.287 1570.5 871.369 1571.3 870.437C1566.93 845.692 1570.39 832.667 1577.83 825.609C1585.27 818.537 1597.63 816.858 1612.15 816.586C1626.68 816.313 1643.13 817.389 1658.42 814.778C1673.68 812.153 1687.93 805.655 1697.26 790.42C1697.1 790.363 1696.94 790.306 1696.78 790.234C1695.5 789.732 1694.19 789.23 1692.89 788.713L1692.88 788.699Z" fill="#E7ECF8"/>
<path d="M1447.1 684.106C1446.96 684.106 1446.83 684.106 1446.68 684.135C1446.08 685.254 1445.53 686.359 1445 687.435C1445.12 687.664 1445.27 687.879 1445.48 688.066C1460.4 702.54 1466.9 723.885 1469.56 746.823C1471.73 765.572 1471.31 784.78 1471.04 802.395C1456.65 768.383 1431.93 745.188 1405.9 736.71C1405.41 736.552 1404.88 736.566 1404.39 736.738C1404.16 737.685 1403.9 738.632 1403.61 739.593C1403.54 739.837 1403.46 740.081 1403.37 740.325C1403.64 740.683 1404.03 740.941 1404.46 741.085C1431.58 749.921 1458.09 776.044 1471.03 815.062C1471.85 817.53 1475.5 816.956 1475.52 814.359C1475.62 794.319 1476.84 769.761 1474.12 746.321C1471.4 722.867 1464.74 700.388 1448.67 684.795C1448.25 684.379 1447.68 684.135 1447.07 684.121L1447.1 684.106ZM1436.26 703.659C1436.26 703.659 1436.19 703.745 1436.15 703.788C1435.6 704.347 1435.02 704.864 1434.39 705.323C1434.15 705.495 1433.89 705.667 1433.63 705.839C1433.6 706.499 1433.86 707.13 1434.32 707.589C1449.25 722.408 1454.92 738.919 1458.1 758.012C1445 735.505 1424.17 721.705 1407.08 719.008C1406.88 718.979 1406.69 718.965 1406.49 718.979C1406.35 720.399 1406.25 721.92 1406.13 723.498C1406.2 723.512 1406.29 723.527 1406.36 723.541C1424.43 726.396 1449.29 744.04 1460.3 773.017C1461.27 775.542 1465.05 774.638 1464.75 771.955C1461.86 746.149 1457.14 723.77 1437.57 704.333C1437.23 703.974 1436.77 703.745 1436.26 703.673V703.659ZM1392.66 762.215C1390.51 762.201 1388.31 762.272 1386.04 762.416C1385.98 762.473 1385.92 762.516 1385.85 762.574C1384.48 763.707 1383.06 764.826 1381.59 765.959C1382.02 766.806 1382.93 767.308 1383.86 767.207C1403.28 765.314 1417.61 770.076 1428.98 778.812C1440.35 787.548 1448.74 800.402 1455.6 814.747C1469.3 843.437 1476.47 877.779 1491.01 896.169C1491.09 896.284 1491.19 896.384 1491.3 896.47C1491.9 896.599 1492.61 896.771 1493.35 896.972C1494.98 896.571 1495.66 894.634 1494.62 893.314C1481.41 876.602 1473.79 842.146 1459.76 812.767C1452.73 798.078 1444.02 784.565 1431.8 775.169C1422.63 768.125 1411.47 763.477 1397.87 762.43C1396.17 762.301 1394.43 762.229 1392.64 762.215H1392.66ZM1373.84 774.824C1372.25 774.824 1370.63 774.867 1368.98 774.953C1367.41 776.001 1365.84 777.048 1364.24 778.066C1363.81 778.353 1363.38 778.626 1362.93 778.898C1363.41 779.573 1364.21 779.931 1365.03 779.845C1384.48 777.952 1399.5 782.298 1411.78 790.403C1424.07 798.508 1433.63 810.486 1441.66 823.927C1457.73 850.796 1467.36 883.287 1481.78 901.52C1481.85 901.62 1481.94 901.72 1482.03 901.807C1482.24 901.563 1482.46 901.304 1482.64 901.075C1483.62 899.87 1484.33 898.894 1484.96 898.12C1471.83 881.092 1461.91 848.845 1445.62 821.575C1437.39 807.789 1427.42 795.223 1414.32 786.573C1404.49 780.089 1392.89 775.857 1379.1 774.982C1377.37 774.867 1375.61 774.81 1373.83 774.81L1373.84 774.824ZM1356.57 785.526C1355.1 785.526 1353.62 785.569 1352.11 785.641C1349.86 787.003 1347.67 788.323 1345.54 789.585C1346.03 790.303 1346.88 790.676 1347.75 790.561C1386.66 786.774 1410.84 806.943 1429.28 832.879C1447.72 858.814 1459.8 890.316 1474.09 908.405C1474.22 908.577 1474.38 908.735 1474.55 908.85C1475.24 908.334 1475.91 907.803 1476.55 907.258C1477.07 906.813 1477.55 906.397 1477.99 905.981C1477.92 905.837 1477.84 905.694 1477.72 905.565C1464.26 888.552 1451.94 856.806 1433.04 830.225C1416.5 806.957 1394.42 787.505 1361.88 785.655C1360.14 785.554 1358.37 785.511 1356.57 785.511V785.526ZM1341.6 794.319C1340.22 794.319 1338.81 794.377 1337.38 794.434C1335.74 795.409 1334.17 796.342 1332.72 797.217C1331.98 797.662 1331.35 798.049 1330.67 798.465C1331.16 799.111 1331.94 799.455 1332.75 799.383C1371.68 795.582 1397.65 815.091 1417.82 840.281C1437.93 865.413 1451.74 896.04 1465.93 914.043C1466.22 913.914 1466.51 913.785 1466.78 913.641C1467.87 913.11 1468.95 912.522 1470 911.905C1469.92 911.69 1469.8 911.489 1469.66 911.317C1456.13 894.204 1442.09 863.204 1421.44 837.412C1403.37 814.833 1379.82 796.112 1346.97 794.434C1345.21 794.348 1343.43 794.305 1341.61 794.319H1341.6ZM1322.68 812.609C1319.67 812.623 1316.61 812.767 1313.48 813.025C1312.33 814.345 1311.18 815.679 1309.99 817.027C1310.49 817.587 1311.25 817.874 1312 817.773C1351.07 813.972 1379.88 829.952 1402.68 851.441C1425.37 872.815 1441.83 899.597 1455.84 917.357C1456.73 917.184 1457.62 916.984 1458.5 916.754C1459.06 916.611 1459.61 916.438 1460.17 916.281C1460.19 915.736 1460.01 915.219 1459.67 914.789C1445.95 897.446 1429.24 870.147 1405.84 848.113C1385.37 828.833 1359.58 813.542 1326.3 812.667C1325.1 812.624 1323.91 812.624 1322.7 812.624L1322.68 812.609ZM1305.39 836.867C1304.29 836.867 1303.18 836.867 1302.05 836.881C1298.8 836.924 1295.49 837.067 1292.12 837.297V841.902C1366.76 836.479 1410.12 881.738 1437.34 915.865C1437.77 916.037 1438.19 916.209 1438.64 916.367C1439.53 916.682 1440.44 916.955 1441.36 917.184C1441.73 917.27 1442.11 917.357 1442.48 917.428C1443.01 916.611 1442.96 915.535 1442.35 914.774C1416.63 882.24 1375.02 837.426 1305.38 836.881L1305.39 836.867ZM1323.1 866.518C1321.21 866.518 1319.33 866.546 1317.44 866.604C1309.09 866.891 1300.61 867.852 1292.14 869.516V874.207C1339.93 864.552 1387.13 878.094 1412.01 908.334C1413.69 908.477 1415.35 908.663 1416.97 908.893C1417.23 908.147 1417.1 907.329 1416.63 906.713C1396.24 880.935 1361.32 866.589 1323.11 866.503L1323.1 866.518ZM1331.87 886.414C1318.98 886.5 1305.91 889.025 1292.12 893.73V898.55C1326.77 886.213 1355.62 888.107 1389.82 908.233C1391.26 908.133 1392.76 908.047 1394.27 907.989C1394.57 907.989 1394.88 907.975 1395.18 907.961C1395.42 906.971 1394.98 905.924 1394.07 905.421C1373.01 892.697 1353.55 886.658 1333.72 886.429H1331.87V886.414ZM1334.44 901.419C1327.97 901.448 1321.82 902.28 1315.83 903.829C1307.76 905.909 1300 909.237 1292.12 913.455V918.705C1300.56 914.028 1308.66 910.428 1317 908.29C1331.75 904.489 1347.34 905.12 1367.42 912.551C1369.09 912.02 1370.53 911.575 1371.77 911.188C1371.93 910.098 1371.3 909.065 1370.26 908.692C1359.61 904.647 1349.99 902.395 1341.05 901.692C1338.82 901.505 1336.62 901.419 1334.46 901.434L1334.44 901.419Z" fill="#E7ECF8"/>
<path d="M1331.78 624.79C1331.78 624.79 1306.29 620.945 1297 622.48C1287.72 624.015 1279.99 631.733 1264.53 631.733C1249.07 631.733 1215.05 688.74 1194.94 696.458C1174.84 704.161 1176.38 699.542 1174.84 710.329C1173.3 721.117 1167.11 721.117 1162.48 727.285C1157.84 733.453 1167.11 755.028 1156.29 761.182C1145.46 767.351 1146.24 781.983 1146.24 781.983" stroke="#E7ECF8" stroke-width="5" stroke-miterlimit="10"/>
<path d="M1334.3 688.941C1334.3 688.941 1319.42 700.302 1300.86 701.851C1282.3 703.386 1249.83 704.935 1239 717.258C1228.18 729.58 1210.67 738.001 1204.99 741.917C1150.1 779.673 1095.97 821.274 1095.97 821.274" stroke="#E7ECF8" stroke-width="4" stroke-miterlimit="10"/>
</g>
</g>
<g clip-path="url(#clip1_122_70)">
<path d="M210.051 650.891C209.377 650.891 208.723 650.95 208.119 651.019C206.197 651.256 204.506 652.292 203.469 653.664C202.433 655.046 201.879 656.626 201.326 658.412C201.305 658.462 200.641 659.557 199.544 660.643C198.447 661.729 196.968 662.963 195.418 664.108C193.868 665.253 192.247 666.329 190.869 667.129C189.49 667.928 188.202 668.451 188.02 668.491C186.259 668.876 185.233 669.942 184.146 671.166C183.059 672.39 182.022 673.881 181.056 675.49C179.123 678.698 177.503 682.222 176.869 684.897C176.708 685.598 175.983 687.404 174.977 689.497C173.971 691.589 172.702 694.047 171.394 696.525C168.787 701.47 166.13 706.268 165.094 708.903C164.852 709.515 163.906 710.957 162.608 712.536C161.31 714.115 159.669 715.902 157.998 717.689C156.328 719.475 154.627 721.252 153.198 722.861C151.758 724.46 150.601 725.793 149.866 727.116C148.367 729.801 148.447 732.969 148.588 735.861C148.729 738.764 148.991 741.636 148.91 742.278C148.94 742.07 148.528 743.245 147.753 744.42C146.978 745.594 145.891 746.996 144.733 748.319C143.576 749.642 142.328 750.885 141.261 751.764C140.194 752.642 139.128 753.018 139.409 752.988C137.527 753.195 135.484 753.758 133.723 754.962C131.972 756.166 130.492 758.358 130.754 760.914C130.694 760.342 130.734 760.885 130.372 761.566C130.009 762.247 129.395 763.185 128.62 764.251C127.07 766.383 124.856 769.029 122.491 771.664C120.126 774.3 117.6 776.935 115.406 779.077C113.212 781.229 111.249 782.927 110.434 783.49C108.965 784.487 105.935 786.214 102.594 787.991V793.085C106.791 790.923 110.847 788.672 113.041 787.182C114.49 786.204 116.362 784.487 118.646 782.256C120.921 780.025 123.508 777.34 125.933 774.626C128.369 771.911 130.643 769.196 132.344 766.857C133.2 765.692 133.894 764.626 134.417 763.649C134.941 762.672 135.444 761.892 135.293 760.47C135.202 759.611 135.474 759.226 136.34 758.644C137.205 758.052 138.644 757.588 139.903 757.45C141.744 757.252 142.861 756.305 144.2 755.199C145.539 754.094 146.907 752.712 148.196 751.251C149.474 749.79 150.661 748.26 151.587 746.858C152.513 745.456 153.248 744.41 153.439 742.831C153.701 740.738 153.268 738.31 153.147 735.644C153.016 732.979 153.278 730.324 153.872 729.248C154.184 728.695 155.251 727.333 156.619 725.803C157.988 724.283 159.669 722.506 161.36 720.699C163.051 718.893 164.741 717.047 166.161 715.329C167.58 713.612 168.727 712.102 169.361 710.493C170.076 708.676 172.823 703.553 175.45 698.568C176.758 696.081 178.057 693.583 179.113 691.392C180.16 689.201 180.965 687.424 181.328 685.894C181.74 684.127 183.26 680.632 184.991 677.76C185.857 676.329 186.783 675.016 187.588 674.108C188.393 673.199 189.198 672.814 189.017 672.864C190.396 672.568 191.644 671.887 193.214 670.978C194.774 670.07 196.515 668.915 198.196 667.672C199.876 666.428 201.497 665.095 202.815 663.782C204.134 662.469 205.221 661.344 205.724 659.686C206.227 658.057 206.72 656.902 207.163 656.31C207.606 655.718 207.837 655.56 208.703 655.451C209.88 655.303 211.269 655.333 212.306 655.639C213.342 655.935 213.956 656.349 214.349 657.218C215.104 658.886 216.372 661.315 218.113 663.417C218.979 664.463 219.975 665.441 221.193 666.171C222.411 666.902 223.96 667.366 225.581 667.079C225.832 667.03 227.201 667.099 228.771 667.494C230.341 667.889 232.213 668.52 234.025 669.251C235.836 669.991 237.608 670.83 238.987 671.62C240.365 672.41 241.402 673.288 241.483 673.397C243.214 675.657 244.603 679.527 245.619 683.85C246.253 686.555 248.095 690.898 250.269 695.498C252.433 700.098 254.868 704.728 256.77 707.521C258.411 709.94 263.161 717.61 267.328 724.835C269.411 728.448 271.354 731.982 272.723 734.697C273.407 736.059 273.94 737.224 274.252 738.033C274.393 738.408 274.494 738.704 274.534 738.872C273.739 742.12 274.806 746.039 277.775 750.027C278.489 750.994 279.365 751.557 280.442 752.198C281.519 752.84 282.817 753.472 284.276 754.123C287.205 755.426 290.838 756.769 294.592 758.022C302.1 760.53 309.931 762.681 313.836 763.254C317.338 763.767 320.8 764.3 323.407 765.505C326.014 766.709 327.815 768.347 328.711 771.842C329.768 775.988 330.744 779.344 332.042 782.088C333.34 784.822 335.072 787.024 337.517 788.327C341.694 790.567 341.744 789.185 346.142 795.493C347.441 797.349 349.323 797.842 351.728 798.504C354.134 799.165 357.163 799.698 360.665 800.202C367.67 801.189 376.567 801.998 385.595 802.936C394.623 803.874 403.801 804.93 411.229 806.401C418.656 807.872 424.343 810.063 425.953 811.8C430.653 816.874 435.061 824.031 439.027 830.338C441.009 833.497 442.881 836.429 444.693 838.847C446.505 841.256 448.165 843.181 450.329 844.237C452.926 845.51 456.992 848.481 461.48 850.554C465.969 852.627 471.424 853.871 476.255 850.91C479.959 848.639 481.408 848.393 484.296 849.024C484.669 849.103 500.601 851.334 501.024 851.453V846.813C500.953 846.794 485.353 844.661 485.293 844.642C481.519 843.822 478.026 844.533 473.83 847.109C470.77 848.985 467.328 848.294 463.433 846.497C459.538 844.701 455.704 841.858 452.372 840.229C451.577 839.834 450.017 838.373 448.377 836.192C446.736 834 444.904 831.138 442.932 827.999C438.997 821.721 434.518 814.367 429.345 808.79C426.024 805.206 419.854 803.538 412.135 802.008C404.415 800.488 395.146 799.422 386.078 798.484C377.01 797.546 368.133 796.737 361.319 795.77C357.918 795.286 355.029 794.763 352.956 794.2C350.893 793.637 349.745 792.739 349.906 792.976C345.237 786.283 343.183 786.273 339.691 784.398C338.302 783.658 337.235 782.424 336.179 780.203C335.122 777.982 334.176 774.833 333.139 770.766C331.941 766.057 328.852 763.066 325.349 761.448C321.847 759.829 317.982 759.335 314.5 758.822C311.43 758.368 303.379 756.236 296.052 753.787C292.388 752.563 288.866 751.251 286.148 750.046C284.79 749.444 283.632 748.862 282.797 748.368C281.962 747.875 281.448 747.381 281.458 747.401C278.952 744.015 278.59 741.231 279.013 739.751C279.285 738.823 279.103 738.398 278.993 737.925C278.882 737.451 278.721 736.977 278.52 736.454C278.117 735.407 277.533 734.154 276.819 732.722C275.39 729.86 273.407 726.286 271.303 722.624C267.086 715.31 262.417 707.748 260.565 705.034C258.975 702.694 256.519 698.085 254.415 693.613C252.312 689.141 250.48 684.591 250.078 682.844C249.001 678.263 247.602 673.92 245.146 670.712C244.19 669.458 242.902 668.669 241.281 667.741C239.661 666.823 237.749 665.905 235.766 665.105C233.783 664.305 231.75 663.605 229.888 663.141C228.026 662.677 226.416 662.361 224.756 662.657C224.454 662.716 224.121 662.657 223.568 662.331C223.004 661.996 222.32 661.374 221.666 660.584C220.357 659.005 219.18 656.813 218.536 655.402C217.529 653.191 215.526 651.897 213.604 651.335C212.396 650.989 211.199 650.871 210.072 650.871L210.051 650.891ZM274.524 738.922C274.524 738.922 274.524 738.931 274.524 738.941C274.544 739.05 274.494 739.089 274.524 738.922Z" fill="#E7ECF8"/>
<path d="M122.743 740.077C123.81 740.383 125.843 741.794 128.822 745.131C130.583 747.095 132.465 748.339 134.448 748.812C136.43 749.286 138.393 748.911 140.013 748.161C143.254 746.641 145.529 743.788 147.31 741.597C148.87 739.682 149.625 739.178 151.074 739.089C150.994 738.053 150.903 736.928 150.853 735.763C150.832 735.378 150.822 734.993 150.812 734.608C147.954 734.786 145.649 736.444 143.737 738.783C141.996 740.916 139.872 743.245 138.041 744.104C137.125 744.528 136.38 744.647 135.535 744.449C134.689 744.252 133.592 743.66 132.274 742.169C129.083 738.596 126.708 736.543 124.041 735.773C121.364 735.003 118.828 736.079 116.845 737.53C115.768 738.319 113.624 738.813 110.172 738.813C108.079 738.813 105.512 738.645 102.564 738.428V742.929C105.392 743.137 107.938 743.295 110.172 743.295" fill="#E7ECF8"/>
<path d="M320.458 762.672C326.728 757.4 332.948 750.254 333.713 749.503C333.773 749.444 333.803 749.405 333.824 749.365C333.864 749.365 333.914 749.385 334.005 749.385C334.578 749.385 336.289 749.671 339.148 750.471C343.667 751.734 349.504 751.122 357.082 749.839C364.671 748.556 373.628 746.345 382.565 743.393C391.503 740.442 400.41 736.75 407.887 732.416C415.365 728.093 421.525 723.207 424.645 717.087C434.297 698.144 446.434 692.32 456.871 685.499C465.436 679.892 480.16 679.477 492.519 685.538C498.065 688.253 508.23 697.295 518.093 707.571C527.946 717.837 537.869 729.416 544.562 737.609C558.723 754.972 577.261 762.405 595.589 758.812C603.328 757.292 623.658 755.584 643.596 756.196C653.56 756.502 663.493 757.371 671.806 759.039C680.12 760.707 686.752 763.303 689.993 766.166C707.263 781.407 727.402 792.907 747.289 810.774C753.227 816.114 762.809 820.191 774.383 823.962C778.69 825.363 783.26 826.696 788 827.959V820.003C784.115 818.937 780.361 817.841 776.839 816.696C765.707 813.074 756.74 808.888 752.563 805.137C731.982 786.639 711.661 775.001 695.216 760.48C690.033 755.9 682.334 753.333 673.366 751.537C664.389 749.74 654.103 748.852 643.837 748.546C623.306 747.914 603.167 749.513 594.049 751.31C578.66 754.33 563.473 748.536 550.651 732.831C543.848 724.5 533.844 712.822 523.779 702.329C513.715 691.836 503.952 682.587 496.011 678.698C488.705 675.114 480.754 673.318 473.165 673.367C465.577 673.417 458.36 675.322 452.533 679.132C442.73 685.538 428.228 692.932 417.65 713.671C415.718 717.472 410.706 721.884 403.902 725.823C397.098 729.761 388.614 733.305 380.059 736.138C371.505 738.971 362.859 741.093 355.754 742.297C348.638 743.502 342.67 743.502 341.291 743.107C338.242 742.258 336.169 741.725 333.995 741.725C331.821 741.725 329.476 742.811 328.177 744.084C325.571 746.641 316.251 755.9 310.726 760.549M97.8333 807.141L473.165 673.367Z" fill="#E7ECF8"/>
<path d="M479.093 677.612C477.594 678.086 476.99 679.843 477.885 681.116C503.61 718.429 495.287 768.525 497.42 821.681C498.195 841.078 500.46 860.89 506.398 880.533H511.168C505.12 860.959 502.895 841.127 502.1 821.504C499.987 768.95 508.823 717.797 481.76 678.55C481.589 678.303 481.378 678.086 481.126 677.918C480.442 677.799 479.757 677.711 479.073 677.622L479.093 677.612ZM492.408 681.264C491.231 681.955 490.909 683.485 491.714 684.581C515.869 718.469 510.706 770.953 517.298 824.82C519.582 843.467 523.356 862.301 530.381 880.523H535.273C528.077 862.252 524.272 843.26 521.947 824.268C515.526 771.773 521.011 719.308 496.565 683.406C495.76 682.913 494.985 682.478 494.25 682.113C493.636 681.817 493.022 681.531 492.398 681.264H492.408ZM509.156 693.356C507.887 694.018 507.525 695.637 508.391 696.762C530.985 727.244 528.268 779.877 538.614 832.283C541.835 848.61 546.404 864.927 553.509 880.513H558.532C551.174 864.769 546.535 848.166 543.224 831.404C533.642 782.838 536.007 733.058 516.271 700.167C515.355 699.249 514.429 698.331 513.524 697.453C512.044 696.022 510.595 694.649 509.166 693.346L509.156 693.356ZM527.895 712.447C526.617 712.487 525.933 713.938 526.718 714.925C537.376 728.656 542.62 748.289 546.847 770.677C551.074 793.065 554.294 818.167 561.199 842.786C564.812 855.648 569.462 868.382 575.782 880.513H579.214C572.672 868.194 567.912 855.184 564.208 841.976C557.384 817.644 554.164 792.64 549.916 770.124C546.032 749.503 541.291 730.926 531.911 716.84C530.744 715.527 529.556 714.204 528.348 712.891C528.218 712.743 528.077 712.595 527.936 712.447H527.885H527.895ZM545.075 732.15C543.395 732.555 542.72 734.539 543.827 735.852C553.55 747.697 558.985 765.909 563.987 786.925C568.989 807.941 573.618 831.701 582.314 854.631C585.655 863.456 589.631 872.162 594.451 880.523H599.765C594.522 871.708 590.275 862.469 586.702 853.032C578.197 830.575 573.588 807.033 568.546 785.889C564.51 768.94 560.243 753.511 553.228 741.37C553.087 741.231 552.946 741.103 552.805 740.955C551.909 740.076 551.034 739.158 550.168 738.201C549.303 737.243 548.447 736.246 547.602 735.22C546.807 734.243 545.961 733.216 545.075 732.15ZM561.36 747.964C560.243 748.26 559.83 749.602 560.595 750.461C581.207 773.905 583.461 833.418 613.775 880.523H617.429C587.497 834.682 585.464 775.701 563.906 749.573C563.051 749.069 562.195 748.536 561.36 747.973V747.964ZM568.898 752.129C568.948 752.356 569.049 752.563 569.19 752.741C587.155 776.264 593.576 820.832 616.633 859.369C621.022 866.704 626.044 873.821 631.861 880.523H635.937C629.516 873.396 624.061 865.746 619.321 857.82C597.592 821.504 591.06 779.196 573.9 754.005C573.578 753.906 573.266 753.807 572.944 753.709C571.927 753.373 570.921 752.998 569.924 752.583C569.582 752.435 569.23 752.287 568.888 752.129H568.898ZM602.382 753.945C600.601 754.153 598.991 754.37 597.571 754.587C597.612 754.765 597.672 754.942 597.753 755.11C614.439 789.995 631.992 820.526 663.946 840.97C691.754 858.757 730.23 868.747 788 867.72V863.12C730.824 864.147 693.344 854.276 666.513 837.11C635.927 817.545 618.868 788.297 602.382 753.945ZM577.624 754.962C594.592 781.387 603.842 821.336 628.54 854.611C635.464 863.94 643.636 872.725 653.53 880.523H658.521C647.481 872.33 638.564 862.893 631.066 852.805C607.525 821.089 598.256 782.69 581.7 755.614C580.834 755.515 579.969 755.397 579.113 755.248C578.62 755.16 578.127 755.061 577.624 754.962ZM594.24 755.16C593.697 755.258 593.163 755.347 592.62 755.426C609.347 787.063 623.94 820.151 652.906 844.513C675.299 863.347 706.277 876.901 753.308 880.523H788V879.872C721.052 881.264 681.106 866.21 653.932 843.349C625.43 819.381 610.907 786.718 594.24 755.16ZM587.728 755.86C587.135 755.88 586.541 755.88 585.947 755.88C602.624 784.822 614.53 820.872 641.03 849.34C652.382 861.541 666.432 872.32 684.649 880.533H688.423C668.858 872.251 654.053 861.067 642.177 848.314C616.18 820.398 604.294 784.872 587.728 755.87V755.86Z" fill="#E7ECF8"/>
<path d="M637.698 763.975C636.712 763.975 635.706 764.004 634.709 764.054C626.708 764.409 618.385 766.048 609.458 769.799C608.25 770.292 607.686 771.654 608.2 772.829C608.713 774.004 610.112 774.547 611.299 774.023C628.137 766.946 642.227 767.824 657.193 770.569C672.159 773.313 687.9 778.021 707.173 778.189C708.159 778.189 709.045 777.607 709.387 776.699C708.189 775.81 706.992 774.922 705.814 774.033C705.603 773.875 705.391 773.717 705.18 773.55C687.577 773.086 672.813 768.752 658.048 766.048C651.346 764.824 644.623 763.945 637.678 763.984L637.698 763.975ZM682.978 781.17C659.951 781.131 638.836 785.898 623.377 793.756C620.619 795.167 622.763 799.234 625.53 797.843C648.88 785.977 687.225 781.279 724.433 791.229C725.641 791.564 726.899 790.913 727.302 789.748C725.52 788.425 723.749 787.142 721.988 785.859C708.823 782.661 695.609 781.19 682.978 781.17ZM689.148 788.287C664.641 788.258 641.513 793.016 626.144 800.833C625.359 801.209 625.037 802.156 625.44 802.916C625.842 803.676 626.809 803.973 627.584 803.558C651.074 791.614 695.206 786.846 732.555 796.836C733.612 797.142 734.659 796.303 734.548 795.227C733.864 794.694 733.179 794.18 732.495 793.657C718.435 789.985 703.55 788.317 689.148 788.297V788.287ZM699.262 794.852C697.441 794.852 695.629 794.891 693.827 794.96C669.774 795.829 647.239 801.742 632.072 809.451C631.68 809.639 631.519 810.112 631.72 810.497C631.921 810.882 632.404 811.021 632.797 810.813C656.619 798.701 699.544 790.992 737.074 801.031C738.071 801.278 738.473 799.827 737.487 799.55C725.017 796.214 711.984 794.802 699.262 794.852ZM745.045 803.696C723.88 806.026 707.042 804.565 690.758 804.545C674.131 804.535 658.048 806.115 639.238 815.038C638.061 815.581 637.567 816.963 638.131 818.118C638.695 819.263 640.114 819.747 641.281 819.184C659.357 810.606 674.423 809.135 690.758 809.145C707.092 809.155 724.645 810.724 746.958 808.109C747.722 808.03 748.407 807.595 748.779 806.934C747.531 805.828 746.283 804.752 745.045 803.696ZM740.154 813.321H736.45C706.7 813.478 674.152 817.308 653.64 827.041C652.473 827.594 651.99 828.976 652.553 830.111C653.117 831.256 654.516 831.73 655.683 831.177C681.227 819.046 729.949 816.203 764.339 818.888C765.476 819.006 766.533 818.296 766.845 817.21C764.55 816.311 762.396 815.403 760.404 814.456C760.031 814.278 759.679 814.11 759.317 813.933C753.207 813.567 746.766 813.35 740.144 813.321H740.154ZM779.918 826.508C745.508 826.597 701.185 833.221 678.016 844.217C676.809 844.74 676.285 846.152 676.859 847.317C677.433 848.482 678.882 848.955 680.059 848.353C703.509 837.219 753.519 830.259 788 831.227V826.617C786.43 826.577 784.84 826.538 783.209 826.518C782.123 826.508 781.026 826.508 779.908 826.508H779.918ZM784.558 840.121C782.465 840.121 780.371 840.15 778.308 840.2C753.469 840.881 730.804 845.737 710.625 855.312C709.407 855.836 708.884 857.247 709.468 858.422C710.041 859.596 711.501 860.06 712.668 859.458C734.689 849.005 759.9 844.316 788 844.75V840.15C786.853 840.14 785.695 840.121 784.558 840.121Z" fill="#E7ECF8"/>
<path d="M204.798 767.745C203.429 767.735 202.04 767.883 200.641 768.258C197.451 769.117 194.421 771.21 191.825 774.694C186.903 781.338 185.011 787.616 182.847 791.248C181.76 793.065 180.754 794.141 179.335 794.792C177.916 795.444 175.832 795.75 172.39 795.226C168.194 794.595 164.812 795.226 162.668 797.378C160.524 799.53 160.051 802.353 159.75 805.226C159.136 810.961 159.357 817.723 155.754 823.774C152.262 829.637 142.026 837.445 131.408 844.197C120.79 850.949 109.901 856.832 104.436 860.406C98.729 864.137 95.3977 868.915 91.2209 873.297C88.8055 875.824 86.1082 878.282 82.4448 880.543V886.614C88.0607 883.642 91.9758 880.227 95.1461 876.9C99.6549 872.182 102.704 867.878 107.425 864.788C112.386 861.541 123.518 855.5 134.337 848.61C145.156 841.729 155.774 834.198 160.404 826.419C164.913 818.838 164.56 810.823 165.104 805.769C165.376 803.242 165.919 801.662 166.533 801.05C167.147 800.428 168.244 799.925 171.585 800.428C175.671 801.05 178.952 800.784 181.63 799.55C184.307 798.316 186.118 796.204 187.497 793.904C190.255 789.294 191.845 783.648 196.183 777.784C198.226 775.02 200.118 773.855 202.07 773.322C204.023 772.799 206.217 772.957 208.743 773.539C213.795 774.714 219.764 777.725 226.456 777.725C231.801 777.725 239.409 779.097 245.669 781.762C251.929 784.427 256.549 788.287 257.435 792.65C258.824 799.441 264.329 804.89 270.579 809.085C276.829 813.271 283.975 816.203 289.621 817.436C294.472 818.493 301.003 820.99 306.408 823.981C311.813 826.972 315.959 830.792 316.623 832.747C317.408 835.047 319.009 835.945 321.082 837.327C323.155 838.709 325.853 840.199 329.023 841.789C335.363 844.967 343.596 848.54 352.03 851.966C360.474 855.391 369.119 858.668 376.245 861.235C383.381 863.801 388.846 865.637 391.513 866.289C395.79 867.335 405.834 870.79 415.577 873.11C420.448 874.265 425.279 875.163 429.546 875.311C433.813 875.459 437.728 875.045 440.416 872.409C441.966 870.889 443.012 870.405 443.334 870.346C443.656 870.287 443.586 870.237 444.17 870.711C445.327 871.669 447.31 874.936 450.52 878.085C453.67 881.175 459.528 885.755 465.859 889.308C469.029 891.085 472.3 892.595 475.49 893.464C478.681 894.333 481.871 894.639 484.759 893.415C488.393 891.895 495.226 890.187 501.889 889.644C508.542 889.101 515.053 889.891 518.063 892.003C521.213 894.204 526.144 896.416 531.891 898.449V892.773C527.131 890.967 523.216 889.141 521.193 887.719C516.09 884.146 508.693 883.8 501.446 884.393C494.2 884.985 487.135 886.692 482.646 888.578C481.489 889.071 479.466 889.081 476.929 888.39C474.393 887.699 471.434 886.367 468.526 884.738C462.698 881.471 456.962 876.96 454.315 874.373C451.738 871.846 450.239 868.865 447.632 866.694C446.323 865.608 444.301 864.779 442.278 865.183C440.245 865.578 438.534 866.802 436.611 868.697C435.826 869.467 433.371 870.188 429.737 870.06C426.104 869.931 421.525 869.112 416.835 867.997C407.465 865.766 397.803 862.409 392.811 861.185C390.838 860.702 385.162 858.846 378.097 856.299C371.032 853.752 362.447 850.495 354.083 847.109C345.72 843.713 337.578 840.18 331.468 837.11C328.409 835.58 325.863 834.148 324.091 832.984C322.33 831.809 321.505 830.506 321.706 831.098C320.055 826.232 314.923 822.668 309.035 819.411C303.147 816.153 296.344 813.527 290.768 812.313C285.987 811.267 279.224 808.523 273.598 804.752C267.972 800.981 263.624 796.214 262.688 791.643C261.259 784.635 254.868 779.975 247.803 776.965C240.738 773.954 232.696 772.483 226.456 772.483C221.555 772.483 215.949 769.818 209.981 768.436C208.491 768.091 206.952 767.834 205.392 767.765C205.2 767.765 204.999 767.745 204.808 767.745H204.798Z" fill="#E7ECF8"/>
<path d="M204.788 770.381C204.285 770.381 203.791 770.39 203.298 770.44C202.916 770.479 202.533 770.539 202.161 770.608C202.201 770.854 202.292 771.081 202.433 771.279C220.116 796.924 214.399 831.355 215.859 867.888C216.664 887.956 219.774 908.646 230.351 928.655C230.784 928.615 231.227 928.576 231.68 928.516C232.314 928.447 232.988 928.349 233.673 928.25C222.924 908.468 219.894 887.966 219.079 867.76C217.65 832.036 223.568 797.26 205.704 770.41C205.563 770.41 205.422 770.4 205.281 770.39C205.11 770.39 204.949 770.381 204.778 770.381H204.788ZM224.323 774.99C224.333 775.227 224.403 775.464 224.514 775.672C237.89 800.389 229.123 830.871 227.362 863.949C226.275 884.373 228.057 905.793 239.711 927.144C240.738 926.917 241.795 926.68 242.861 926.414C231.146 905.448 229.496 884.501 230.583 864.117C232.294 831.898 241.291 801.1 227.865 775.148C227.382 775.129 226.909 775.119 226.446 775.119C225.732 775.119 225.027 775.069 224.313 775L224.323 774.99ZM249.111 781.278C248.004 781.328 247.28 782.423 247.682 783.43C256.78 807.22 244.703 832.895 239.439 861.659C235.836 881.323 235.696 902.447 248.155 924.993C249.162 924.696 250.178 924.38 251.195 924.055C238.745 902.052 239.047 881.678 242.61 862.222C247.783 833.98 260.384 807.654 250.702 782.325C250.48 781.723 249.927 781.318 249.272 781.278C249.222 781.278 249.162 781.278 249.111 781.278ZM271.092 806.243C271.092 806.302 271.102 806.371 271.122 806.43C273.538 817.871 270.971 827.732 266.634 837.416C262.296 847.099 256.156 856.536 251.708 866.871C247.26 877.206 244.532 888.519 247.209 901.726C248.528 908.212 251.124 915.131 255.402 922.623C255.895 922.446 256.378 922.268 256.871 922.09C257.394 921.893 257.918 921.686 258.441 921.478C254.174 914.085 251.628 907.343 250.369 901.114C247.843 888.647 250.369 878.105 254.677 868.095C258.985 858.086 265.104 848.669 269.582 838.679C273.709 829.459 276.416 819.677 274.776 808.612C273.86 808.079 272.954 807.516 272.078 806.924C271.746 806.697 271.414 806.47 271.082 806.243H271.092ZM295.659 816.943C295.055 816.943 294.572 817.446 294.592 818.039C294.904 829.153 290.456 837.445 284.337 844.957C278.218 852.469 270.418 859.103 264.248 866.723C258.079 874.344 253.56 883.03 254.274 894.431C254.727 901.657 257.243 909.939 262.648 919.731C263.302 919.435 263.956 919.129 264.601 918.823C259.276 909.189 256.851 901.173 256.418 894.303C255.744 883.504 259.941 875.439 265.929 868.036C271.917 860.633 279.727 853.989 286.018 846.28C292.308 838.561 297.068 829.687 296.746 817.989C296.746 817.407 296.253 816.943 295.659 816.953V816.943ZM318.103 829.914C316.241 840.673 309.87 847.415 301.95 852.746C294.019 858.086 284.548 861.936 276.708 866.822C268.868 871.708 262.618 877.69 261.37 887.235C260.404 894.609 262.406 904.026 268.757 916.661C268.928 916.563 269.099 916.464 269.27 916.375C269.411 916.296 269.552 916.207 269.693 916.128C263.433 903.651 261.521 894.441 262.437 887.374C263.634 878.213 269.562 872.517 277.282 867.71C285.001 862.903 294.492 859.043 302.553 853.614C310.293 848.412 316.724 841.7 318.918 831.335C318.817 831.108 318.697 830.871 318.566 830.644C318.425 830.407 318.274 830.16 318.103 829.914ZM340.214 844.118C339.6 846.843 338.242 849.004 336.269 850.84C333.753 853.19 330.21 854.976 326.014 856.437C317.62 859.359 306.69 860.958 296.545 863.653C286.4 866.358 276.929 870.168 271.615 877.868C266.311 885.557 265.426 896.909 271.927 914.055C271.988 914.233 272.109 914.391 272.249 914.509C272.411 914.401 272.582 914.282 272.743 914.174C273.155 913.887 273.548 913.601 273.93 913.305C267.57 896.514 268.566 886.041 273.387 879.052C278.208 872.063 287.125 868.352 297.099 865.696C307.072 863.041 318.012 861.462 326.728 858.431C331.086 856.911 334.9 855.026 337.739 852.37C339.872 850.376 341.432 847.938 342.197 844.997C341.744 844.799 341.271 844.602 340.828 844.404C340.617 844.316 340.416 844.217 340.204 844.128L340.214 844.118ZM362.879 853.437C356.901 862.706 348.196 866.575 338.232 868.253C328.077 869.971 316.724 869.27 306.378 869.457C296.022 869.645 286.491 870.672 280.22 876.535C273.94 882.408 271.565 892.743 274.715 910.294C274.836 910.946 275.359 911.459 276.024 911.578C276.708 910.956 277.322 910.324 277.875 909.682C274.826 892.655 277.241 883.692 282.445 878.835C287.648 873.969 296.283 872.814 306.438 872.626C316.593 872.438 328.097 873.179 338.785 871.382C349.454 869.576 359.417 865.104 365.939 854.621C365.828 854.582 365.718 854.542 365.607 854.493C364.711 854.147 363.795 853.802 362.89 853.446L362.879 853.437Z" fill="#E7ECF8"/>
<path d="M190.798 781.752C190.698 781.752 190.607 781.752 190.506 781.772C190.084 782.542 189.701 783.302 189.329 784.042C189.409 784.2 189.52 784.348 189.661 784.477C200.098 794.437 204.637 809.125 206.499 824.909C208.018 837.81 207.727 851.028 207.535 863.15C197.471 839.745 180.19 823.784 161.994 817.95C161.652 817.841 161.279 817.851 160.937 817.969C160.776 818.621 160.595 819.272 160.394 819.934C160.343 820.102 160.283 820.269 160.223 820.437C160.414 820.684 160.686 820.862 160.987 820.96C179.949 827.041 198.477 845.016 207.525 871.866C208.099 873.564 210.655 873.169 210.665 871.382C210.736 857.592 211.591 840.693 209.689 824.563C207.787 808.424 203.127 792.956 191.895 782.226C191.603 781.94 191.201 781.772 190.778 781.762L190.798 781.752ZM183.22 795.207C183.22 795.207 183.169 795.266 183.139 795.295C182.757 795.68 182.354 796.036 181.911 796.352C181.74 796.47 181.559 796.589 181.378 796.707C181.358 797.161 181.539 797.595 181.861 797.911C192.298 808.108 196.263 819.47 198.487 832.608C189.329 817.121 174.766 807.624 162.819 805.769C162.678 805.749 162.547 805.739 162.407 805.749C162.306 806.726 162.235 807.773 162.155 808.858C162.205 808.868 162.266 808.878 162.316 808.888C174.947 810.852 192.328 822.994 200.027 842.934C200.702 844.671 203.349 844.049 203.137 842.203C201.114 824.445 197.813 809.046 184.136 795.671C183.894 795.424 183.572 795.266 183.22 795.216V795.207ZM152.735 835.501C151.235 835.491 149.695 835.54 148.105 835.639C148.065 835.678 148.024 835.708 147.974 835.747C147.018 836.527 146.022 837.297 144.995 838.077C145.297 838.659 145.931 839.005 146.585 838.936C160.162 837.633 170.176 840.91 178.127 846.922C186.078 852.933 191.946 861.778 196.736 871.649C206.318 891.391 211.33 915.023 221.495 927.677C221.555 927.756 221.626 927.826 221.696 927.885C222.119 927.974 222.612 928.092 223.135 928.23C224.272 927.954 224.745 926.621 224.021 925.713C214.782 914.213 209.458 890.503 199.645 870.287C194.733 860.179 188.644 850.88 180.1 844.414C173.689 839.568 165.889 836.369 156.378 835.649C155.19 835.56 153.973 835.511 152.725 835.501H152.735ZM139.58 844.177C138.463 844.177 137.336 844.207 136.179 844.266C135.082 844.987 133.985 845.707 132.868 846.408C132.566 846.606 132.264 846.793 131.952 846.981C132.284 847.445 132.847 847.691 133.421 847.632C147.018 846.329 157.515 849.32 166.1 854.897C174.695 860.475 181.378 868.717 186.994 877.966C198.226 896.455 204.959 918.813 215.043 931.359C215.094 931.429 215.154 931.498 215.214 931.557C215.365 931.389 215.516 931.211 215.647 931.053C216.332 930.224 216.825 929.553 217.268 929.02C208.089 917.303 201.155 895.113 189.762 876.347C184.005 866.861 177.04 858.214 167.882 852.262C161.008 847.8 152.896 844.888 143.254 844.286C142.046 844.207 140.818 844.168 139.57 844.168L139.58 844.177ZM127.503 851.541C126.477 851.541 125.44 851.571 124.383 851.62C122.813 852.558 121.283 853.466 119.794 854.335C120.136 854.828 120.73 855.085 121.334 855.006C148.538 852.4 165.446 866.279 178.338 884.126C191.231 901.973 199.675 923.65 209.669 936.098C209.76 936.216 209.87 936.325 209.991 936.404C210.474 936.048 210.937 935.683 211.39 935.308C211.752 935.002 212.084 934.716 212.396 934.429C212.346 934.331 212.286 934.232 212.205 934.143C202.795 922.436 194.18 900.591 180.965 882.3C169.401 866.289 153.962 852.903 131.217 851.63C129.999 851.561 128.761 851.531 127.503 851.531V851.541ZM117.036 857.592C116.07 857.592 115.084 857.632 114.087 857.671C112.94 858.342 111.843 858.984 110.826 859.586C110.313 859.892 109.87 860.159 109.397 860.445C109.739 860.889 110.283 861.126 110.847 861.077C138.071 858.461 156.227 871.886 170.327 889.219C184.387 906.514 194.039 927.589 203.962 939.977C204.164 939.888 204.365 939.799 204.556 939.701C205.321 939.335 206.076 938.931 206.811 938.506C206.75 938.358 206.67 938.22 206.569 938.101C197.109 926.325 187.296 904.994 172.853 887.245C160.223 871.708 143.757 858.826 120.79 857.671C119.562 857.612 118.314 857.582 117.046 857.592H117.036ZM103.812 870.178C101.708 870.188 99.5644 870.287 97.3804 870.464C96.5752 871.372 95.7701 872.29 94.9347 873.218C95.287 873.603 95.8204 873.801 96.3438 873.732C123.659 871.116 143.797 882.112 159.739 896.899C175.601 911.607 187.115 930.037 196.907 942.257C197.531 942.139 198.155 942.001 198.769 941.843C199.162 941.744 199.544 941.625 199.937 941.517C199.947 941.142 199.826 940.786 199.584 940.49C189.993 928.556 178.308 909.771 161.954 894.609C147.642 881.342 129.607 870.82 106.338 870.217C105.502 870.188 104.667 870.188 103.822 870.188L103.812 870.178ZM91.7242 886.87C90.9492 886.87 90.1743 886.87 89.3892 886.88C87.1147 886.91 84.7999 887.008 82.4448 887.166V890.335C134.629 886.604 164.943 917.747 183.975 941.231C184.277 941.349 184.568 941.467 184.88 941.576C185.504 941.793 186.138 941.981 186.783 942.139C187.044 942.198 187.306 942.257 187.568 942.307C187.94 941.744 187.9 941.004 187.477 940.48C169.492 918.093 140.406 887.255 91.7141 886.88L91.7242 886.87ZM104.103 907.274C102.785 907.274 101.467 907.294 100.148 907.333C94.3107 907.53 88.3828 908.192 82.4549 909.337V912.565C115.869 905.921 148.87 915.24 166.261 936.048C167.439 936.147 168.596 936.275 169.733 936.433C169.915 935.92 169.824 935.357 169.492 934.933C155.241 917.194 130.824 907.323 104.113 907.264L104.103 907.274ZM110.233 920.965C101.225 921.024 92.0865 922.762 82.4448 925.999V929.316C106.67 920.827 126.839 922.13 150.752 935.979C151.758 935.91 152.805 935.851 153.862 935.811C154.073 935.811 154.285 935.801 154.496 935.792C154.667 935.11 154.355 934.39 153.721 934.044C138.997 925.289 125.39 921.133 111.531 920.975H110.233V920.965ZM112.034 931.29C107.505 931.31 103.208 931.883 99.0209 932.949C93.3748 934.38 87.95 936.67 82.4448 939.572V943.185C88.3426 939.967 94.0088 937.489 99.8361 936.019C110.152 933.403 121.052 933.837 135.092 938.95C136.259 938.585 137.266 938.279 138.131 938.013C138.242 937.262 137.799 936.552 137.074 936.295C129.627 933.511 122.904 931.962 116.654 931.478C115.094 931.35 113.554 931.29 112.044 931.3L112.034 931.29Z" fill="#E7ECF8"/>
<path d="M110.172 740.935C110.172 740.935 92.3482 738.29 85.8566 739.346C79.3651 740.402 73.9605 745.713 63.1513 745.713C52.3421 745.713 28.5599 784.941 14.5 790.252C0.450057 795.553 1.52696 792.374 0.450068 799.797C-0.626824 807.22 -4.95453 807.22 -8.19527 811.465C-11.436 815.709 -4.95452 830.556 -12.523 834.79C-20.0914 839.035 -19.5479 849.104 -19.5479 849.104" stroke="#E7ECF8" stroke-width="5" stroke-miterlimit="10"/>
<path d="M111.934 785.079C111.934 785.079 101.527 792.897 88.5539 793.963C75.5809 795.019 52.8756 796.085 45.3071 804.565C37.7387 813.044 25.5004 818.838 21.5249 821.533C-16.8507 847.514 -54.6928 876.141 -54.6928 876.141" stroke="#E7ECF8" stroke-width="4" stroke-miterlimit="10"/>
</g>
<defs>
<clipPath id="clip0_122_70">
<rect width="1436.63" height="477.5" fill="white" transform="translate(944.373 340.5)"/>
</clipPath>
<clipPath id="clip1_122_70">
<rect width="979" height="292" fill="white" transform="translate(-178 526)"/>
</clipPath>
</defs>
</svg>
