<svg width="58" height="15" viewBox="0 0 58 15" fill="none" xmlns="http://www.w3.org/2000/svg">
<g clip-path="url(#clip0_487_1026)">
<path d="M8.14848 1.18755L9.40673 3.82129C9.58002 4.18644 9.91907 4.43894 10.3071 4.4972L13.125 4.92062C14.1082 5.06824 14.5 6.3113 13.788 7.02606L11.7499 9.07323C11.4674 9.3568 11.3393 9.76468 11.4071 10.1648L11.8893 13.0588C12.0588 14.0649 11.0304 14.8341 10.1526 14.3601L7.63237 12.9928C7.28202 12.8024 6.86763 12.8024 6.51728 12.9928L3.99701 14.3601C3.11925 14.8379 2.09457 14.0688 2.26033 13.0588L2.74253 10.1648C2.81034 9.76468 2.68226 9.3568 2.39971 9.07323L0.361653 7.02218C-0.35035 6.30742 0.0452075 5.06435 1.02468 4.91674L3.84256 4.49332C4.23058 4.43505 4.56963 4.18255 4.74292 3.8174L6.00117 1.18366C6.44193 0.266904 7.70772 0.266904 8.14848 1.18366V1.18755Z" fill="#0BFFD0"/>
<path d="M29.0075 1.18757L30.2658 3.82131C30.4391 4.18646 30.7781 4.43896 31.1661 4.49723L33.984 4.92064C34.9673 5.06826 35.3591 6.31132 34.6471 7.02608L32.609 9.07325C32.3264 9.35683 32.1984 9.76471 32.2662 10.1648L32.7484 13.0588C32.9179 14.0649 31.8895 14.8341 31.0117 14.3602L28.4914 12.9928C28.1411 12.8024 27.7267 12.8024 27.3763 12.9928L24.8561 14.3602C23.9783 14.838 22.9536 14.0688 23.1194 13.0588L23.6016 10.1648C23.6694 9.76471 23.5413 9.35683 23.2588 9.07325L21.2207 7.02608C20.5087 6.31132 20.9043 5.06826 21.8837 4.92064L24.7016 4.49723C25.0896 4.43896 25.4287 4.18646 25.602 3.82131L26.8602 1.18757C27.301 0.27081 28.5668 0.27081 29.0075 1.18757Z" fill="#0BFFD0"/>
<path d="M51.9951 1.18757L53.2533 3.82131C53.4266 4.18646 53.7657 4.43896 54.1537 4.49723L56.9716 4.92064C57.9548 5.06826 58.3466 6.31132 57.6346 7.02608L55.5965 9.07325C55.314 9.35683 55.1859 9.76471 55.2537 10.1648L55.7359 13.0588C55.9054 14.0649 54.877 14.8341 53.9992 14.3602L51.479 12.9928C51.1286 12.8024 50.7142 12.8024 50.3639 12.9928L47.8436 14.3602C46.9658 14.838 45.9412 14.0688 46.1069 13.0588L46.5891 10.1648C46.6569 9.76471 46.5288 9.35683 46.2463 9.07325L44.2082 7.02608C43.4962 6.31132 43.8918 5.06826 44.8713 4.92064L47.6891 4.49723C48.0772 4.43896 48.4162 4.18646 48.5895 3.82131L49.8478 1.18757C50.2885 0.27081 51.5543 0.27081 51.9951 1.18757Z" fill="#0BFFD0"/>
</g>
<defs>
<clipPath id="clip0_487_1026">
<rect width="58" height="14" fill="white" transform="translate(0 0.5)"/>
</clipPath>
</defs>
</svg>
