<?xml version="1.0" encoding="UTF-8" standalone="no"?>
<!DOCTYPE svg PUBLIC "-//W3C//DTD SVG 1.1//EN" "http://www.w3.org/Graphics/SVG/1.1/DTD/svg11.dtd">
<!-- Created with Vectornator (http://vectornator.io/) -->
<svg height="100%" stroke-miterlimit="10" style="fill-rule:nonzero;clip-rule:evenodd;stroke-linecap:round;stroke-linejoin:round;" version="1.1" viewBox="0 0 30 24" width="100%" xml:space="preserve" xmlns="http://www.w3.org/2000/svg" xmlns:vectornator="http://vectornator.io" xmlns:xlink="http://www.w3.org/1999/xlink">
<defs/>
<clipPath id="ArtboardFrame">
<rect height="24" width="30" x="0" y="0"/>
</clipPath>
<g clip-path="url(#ArtboardFrame)" id="riinstagram-line" vectornator:layerName="ri:instagram-line">
<path d="M12 8.72952C11.0654 8.72952 10.1691 9.10079 9.50819 9.76166C8.84732 10.4225 8.47604 11.3189 8.47604 12.2535C8.47604 13.188 8.84732 14.0844 9.50819 14.7453C10.1691 15.4061 11.0654 15.7774 12 15.7774C12.9346 15.7774 13.8309 15.4061 14.4918 14.7453C15.1526 14.0844 15.524 13.188 15.524 12.2535C15.524 11.3189 15.1526 10.4225 14.4918 9.76166C13.8309 9.10079 12.9346 8.72952 12 8.72952ZM12 6.38022C13.5577 6.38022 15.0516 6.999 16.153 8.10046C17.2545 9.20191 17.8733 10.6958 17.8733 12.2535C17.8733 13.8112 17.2545 15.3051 16.153 16.4065C15.0516 17.5079 13.5577 18.1267 12 18.1267C10.4423 18.1267 8.94843 17.5079 7.84698 16.4065C6.74552 15.3051 6.12674 13.8112 6.12674 12.2535C6.12674 10.6958 6.74552 9.20191 7.84698 8.10046C8.94843 6.999 10.4423 6.38022 12 6.38022ZM19.6352 6.08655C19.6352 6.47597 19.4805 6.84944 19.2052 7.12481C18.9299 7.40017 18.5563 7.55487 18.1669 7.55487C17.7775 7.55487 17.404 7.40017 17.1286 7.12481C16.8533 6.84944 16.6986 6.47597 16.6986 6.08655C16.6986 5.69713 16.8533 5.32366 17.1286 5.0483C17.404 4.77294 17.7775 4.61824 18.1669 4.61824C18.5563 4.61824 18.9299 4.77294 19.2052 5.0483C19.4805 5.32366 19.6352 5.69713 19.6352 6.08655ZM12 2.85626C9.09391 2.85626 8.61935 2.86448 7.26733 2.92439C6.3464 2.96785 5.72853 3.09119 5.1553 3.31438C4.6756 3.4905 4.2419 3.77279 3.88668 4.14016C3.51902 4.49537 3.23633 4.92903 3.05972 5.40878C2.83654 5.98436 2.7132 6.60105 2.67091 7.5208C2.60983 8.81762 2.60278 9.27104 2.60278 12.2535C2.60278 15.1596 2.61101 15.6341 2.67091 16.9862C2.71437 17.9059 2.83771 18.5249 3.05972 19.097C3.25941 19.608 3.49434 19.9756 3.88433 20.3656C4.28019 20.7603 4.64785 20.9964 5.15295 21.1914C5.73323 21.4158 6.3511 21.5403 7.26733 21.5826C8.56414 21.6436 9.01756 21.6507 12 21.6507C14.9061 21.6507 15.3806 21.6425 16.7327 21.5826C17.6513 21.5391 18.2703 21.4158 18.8435 21.1938C19.3225 21.0167 19.7559 20.7351 20.1121 20.3692C20.508 19.9733 20.7441 19.6056 20.9391 19.1005C21.1623 18.5214 21.2868 17.9024 21.3291 16.9862C21.3902 15.6893 21.3972 15.2359 21.3972 12.2535C21.3972 9.34739 21.389 8.87283 21.3291 7.5208C21.2856 6.60223 21.1623 5.98201 20.9391 5.40878C20.7621 4.92952 20.4799 4.49603 20.1133 4.14016C19.7582 3.77231 19.3245 3.4896 18.8447 3.3132C18.2691 3.09002 17.6513 2.96668 16.7327 2.92439C15.4359 2.86331 14.9824 2.85626 12 2.85626ZM12 0.506956C15.1915 0.506956 15.5897 0.518703 16.8419 0.577435C18.0929 0.636168 18.9445 0.832335 19.694 1.12365C20.4692 1.42201 21.1223 1.82609 21.7755 2.47802C22.3728 3.06523 22.835 3.77553 23.1298 4.55951C23.42 5.30776 23.6173 6.16056 23.676 7.41156C23.7313 8.66374 23.7465 9.06195 23.7465 12.2535C23.7465 15.445 23.7348 15.8432 23.676 17.0954C23.6173 18.3464 23.42 19.198 23.1298 19.9474C22.8358 20.7319 22.3735 21.4423 21.7755 22.0289C21.1881 22.626 20.4778 23.0882 19.694 23.3833C18.9457 23.6734 18.0929 23.8708 16.8419 23.9295C15.5897 23.9847 15.1915 24 12 24C8.80847 24 8.41026 23.9883 7.15808 23.9295C5.90708 23.8708 5.05546 23.6734 4.30603 23.3833C3.52175 23.0891 2.81132 22.6267 2.22454 22.0289C1.62713 21.4418 1.16493 20.7315 0.870171 19.9474C0.578857 19.1992 0.38269 18.3464 0.323957 17.0954C0.268749 15.8432 0.253478 15.445 0.253478 12.2535C0.253478 9.06195 0.265225 8.66374 0.323957 7.41156C0.38269 6.15938 0.578857 5.30893 0.870171 4.55951C1.16412 3.77505 1.62641 3.06455 2.22454 2.47802C2.81148 1.88039 3.52187 1.41817 4.30603 1.12365C5.05546 0.832335 5.9059 0.636168 7.15808 0.577435C8.41026 0.522227 8.80847 0.506956 12 0.506956Z" fill="#e6ecf9" fill-rule="nonzero" opacity="0" stroke="none" vectornator:layerName="path"/>
<path d="M0.0386691 0.506956L0.0386691 23.4204L10.1224 23.4204C11.2575 23.4204 12.3012 23.3158 13.2712 23.1113C14.2412 22.9066 15.0674 22.5094 15.7828 21.9521C16.4158 21.4653 16.9376 20.8872 17.3572 20.1747C18.0177 19.0952 18.3693 17.8584 18.3693 16.5039C18.3693 15.1493 18.085 14.0665 17.5071 13.1422C16.9292 12.218 16.0626 11.5633 14.9206 11.1329C15.6705 10.7378 16.2598 10.2989 16.645 9.81917C17.3329 8.97258 17.6571 7.85438 17.6571 6.4575C17.6571 5.06061 17.326 3.91486 16.645 2.94127C15.5029 1.35391 13.5589 0.549286 10.8346 0.506956L0.0386691 0.506956ZM22.6802 1.82071L22.6802 4.1391L32.3891 4.1391L32.3891 1.82071L22.6802 1.82071ZM4.4995 4.48686L9.37268 4.48686C10.4459 4.48686 11.3088 4.59476 11.9967 4.83462C12.7947 5.17326 13.1963 5.88746 13.1963 6.95982C13.1963 7.92634 12.902 8.59517 12.2966 8.96909C11.6913 9.35006 10.9119 9.54869 9.93497 9.54869L4.4995 9.54869L4.4995 4.48686ZM27.8158 6.03246C25.3943 6.03246 23.4509 6.82328 21.9305 8.38949C20.4102 9.95569 19.6439 12.178 19.6439 15.1128C19.6439 18.2453 20.4699 20.5236 22.1554 21.9134C23.8341 23.3034 25.7643 24 27.9657 24C30.628 24 32.7093 23.1709 34.1884 21.527C35.1446 20.49 35.6834 19.4764 35.8003 18.4745L31.377 18.4745C31.1224 18.9683 30.852 19.3515 30.5148 19.6337C29.9025 20.1557 29.0994 20.4065 28.1157 20.4065C27.187 20.4065 26.377 20.2115 25.7166 19.7883C24.6297 19.1039 24.0541 17.895 23.9922 16.1947L36.0252 16.1947C36.0459 14.7343 35.9922 13.6161 35.8753 12.8331C35.6758 11.5067 35.2375 10.3257 34.5633 9.31685C33.8134 8.17395 32.8701 7.33438 31.7143 6.80526C30.5655 6.27614 29.2536 6.03246 27.8158 6.03246ZM27.8158 9.66461C28.834 9.66461 29.7144 9.98524 30.4023 10.592C31.0903 11.1987 31.4512 12.08 31.5269 13.2581L24.1047 13.2581C24.2629 12.1576 24.6239 11.2797 25.2293 10.6306C25.8415 9.9886 26.7083 9.66461 27.8158 9.66461ZM4.4995 13.3354L10.0099 13.3354C10.9731 13.3424 11.6919 13.4749 12.2216 13.7218C13.1711 14.1662 13.6461 15.0024 13.6461 16.1947C13.6461 17.6057 13.1679 18.5532 12.1841 19.0541C11.6475 19.3222 10.905 19.4405 9.93497 19.4405L4.4995 19.4405L4.4995 13.3354Z" fill="#e6ecf9" fill-rule="nonzero" opacity="0" stroke="none" vectornator:layerName="Curve 1"/>
<path d="M18.875 6.09428L18.875 7.96928L26.9688 7.96928L26.9688 6.09428L18.875 6.09428Z" fill="#e6ecf9" fill-rule="nonzero" opacity="1" stroke="none" vectornator:layerName="Curve 2"/>
<path d="M23.1562 9.50053C21.1375 9.50053 19.5175 10.1401 18.25 11.4068C16.9826 12.6734 16.3437 14.4708 16.3438 16.8443C16.3438 19.3777 17.0324 21.2203 18.4375 22.3443C19.8369 23.4684 21.446 24.0318 23.2812 24.0318C25.5006 24.0318 27.2357 23.3613 28.4688 22.0318C29.2659 21.1931 29.715 20.3733 29.8125 19.563L26.125 19.563C25.9128 19.9624 25.6873 20.2723 25.4062 20.5005C24.8958 20.9227 24.2264 21.1255 23.4062 21.1255C22.6321 21.1255 21.9568 20.9678 21.4062 20.6255C20.5001 20.072 20.0204 19.0944 19.9688 17.7193L30 17.7193C30.0172 16.5382 29.9725 15.6338 29.875 15.0005C29.7087 13.9279 29.3433 12.9727 28.7812 12.1568C28.1561 11.2325 27.3697 10.5535 26.4062 10.1255C25.4485 9.69761 24.3549 9.50053 23.1562 9.50053ZM23.1562 12.438C24.0051 12.438 24.739 12.6973 25.3125 13.188C25.886 13.6787 26.1869 14.3915 26.25 15.3443L20.0625 15.3443C20.1944 14.4542 20.4953 13.7442 21 13.2193C21.5104 12.7001 22.233 12.438 23.1562 12.438Z" fill="#e6ecf9" fill-rule="nonzero" opacity="1" stroke="none" vectornator:layerName="Curve 3"/>
<path d="M0 5.50053L0 24.0318L8.40625 24.0318C9.35253 24.0318 10.2225 23.9472 11.0312 23.7818C11.8399 23.6163 12.5286 23.295 13.125 22.8443C13.6527 22.4506 14.0877 21.9831 14.4375 21.4068C14.9881 20.5338 15.2813 19.5335 15.2812 18.438C15.2812 17.3425 15.0442 16.4668 14.5625 15.7193C14.0807 14.9719 13.3582 14.4423 12.4062 14.0943C13.0314 13.7748 13.5226 13.4198 13.8438 13.0318C14.4173 12.3471 14.6875 11.4428 14.6875 10.313C14.6875 9.1833 14.4115 8.25667 13.8438 7.46928C12.8916 6.1855 11.2711 5.53477 9 5.50053L0 5.50053ZM3.71875 8.71928L7.78125 8.71928C8.67592 8.71928 9.39524 8.80654 9.96875 9.00053C10.634 9.2744 10.9687 9.85201 10.9688 10.7193C10.9688 11.501 10.7235 12.0419 10.2188 12.3443C9.71411 12.6524 9.06438 12.813 8.25 12.813L3.71875 12.813L3.71875 8.71928ZM3.71875 15.8755L8.3125 15.8755C9.1154 15.8812 9.71468 15.9883 10.1562 16.188C10.9478 16.5474 11.3438 17.2237 11.3438 18.188C11.3438 19.3291 10.9451 20.0954 10.125 20.5005C9.67765 20.7173 9.05864 20.813 8.25 20.813L3.71875 20.813L3.71875 15.8755Z" fill="#e6ecf9" fill-rule="nonzero" opacity="1" stroke="none" vectornator:layerName="Curve 4"/>
</g>
</svg>
