<svg width="3185" height="2305" viewBox="0 0 3185 2305" fill="none" xmlns="http://www.w3.org/2000/svg">
<mask id="mask0_519_66" style="mask-type:luminance" maskUnits="userSpaceOnUse" x="2" y="446" width="3183" height="1859">
<path d="M3184.16 446.338H2.47046V2305H3184.16V446.338Z" fill="white"/>
</mask>
<g mask="url(#mask0_519_66)">
<path d="M3056.9 826.699C2965.22 890.004 2880.2 973.438 2797.64 1056.71C2758.13 1096.53 2719.2 1136.36 2680.56 1173.83C2671.08 1165.54 2661.62 1157.48 2652.2 1149.66C2605.68 1111.12 2559.92 1078.72 2513.12 1055.51C2466.29 1032.3 2433.22 1026.33 2381.41 1026.23C2353.66 1026.2 2315.98 1033.59 2289.18 1039.5C2262.39 1045.4 2232.63 1065.06 2206.83 1075.97C2131.6 1106.68 2009.2 1188.72 1989.44 1178.77C1930.84 1149.29 1813.05 1082.94 1722.4 1124.06C1579.4 1188.32 1450.44 1301.44 1306.8 1301.27C1274.53 1301.44 1242.48 1280.61 1210.43 1268.31C1178.4 1256.01 1112.9 1225.46 1080.33 1201.99C915.895 1083.47 831.489 1014.62 686.706 979.805C650.539 972.211 626.708 966.706 590.343 965.645C481.25 962.395 371.712 988.991 264.562 1048.28C240.5 1057.67 216.553 1066.89 192.672 1075.87C121.014 1102.87 49.833 1127.94 -22.9454 1149.79C-22.9454 1363.18 -24.23 1579.13 -23.7853 1792.32V1842.69V1851.68V2005.88V2714.14H3179.22V1997.03V1648.77V757.956C3136.68 776.128 3096.09 799.673 3056.94 826.699H3056.9Z" fill="#00D8DB"/>
<path d="M3056.78 384.603C2965.1 424.161 2880.09 476.299 2797.54 528.332C2758.03 553.22 2719.1 578.107 2680.46 601.523C2670.98 596.343 2661.52 591.307 2652.1 586.417C2605.58 562.338 2559.83 542.092 2513.03 527.586C2466.21 513.081 2433.14 509.351 2381.33 509.289C2353.58 509.268 2315.9 513.889 2289.11 517.577C2262.31 521.266 2232.55 533.554 2206.76 540.372C2131.54 559.561 2009.14 610.828 1989.38 604.611C1930.79 586.189 1813.01 544.724 1722.36 570.419C1579.37 610.579 1450.42 681.263 1306.78 681.159C1274.52 681.263 1242.47 668.249 1210.43 660.561C1178.4 652.873 1112.9 633.788 1080.33 619.117C915.906 545.055 831.506 502.036 686.732 480.277C650.568 475.532 626.738 472.092 590.376 471.429C481.289 469.398 371.758 486.017 264.614 523.069C240.554 528.933 216.609 534.694 192.73 540.31C121.076 557.178 49.8994 572.844 -22.8744 586.5C-22.8744 719.848 -24.1589 854.791 -23.7143 988.015V1019.49V1025.11V1121.47V1564.05H3179.09V1115.93V898.308V341.645C3136.55 353.001 3095.96 367.714 3056.81 384.603H3056.78Z" fill="#00D8DB"/>
<path d="M900.821 546.589C919.497 557.302 946.126 560.783 961.442 578.46C1058.26 685.552 1164.83 789.309 1289.28 812.559C1314.16 817.201 1339.77 818.631 1366.15 816.227C1342.32 815.419 1319.2 812.124 1296.72 806.612C1184.36 779.093 1088.25 696.535 1001.02 596.136C975.489 565.612 946.34 555.23 912.333 544.516L900.805 546.589H900.821ZM1809.6 563.477C1659.8 620.215 1514.25 702.151 1356.02 707.124C1324.93 708.844 1293.86 708.015 1262.76 703.954C1231.7 699.871 1200.6 692.515 1169.54 681.263C1113.36 661.991 1069.95 610.579 1013.78 589.691C1083.36 649.123 1159 701.343 1238.64 735.286C1265.18 746.6 1292.18 755.884 1319.53 762.722C1375.09 776.046 1432.54 779.258 1488.71 772.835C1414.67 764.794 1338.06 768.006 1266.57 737.482C1477.23 779.258 1680.22 670.011 1870.45 572.015C1865.34 573.631 1860.24 567.187 1855.13 570.399C1692.98 642.699 1534.67 743.906 1359.6 740.86C1329.92 740.632 1300.51 737.399 1271.52 730.395C1242.56 723.391 1214 712.595 1186.14 697.323C1217.2 705.363 1248.3 710.212 1279.38 712.367C1472.11 729.463 1652.13 636.275 1832.14 565.591C1824.48 565.591 1816.83 562.379 1809.58 563.457L1809.6 563.477Z" fill="#E7ECF8"/>
<path d="M3189.93 395.295C3188.97 395.606 3188.03 395.896 3187.1 396.207C3133.7 413.738 3086.16 437.797 3039.24 464.632C2945.4 518.303 2854.04 583.184 2731.09 628.815C2730.33 629.084 2729.7 629.395 2729.26 629.726C2731.96 631.322 2734.66 632.897 2737.38 634.493C2741.11 634.679 2744.87 634.223 2747.27 633.291C2873.32 586.5 2964.76 521.245 3057.88 467.968C3100.62 443.516 3143.72 421.613 3189.93 405.242V395.295ZM3189.93 440.636C3141.66 455.701 3100.06 476.174 3059.12 499.259C2975.15 546.609 2893.86 605.088 2770.79 650.76C2769.14 651.34 2768.17 652.065 2768.01 652.853C2769.75 653.909 2771.48 654.945 2773.21 656.023C2777.76 656.893 2783.6 656.562 2786.95 655.236C2912.86 608.507 2994.53 549.531 3077.7 502.637C3113.78 482.287 3150.16 464.238 3189.93 450.437V440.615V440.636ZM3189.93 468.859C3154.08 483.489 3121.25 501.808 3087.97 522.074C3010.04 569.508 2929.5 627.592 2805.93 673.45C2804.78 673.865 2804.12 674.383 2804.11 674.942C2805.14 675.585 2806.18 676.227 2807.22 676.849C2810.27 677.512 2814.38 677.326 2816.72 676.414C2942.16 629.851 3022.99 571.393 3100.57 524.167C3130.13 506.159 3159.25 489.81 3189.93 476.382V468.818V468.859ZM3189.93 499.715C3168.19 512.376 3146.81 526.716 3124.84 542.009C3050.8 593.566 2969.96 656.064 2847.68 701.964C2848.85 702.69 2850.02 703.415 2851.19 704.14C2975.61 657.764 3056.98 594.706 3131.3 542.942C3151.13 529.14 3170.45 516.148 3189.91 504.481V499.694L3189.93 499.715ZM3189.93 566.337C3164.25 579.827 3142.93 596.011 3122.01 613.169C3067.58 657.847 3015.59 709.01 2909.34 735.783C2907.36 736.26 2905.98 736.964 2905.44 737.731C2907.56 739.036 2909.7 740.363 2911.84 741.668C2915.43 742.124 2919.52 741.938 2922.55 741.171C3036.43 712.491 3087.86 660.043 3141.94 615.677C3157.34 603.036 3172.95 591.038 3189.94 580.428V566.337H3189.93Z" fill="white"/>
<path d="M1995.57 613.791C1995.57 613.791 1888.33 557.571 1780.83 561.239C1673.32 564.907 1440.21 703.767 1270.16 673.968C1100.1 644.191 902.715 519.007 678.86 482.329C455.005 445.65 287.653 519.898 287.653 519.898C287.653 519.898 55.0043 584.863 -22.8748 586.479" stroke="#E7ECF8" stroke-width="6" stroke-miterlimit="10"/>
<path d="M2680.18 600.881C2708.06 576.864 2738.02 555.831 2767.92 536.103C2797.83 515.92 2829.75 500.979 2860.69 483.655C2896.87 463.575 2931.64 439.558 2967.88 419.603C3014.41 393.762 3062.48 370.719 3111.97 355.716C3134.02 349.002 3156.35 343.407 3178.96 340.92L3179.16 342.35C3157.3 349.706 3135.8 357.85 3114.45 366.699C3071.87 384.437 3029.57 404.144 2987.51 423.851C2946.13 444.241 2902.04 463.119 2862.26 487.882C2841.98 500.337 2822.48 514.78 2802.62 528.187C2777.76 544.889 2752.35 560.182 2726.95 575.517C2711.65 584.697 2696.32 593.67 2680.74 602.145L2680.18 600.881Z" fill="#E7ECF8"/>
<path d="M841.107 524.022C877.584 540.994 923.943 576.615 928.257 630.099C929.328 643.963 927.286 658.157 922.922 670.757C918.64 682.32 913.436 694.069 910.027 706.047C903.061 728.924 899.569 754.951 905.432 778.657C927.566 866.81 1056.41 885.191 1119.69 886.683C1051.51 893.998 920.83 878.788 895.979 782.263C888.041 748.838 895.699 713.486 907.919 683.521C910.01 678.486 912.991 671.585 914.984 666.405C921.126 649.599 922.592 630.369 917.849 612.9C906.585 572.098 870.816 542.341 841.09 524.001L841.107 524.022Z" fill="#E7ECF8"/>
<path d="M783.484 505.828C821.723 525.431 882.475 569.963 886.922 626.97C889.359 664.996 881.355 691.023 858.662 715.931C851.91 723.702 845.52 731.079 841.584 740.093C833.646 758.702 834.651 781.6 844.466 799.38C854.183 817.864 868.049 832.929 882.179 846.316C904.049 866.81 927.697 883.989 952.005 899.738C934.845 891.781 918.228 881.937 902.073 870.955C873.829 850.999 829.332 815.585 826.993 770.597C825.033 708.285 871.787 710.585 877.403 652.417C878.276 644.356 878.589 635.985 878.16 627.841L877.897 623.924C877.699 622.867 877.205 619.179 877.024 618.101C867.374 570.212 816.42 528.685 783.5 505.807L783.484 505.828Z" fill="#E7ECF8"/>
<path d="M750.958 498.927C794.665 520.686 853.606 570.461 849.275 637.56C843.873 685.801 790.104 672.642 765.451 716.656C761.992 722.687 759.044 729.421 756.969 736.405C749.18 757.894 755.85 779.859 767.855 797.017C798.404 840.265 854.907 871.369 897.544 892.651C851.745 876.28 794.468 848.637 761.333 804.208C745.211 781.621 738.607 756.257 749.526 727.328C755.899 708.305 767.657 692.329 782.1 682.651C795.439 673.243 811.579 668.394 824.704 660.52C839.41 652.044 842.852 637.601 840.53 618.412C834.124 564.368 786.991 522.8 750.958 498.948V498.927Z" fill="#E7ECF8"/>
<path d="M892.686 541.45C928.735 558.649 970.614 599.783 960.437 654.407C956.781 674.528 952.417 696.825 950.045 716.967C948.431 730.768 947.591 744.777 949.815 757.583C953.602 781.393 970.202 796.499 985.716 808.643C1004.69 822.692 1026.41 831.209 1047.98 836.784C1083.74 846.357 1120.67 849.818 1157.23 851.268C1191.27 852.74 1225.28 851.6 1259.37 850.191C1236.81 853.859 1214.12 856.387 1191.36 858.065C1128.02 861.795 1035.88 860.49 980.528 819.128C963.022 805.431 944.528 787.133 940.675 759.987C938.353 745.025 939.571 729.96 941.515 715.268C944.232 694.463 949.271 672.601 953.537 652.293C964.225 601.13 925.079 561.902 892.702 541.45H892.686Z" fill="#E7ECF8"/>
<path d="M-30.1538 901.479C5.64847 907.923 42.373 907.757 78.4717 905.955C114.406 903.737 151.048 898.743 186.587 891.698C237.836 881.689 288.131 865.753 338.376 849.59C388.44 834.007 440.085 818.299 491.153 808.85C532.39 800.934 574.631 798.427 616.198 803.752C636.948 806.529 657.517 810.798 678.003 815.73C729.055 828.847 777.571 853.506 827.784 870.354C900.162 895.884 975.966 904.338 1050.7 894.951C1078.6 891.615 1107.52 885.937 1134.95 878.746C1397.75 802.944 1660.1 716.346 1908.57 582.728C1761.69 674.528 1599.15 740.114 1439.93 797.038C1400.88 810.342 1358.33 824.661 1319.13 836.597C1253.31 856.387 1187.78 877.171 1121.25 893.024C1107.2 896.257 1089.02 899.448 1074.73 901.499C1002.13 912.13 928.043 906.576 857.097 884.383C796.329 866.748 738.591 835.064 677.328 820.164C652.197 814.466 625.799 810.031 600.289 808.601C569.345 806.985 538.253 809.409 507.654 815.295C451.349 825.987 395.883 843.539 340.484 860.303C295.196 874.457 249.364 888.9 203.121 897.707C162.197 906.037 120.087 910.845 78.6364 912.109C64.2924 912.275 46.2266 912.233 31.7509 911.218C10.9513 909.933 -9.86475 907.757 -30.335 902.722L-30.1373 901.499L-30.1538 901.479Z" fill="#E7ECF8"/>
<path d="M-32.8049 939.711C-7.29532 946.632 19.5975 948.249 45.6835 948.746C67.3065 949.264 89.7859 947.606 111.442 945.886C118.276 945.057 130.907 943.545 137.643 942.737C237.573 929.785 336.861 897.438 432.575 859.433C449.192 852.988 467.011 847.062 484.237 843.27C492.916 841.094 501.94 839.788 510.603 838.296C519.463 837.405 528.306 836.058 537.216 835.872C540.674 835.706 544.215 835.54 547.212 835.395C559.25 835.395 572.03 835.892 583.871 837.032C588.91 837.675 595.514 838.524 600.454 839.146C632.304 844.202 663.775 853.631 694.489 864.883C761.927 889.667 828.146 919.88 898.055 931.132C967.666 943.814 1038.27 935.546 1107.27 920.792C1211.3 898.722 1313.78 866.209 1415.54 831.416C1648.68 750.703 1878.27 653.619 2107.02 555.292C2122.07 549.718 2131.82 546.112 2145.16 541.201C2162.09 535.772 2179.54 529.741 2196.65 525.307L2222.61 518.386L2248.78 512.791C2253.14 511.9 2257.49 510.822 2261.87 510.117L2275.04 508.066L2288.22 506.014L2294.8 504.978C2296.99 504.626 2299.22 504.502 2301.42 504.253L2327.91 501.601C2407.48 495.488 2488 505.579 2564.56 533.969C2597.92 546.216 2632.27 562.773 2663.93 580.78C2720.15 612.568 2775.09 647.921 2830.18 682.61C2936.3 748.9 3042.11 818.237 3155.64 862.293C3175.53 869.981 3198.89 877.088 3219.64 881.709L3219.49 882.932C3195.86 878.435 3171.65 871.328 3148.59 863.039C2977.45 798.282 2822.9 681.864 2660.17 591.494C2506.47 503.963 2349.07 494.099 2185.98 541.263C2173.15 545.304 2160.36 549.158 2147.78 553.261C2137.86 556.846 2119.1 563.664 2109.91 567C1914.24 650.469 1717.27 730.52 1518.25 800.374C1399.62 842.006 1280.52 882.062 1159.87 913.415C1108.22 926.283 1055.67 938.654 1003.12 943.317C959.07 947.337 914.523 944.001 870.915 935.069C778.412 916.813 692.183 865.588 599.384 850.108L596.14 849.673L589.651 848.823L583.162 847.953C570.976 846.855 562.313 846.316 550.588 846.254C533.28 846.254 515.741 847.891 498.614 851.04L492.142 852.139L485.719 853.631L472.89 856.656C445.898 863.847 410.409 878.601 384.307 888.03C364.215 895.593 340.567 902.763 320.442 909.539L307.547 913.187L281.741 920.502C262.424 926.034 248.162 928.811 229.85 933.329C213.694 936.893 205.756 937.991 190.655 940.996C172.688 944.291 161.176 945.472 144.708 947.938L138.121 948.58L124.929 949.844L111.738 951.108C85.57 952.725 58.6277 953.429 32.4264 951.751C10.4411 950.072 -11.5936 947.627 -33.0684 940.934L-32.8049 939.732V939.711Z" fill="#E7ECF8"/>
<path d="M-34.452 939.711C56.5194 966.111 152.316 980.451 244.621 957.677C279.32 947.586 313.64 935.297 347.648 922.056C384.916 907.84 421.937 890.62 460.242 880.466C471.111 877.751 483.347 875.348 494.315 873.669C507.127 871.991 520.665 870.872 533.576 870.333C546.668 870.064 564.388 870.209 577.695 870.83C610.549 871.949 642.893 881.254 674.216 893.231C742.28 920.294 808.73 954.901 879.445 969.758C949.683 985.59 1022.03 984.305 1092.43 970.712C1124.48 964.536 1156.13 955.75 1187.45 945.078C1287.65 910.617 1385.65 866.624 1483.69 823.48C1679.02 736.508 1875.39 643.424 2074.57 571C2149.68 544.392 2225.62 519.194 2303.38 508.563C2329.29 505.393 2355.57 503.776 2381.41 508.708L2381.26 509.931C2368.4 507.879 2355.39 507.797 2342.46 508.356C2251.64 515.07 2163.7 548.557 2076.75 580.304C1830.21 675.005 1584.14 797.618 1338.76 896.857C1239.66 936.168 1139.04 975.25 1034.69 983.166C930.201 993.962 826.318 966.256 728.051 923.113C679.189 903.053 629.241 882.041 577.431 881.191C535.519 879.824 493.426 881.917 452.601 894.122C417.836 904.131 384.389 919.362 350.085 932.189C318.91 944.104 287.423 954.652 255.721 964.163L246.087 966.795L236.387 968.992C197.637 977.218 158.129 977.944 119.017 974.628C67.0262 969.862 15.4143 958.734 -34.7319 940.975L-34.4684 939.773L-34.452 939.711Z" fill="#E7ECF8"/>
<path d="M2145.55 549.2C2235.93 511.361 2335.33 507.776 2427.61 537.678C2519.2 567.373 2600.89 640.585 2681.33 700.721C2805.21 797.204 2935.01 890.786 3079.89 924.708C3085.72 925.972 3096.44 928.189 3101.76 929.35C3110.09 931.028 3119.82 932.272 3128.15 933.702C3136.01 934.779 3147.19 935.732 3154.7 936.623L3172.45 937.597C3182.99 938.468 3197.55 938.095 3208.03 938.219C3201.37 938.488 3187.57 939.276 3181.33 939.525C3172.54 939.525 3163.3 939.38 3154.6 939.214C3147.64 938.737 3134.45 937.95 3127.89 937.328C3123.43 936.831 3114.59 935.712 3110.12 935.194C3104.67 934.676 3089.31 931.961 3083.56 930.946C2886.45 894.578 2722.31 742.021 2554.49 618.619C2493.69 572.885 2427.01 539.833 2356.38 529.451C2286.13 518.51 2213.63 524.126 2145.55 549.158V549.2Z" fill="#E7ECF8"/>
<path d="M2236.24 519.09C2347.59 497.663 2469.73 509.123 2573.71 566.088C2586.1 572.761 2598.73 580.988 2610.62 589.028C2763.12 698.504 2910.61 827.811 3083.08 882.227C3108.9 890.641 3136.36 897.645 3162.77 902.39C3178.43 905.25 3195.58 907.467 3211.34 909.229C3146.04 906.576 3081.07 891.387 3018.82 866.603C2869.93 808.125 2739.88 696.556 2606.09 599.14C2594.53 591.121 2582.21 582.894 2570.14 576.201C2468.15 518.655 2346.78 504.087 2236.26 519.09H2236.24Z" fill="#E7ECF8"/>
</g>
<mask id="mask1_519_66" style="mask-type:luminance" maskUnits="userSpaceOnUse" x="0" y="145" width="1081" height="725">
<path d="M1080.33 145.075H0V869.141H1080.33V145.075Z" fill="white"/>
</mask>
<g mask="url(#mask1_519_66)">
<path d="M-424.226 601.935C-424.226 601.935 -470.716 514.79 -368.447 502.33C-368.447 502.33 -364.725 402.725 -281.05 350.846C-197.374 298.967 -115.559 373.67 -115.559 373.67C-115.559 373.67 -83.9558 317.638 -31.8828 352.922C-31.8828 352.922 -11.429 220.128 103.85 199.362C219.145 178.614 260.052 257.471 260.052 257.471C260.052 257.471 367.904 224.281 408.811 323.868C408.811 323.868 464.606 245.011 531.534 265.777C598.478 286.525 607.766 375.747 607.766 375.747C607.766 375.747 678.432 332.174 739.793 367.441C801.154 402.725 791.866 483.64 791.866 483.64C791.866 483.64 843.923 456.662 875.526 479.487C907.161 502.312 910.867 512.676 910.867 512.676C910.867 512.676 1016.86 508.523 1016.86 554.172C1016.86 599.821 972.228 622.646 935.059 601.898C897.857 581.15 886.708 574.92 886.708 574.92C886.708 574.92 864.393 639.241 814.181 633.029C763.969 626.799 745.376 574.92 745.376 574.92C745.376 574.92 741.654 633.875 659.839 633.452C578.024 633.029 570.58 562.479 570.58 562.479C570.58 562.479 525.951 686.985 410.672 693.197C295.377 699.427 265.635 633.011 265.635 633.011C265.635 633.011 222.867 653.759 198.691 630.934C174.516 608.11 172.655 587.362 172.655 587.362C172.655 587.362 176.377 637.164 103.85 647.529C31.3229 657.912 9.02475 603.956 9.02475 603.956C9.02475 603.956 -18.8727 699.408 -117.42 703.561C-215.966 707.715 -251.308 620.569 -251.308 620.569C-251.308 620.569 -273.622 693.197 -327.54 689.043C-381.474 684.89 -383.318 618.493 -383.318 618.493C-383.318 618.493 -416.074 624.521 -424.226 601.898V601.935Z" fill="#00D8DB" stroke="#E7ECF8" stroke-width="5" stroke-linecap="round" stroke-linejoin="round"/>
<path d="M61.5922 517.454C44.3333 517.454 25.477 512.217 6.43953 498.985C-56.1898 455.523 -34.4185 353.308 -34.188 352.279L-29.5604 353.547C-29.7745 354.54 -50.7058 453.042 8.95919 494.446C43.7075 518.557 82.754 518.318 113.418 493.784C137.215 474.746 149.039 445.471 143.555 419.209C138.088 393.095 123.892 376.041 104.608 372.421C86.41 369.021 68.0478 378.54 57.8209 396.679C47.7258 414.578 50.6407 428.472 54.8566 436.98C61.6251 450.635 77.1877 460.558 91.8611 460.558C110.141 460.558 120.434 442.843 121.175 425.347C121.718 412.594 116.844 399.178 104.756 397.91L105.2 392.599C120.417 394.198 126.576 410.315 125.934 425.586C125.094 445.599 113.122 465.888 91.8611 465.888C75.2774 465.888 58.3479 455.064 50.6736 439.553C45.8319 429.795 42.4559 413.935 53.7862 393.849C65.0505 373.873 85.3067 363.398 105.415 367.165C126.692 371.153 142.287 389.677 148.216 417.996C154.145 446.389 141.596 477.833 116.218 498.122C102.351 509.203 83.2316 517.436 61.6086 517.436L61.5922 517.454Z" fill="#E7ECF8"/>
<path d="M468.789 478.109C467.801 478.109 466.83 478.109 465.825 478.09C401.434 476.914 342.592 422.903 295.328 379.496C260.382 347.409 230.245 319.751 207.897 321.865C147.59 327.727 131.122 383.282 130.957 383.833L126.412 382.234C126.576 381.646 143.918 322.728 207.502 316.554C231.727 314.201 262.622 342.558 298.375 375.379C345.079 418.254 403.196 471.621 465.924 472.761C525.358 473.808 547.146 442.42 547.64 412.63C548.052 388.152 534.186 367.918 516.745 367.514C497.214 366.963 482.195 375.876 475.492 391.698C470.305 403.938 471.54 417.794 478.621 427.02C487.448 438.524 503.785 439.185 514.67 433.966C519.446 431.688 530.381 424.741 528.981 409.763C527.911 398.314 522.526 390.486 514.572 388.777C507.128 387.196 496.868 391.478 490.758 404.618L486.526 402.155C492.8 388.666 504.444 381.187 515.477 383.539C525.622 385.689 532.456 395.282 533.757 409.212C534.943 422.039 528.52 433.139 516.581 438.855C503.818 444.956 485.456 444.074 475.015 430.493C466.714 419.687 465.216 403.57 471.194 389.438C478.621 371.888 495.649 361.762 516.877 362.203C536.952 362.662 552.91 385.34 552.449 412.759C551.938 443.137 529.673 478.127 468.839 478.127L468.789 478.109Z" fill="#E7ECF8"/>
<path d="M263.791 634.72C263.461 634.261 230.722 588.042 240.817 528.683C246.449 495.494 273.77 479.781 297.831 481.343C316.819 482.611 339.726 495.843 341.752 528.995C343.514 557.646 334.094 578.32 316.555 584.274C301.091 589.53 283.503 580.985 274.742 563.986C266.607 548.2 265.372 532.928 271.3 520.965C276.85 509.773 288.048 502.753 301.256 502.183C315.699 501.54 323.983 514.882 324.822 528.334C325.563 540.389 320.244 549.137 311.582 550.093L311.104 544.781C318.4 543.973 320.491 535.611 320.063 528.683C319.388 517.785 312.768 506.998 301.437 507.494C289.909 507.99 280.21 513.981 275.483 523.537C270.394 533.81 271.597 547.226 278.876 561.321C286.55 576.188 301.816 583.705 315.172 579.165C330.438 573.983 338.59 555.367 336.993 529.363C335.165 499.665 314.612 487.812 297.551 486.672C275.598 485.239 250.649 499.518 245.511 529.675C235.827 586.645 267.2 630.934 267.512 631.375L263.791 634.72Z" fill="#E7ECF8"/>
<path d="M239.533 571.631C238.166 570.069 206.168 532.505 230.871 448.981C242.777 408.753 239.517 373.744 221.945 352.922C208.144 336.548 187.081 331.035 164.174 337.798L162.955 332.652C187.608 325.375 210.368 331.439 225.42 349.265C244.227 371.557 247.866 408.514 235.4 450.653C211.669 530.87 242.613 567.533 242.926 567.9L239.517 571.631H239.533Z" fill="#E7ECF8"/>
<path d="M385.146 619.724C377.521 619.724 370.407 618.291 363.82 615.405C336.729 603.552 328.956 571.796 328.643 570.436L333.254 569.076C333.32 569.37 340.764 599.619 365.598 610.462C386.991 619.798 414.789 612.52 448.204 588.813C485.851 562.111 513.419 536.842 535.585 516.536C571.997 483.144 596.057 461.091 632.979 458.555C663.363 456.442 680.309 478.513 683.619 501.282C687.226 526.165 676.011 557.425 642.827 567.257C619.986 574.02 607.42 566.173 600.915 558.381C592.236 548.016 589.404 531.127 593.9 516.352C597.638 504.057 605.493 495.935 615.457 494.078C634.017 490.624 645.1 501.999 647.834 514.826C650.419 526.937 645.578 538.441 636.553 541.584L635.12 536.493C642.63 533.865 644.886 523.997 643.173 516.058C641.115 506.41 632.815 496.247 616.214 499.334C608.046 500.86 601.541 507.678 598.379 518.061C594.443 531.035 596.848 545.774 604.357 554.742C609.989 561.468 621.023 568.194 641.559 562.093C671.861 553.106 682.137 524.713 678.86 502.128C676.126 483.217 662.524 461.863 633.226 463.866C597.852 466.292 574.269 487.922 538.566 520.634C516.317 541.032 488.617 566.43 450.724 593.297C425.939 610.885 403.953 619.706 385.08 619.706L385.146 619.724Z" fill="#E7ECF8"/>
<path d="M366.916 691.138C350.398 691.138 334.094 688.014 319.19 682.115L320.788 677.098C375.298 698.673 449.324 681.876 479.148 608.238C510.109 531.807 558.575 495.806 559.053 495.438L561.671 499.904C561.193 500.253 513.847 535.483 483.496 610.425C460.67 666.77 413.011 691.138 366.916 691.138Z" fill="#E7ECF8"/>
<path d="M848.518 582.124C820.027 582.124 805.683 549.082 790.582 514.312C775.134 478.752 757.629 438.451 722.386 425.182C649.431 397.726 592.385 476.289 591.825 477.098L588.086 473.79C588.679 472.963 647.768 391.46 723.918 420.147C761.054 434.113 779.021 475.499 794.88 511.996C811.744 550.773 826.285 584.274 858.942 575.288C879.099 569.738 891.714 558.803 894.481 544.469C896.539 533.7 892.472 521.681 884.287 514.533C877.057 508.211 868.428 507.016 860.556 511.28C848.304 517.932 842.144 526.092 843.248 534.251C844.219 541.657 851.383 548.365 859.881 549.872C866.567 551.03 870.668 545.976 872.117 543.734C874.966 539.379 875.756 534.068 874.126 530.484C872.347 526.588 868.164 525.761 864.97 525.743V520.413C873.632 520.432 877.074 525.228 878.375 528.077C880.845 533.48 879.89 540.849 875.97 546.877C871.87 553.18 865.579 556.286 859.14 555.128C848.485 553.254 839.806 544.8 838.505 535.042C837.681 528.867 839.18 516.94 858.465 506.483C867.885 501.374 878.638 502.826 887.235 510.343C896.951 518.851 901.645 532.689 899.141 545.59C897.297 555.11 889.787 572.274 860.095 580.452C855.994 581.573 852.157 582.106 848.534 582.106L848.518 582.124Z" fill="#E7ECF8"/>
<path d="M14.0476 568.304C13.57 568.304 13.0924 568.304 12.5984 568.304C-25.246 567.863 -65.2478 526.165 -103.916 485.845C-142.896 445.213 -183.211 403.056 -219.919 404.949C-262.687 406.988 -284.146 433.764 -289.531 456.093C-294.883 478.292 -287.143 499.978 -269.341 512.676C-245.544 529.639 -219.145 522.049 -203.533 506.998C-189.881 493.821 -185.022 476.657 -190.852 462.194C-198.724 442.659 -217.482 436.502 -232.567 439.094C-244.737 441.17 -258.406 449.716 -260.299 467.413C-262.325 486.323 -251.719 496.706 -242.036 499.831C-233.472 502.606 -222.257 500.97 -217.877 490.807C-212.953 479.358 -217.333 467.395 -223.954 461.973C-229.619 457.324 -236.041 457.728 -241.147 463.039L-244.407 459.143C-237.606 452.05 -228.68 451.48 -221.138 457.673C-212.969 464.362 -207.535 479.064 -213.579 493.105C-218.354 504.223 -230.607 509.093 -243.37 504.94C-254.848 501.209 -267.414 488.988 -265.042 466.77C-263.231 449.734 -250.764 436.796 -233.291 433.801C-216.411 430.916 -195.414 437.899 -186.505 459.989C-179.868 476.436 -185.335 496.468 -200.42 511.004C-217.366 527.341 -246.054 535.593 -271.91 517.142C-291.54 503.139 -300.071 479.211 -294.142 454.678C-288.345 430.622 -265.47 401.769 -220.133 399.601C-181.416 397.763 -140.36 440.545 -100.655 481.931C-62.6457 521.553 -23.3357 562.534 12.6642 562.957C13.1254 562.957 13.5865 562.957 14.0476 562.957C85.191 562.957 109.647 497.699 109.894 497.019L114.324 499.004C114.077 499.702 88.4847 568.268 14.0641 568.268L14.0476 568.304Z" fill="#E7ECF8"/>
<path d="M-19.3502 505.564C-59.1214 505.564 -89.8844 465.649 -119.824 426.818C-132.225 410.719 -145.053 394.088 -158.459 380.249C-188.662 349.063 -232.204 341.381 -287.9 357.406C-291.737 358.509 -292.874 358.822 -293.763 358.748L-293.582 356.083V353.419C-293.071 353.382 -291.062 352.794 -289.103 352.242C-231.743 335.74 -186.702 343.844 -155.231 376.335C-141.628 390.375 -128.717 407.135 -116.217 423.344C-79.0811 471.511 -44.0034 516.995 6.80157 494.244L8.58013 499.187C-1.23503 503.58 -10.5232 505.564 -19.3667 505.564H-19.3502Z" fill="#E7ECF8"/>
<path d="M89.7365 507.42C58.496 507.42 33.1347 492.425 18.3625 464.454C-7.73989 415.038 4.51261 339.47 48.1868 280.7C125.572 176.556 225.041 217.721 226.029 218.125L224.316 223.105C223.345 222.683 126.988 182.969 51.8592 284.099C9.4531 341.179 -2.61822 414.229 22.4796 461.734C39.8867 494.667 71.5389 508.156 111.656 499.702L112.545 504.94C104.673 506.612 97.0485 507.42 89.753 507.42H89.7365Z" fill="#E7ECF8"/>
</g>
<mask id="mask2_519_66" style="mask-type:luminance" maskUnits="userSpaceOnUse" x="1442" y="0" width="1741" height="936">
<path d="M3182.71 0H1442V935.405H3182.71V0Z" fill="white"/>
</mask>
<g mask="url(#mask2_519_66)">
<path d="M3486.24 642.484C3486.24 642.484 3549.36 524.135 3410.48 507.228C3410.48 507.228 3405.43 371.971 3291.8 301.53C3178.16 231.09 3067.07 332.533 3067.07 332.533C3067.07 332.533 3024.14 256.451 2953.44 304.342C2953.44 304.342 2925.67 124.006 2769.11 95.8333C2612.54 67.6609 2556.99 174.727 2556.99 174.727C2556.99 174.727 2410.54 129.647 2354.99 264.904C2354.99 264.904 2279.24 157.82 2188.33 186.011C2097.43 214.183 2084.81 335.345 2084.81 335.345C2084.81 335.345 1988.85 276.17 1905.52 324.079C1822.19 371.989 1834.82 481.885 1834.82 481.885C1834.82 481.885 1764.12 445.259 1721.21 476.243C1678.26 507.246 1673.22 521.323 1673.22 521.323C1673.22 521.323 1529.28 515.681 1529.28 577.686C1529.28 639.673 1589.87 670.675 1640.36 642.503C1690.89 614.33 1706.02 605.877 1706.02 605.877C1706.02 605.877 1736.34 693.224 1804.5 684.771C1872.68 676.317 1897.94 605.877 1897.94 605.877C1897.94 605.877 1903 685.947 2014.1 685.359C2125.21 684.771 2135.3 588.97 2135.3 588.97C2135.3 588.97 2195.91 758.041 2352.46 766.495C2509.02 774.948 2549.42 684.771 2549.42 684.771C2549.42 684.771 2607.5 712.961 2640.32 681.959C2673.14 650.956 2675.68 622.784 2675.68 622.784C2675.68 622.784 2670.62 690.412 2769.11 704.508C2867.59 718.603 2897.89 645.333 2897.89 645.333C2897.89 645.333 2935.77 774.948 3069.6 780.59C3203.44 786.232 3251.42 667.882 3251.42 667.882C3251.42 667.882 3281.72 766.495 3354.94 760.871C3428.17 755.229 3430.69 665.07 3430.69 665.07C3430.69 665.07 3475.16 673.248 3486.24 642.521V642.484Z" fill="#00D8DB" stroke="#E7ECF8" stroke-width="5" stroke-linecap="round" stroke-linejoin="round"/>
<path d="M2826.5 527.773C2849.93 527.773 2875.54 520.643 2901.4 502.707C2986.44 443.679 2956.88 304.893 2956.58 303.497L2950.29 305.224C2950.59 306.566 2979.01 440.334 2897.99 496.55C2850.81 529.299 2797.78 528.968 2756.13 495.65C2723.82 469.811 2707.76 430.061 2715.22 394.373C2722.65 358.904 2741.92 335.749 2768.1 330.842C2792.8 326.23 2817.75 339.149 2831.64 363.793C2845.34 388.088 2841.39 406.961 2835.67 418.52C2826.48 437.063 2805.35 450.534 2785.41 450.534C2760.59 450.534 2746.61 426.478 2745.61 402.716C2744.88 385.404 2751.48 367.174 2767.9 365.465L2767.29 358.261C2746.63 360.43 2738.26 382.317 2739.13 403.065C2740.27 430.245 2756.54 457.774 2785.41 457.774C2807.92 457.774 2830.91 443.072 2841.34 422.012C2847.91 408.744 2852.5 387.205 2837.1 359.934C2821.8 332.809 2794.3 318.585 2767 323.693C2738.1 329.096 2716.92 354.255 2708.88 392.719C2700.83 431.256 2717.87 473.965 2752.32 501.531C2771.15 516.582 2797.12 527.755 2826.48 527.773H2826.5Z" fill="#E7ECF8"/>
<path d="M2273.56 474.351C2274.89 474.351 2276.22 474.351 2277.59 474.314C2365.04 472.715 2444.93 399.371 2509.12 340.417C2556.58 296.844 2597.5 259.281 2627.84 262.148C2709.74 270.105 2732.1 345.544 2732.32 346.298L2738.49 344.129C2738.26 343.32 2714.73 263.324 2628.38 254.944C2595.48 251.746 2553.53 290.247 2504.99 334.83C2441.57 393.049 2362.65 465.511 2277.47 467.073C2196.78 468.488 2167.19 425.871 2166.51 385.423C2165.95 352.178 2184.77 324.704 2208.47 324.153C2235 323.399 2255.41 335.51 2264.5 357.011C2271.55 373.625 2269.87 392.461 2260.25 404.976C2248.26 420.597 2226.08 421.497 2211.3 414.404C2204.83 411.298 2189.98 401.87 2191.87 381.527C2193.32 365.98 2200.63 355.339 2211.45 353.042C2221.56 350.892 2235.48 356.717 2243.8 374.562L2249.54 371.236C2241.01 352.913 2225.2 342.769 2210.23 345.948C2196.45 348.87 2187.18 361.9 2185.42 380.792C2183.8 398.213 2192.53 413.264 2208.74 421.056C2226.06 429.345 2251.01 428.132 2265.17 409.699C2276.45 395.016 2278.48 373.128 2270.36 353.942C2260.27 330.107 2237.14 316.343 2208.32 316.949C2181.07 317.592 2159.4 348.374 2160.02 385.588C2160.71 426.845 2190.95 474.369 2273.56 474.369V474.351Z" fill="#E7ECF8"/>
<path d="M2551.94 687.013C2552.38 686.388 2596.85 623.629 2583.14 543.027C2575.49 497.965 2538.4 476.611 2505.73 478.743C2479.94 480.452 2448.84 498.425 2446.08 543.449C2443.69 582.354 2456.49 610.416 2480.3 618.502C2501.3 625.633 2525.18 614.037 2537.08 590.955C2548.15 569.527 2549.8 548.779 2541.74 532.533C2534.2 517.335 2519 507.797 2501.07 507.025C2481.45 506.143 2470.19 524.263 2469.07 542.549C2468.06 558.905 2475.28 570.795 2487.05 572.099L2487.71 564.896C2477.8 563.793 2474.96 552.436 2475.56 543.027C2476.48 528.233 2485.47 513.568 2500.84 514.248C2516.5 514.909 2529.67 523.069 2536.09 536.025C2542.99 549.973 2541.36 568.185 2531.48 587.334C2521.06 607.531 2500.34 617.73 2482.21 611.574C2461.48 604.535 2450.41 579.248 2452.57 543.927C2455.04 503.607 2482.97 487.49 2506.12 485.947C2535.93 483.999 2569.82 503.387 2576.79 544.35C2589.95 621.718 2547.34 681.849 2546.9 682.455L2551.95 686.994L2551.94 687.013Z" fill="#E7ECF8"/>
<path d="M2584.87 601.338C2586.73 599.224 2630.19 548.209 2596.63 434.784C2580.48 380.167 2584.87 332.606 2608.74 304.324C2627.48 282.106 2656.08 274.608 2687.18 283.796L2688.84 276.813C2655.36 266.944 2624.45 275.159 2604.01 299.38C2578.47 329.666 2573.53 379.836 2590.47 437.063C2622.7 545.985 2580.67 595.788 2580.25 596.266L2584.87 601.338Z" fill="#E7ECF8"/>
<path d="M2387.14 666.651C2397.5 666.651 2407.15 664.703 2416.09 660.788C2452.88 644.69 2463.42 601.558 2463.86 599.739L2457.59 597.901C2457.49 598.305 2447.38 639.379 2413.65 654.099C2384.59 666.779 2346.86 656.892 2301.47 624.714C2250.33 588.455 2212.9 554.126 2182.81 526.56C2133.36 481.224 2100.69 451.287 2050.56 447.832C2009.29 444.947 1986.28 474.939 1981.78 505.868C1976.88 539.663 1992.13 582.115 2037.18 595.457C2068.21 604.646 2085.26 593.968 2094.12 583.42C2105.91 569.343 2109.74 546.39 2103.63 526.34C2098.56 509.635 2087.89 498.608 2074.35 496.109C2049.16 491.405 2034.1 506.878 2030.38 524.282C2026.88 540.711 2033.45 556.35 2045.7 560.614L2047.64 553.704C2037.43 550.138 2034.38 536.741 2036.69 525.954C2039.49 512.851 2050.77 499.05 2073.28 503.24C2084.38 505.316 2093.21 514.578 2097.49 528.674C2102.84 546.279 2099.58 566.31 2089.37 578.495C2081.73 587.628 2066.75 596.762 2038.85 588.492C1997.69 576.289 1983.73 537.715 1988.19 507.044C1991.91 481.352 2010.37 452.371 2050.16 455.073C2098.2 458.362 2130.23 487.729 2178.7 532.165C2208.92 559.878 2246.53 594.354 2297.98 630.833C2331.64 654.705 2361.5 666.687 2387.1 666.687L2387.14 666.651Z" fill="#E7ECF8"/>
<path d="M2411.89 763.628C2434.32 763.628 2456.47 759.382 2476.71 751.37L2474.53 744.552C2400.51 773.845 2299.99 751.039 2259.47 651.03C2217.43 547.235 2151.62 498.351 2150.96 497.855L2147.41 503.92C2148.05 504.397 2212.34 552.234 2253.56 654.007C2284.56 730.53 2349.28 763.609 2411.87 763.609L2411.89 763.628Z" fill="#E7ECF8"/>
<path d="M1757.91 615.599C1796.6 615.599 1816.1 570.721 1836.6 523.528C1857.58 475.251 1881.36 420.524 1929.22 402.495C2028.29 365.208 2105.76 471.906 2106.52 472.991L2111.6 468.488C2110.81 467.367 2030.56 356.699 1927.14 395.641C1876.72 414.624 1852.31 470.804 1830.79 520.367C1807.89 573.037 1788.13 618.521 1743.8 606.318C1716.43 598.783 1699.29 583.916 1695.55 564.473C1692.75 549.863 1698.28 533.526 1709.4 523.822C1719.21 515.24 1730.94 513.623 1741.63 519.393C1758.28 528.417 1766.64 539.498 1765.13 550.598C1763.79 560.65 1754.08 569.766 1742.53 571.805C1733.46 573.368 1727.89 566.513 1725.91 563.481C1722.06 557.581 1720.97 550.341 1723.18 545.489C1725.6 540.178 1731.28 539.057 1735.61 539.057V531.816C1723.86 531.853 1719.18 538.359 1717.42 542.218C1714.06 549.551 1715.36 559.566 1720.69 567.744C1726.26 576.308 1734.81 580.516 1743.55 578.954C1758.01 576.418 1769.8 564.932 1771.57 551.682C1772.69 543.302 1770.66 527.112 1744.46 512.906C1731.68 505.978 1717.05 507.926 1705.4 518.144C1692.2 529.685 1685.83 548.485 1689.22 565.998C1691.73 578.917 1701.92 602.238 1742.25 613.338C1747.82 614.864 1753.04 615.599 1757.95 615.599H1757.91Z" fill="#E7ECF8"/>
<path d="M2891.07 596.835C2891.73 596.835 2892.37 596.835 2893.03 596.835C2944.41 596.229 2998.72 539.608 3051.26 484.862C3104.19 429.675 3158.93 372.43 3208.8 375.003C3266.88 377.778 3296.01 414.147 3303.32 444.451C3310.6 474.608 3300.08 504.048 3275.89 521.305C3243.58 544.331 3207.72 534.022 3186.53 513.604C3167.99 495.723 3161.38 472.421 3169.3 452.757C3179.99 426.22 3205.47 417.859 3225.94 421.387C3242.46 424.217 3261.03 435.813 3263.6 459.851C3266.34 485.524 3251.96 499.619 3238.8 503.883C3227.17 507.65 3211.94 505.427 3206 491.625C3199.31 476.078 3205.25 459.832 3214.26 452.463C3221.95 446.141 3230.68 446.711 3237.6 453.915L3242.03 448.641C3232.79 439.011 3220.69 438.239 3210.43 446.638C3199.33 455.734 3191.95 475.692 3200.17 494.749C3206.65 509.837 3223.29 516.453 3240.63 510.829C3256.21 505.776 3273.27 489.163 3270.06 459.005C3267.59 435.868 3250.66 418.318 3226.93 414.238C3204.02 410.324 3175.48 419.788 3163.39 449.798C3154.38 472.145 3161.81 499.325 3182.3 519.081C3205.32 541.281 3244.25 552.454 3279.38 527.406C3306.04 508.404 3317.62 475.894 3309.58 442.576C3301.71 409.901 3270.65 370.721 3209.08 367.781C3156.49 365.3 3100.76 423.39 3046.85 479.588C2995.22 533.397 2941.84 589.043 2892.96 589.631C2892.34 589.631 2891.7 589.631 2891.09 589.631C2794.48 589.631 2761.27 501.016 2760.94 500.097L2754.93 502.799C2755.27 503.754 2790.02 596.854 2891.07 596.854V596.835Z" fill="#E7ECF8"/>
<path d="M3057.37 688.556C3058.85 688.556 3060.33 688.483 3061.81 688.354C3089.35 685.892 3102.28 671.851 3108.29 660.531C3119.17 639.967 3115.7 614.386 3108.82 597.332C3100.68 577.172 3077.82 570.372 3059.43 574.084C3042.28 577.539 3031.05 589.393 3030.13 605.032C3028.75 628.555 3040.37 653.07 3055.52 658.546C3061.86 660.862 3074.25 661.615 3085.91 640.959L3080.42 637.1C3075.53 645.774 3067.58 655.33 3057.52 651.673C3045.18 647.207 3035.42 625.633 3036.6 605.509C3037.33 593.178 3046.29 584.081 3060.58 581.215C3076.09 578.072 3096.22 583.714 3102.9 600.309C3109.13 615.727 3112.34 638.68 3102.71 656.856C3095.1 671.19 3081.18 679.368 3061.29 681.15C3034.72 683.558 3006.46 661.873 2998.26 632.873C2990.16 604.205 3003.55 575.959 3035 555.339C3078.33 526.928 3138.87 559.143 3197.4 590.293C3247.17 616.775 3294.17 641.805 3333.31 633.976C3420.55 616.536 3413.78 508.036 3413.69 506.952L3407.24 507.522C3407.54 511.73 3413.6 610.582 3332.18 626.845C3295.11 634.252 3246.85 608.578 3200.2 583.751C3140.14 551.793 3078.02 518.75 3031.73 549.091C2997.44 571.548 2983 602.881 2992.09 635.023C3000.68 665.438 3029.32 688.538 3057.37 688.538V688.556Z" fill="#E7ECF8"/>
<path d="M2936.44 511.638C2990.44 511.638 3032.22 457.443 3072.88 404.701C3089.73 382.85 3107.15 360.264 3125.35 341.464C3166.36 299.123 3225.49 288.685 3301.12 310.443C3306.32 311.95 3307.87 312.373 3309.07 312.263L3308.81 308.661L3308.78 305.059C3308.12 305.004 3305.38 304.214 3302.73 303.46C3224.84 281.04 3163.67 292.048 3120.94 336.172C3102.46 355.247 3084.92 377.998 3067.96 399.996C3017.53 465.401 2969.89 527.167 2900.9 496.275L2898.48 502.982C2911.8 508.955 2924.42 511.638 2936.42 511.638H2936.44Z" fill="#E7ECF8"/>
<path d="M2788.29 514.156C2830.71 514.156 2865.15 493.794 2885.22 455.808C2920.68 388.694 2904.03 286.094 2844.73 206.281C2739.64 64.8492 2604.57 120.753 2603.22 121.323L2605.54 128.067C2606.86 127.497 2737.7 73.56 2839.72 210.894C2897.31 288.391 2913.71 387.591 2879.63 452.114C2855.99 496.844 2812.99 515.148 2758.53 503.662L2757.33 510.774C2768.04 513.035 2778.38 514.137 2788.29 514.137V514.156Z" fill="#E7ECF8"/>
</g>
<mask id="mask3_519_66" style="mask-type:luminance" maskUnits="userSpaceOnUse" x="1625" y="1702" width="1559" height="602">
<path d="M1625.43 1702.49H3183.34V2303.59H1625.43V1702.49Z" fill="white"/>
</mask>
<g mask="url(#mask3_519_66)">
<path d="M3863.45 2341.62C3863.45 2341.62 3930.49 2229.44 3783.01 2213.4C3783.01 2213.4 3777.65 2085.19 3656.98 2018.41C3536.31 1951.64 3418.33 2047.79 3418.33 2047.79C3418.33 2047.79 3372.75 1975.67 3297.66 2021.09C3297.66 2021.09 3268.17 1850.15 3101.93 1823.42C2935.66 1796.72 2876.67 1898.22 2876.67 1898.22C2876.67 1898.22 2721.14 1855.5 2662.15 1983.69C2662.15 1983.69 2581.69 1882.18 2485.17 1908.91C2388.64 1935.62 2375.24 2050.47 2375.24 2050.47C2375.24 2050.47 2273.34 1994.38 2184.85 2039.77C2096.36 2085.19 2109.76 2189.35 2109.76 2189.35C2109.76 2189.35 2034.69 2154.62 1989.11 2184C1943.49 2213.38 1938.15 2226.72 1938.15 2226.72C1938.15 2226.72 1785.3 2221.38 1785.3 2280.14C1785.3 2338.9 1849.66 2368.28 1903.26 2341.57C1956.91 2314.86 1972.99 2306.84 1972.99 2306.84C1972.99 2306.84 2005.17 2389.64 2077.58 2381.64C2149.99 2373.62 2176.8 2306.84 2176.8 2306.84C2176.8 2306.84 2182.16 2382.73 2300.15 2382.19C2418.13 2381.64 2428.87 2290.83 2428.87 2290.83C2428.87 2290.83 2493.22 2451.09 2659.46 2459.09C2825.73 2467.11 2868.62 2381.62 2868.62 2381.62C2868.62 2381.62 2930.29 2408.32 2965.16 2378.94C3000.02 2349.56 3002.7 2322.86 3002.7 2322.86C3002.7 2322.86 2997.34 2386.96 3101.93 2400.31C3206.51 2413.67 3238.67 2344.22 3238.67 2344.22C3238.67 2344.22 3278.9 2467.08 3421.01 2472.43C3563.12 2477.78 3614.09 2365.6 3614.09 2365.6C3614.09 2365.6 3646.27 2459.09 3724.02 2453.74C3801.8 2448.4 3804.46 2362.93 3804.46 2362.93C3804.46 2362.93 3851.69 2370.69 3863.45 2341.57V2341.62Z" fill="#00D8DB" stroke="#E7ECF8" stroke-width="5" stroke-linecap="round" stroke-linejoin="round"/>
<path d="M3134.87 2249.34C3159.76 2249.34 3186.95 2242.6 3214.4 2225.57C3304.72 2169.62 3273.32 2038.05 3272.99 2036.73L3266.32 2038.36C3266.62 2039.64 3296.81 2166.43 3210.77 2219.73C3160.66 2250.76 3104.35 2250.45 3060.13 2218.87C3025.81 2194.37 3008.76 2156.68 3016.67 2122.88C3024.56 2089.27 3045.03 2067.31 3072.84 2062.65C3099.08 2058.28 3125.56 2070.53 3140.31 2093.88C3154.86 2116.92 3150.66 2134.8 3144.58 2145.76C3134.82 2163.33 3112.38 2176.1 3091.22 2176.1C3064.86 2176.1 3050.01 2153.3 3048.95 2130.78C3048.16 2114.36 3055.19 2097.1 3072.62 2095.46L3071.98 2088.63C3050.04 2090.69 3041.16 2111.43 3042.08 2131.09C3043.29 2156.85 3060.56 2182.96 3091.22 2182.96C3115.13 2182.96 3139.55 2169.03 3150.61 2149.07C3157.6 2136.51 3162.46 2116.09 3146.12 2090.24C3129.88 2064.52 3100.67 2051.04 3071.67 2055.89C3040.99 2061.02 3018.5 2084.87 3009.95 2121.32C3001.4 2157.87 3019.5 2198.34 3056.09 2224.46C3076.09 2238.72 3103.66 2249.32 3134.84 2249.32L3134.87 2249.34Z" fill="#E7ECF8"/>
<path d="M2575.66 2182.23C2577.08 2182.23 2578.48 2182.23 2579.93 2182.2C2672.79 2180.69 2757.64 2111.17 2825.8 2055.29C2876.19 2013.99 2919.65 1978.39 2951.88 1981.11C3038.85 1988.66 3062.6 2060.17 3062.84 2060.88L3069.39 2058.82C3069.15 2058.06 3044.14 1982.22 2952.45 1974.27C2917.52 1971.25 2872.96 2007.75 2821.41 2049.99C2754.06 2105.18 2670.25 2173.88 2579.79 2175.34C2494.08 2176.69 2462.66 2136.29 2461.95 2097.94C2461.35 2066.43 2481.35 2040.39 2506.5 2039.87C2534.67 2039.16 2556.32 2050.63 2565.99 2071C2573.47 2086.75 2571.69 2104.59 2561.48 2116.47C2548.75 2131.27 2525.19 2132.13 2509.49 2125.41C2502.6 2122.47 2486.84 2113.53 2488.85 2094.25C2490.4 2079.52 2498.16 2069.44 2509.63 2067.24C2520.37 2065.2 2535.16 2070.72 2543.98 2087.63L2550.08 2084.46C2541.03 2067.1 2524.24 2057.47 2508.33 2060.5C2493.7 2063.26 2483.84 2075.61 2481.97 2093.54C2480.26 2110.05 2489.52 2124.34 2506.74 2131.7C2525.14 2139.55 2551.62 2138.42 2566.68 2120.94C2578.65 2107.03 2580.81 2086.28 2572.19 2068.09C2561.48 2045.5 2536.92 2032.47 2506.31 2033.03C2477.36 2033.62 2454.35 2062.82 2455.01 2098.11C2455.75 2137.21 2487.86 2182.25 2575.58 2182.25L2575.66 2182.23Z" fill="#E7ECF8"/>
<path d="M2871.28 2383.82C2871.75 2383.23 2918.97 2323.73 2904.41 2247.33C2896.29 2204.61 2856.89 2184.38 2822.19 2186.39C2794.81 2188.02 2761.77 2205.05 2758.85 2247.73C2756.31 2284.61 2769.9 2311.22 2795.19 2318.88C2817.49 2325.65 2842.85 2314.65 2855.49 2292.77C2867.22 2272.45 2869 2252.79 2860.45 2237.39C2852.45 2222.99 2836.3 2213.95 2817.25 2213.22C2796.42 2212.39 2784.48 2229.56 2783.27 2246.88C2782.2 2262.4 2789.87 2273.66 2802.36 2274.89L2803.05 2268.05C2792.53 2267.01 2789.51 2256.24 2790.13 2247.33C2791.1 2233.3 2800.65 2219.41 2816.99 2220.05C2833.61 2220.69 2847.6 2228.4 2854.42 2240.7C2861.75 2253.93 2860.02 2271.19 2849.52 2289.34C2838.46 2308.48 2816.44 2318.15 2797.18 2312.31C2775.17 2305.64 2763.41 2281.67 2765.72 2248.2C2768.35 2209.97 2797.99 2194.72 2822.59 2193.25C2854.25 2191.41 2890.23 2209.79 2897.64 2248.6C2911.6 2321.94 2866.36 2378.94 2865.91 2379.51L2871.28 2383.82Z" fill="#E7ECF8"/>
<path d="M2906.26 2302.61C2908.23 2300.6 2954.38 2252.25 2918.75 2144.73C2901.58 2092.95 2906.28 2047.89 2931.62 2021.09C2951.53 2000.01 2981.9 1992.91 3014.93 2001.62L3016.69 1995C2981.14 1985.63 2948.32 1993.43 2926.61 2016.38C2899.49 2045.07 2894.24 2092.64 2912.22 2146.89C2946.44 2250.14 2901.82 2297.33 2901.37 2297.81L2906.28 2302.61H2906.26Z" fill="#E7ECF8"/>
<path d="M2696.28 2364.52C2707.27 2364.52 2717.53 2362.67 2727.03 2358.96C2766.1 2343.7 2777.31 2302.82 2777.76 2301.07L2771.11 2299.32C2771.01 2299.7 2760.28 2338.64 2724.46 2352.59C2693.62 2364.61 2653.53 2355.24 2605.34 2324.73C2551.05 2290.36 2511.3 2257.83 2479.33 2231.69C2426.82 2188.71 2392.13 2160.32 2338.88 2157.06C2295.07 2154.34 2270.63 2182.75 2265.86 2212.06C2260.65 2244.09 2276.83 2284.32 2324.68 2296.98C2357.62 2305.68 2375.74 2295.58 2385.12 2285.55C2397.64 2272.21 2401.72 2250.47 2395.24 2231.45C2389.85 2215.63 2378.52 2205.17 2364.15 2202.78C2337.39 2198.34 2321.4 2212.98 2317.46 2229.49C2313.73 2245.08 2320.71 2259.89 2333.73 2263.93L2335.79 2257.38C2324.97 2254 2321.71 2241.29 2324.18 2231.08C2327.15 2218.66 2339.12 2205.58 2363.06 2209.55C2374.84 2211.51 2384.22 2220.29 2388.78 2233.65C2394.45 2250.35 2390.99 2269.33 2380.16 2280.87C2372.04 2289.53 2356.12 2298.19 2326.51 2290.33C2282.81 2278.76 2267.99 2242.22 2272.72 2213.14C2276.66 2188.8 2296.28 2161.32 2338.53 2163.89C2389.54 2167.02 2423.55 2194.86 2475.03 2236.97C2507.12 2263.22 2547.06 2295.91 2601.71 2330.5C2637.45 2353.14 2669.15 2364.49 2696.37 2364.49L2696.28 2364.52Z" fill="#E7ECF8"/>
<path d="M2722.56 2456.44C2746.38 2456.44 2769.9 2452.42 2791.39 2444.82L2789.08 2438.37C2710.48 2466.14 2603.73 2444.52 2560.72 2349.73C2516.07 2251.35 2446.18 2205.01 2445.49 2204.53L2441.71 2210.28C2442.4 2210.73 2510.68 2256.08 2554.45 2352.55C2587.36 2425.07 2656.09 2456.44 2722.56 2456.44Z" fill="#E7ECF8"/>
<path d="M2028.06 2316.12C2069.14 2316.12 2089.83 2273.58 2111.61 2228.83C2133.88 2183.06 2159.13 2131.18 2209.95 2114.1C2315.16 2078.76 2397.42 2179.89 2398.23 2180.93L2403.62 2176.67C2402.77 2175.6 2317.56 2070.69 2207.74 2107.62C2154.19 2125.6 2128.28 2178.87 2105.41 2225.85C2081.09 2275.76 2060.12 2318.88 2013.03 2307.32C1983.96 2300.17 1965.77 2286.1 1961.78 2267.65C1958.81 2253.78 1964.67 2238.31 1976.48 2229.11C1986.9 2220.97 1999.35 2219.44 2010.7 2224.93C2028.37 2233.49 2037.25 2243.99 2035.66 2254.49C2034.26 2264.03 2023.93 2272.66 2011.67 2274.6C2002.03 2276.09 1996.12 2269.59 1994.03 2266.7C1989.92 2261.09 1988.78 2254.26 1991.13 2249.64C1993.7 2244.63 1999.73 2243.57 2004.33 2243.54V2236.68C1991.84 2236.71 1986.88 2242.88 1985 2246.55C1981.44 2253.5 1982.82 2262.99 1988.47 2270.75C1994.38 2278.86 2003.46 2282.86 2012.74 2281.37C2028.11 2278.95 2040.62 2268.07 2042.5 2255.51C2043.69 2247.56 2041.53 2232.21 2013.72 2218.75C2000.13 2212.17 1984.62 2214.04 1972.23 2223.72C1958.22 2234.67 1951.45 2252.48 1955.06 2269.09C1957.72 2281.34 1968.55 2303.44 2011.36 2313.96C2017.28 2315.41 2022.81 2316.09 2028.04 2316.09L2028.06 2316.12Z" fill="#E7ECF8"/>
<path d="M3231.43 2298.33C3232.12 2298.33 3232.8 2298.33 3233.52 2298.33C3288.09 2297.76 3345.78 2244.09 3401.54 2192.19C3457.75 2139.88 3515.89 2085.62 3568.82 2088.06C3630.5 2090.68 3661.44 2125.15 3669.21 2153.89C3676.93 2182.46 3665.77 2210.38 3640.09 2226.72C3605.78 2248.56 3567.71 2238.79 3545.19 2219.41C3525.51 2202.45 3518.5 2180.36 3526.91 2161.74C3538.26 2136.6 3565.31 2128.67 3587.06 2132.01C3604.61 2134.68 3624.32 2145.68 3627.06 2168.46C3629.98 2192.8 3614.68 2206.17 3600.72 2210.19C3588.37 2213.76 3572.2 2211.65 3565.88 2198.57C3558.78 2183.84 3565.1 2168.44 3574.64 2161.46C3582.81 2155.47 3592.07 2155.99 3599.44 2162.83L3604.14 2157.81C3594.33 2148.68 3581.46 2147.95 3570.58 2155.92C3558.8 2164.53 3550.96 2183.46 3559.68 2201.53C3566.57 2215.84 3584.24 2222.11 3602.64 2216.76C3619.19 2211.96 3637.31 2196.23 3633.89 2167.63C3631.28 2145.7 3613.3 2129.05 3588.11 2125.19C3563.77 2121.48 3533.49 2130.47 3520.64 2158.9C3511.07 2180.07 3518.95 2205.86 3540.71 2224.57C3565.14 2245.6 3606.51 2256.22 3643.8 2232.47C3672.11 2214.45 3684.41 2183.65 3675.86 2152.07C3667.5 2121.1 3634.51 2083.96 3569.13 2081.17C3513.3 2078.81 3454.09 2133.88 3396.84 2187.15C3342.02 2238.15 3285.34 2290.9 3233.42 2291.44C3232.76 2291.44 3232.09 2291.44 3231.43 2291.44C3128.83 2291.44 3093.57 2207.44 3093.21 2206.57L3086.82 2209.12C3087.18 2210.02 3124.08 2298.28 3231.4 2298.28L3231.43 2298.33Z" fill="#E7ECF8"/>
<path d="M3122.28 2219.96C3167.33 2219.96 3203.9 2200.65 3225.2 2164.65C3262.85 2101.04 3245.18 2003.77 3182.2 1928.12C3070.6 1794.07 2927.16 1847.06 2925.73 1847.58L2928.2 1853.99C2929.61 1853.44 3068.56 1802.32 3176.9 1932.5C3238.05 2005.97 3255.46 2100 3219.27 2161.15C3194.17 2203.54 3148.52 2220.9 3090.67 2210.02L3089.39 2216.76C3100.74 2218.92 3111.73 2219.96 3122.25 2219.96H3122.28Z" fill="#E7ECF8"/>
</g>
<mask id="mask4_519_66" style="mask-type:luminance" maskUnits="userSpaceOnUse" x="0" y="1702" width="1558" height="602">
<path d="M1557.91 1702.49H0V2303.59H1557.91V1702.49Z" fill="white"/>
</mask>
<g mask="url(#mask4_519_66)">
<path d="M-680.109 2341.62C-680.109 2341.62 -747.151 2229.44 -599.672 2213.4C-599.672 2213.4 -594.305 2085.19 -473.638 2018.41C-352.971 1951.64 -234.988 2047.79 -234.988 2047.79C-234.988 2047.79 -189.414 1975.67 -114.321 2021.09C-114.321 2021.09 -84.8255 1850.15 81.4149 1823.42C247.679 1796.72 306.671 1898.22 306.671 1898.22C306.671 1898.22 462.2 1855.5 521.192 1983.69C521.192 1983.69 601.652 1882.18 698.167 1908.91C794.705 1935.62 808.099 2050.47 808.099 2050.47C808.099 2050.47 910.004 1994.38 998.492 2039.77C1086.98 2085.19 1073.59 2189.35 1073.59 2189.35C1073.59 2189.35 1148.65 2154.62 1194.23 2184C1239.85 2213.38 1245.19 2226.72 1245.19 2226.72C1245.19 2226.72 1398.04 2221.38 1398.04 2280.14C1398.04 2338.9 1333.68 2368.28 1280.08 2341.57C1226.43 2314.86 1210.35 2306.84 1210.35 2306.84C1210.35 2306.84 1178.17 2389.64 1105.76 2381.64C1033.35 2373.62 1006.54 2306.84 1006.54 2306.84C1006.54 2306.84 1001.18 2382.73 883.192 2382.19C765.209 2381.64 754.475 2290.83 754.475 2290.83C754.475 2290.83 690.116 2451.09 523.876 2459.09C357.611 2467.11 314.721 2381.62 314.721 2381.62C314.721 2381.62 253.046 2408.32 218.183 2378.94C183.32 2349.56 180.637 2322.86 180.637 2322.86C180.637 2322.86 186.004 2386.96 81.4149 2400.31C-23.1741 2413.67 -55.3297 2344.22 -55.3297 2344.22C-55.3297 2344.22 -95.5599 2467.08 -237.672 2472.43C-379.783 2477.78 -430.748 2365.6 -430.748 2365.6C-430.748 2365.6 -462.927 2459.09 -540.68 2453.74C-618.457 2448.4 -621.117 2362.93 -621.117 2362.93C-621.117 2362.93 -668.353 2370.69 -680.109 2341.57V2341.62Z" fill="#00D8DB" stroke="#E7ECF8" stroke-width="5" stroke-linecap="round" stroke-linejoin="round"/>
<path d="M48.4722 2249.34C23.5837 2249.34 -3.60847 2242.6 -31.0619 2225.57C-121.378 2169.62 -89.9822 2038.05 -89.6497 2036.73L-82.9764 2038.36C-83.2851 2039.64 -113.47 2166.43 -27.4283 2219.73C22.6813 2250.76 78.9892 2250.45 123.209 2218.87C157.526 2194.37 174.577 2156.68 166.669 2122.88C158.785 2089.27 138.313 2067.31 110.504 2062.65C84.2614 2058.28 57.7817 2070.53 43.0338 2093.88C28.4759 2116.92 32.6794 2134.8 38.7591 2145.76C48.5198 2163.33 70.9622 2176.1 92.1222 2176.1C118.483 2176.1 133.326 2153.3 134.395 2130.78C135.178 2114.36 128.149 2097.1 110.717 2095.46L111.359 2088.63C133.302 2090.69 142.184 2111.43 141.258 2131.09C140.047 2156.85 122.782 2182.96 92.1222 2182.96C68.2074 2182.96 43.7938 2169.03 32.7269 2149.07C25.7448 2136.51 20.8764 2116.09 37.2154 2090.24C53.4595 2064.52 82.6703 2051.04 111.667 2055.89C142.351 2061.02 164.841 2084.87 173.39 2121.32C181.94 2157.87 163.843 2198.34 127.246 2224.46C107.25 2238.72 79.678 2249.32 48.496 2249.32L48.4722 2249.34Z" fill="#E7ECF8"/>
<path d="M607.685 2182.23C606.26 2182.23 604.858 2182.23 603.41 2182.2C510.553 2180.69 425.699 2111.17 357.54 2055.29C307.146 2013.99 263.686 1978.39 231.459 1981.11C144.491 1988.66 120.743 2060.17 120.505 2060.88L113.951 2058.82C114.188 2058.06 139.195 1982.22 230.889 1974.27C265.823 1971.25 310.376 2007.75 361.934 2049.99C429.285 2105.18 513.094 2173.88 603.552 2175.34C689.261 2176.69 720.681 2136.29 721.393 2097.94C721.987 2066.43 701.99 2040.39 676.841 2039.87C648.675 2039.16 627.016 2050.63 617.35 2071C609.869 2086.75 611.651 2104.59 621.863 2116.47C634.592 2131.27 658.15 2132.13 673.848 2125.41C680.735 2122.47 696.505 2113.53 694.486 2094.25C692.942 2079.52 685.176 2069.44 673.706 2067.24C662.971 2065.2 648.176 2070.72 639.365 2087.63L633.262 2084.46C642.31 2067.1 659.1 2057.47 675.012 2060.5C689.641 2063.26 699.497 2075.61 701.373 2093.54C703.083 2110.05 693.821 2124.34 676.603 2131.7C658.198 2139.55 631.718 2138.42 616.662 2120.94C604.692 2107.03 602.531 2086.28 611.152 2068.09C621.863 2045.5 646.419 2032.47 677.031 2033.03C705.98 2033.62 728.993 2062.82 728.328 2098.11C727.591 2137.21 695.483 2182.25 607.756 2182.25L607.685 2182.23Z" fill="#E7ECF8"/>
<path d="M312.061 2383.82C311.587 2383.23 264.374 2323.73 278.932 2247.33C287.054 2204.61 326.453 2184.38 361.15 2186.39C388.532 2188.02 421.566 2205.05 424.487 2247.73C427.029 2284.61 413.444 2311.22 388.152 2318.88C365.852 2325.65 340.489 2314.65 327.854 2292.77C316.122 2272.45 314.341 2252.79 322.891 2237.39C330.894 2222.99 347.043 2213.95 366.09 2213.22C386.917 2212.39 398.863 2229.56 400.074 2246.88C401.143 2262.4 393.472 2273.66 380.98 2274.89L380.291 2268.05C390.812 2267.01 393.828 2256.24 393.211 2247.33C392.237 2233.3 382.69 2219.41 366.351 2220.05C349.727 2220.69 335.739 2228.4 328.923 2240.7C321.585 2253.93 323.318 2271.19 333.815 2289.34C344.882 2308.48 366.897 2318.15 386.157 2312.31C408.172 2305.64 419.928 2281.67 417.624 2248.2C414.988 2209.97 385.35 2194.72 360.746 2193.25C329.089 2191.41 293.11 2209.79 285.701 2248.6C271.736 2321.94 316.977 2378.94 317.429 2379.51L312.061 2383.82Z" fill="#E7ECF8"/>
<path d="M277.08 2302.61C275.109 2300.6 228.965 2252.25 264.588 2144.73C281.758 2092.95 277.056 2047.89 251.716 2021.09C231.815 2000.01 201.441 1992.91 168.406 2001.62L166.649 1995C202.201 1985.63 235.021 1993.43 256.727 2016.38C283.848 2045.07 289.097 2092.64 271.119 2146.89C236.897 2250.14 281.521 2297.33 281.972 2297.81L277.056 2302.61H277.08Z" fill="#E7ECF8"/>
<path d="M487.066 2364.52C476.07 2364.52 465.811 2362.67 456.311 2358.96C417.245 2343.7 406.035 2302.82 405.584 2301.07L412.234 2299.32C412.329 2299.7 423.063 2338.64 458.876 2352.59C489.725 2364.61 529.813 2355.24 577.999 2324.73C632.288 2290.36 672.044 2257.83 704.009 2231.69C756.517 2188.71 791.214 2160.32 844.459 2157.06C888.275 2154.34 912.712 2182.75 917.486 2212.06C922.687 2244.09 906.514 2284.32 858.66 2296.98C825.721 2305.68 807.601 2295.58 798.22 2285.55C785.705 2272.21 781.62 2250.47 788.103 2231.45C793.494 2215.63 804.822 2205.17 819.19 2202.78C845.955 2198.34 861.938 2212.98 865.88 2229.49C869.608 2245.08 862.626 2259.89 849.612 2263.93L847.546 2257.38C858.375 2254 861.629 2241.29 859.159 2231.08C856.19 2218.66 844.221 2205.58 820.282 2209.55C808.503 2211.51 799.122 2220.29 794.563 2233.65C788.887 2250.35 792.354 2269.33 803.183 2280.87C811.305 2289.53 827.217 2298.19 856.832 2290.33C900.529 2278.76 915.348 2242.22 910.622 2213.14C906.68 2188.8 887.064 2161.32 844.815 2163.89C793.803 2167.02 759.795 2194.86 708.308 2236.97C676.223 2263.22 636.278 2295.91 581.633 2330.5C545.891 2353.14 514.186 2364.49 486.971 2364.49L487.066 2364.52Z" fill="#E7ECF8"/>
<path d="M460.776 2456.44C436.956 2456.44 413.445 2452.42 391.952 2444.82L394.256 2438.37C472.864 2466.14 579.614 2444.52 622.623 2349.73C667.27 2251.35 737.162 2205.01 737.851 2204.53L741.627 2210.28C740.938 2210.73 672.661 2256.08 628.892 2352.55C595.977 2425.07 527.248 2456.44 460.776 2456.44Z" fill="#E7ECF8"/>
<path d="M1155.28 2316.12C1114.19 2316.12 1093.51 2273.58 1071.73 2228.83C1049.46 2183.06 1024.21 2131.18 973.389 2114.1C868.183 2078.76 785.918 2179.89 785.11 2180.93L779.719 2176.67C780.574 2175.6 865.784 2070.69 975.598 2107.62C1029.15 2125.6 1055.06 2178.87 1077.93 2225.85C1102.25 2275.76 1123.22 2318.88 1170.31 2307.32C1199.38 2300.17 1217.57 2286.1 1221.56 2267.65C1224.53 2253.78 1218.67 2238.31 1206.86 2229.11C1196.44 2220.97 1183.99 2219.44 1172.64 2224.93C1154.97 2233.49 1146.09 2243.99 1147.68 2254.49C1149.08 2264.03 1159.41 2272.66 1171.67 2274.6C1181.31 2276.09 1187.22 2269.59 1189.31 2266.7C1193.42 2261.09 1194.56 2254.26 1192.21 2249.64C1189.64 2244.63 1183.61 2243.57 1179 2243.54V2236.68C1191.5 2236.71 1196.46 2242.88 1198.34 2246.55C1201.9 2253.5 1200.52 2262.99 1194.87 2270.75C1188.96 2278.86 1179.88 2282.86 1170.6 2281.37C1155.23 2278.95 1142.72 2268.07 1140.84 2255.51C1139.65 2247.56 1141.81 2232.21 1169.62 2218.75C1183.21 2212.17 1198.72 2214.04 1211.11 2223.72C1225.12 2234.67 1231.89 2252.48 1228.28 2269.09C1225.62 2281.34 1214.79 2303.44 1171.98 2313.96C1166.06 2315.41 1160.53 2316.09 1155.3 2316.09L1155.28 2316.12Z" fill="#E7ECF8"/>
<path d="M-48.0862 2298.33C-48.7749 2298.33 -49.4636 2298.33 -50.1761 2298.33C-104.75 2297.76 -162.436 2244.09 -218.198 2192.19C-274.411 2139.88 -332.547 2085.62 -385.483 2088.06C-447.158 2090.68 -478.103 2125.15 -485.868 2153.89C-493.587 2182.46 -482.425 2210.38 -456.753 2226.72C-422.436 2248.56 -384.367 2238.79 -361.853 2219.41C-342.165 2202.45 -335.16 2180.36 -343.567 2161.74C-354.918 2136.6 -381.968 2128.67 -403.722 2132.01C-421.272 2134.68 -440.983 2145.68 -443.715 2168.46C-446.636 2192.8 -431.342 2206.17 -417.377 2210.19C-405.028 2213.76 -388.855 2211.65 -382.538 2198.57C-375.437 2183.84 -381.754 2168.44 -391.301 2161.46C-399.471 2155.47 -408.733 2155.99 -416.095 2162.83L-420.797 2157.81C-410.989 2148.68 -398.117 2147.95 -387.24 2155.92C-375.461 2164.53 -367.624 2183.46 -376.34 2201.53C-383.227 2215.84 -400.896 2222.11 -419.301 2216.76C-435.854 2211.96 -453.974 2196.23 -450.554 2167.63C-447.942 2145.7 -429.964 2129.05 -404.767 2125.19C-380.424 2121.48 -350.145 2130.47 -337.297 2158.9C-327.726 2180.07 -335.611 2205.86 -357.365 2224.57C-381.802 2245.6 -423.172 2256.22 -460.457 2232.47C-488.766 2214.45 -501.068 2183.65 -492.518 2152.07C-484.158 2121.1 -451.172 2083.96 -385.792 2081.17C-329.959 2078.81 -270.753 2133.88 -213.495 2187.15C-158.684 2238.15 -101.996 2290.9 -50.0811 2291.44C-49.4161 2291.44 -48.7511 2291.44 -48.0862 2291.44C54.5079 2291.44 89.7746 2207.44 90.1309 2206.57L96.5192 2209.12C96.163 2210.02 59.2576 2298.28 -48.0624 2298.28L-48.0862 2298.33Z" fill="#E7ECF8"/>
<path d="M61.0621 2219.96C16.0109 2219.96 -20.562 2200.65 -41.8645 2164.65C-79.506 2101.04 -61.837 2003.77 1.14432 1928.12C112.739 1794.07 256.181 1847.06 257.606 1847.58L255.136 1853.99C253.735 1853.44 114.781 1802.32 6.44022 1932.5C-54.7125 2005.97 -72.1202 2100 -35.9273 2161.15C-10.825 2203.54 34.8198 2220.9 92.6715 2210.02L93.9539 2216.76C82.6021 2218.92 71.6065 2219.96 61.0858 2219.96H61.0621Z" fill="#E7ECF8"/>
</g>
</svg>
