<svg width="360" height="203" viewBox="0 0 360 203" fill="none" xmlns="http://www.w3.org/2000/svg">
<g clip-path="url(#clip0_484_431)">
<mask id="mask0_484_431" style="mask-type:luminance" maskUnits="userSpaceOnUse" x="-279" y="31" width="707" height="305">
<path d="M427.944 31.1001H-278.943V335.881H427.944V31.1001Z" fill="white"/>
</mask>
<g mask="url(#mask0_484_431)">
<path d="M399.643 71.2851C379.275 78.2699 360.388 87.4755 342.046 96.6628C333.268 101.057 324.619 105.451 316.035 109.586C313.928 108.671 311.828 107.782 309.735 106.919C299.398 102.667 289.234 99.0923 278.836 96.5311C268.434 93.9699 261.087 93.3113 249.576 93.3004C243.411 93.2967 235.04 94.1126 229.087 94.7639C223.134 95.4152 216.522 97.5849 210.792 98.7886C194.079 102.177 166.886 111.229 162.496 110.131C149.478 106.878 123.31 99.557 103.171 104.094C71.4016 111.185 42.7529 123.665 10.8405 123.647C3.67288 123.665 -3.4472 121.367 -10.5673 120.01C-17.6837 118.652 -32.235 115.283 -39.4721 112.692C-76.002 99.6155 -94.7535 92.0198 -126.918 88.178C-134.953 87.3401 -140.248 86.7328 -148.326 86.6157C-172.562 86.2571 -196.897 89.1915 -220.702 95.7335C-226.047 96.7689 -231.367 97.7861 -236.673 98.7776C-252.592 101.756 -268.406 104.522 -284.574 106.933C-284.574 130.478 -284.859 154.304 -284.761 177.827V183.385V184.376V201.39V279.535H426.818V200.413V161.988V63.7004C417.367 65.7054 408.348 68.3032 399.651 71.2851H399.643Z" fill="#00D8DB"/>
<path d="M-79.3535 99.8863C-75.2044 101.778 -69.288 102.393 -65.8853 105.514C-44.375 124.422 -20.6987 142.742 6.95119 146.847C12.4797 147.667 18.1692 147.919 24.0307 147.495C18.7363 147.352 13.5993 146.771 8.60499 145.797C-16.3593 140.938 -37.7122 126.362 -57.0931 108.635C-62.7643 103.245 -69.2405 101.412 -76.796 99.5204L-79.3571 99.8863H-79.3535ZM122.552 102.868C89.2714 112.886 56.9346 127.353 21.7805 128.231C14.8726 128.535 7.96835 128.389 1.06047 127.671C-5.8401 126.951 -12.7517 125.652 -19.6522 123.665C-32.1325 120.262 -41.7772 111.185 -54.2575 107.497C-38.7989 117.99 -21.9939 127.21 -4.29974 133.204C1.5983 135.201 7.59514 136.841 13.6725 138.048C26.0174 140.401 38.7794 140.968 51.2597 139.833C34.8096 138.414 17.7887 138.981 1.90563 133.591C48.7095 140.968 93.8083 121.678 136.072 104.376C134.937 104.661 133.803 103.523 132.669 104.09C96.6439 116.856 61.4715 134.726 22.5744 134.188C15.9812 134.148 9.4465 133.577 3.00695 132.34C-3.42895 131.103 -9.77336 129.197 -15.9641 126.501C-9.06355 127.92 -2.15201 128.776 4.75222 129.157C47.5716 132.176 87.5664 115.722 127.561 103.241C125.86 103.241 124.158 102.674 122.548 102.865L122.552 102.868Z" fill="#E7ECF8"/>
<path d="M429.225 73.1731C429.013 73.228 428.804 73.2792 428.596 73.3341C416.734 76.4295 406.171 80.6774 395.747 85.4156C374.899 94.892 354.599 106.348 327.282 114.405C327.114 114.452 326.975 114.507 326.876 114.566C327.476 114.847 328.076 115.125 328.68 115.407C329.511 115.44 330.345 115.36 330.879 115.195C358.884 106.933 379.198 95.4115 399.888 86.0046C409.383 81.6872 418.958 77.8198 429.225 74.9293V73.1731ZM429.225 81.1786C418.501 83.8386 409.259 87.4535 400.163 91.5295C381.506 99.8899 363.446 110.215 336.104 118.279C335.738 118.382 335.522 118.51 335.486 118.649C335.873 118.835 336.258 119.018 336.642 119.209C337.652 119.362 338.951 119.304 339.693 119.07C367.669 110.819 385.813 100.406 404.29 92.1259C412.307 88.5329 420.389 85.3461 429.225 82.9093V81.175V81.1786ZM429.225 86.162C421.26 88.7451 413.968 91.9795 406.573 95.5579C389.26 103.933 371.364 114.189 343.912 122.286C343.656 122.359 343.509 122.45 343.506 122.549C343.736 122.663 343.967 122.776 344.197 122.886C344.874 123.003 345.789 122.97 346.308 122.809C374.178 114.587 392.135 104.266 409.372 95.9274C415.94 92.7479 422.409 89.8611 429.225 87.4901V86.1547V86.162ZM429.225 91.61C424.395 93.8455 419.646 96.3775 414.765 99.0777C398.315 108.181 380.354 119.216 353.187 127.32C353.447 127.448 353.707 127.576 353.966 127.704C381.609 119.516 399.687 108.382 416.2 99.2423C420.605 96.8055 424.897 94.5114 429.221 92.4515V91.6063L429.225 91.61ZM429.225 103.373C423.521 105.755 418.783 108.613 414.136 111.642C402.044 119.531 390.493 128.564 366.886 133.291C366.447 133.376 366.139 133.5 366.019 133.635C366.491 133.866 366.966 134.1 367.442 134.331C368.24 134.411 369.147 134.378 369.82 134.243C395.121 129.179 406.548 119.918 418.563 112.085C421.984 109.853 425.453 107.734 429.229 105.861V103.373H429.225Z" fill="white"/>
<path d="M163.871 111.752C163.871 111.752 140.045 101.825 116.16 102.473C92.2753 103.121 40.4844 127.639 2.70326 122.377C-35.0779 117.119 -78.9328 95.0164 -128.667 88.5402C-178.402 82.0641 -215.583 95.1737 -215.583 95.1737C-215.583 95.1737 -267.271 106.644 -284.574 106.93" stroke="#E7ECF8" stroke-width="6" stroke-miterlimit="10"/>
<path d="M315.973 109.472C322.167 105.232 328.823 101.518 335.467 98.0349C342.112 94.4712 349.203 91.8332 356.077 88.7744C364.116 85.229 371.84 80.9884 379.893 77.4649C390.229 72.9023 400.909 68.8337 411.904 66.1847C416.803 64.9993 421.765 64.0114 426.788 63.5723L426.832 63.8248C421.977 65.1237 417.198 66.5616 412.457 68.1239C402.995 71.2559 393.599 74.7354 384.254 78.215C375.06 81.8153 365.265 85.1485 356.425 89.5208C351.921 91.7198 347.589 94.27 343.176 96.6372C337.652 99.5863 332.006 102.286 326.364 104.994C322.965 106.615 319.559 108.199 316.097 109.696L315.973 109.472Z" fill="#E7ECF8"/>
<path d="M-81.1609 98.9789C-73.1518 102.016 -63.8473 109.279 -66.1085 118.923C-66.9207 122.476 -67.8903 126.413 -68.4172 129.969C-68.7758 132.406 -68.9624 134.879 -68.4684 137.141C-67.6269 141.345 -63.9388 144.012 -60.4922 146.156C-56.2772 148.637 -51.4512 150.14 -46.6581 151.125C-38.7148 152.815 -30.508 153.426 -22.3854 153.682C-14.8225 153.942 -7.26706 153.741 0.306732 153.492C-4.70587 154.14 -9.74775 154.586 -14.8043 154.882C-28.8762 155.541 -49.3473 155.31 -61.6447 148.007C-65.534 145.589 -69.6429 142.358 -70.4991 137.565C-71.015 134.923 -70.7442 132.263 -70.3125 129.669C-69.7088 125.996 -68.5892 122.136 -67.6415 118.55C-65.267 109.516 -73.964 102.59 -81.1573 98.9789H-81.1609Z" fill="#E7ECF8"/>
<path d="M-286.191 162.548C-278.237 163.685 -270.078 163.656 -262.058 163.338C-254.074 162.946 -245.933 162.065 -238.037 160.821C-226.651 159.053 -215.477 156.24 -204.314 153.386C-193.191 150.634 -181.717 147.861 -170.371 146.193C-161.209 144.795 -151.824 144.352 -142.589 145.292C-137.979 145.783 -133.409 146.536 -128.858 147.407C-117.515 149.723 -106.736 154.077 -95.5804 157.052C-79.4998 161.56 -62.6582 163.052 -46.0544 161.395C-39.8563 160.806 -33.4314 159.803 -27.3358 158.534C31.052 145.15 89.3373 129.859 144.542 106.267C111.909 122.476 75.7959 134.056 40.4222 144.107C31.7471 146.456 22.2927 148.984 13.5847 151.092C-1.0397 154.586 -15.5982 158.256 -30.3799 161.055C-33.5009 161.626 -37.5403 162.189 -40.7162 162.551C-56.8443 164.428 -73.3054 163.448 -89.0677 159.529C-102.569 156.415 -115.397 150.821 -129.008 148.19C-134.591 147.184 -140.456 146.401 -146.124 146.149C-152.999 145.863 -159.906 146.291 -166.705 147.33C-179.214 149.218 -191.537 152.317 -203.845 155.277C-213.907 157.776 -224.09 160.327 -234.364 161.882C-243.456 163.352 -252.812 164.201 -262.021 164.425C-265.208 164.454 -269.222 164.446 -272.438 164.267C-277.059 164.04 -281.684 163.656 -286.232 162.767L-286.188 162.551L-286.191 162.548Z" fill="#E7ECF8"/>
<path d="M-286.78 169.298C-281.113 170.52 -275.138 170.806 -269.342 170.893C-264.538 170.985 -259.544 170.692 -254.733 170.388C-253.214 170.242 -250.408 169.975 -248.911 169.832C-226.71 167.546 -204.65 161.834 -183.385 155.124C-179.693 153.986 -175.735 152.939 -171.907 152.27C-169.979 151.886 -167.974 151.655 -166.05 151.392C-164.081 151.234 -162.116 150.997 -160.137 150.964C-159.369 150.934 -158.582 150.905 -157.916 150.88C-155.241 150.88 -152.402 150.967 -149.771 151.169C-148.652 151.282 -147.185 151.432 -146.087 151.542C-139.011 152.435 -132.019 154.099 -125.195 156.086C-110.212 160.462 -95.4999 165.797 -79.9682 167.783C-64.5023 170.023 -48.8168 168.563 -33.4863 165.958C-10.3734 162.061 12.3956 156.32 35.0035 150.177C86.8017 135.926 137.81 118.784 188.631 101.423C191.975 100.439 194.141 99.8021 197.105 98.935C200.866 97.9764 204.744 96.9116 208.546 96.1287L214.312 94.9066L220.126 93.9187C221.096 93.7614 222.062 93.5711 223.035 93.4467L225.962 93.0845L228.889 92.7223L230.352 92.5393C230.839 92.4771 231.333 92.4552 231.823 92.4113L237.707 91.9429C255.386 90.8636 273.274 92.6454 290.284 97.658C297.697 99.8204 305.329 102.744 312.362 105.923C324.853 111.536 337.059 117.778 349.298 123.903C372.875 135.608 396.383 147.85 421.607 155.629C426.027 156.986 431.215 158.241 435.826 159.057L435.793 159.273C430.542 158.479 425.164 157.224 420.041 155.76C382.019 144.327 347.68 123.771 311.527 107.815C277.38 92.3601 242.408 90.6184 206.175 98.946C203.325 99.6594 200.482 100.34 197.686 101.064C195.484 101.697 191.316 102.901 189.275 103.49C145.8 118.228 102.041 132.362 57.8237 144.696C31.4654 152.047 5.0047 159.119 -21.8 164.655C-33.2741 166.927 -44.9494 169.112 -56.6248 169.935C-66.4122 170.645 -76.3093 170.055 -85.9979 168.479C-106.55 165.255 -125.707 156.21 -146.325 153.477L-147.046 153.4L-148.487 153.25L-149.929 153.097C-152.636 152.903 -154.561 152.808 -157.166 152.797C-161.011 152.797 -164.908 153.086 -168.713 153.642L-170.151 153.836L-171.578 154.099L-174.428 154.633C-180.425 155.903 -188.31 158.508 -194.109 160.173C-198.573 161.508 -203.827 162.774 -208.298 163.971L-211.163 164.615L-216.897 165.906C-221.188 166.883 -224.357 167.374 -228.426 168.171C-232.015 168.8 -233.778 168.994 -237.134 169.525C-241.125 170.107 -243.683 170.315 -247.342 170.751L-248.805 170.864L-251.736 171.087L-254.667 171.31C-260.481 171.596 -266.466 171.72 -272.288 171.424C-277.172 171.128 -282.068 170.696 -286.839 169.514L-286.78 169.302V169.298Z" fill="#E7ECF8"/>
<path d="M-287.146 169.298C-266.935 173.959 -245.651 176.491 -225.144 172.47C-217.434 170.688 -209.809 168.519 -202.254 166.181C-193.974 163.671 -185.749 160.63 -177.238 158.837C-174.824 158.358 -172.105 157.934 -169.668 157.637C-166.822 157.341 -163.814 157.143 -160.946 157.048C-158.037 157.001 -154.1 157.026 -151.144 157.136C-143.844 157.334 -136.658 158.977 -129.699 161.091C-114.577 165.87 -99.8137 171.98 -84.1027 174.603C-68.4977 177.399 -52.4245 177.172 -36.7829 174.772C-29.6628 173.681 -22.6305 172.13 -15.6714 170.246C6.58896 164.161 28.3627 156.393 50.1438 148.776C93.5413 133.42 137.169 116.984 181.423 104.196C198.111 99.4984 214.982 95.0493 232.259 93.1723C238.014 92.6125 243.854 92.3271 249.594 93.1979L249.561 93.4138C246.704 93.0516 243.813 93.0369 240.941 93.1357C220.763 94.3212 201.225 100.234 181.906 105.839C127.133 122.56 72.4627 144.209 17.946 161.732C-4.07288 168.672 -26.4284 175.573 -49.6108 176.971C-72.8261 178.877 -95.9061 173.985 -117.738 166.367C-128.594 162.826 -139.691 159.116 -151.202 158.966C-160.514 158.724 -169.866 159.094 -178.936 161.249C-186.66 163.016 -194.091 165.705 -201.712 167.97C-208.639 170.074 -215.634 171.936 -222.678 173.616L-224.818 174.08L-226.973 174.468C-235.582 175.921 -244.36 176.049 -253.05 175.463C-264.6 174.622 -276.067 172.657 -287.208 169.521L-287.15 169.309L-287.146 169.298Z" fill="#E7ECF8"/>
<path d="M197.192 100.347C217.272 93.6663 239.357 93.0333 259.857 98.313C280.208 103.556 298.356 116.483 316.229 127.101C343.751 144.136 372.59 160.66 404.777 166.649C406.072 166.872 408.454 167.264 409.636 167.469C411.487 167.765 413.649 167.985 415.501 168.237C417.246 168.427 419.73 168.596 421.399 168.753L425.343 168.925C427.685 169.079 430.919 169.013 433.246 169.035C431.768 169.082 428.702 169.221 427.315 169.265C425.361 169.265 423.309 169.24 421.377 169.21C419.829 169.126 416.898 168.987 415.442 168.877C414.451 168.79 412.486 168.592 411.494 168.5C410.283 168.409 406.869 167.93 405.593 167.75C361.8 161.329 325.332 134.393 288.049 112.604C274.54 104.529 259.726 98.6935 244.033 96.8604C228.424 94.9286 212.318 95.9201 197.192 100.34V100.347Z" fill="#E7ECF8"/>
<path d="M217.342 95.031C242.079 91.2478 269.217 93.2711 292.319 103.329C295.07 104.507 297.876 105.96 300.518 107.38C334.399 126.709 367.167 149.54 405.486 159.148C411.224 160.634 417.323 161.871 423.192 162.709C426.671 163.213 430.48 163.605 433.981 163.916C419.474 163.448 405.04 160.766 391.21 156.39C358.13 146.064 329.236 126.365 299.512 109.165C296.943 107.749 294.207 106.297 291.525 105.115C268.865 94.9542 241.9 92.382 217.345 95.031H217.342Z" fill="#E7ECF8"/>
</g>
<mask id="mask1_484_431" style="mask-type:luminance" maskUnits="userSpaceOnUse" x="-8" y="-6" width="485" height="233">
<path d="M476.318 -6H-7.53445V227H476.318V-6Z" fill="white"/>
</mask>
<g mask="url(#mask1_484_431)">
<path d="M560.688 167.986C560.688 167.986 578.234 138.506 539.631 134.294C539.631 134.294 538.226 100.603 506.64 83.0573C475.055 65.5113 444.174 90.7797 444.174 90.7797C444.174 90.7797 432.24 71.8284 412.589 83.7576C412.589 83.7576 404.871 38.8376 361.352 31.8202C317.832 24.8027 302.392 51.4718 302.392 51.4718C302.392 51.4718 261.684 40.2429 246.243 73.9341C246.243 73.9341 225.186 47.2604 199.918 54.2825C174.65 61.2999 171.143 91.48 171.143 91.48C171.143 91.48 144.469 76.7402 121.307 88.674C98.144 100.608 101.655 127.982 101.655 127.982C101.655 127.982 82.0034 118.859 70.0742 126.577C58.1358 134.299 56.7351 137.805 56.7351 137.805C56.7351 137.805 16.7268 136.4 16.7268 151.845C16.7268 167.285 33.5678 175.008 47.6027 167.99C61.6468 160.973 65.8536 158.867 65.8536 158.867C65.8536 158.867 74.281 180.624 93.2277 178.519C112.179 176.413 119.201 158.867 119.201 158.867C119.201 158.867 120.606 178.812 151.487 178.665C182.372 178.519 185.178 154.656 185.178 154.656C185.178 154.656 202.024 196.77 245.538 198.875C289.058 200.981 300.286 178.519 300.286 178.519C300.286 178.519 316.432 185.541 325.555 177.818C334.678 170.096 335.383 163.078 335.383 163.078C335.383 163.078 333.978 179.924 361.352 183.435C388.726 186.946 397.149 168.695 397.149 168.695C397.149 168.695 407.677 200.981 444.879 202.386C482.081 203.792 495.416 174.312 495.416 174.312C495.416 174.312 503.839 198.875 524.191 197.474C544.547 196.069 545.248 173.611 545.248 173.611C545.248 173.611 557.607 175.648 560.688 167.995V167.986Z" fill="#00D8DB" stroke="#E7ECF8" stroke-width="3" stroke-linecap="round" stroke-linejoin="round"/>
<path d="M377.305 139.412C383.819 139.412 390.937 137.636 398.124 133.168C421.762 118.465 413.545 83.895 413.463 83.5471L411.715 83.9774C411.797 84.3115 419.698 117.632 397.176 131.635C384.061 139.792 369.321 139.71 357.745 131.41C348.763 124.974 344.3 115.073 346.374 106.183C348.438 97.3485 353.794 91.5808 361.072 90.3585C367.939 89.2096 374.874 92.4276 378.733 98.5662C382.541 104.618 381.443 109.319 379.854 112.198C377.3 116.817 371.427 120.172 365.883 120.172C358.985 120.172 355.099 114.18 354.819 108.262C354.618 103.949 356.454 99.4085 361.018 98.9827L360.848 97.1883C355.103 97.7285 352.778 103.18 353.02 108.349C353.336 115.119 357.859 121.976 365.883 121.976C372.141 121.976 378.531 118.314 381.429 113.068C383.255 109.763 384.533 104.398 380.253 97.6049C376 90.8483 368.355 87.3053 360.766 88.5779C352.732 89.9237 346.845 96.1904 344.611 105.771C342.373 115.371 347.111 126.009 356.687 132.875C361.919 136.624 369.138 139.408 377.3 139.412H377.305Z" fill="#E7ECF8"/>
<path d="M223.607 126.105C223.978 126.105 224.349 126.105 224.729 126.096C249.036 125.698 271.242 107.428 289.085 92.7435C302.278 81.89 313.653 72.5334 322.085 73.2475C344.849 75.2296 351.066 94.0206 351.125 94.2083L352.842 93.6682C352.778 93.4667 346.236 73.5404 322.236 71.453C313.09 70.6565 301.431 80.2466 287.936 91.3519C270.308 105.854 248.372 123.903 224.696 124.292C202.266 124.645 194.04 114.029 193.853 103.954C193.697 95.6731 198.929 88.8296 205.516 88.6923C212.891 88.5046 218.562 91.5213 221.089 96.8771C223.048 101.015 222.582 105.707 219.908 108.825C216.576 112.716 210.41 112.94 206.304 111.173C204.505 110.399 200.376 108.051 200.902 102.984C201.305 99.1109 203.337 96.4605 206.345 95.8883C209.155 95.3527 213.024 96.8038 215.335 101.249L216.933 100.42C214.562 95.8562 210.167 93.3294 206.006 94.1213C202.175 94.8492 199.597 98.0947 199.108 102.8C198.659 107.14 201.085 110.889 205.59 112.83C210.405 114.895 217.34 114.592 221.277 110.001C224.413 106.344 224.976 100.892 222.719 96.1126C219.913 90.1754 213.486 86.7468 205.475 86.8979C197.899 87.0581 191.875 94.7256 192.049 103.995C192.241 114.272 200.646 126.11 223.607 126.11V126.105Z" fill="#E7ECF8"/>
<path d="M300.987 179.077C301.11 178.921 313.47 163.289 309.661 143.212C307.533 131.987 297.224 126.668 288.142 127.199C280.974 127.625 272.331 132.102 271.562 143.317C270.898 153.008 274.455 159.998 281.074 162.012C286.911 163.788 293.548 160.899 296.858 155.15C299.934 149.812 300.392 144.644 298.153 140.598C296.057 136.812 291.832 134.436 286.847 134.244C281.395 134.024 278.264 138.538 277.952 143.093C277.673 147.167 279.678 150.128 282.951 150.453L283.134 148.659C280.378 148.384 279.591 145.555 279.756 143.212C280.012 139.527 282.512 135.874 286.783 136.043C291.136 136.208 294.798 138.24 296.583 141.467C298.501 144.942 298.048 149.478 295.301 154.248C292.404 159.279 286.645 161.82 281.605 160.286C275.842 158.533 272.766 152.234 273.366 143.436C274.052 133.393 281.816 129.378 288.252 128.994C296.537 128.508 305.958 133.338 307.894 143.541C311.552 162.813 299.71 177.791 299.586 177.942L300.991 179.072L300.987 179.077Z" fill="#E7ECF8"/>
<path d="M310.142 157.736C310.659 157.21 322.74 144.502 313.41 116.249C308.92 102.645 310.142 90.798 316.775 83.7531C321.984 78.2187 329.936 76.3511 338.578 78.6399L339.04 76.9004C329.734 74.4422 321.142 76.4884 315.461 82.5217C308.361 90.0656 306.988 102.562 311.698 116.817C320.657 143.949 308.975 156.354 308.856 156.473L310.142 157.736Z" fill="#E7ECF8"/>
<path d="M255.179 174.005C258.058 174.005 260.741 173.52 263.226 172.545C273.452 168.535 276.382 157.791 276.506 157.338L274.762 156.88C274.734 156.981 271.924 167.212 262.549 170.879C254.469 174.037 243.982 171.574 231.366 163.559C217.153 154.527 206.748 145.976 198.384 139.11C184.638 127.817 175.556 120.36 161.622 119.5C150.15 118.781 143.755 126.252 142.506 133.956C141.141 142.374 145.38 152.948 157.905 156.271C166.529 158.56 171.267 155.901 173.729 153.273C177.007 149.767 178.074 144.049 176.375 139.055C174.965 134.894 171.999 132.147 168.236 131.525C161.233 130.353 157.049 134.207 156.014 138.542C155.039 142.635 156.866 146.53 160.271 147.592L160.811 145.871C157.973 144.983 157.126 141.646 157.767 138.959C158.546 135.695 161.681 132.257 167.939 133.301C171.024 133.818 173.478 136.125 174.668 139.636C176.156 144.022 175.249 149.011 172.411 152.046C170.287 154.321 166.121 156.596 158.367 154.537C146.928 151.497 143.046 141.889 144.286 134.249C145.321 127.849 150.452 120.63 161.512 121.303C174.865 122.123 183.768 129.438 197.24 140.506C205.64 147.409 216.095 155.997 230.396 165.083C239.752 171.03 248.051 174.014 255.17 174.014L255.179 174.005Z" fill="#E7ECF8"/>
<path d="M262.059 198.161C268.294 198.161 274.45 197.104 280.076 195.108L279.472 193.41C258.896 200.706 230.954 195.025 219.693 170.114C208.007 144.26 189.714 132.083 189.531 131.96L188.543 133.47C188.721 133.589 206.592 145.505 218.05 170.856C226.665 189.917 244.655 198.157 262.054 198.157L262.059 198.161Z" fill="#E7ECF8"/>
<path d="M80.2777 161.289C91.0304 161.289 96.4503 150.11 102.149 138.355C107.981 126.329 114.591 112.697 127.894 108.207C155.433 98.9187 176.966 125.496 177.176 125.766L178.591 124.645C178.371 124.366 156.064 96.7992 127.317 106.499C113.3 111.228 106.516 125.222 100.534 137.567C94.1707 150.687 88.6776 162.016 76.3547 158.977C68.7467 157.1 63.9814 153.397 62.9423 148.554C62.1641 144.914 63.7022 140.845 66.792 138.428C69.5203 136.29 72.7795 135.887 75.7504 137.325C80.3784 139.572 82.7038 142.333 82.2826 145.098C81.9119 147.601 79.2111 149.872 76.0022 150.38C73.4799 150.769 71.9327 149.062 71.3834 148.306C70.3122 146.837 70.0101 145.033 70.6235 143.825C71.2964 142.502 72.8757 142.223 74.0796 142.223V140.419C70.8112 140.428 69.5111 142.049 69.0213 143.01C68.0875 144.837 68.4491 147.331 69.9323 149.368C71.4795 151.502 73.8553 152.55 76.286 152.161C80.3051 151.529 83.5827 148.668 84.0725 145.368C84.3838 143.28 83.8208 139.247 76.5378 135.709C72.9856 133.983 68.9206 134.468 65.6797 137.013C62.013 139.888 60.2415 144.571 61.1845 148.934C61.8803 152.152 64.7138 157.961 75.9243 160.725C77.4716 161.105 78.9227 161.289 80.2868 161.289H80.2777Z" fill="#E7ECF8"/>
<path d="M395.253 156.615C395.437 156.615 395.615 156.615 395.798 156.615C410.08 156.464 425.177 142.36 439.78 128.723C454.492 114.977 469.708 100.718 483.569 101.359C499.714 102.05 507.812 111.109 509.845 118.657C511.868 126.169 508.943 133.502 502.218 137.801C493.237 143.537 483.272 140.969 477.38 135.883C472.226 131.429 470.39 125.624 472.592 120.726C475.563 114.116 482.644 112.033 488.334 112.912C492.926 113.617 498.089 116.506 498.803 122.493C499.563 128.888 495.567 132.399 491.91 133.461C488.678 134.4 484.443 133.846 482.791 130.408C480.932 126.535 482.585 122.489 485.089 120.653C487.227 119.078 489.653 119.22 491.575 121.015L492.807 119.701C490.239 117.302 486.874 117.11 484.022 119.202C480.937 121.468 478.886 126.439 481.17 131.186C482.974 134.944 487.597 136.592 492.418 135.192C496.748 133.933 501.49 129.795 500.598 122.283C499.911 116.52 495.205 112.148 488.609 111.132C482.242 110.157 474.309 112.514 470.949 119.989C468.445 125.556 470.509 132.326 476.204 137.247C482.603 142.777 493.425 145.56 503.189 139.321C510.6 134.587 513.818 126.49 511.584 118.19C509.396 110.051 500.763 100.292 483.647 99.5595C469.031 98.9415 453.54 113.411 438.553 127.41C424.202 140.813 409.366 154.674 395.78 154.82C395.606 154.82 395.427 154.82 395.258 154.82C368.406 154.82 359.173 132.747 359.081 132.518L357.41 133.191C357.506 133.429 367.165 156.619 395.253 156.619V156.615Z" fill="#E7ECF8"/>
<path d="M366.685 136.02C378.476 136.02 388.048 130.948 393.628 121.486C403.484 104.769 398.856 79.2121 382.372 59.3316C353.162 24.1023 315.617 38.0274 315.241 38.1693L315.887 39.8493C316.253 39.7074 352.622 26.2721 380.98 60.4805C396.988 79.7843 401.548 104.494 392.072 120.566C385.503 131.708 373.551 136.267 358.413 133.406L358.079 135.178C361.054 135.741 363.929 136.016 366.685 136.016V136.02Z" fill="#E7ECF8"/>
</g>
</g>
<defs>
<clipPath id="clip0_484_431">
<rect width="876.292" height="296" fill="white" transform="translate(-377)"/>
</clipPath>
</defs>
</svg>
