<svg width="818" height="325" viewBox="0 0 818 325" fill="none" xmlns="http://www.w3.org/2000/svg">
<path d="M50.3695 195.195C50.3695 195.195 52.9824 132.432 111.789 99.7439C170.595 67.0554 228.087 114.132 228.087 114.132C228.087 114.132 250.305 78.8286 286.894 101.051C286.894 101.051 301.264 17.3731 382.289 4.29264C463.305 -8.77941 492.055 40.9028 492.055 40.9028C492.055 40.9028 567.845 19.9875 596.595 82.7418C596.595 82.7418 635.797 33.0596 682.845 46.1316C729.885 59.2037 736.418 115.43 736.418 115.43C736.418 115.43 786.079 87.9706 829.2 110.202C872.321 132.432 865.789 183.422 865.789 183.422C865.789 183.422 902.377 166.428 924.587 180.808C946.813 195.187 949.417 201.723 949.417 201.723C949.417 201.723 1023.9 199.108 1023.9 227.875C1023.9 256.642 992.547 271.022 966.418 257.949C940.272 244.877 932.434 240.947 932.434 240.947C932.434 240.947 916.748 281.479 881.474 277.558C846.184 273.636 833.119 240.947 833.119 240.947C833.119 240.947 830.506 278.097 773.015 277.827C715.515 277.558 710.289 233.104 710.289 233.104C710.289 233.104 678.926 311.553 597.91 315.475C516.894 319.397 495.3 277.448 495.3 277.448" fill="#178DCE"/>
<path d="M50.3695 195.195C50.3695 195.195 52.9824 132.432 111.789 99.7439C170.595 67.0554 228.087 114.132 228.087 114.132C228.087 114.132 250.305 78.8286 286.894 101.051C286.894 101.051 301.264 17.3731 382.289 4.29264C463.305 -8.77941 492.055 40.9028 492.055 40.9028C492.055 40.9028 567.845 19.9875 596.595 82.7418C596.595 82.7418 635.797 33.0596 682.845 46.1316C729.885 59.2037 736.418 115.43 736.418 115.43C736.418 115.43 786.079 87.9706 829.2 110.202C872.321 132.432 865.789 183.422 865.789 183.422C865.789 183.422 902.377 166.428 924.587 180.808C946.813 195.187 949.417 201.723 949.417 201.723C949.417 201.723 1023.9 199.108 1023.9 227.875C1023.9 256.642 992.547 271.022 966.418 257.949C940.272 244.877 932.434 240.947 932.434 240.947C932.434 240.947 916.748 281.479 881.474 277.558C846.184 273.636 833.119 240.947 833.119 240.947C833.119 240.947 830.506 278.097 773.015 277.827C715.515 277.558 710.289 233.104 710.289 233.104C710.289 233.104 678.926 311.553 597.91 315.475C516.894 319.397 495.3 277.448 495.3 277.448" stroke="#E6ECF9" stroke-width="3" stroke-miterlimit="10"/>
<path d="M48.6922 195.069C-19.4533 212.189 7.26547 257.224 7.26547 257.224C17.3798 272.405 39.918 268.416 39.918 268.416C39.918 268.416 41.2244 310.255 79.1195 312.869C107.996 314.859 123.977 288.766 129.944 276.225C131.141 273.712 134.647 273.51 136.122 275.871C144.998 290.132 171.986 324.086 226.789 322.02C283.362 319.886 306.802 279.363 313.494 264.587C314.438 262.504 317.279 262.225 318.619 264.081C325.185 273.214 343.231 287.492 382.297 286.717C423.657 285.89 433.392 272.759 437.244 268.643C438.103 267.724 439.561 267.733 440.396 268.677C444.551 273.383 464.114 286.733 495.983 277.566" fill="#178DCE"/>
<path d="M48.6922 195.069C-19.4533 212.189 7.26547 257.224 7.26547 257.224C17.3798 272.405 39.918 268.416 39.918 268.416C39.918 268.416 41.2244 310.255 79.1195 312.869C107.996 314.859 123.977 288.766 129.944 276.225C131.141 273.712 134.647 273.51 136.122 275.871C144.998 290.132 171.986 324.086 226.789 322.02C283.362 319.886 306.802 279.363 313.494 264.587C314.438 262.504 317.279 262.225 318.619 264.081C325.185 273.214 343.231 287.492 382.297 286.717C423.657 285.89 433.392 272.759 437.244 268.643C438.103 267.724 439.561 267.733 440.396 268.677C444.551 273.383 464.114 286.733 495.983 277.566" stroke="#E6ECF9" stroke-width="3" stroke-miterlimit="10"/>
<path d="M352.578 204.725C340.449 204.725 327.199 201.419 313.815 193.095C269.809 165.711 285.098 101.304 285.258 100.655L288.52 101.456C288.369 102.08 273.661 164.143 315.585 190.236C340.002 205.434 367.446 205.273 388.998 189.815C405.72 177.822 414.031 159.378 410.171 142.814C406.327 126.352 396.356 115.608 382.803 113.339C370.017 111.197 357.113 117.193 349.923 128.629C342.834 139.905 344.874 148.659 347.833 154.031C352.586 162.642 363.518 168.891 373.843 168.891C386.689 168.891 393.929 157.733 394.443 146.702C394.822 138.673 391.4 130.214 382.904 129.413L383.216 126.074C393.912 127.077 398.244 137.24 397.789 146.862C397.199 159.479 388.787 172.256 373.843 172.256C362.195 172.256 350.294 165.433 344.899 155.659C341.503 149.502 339.126 139.508 347.082 126.858C354.997 114.275 369.233 107.672 383.359 110.041C398.312 112.555 409.277 124.227 413.441 142.064C417.613 159.951 408.788 179.762 390.953 192.556C381.21 199.539 367.775 204.725 352.578 204.725Z" fill="#E6ECF9"/>
<path d="M638.738 179.939C638.047 179.939 637.356 179.939 636.656 179.922C591.403 179.18 550.061 145.142 516.843 117.792C492.282 97.5766 471.101 80.1444 455.399 81.4769C413.011 85.1624 401.439 120.17 401.329 120.524L398.126 119.512C398.244 119.141 410.424 82.0167 455.104 78.1288C472.13 76.6445 493.833 94.5153 518.967 115.194C551.788 142.216 592.625 175.84 636.707 176.557C678.471 177.215 693.777 157.438 694.131 138.673C694.418 123.248 684.674 110.497 672.419 110.244C658.689 109.898 648.136 115.515 643.425 125.483C639.783 133.192 640.643 141.929 645.616 147.74C651.828 154.984 663.299 155.406 670.944 152.108C674.299 150.666 681.977 146.297 681.008 136.852C680.258 129.641 676.473 124.699 670.877 123.628C665.642 122.633 658.436 125.332 654.137 133.613L651.162 132.07C655.579 123.569 663.754 118.863 671.5 120.33C678.631 121.688 683.435 127.735 684.337 136.506C685.172 144.594 680.662 151.577 672.267 155.186C663.299 159.041 650.395 158.467 643.062 149.915C637.23 143.101 636.176 132.947 640.382 124.041C645.608 112.985 657.568 106.601 672.486 106.879C686.588 107.174 697.806 121.461 697.477 138.733C697.123 157.877 681.471 179.922 638.73 179.931L638.738 179.939Z" fill="#E6ECF9"/>
<path d="M494.668 278.629C494.432 278.333 471.43 249.221 478.518 211.818C482.48 190.902 501.68 181.001 518.58 181.997C531.922 182.789 548.021 191.13 549.445 212.02C550.684 230.076 544.059 243.098 531.737 246.851C520.872 250.165 508.516 244.785 502.355 234.066C496.632 224.122 495.772 214.491 499.936 206.952C503.838 199.893 511.702 195.473 520.99 195.111C531.138 194.706 536.963 203.106 537.553 211.59C538.075 219.18 534.333 224.696 528.247 225.303L527.91 221.963C533.035 221.449 534.501 216.178 534.198 211.818C533.726 204.953 529.073 198.147 521.117 198.459C513.017 198.771 506.19 202.549 502.869 208.571C499.295 215.039 500.138 223.498 505.254 232.387C510.648 241.757 521.37 246.488 530.759 243.629C541.489 240.365 547.22 228.634 546.099 212.239C544.818 193.525 530.371 186.053 518.386 185.336C502.962 184.425 485.422 193.433 481.823 212.433C475.012 248.335 497.061 276.242 497.289 276.52L494.676 278.629H494.668Z" fill="#E6ECF9"/>
<path d="M479.69 241.622C478.729 240.644 454.177 214.222 471.54 161.588C479.901 136.245 477.617 114.174 465.269 101.051C455.567 90.737 440.767 87.2624 424.676 91.5213L423.817 88.2744C441.137 83.695 457.135 87.507 467.713 98.7405C480.929 112.791 483.483 136.076 474.726 162.625C458.045 213.167 479.791 236.275 480.019 236.503L477.625 238.856L479.69 241.605V241.622Z" fill="#E6ECF9"/>
<path d="M579.957 269.175C574.596 269.175 569.607 268.272 564.971 266.45C545.931 258.978 540.477 238.965 540.25 238.122L543.495 237.27C543.545 237.456 548.78 256.516 566.227 263.347C581.263 269.234 600.801 264.646 624.275 249.71C650.732 232.885 670.11 216.962 685.677 204.16C711.267 183.127 728.174 169.228 754.118 167.626C775.476 166.293 787.386 180.2 789.712 194.554C792.249 210.232 784.36 229.933 761.046 236.132C744.99 240.391 736.165 235.44 731.588 230.54C725.486 224.013 723.505 213.361 726.657 204.05C729.287 196.3 734.808 191.189 741.812 190.017C754.851 187.833 762.639 195.01 764.569 203.089C766.39 210.713 762.985 217.966 756.646 219.948L755.643 216.743C760.928 215.09 762.504 208.874 761.307 203.865C759.858 197.784 754.025 191.375 742.368 193.323C736.628 194.284 732.052 198.577 729.835 205.121C727.07 213.294 728.756 222.579 734.041 228.238C737.994 232.472 745.748 236.714 760.186 232.876C781.486 227.217 788.709 209.321 786.399 195.086C784.469 183.169 774.92 169.709 754.329 170.974C729.464 172.5 712.893 186.129 687.81 206.749C672.166 219.602 652.705 235.6 626.078 252.535C608.657 263.608 593.207 269.175 579.949 269.175H579.957Z" fill="#E6ECF9"/>
<path d="M567.146 314.176C555.539 314.176 544.076 312.203 533.6 308.492L534.721 305.329C573.029 318.924 625.05 308.34 646.012 261.939C667.767 213.774 701.827 191.088 702.164 190.86L704.001 193.669C703.664 193.888 670.396 216.094 649.063 263.313C633.024 298.819 599.537 314.176 567.137 314.176H567.146Z" fill="#E6ECF9"/>
<path d="M905.58 245.485C885.562 245.485 875.473 224.662 864.861 202.76C854.005 180.352 841.7 154.959 816.936 146.601C765.665 129.295 725.578 178.809 725.182 179.315L722.552 177.223C722.965 176.7 764.493 125.348 818.015 143.421C844.11 152.226 856.736 178.294 867.887 201.293C879.738 225.733 889.962 246.834 912.905 241.175C927.065 237.684 935.94 230.785 937.879 221.761C939.328 214.98 936.463 207.399 930.714 202.895C925.64 198.914 919.572 198.164 914.034 200.846C905.42 205.037 901.088 210.182 901.872 215.326C902.554 219.99 907.586 224.215 913.562 225.168C918.257 225.893 921.139 222.706 922.159 221.306C924.157 218.565 924.722 215.208 923.575 212.956C922.328 210.494 919.386 209.979 917.144 209.971V206.614C923.23 206.631 925.649 209.65 926.567 211.438C928.304 214.845 927.638 219.492 924.873 223.279C921.991 227.251 917.574 229.208 913.039 228.483C905.555 227.302 899.453 221.98 898.542 215.824C897.961 211.936 899.014 204.422 912.567 197.827C919.184 194.613 926.744 195.516 932.779 200.255C939.607 205.611 942.902 214.331 941.149 222.461C939.851 228.457 934.575 239.278 913.705 244.43C910.823 245.139 908.126 245.476 905.58 245.476V245.485Z" fill="#E6ECF9"/>
<path d="M319.158 236.773C318.821 236.773 318.484 236.773 318.139 236.773C291.546 236.495 263.437 210.215 236.254 184.814C208.861 159.209 180.533 132.643 154.733 133.833C124.676 135.114 109.597 151.998 105.813 166.057C102.045 180.049 107.49 193.711 120.007 201.714C136.729 212.4 155.281 207.618 166.255 198.139C175.855 189.84 179.268 179.028 175.172 169.903C169.643 157.59 156.461 153.71 145.857 155.347C137.302 156.662 127.694 162.034 126.362 173.192C124.946 185.109 132.388 191.645 139.199 193.627C145.217 195.372 153.098 194.343 156.174 187.934C159.638 180.715 156.553 173.184 151.901 169.768C147.922 166.842 143.405 167.095 139.822 170.443L137.53 167.989C142.309 163.519 148.58 163.156 153.881 167.061C159.621 171.278 163.439 180.538 159.191 189.385C155.837 196.384 147.223 199.454 138.255 196.848C130.189 194.504 121.364 186.795 123.024 172.796C124.305 162.06 133.063 153.913 145.343 152.024C157.202 150.211 171.969 154.604 178.223 168.52C182.884 178.885 179.041 191.501 168.446 200.669C156.536 210.966 136.384 216.161 118.203 204.531C104.405 195.71 98.421 180.63 102.576 165.172C106.656 150.017 122.721 131.825 154.589 130.468C181.797 129.312 210.648 156.266 238.547 182.342C265.266 207.314 292.886 233.138 318.181 233.408C318.509 233.408 318.83 233.408 319.158 233.408C369.149 233.408 386.343 192.286 386.512 191.864L389.622 193.121C389.445 193.559 371.466 236.764 319.158 236.764V236.773Z" fill="#E6ECF9"/>
<path d="M233.111 279.337C232.344 279.337 231.577 279.303 230.81 279.244C216.557 278.106 209.864 271.587 206.763 266.333C201.124 256.786 202.928 244.928 206.493 237.001C210.699 227.648 222.533 224.494 232.049 226.214C240.924 227.816 246.731 233.315 247.203 240.568C247.92 251.481 241.902 262.858 234.063 265.405C230.776 266.476 224.37 266.83 218.344 257.241L221.184 255.453C223.713 259.476 227.826 263.912 233.035 262.217C239.415 260.142 244.472 250.132 243.865 240.796C243.486 235.069 238.85 230.853 231.459 229.52C223.426 228.061 213.017 230.684 209.553 238.384C206.333 245.535 204.672 256.187 209.654 264.629C213.59 271.283 220.796 275.078 231.088 275.905C244.835 277.026 259.458 266.957 263.706 253.497C267.896 240.197 260.967 227.083 244.692 217.519C222.263 204.337 190.942 219.29 160.65 233.745C134.892 246.033 110.567 257.646 90.3128 254.011C45.169 245.923 48.6669 195.575 48.7091 195.069L52.0552 195.339C51.9035 197.287 48.7681 243.166 90.9028 250.705C110.086 254.146 135.052 242.229 159.2 230.709C190.285 215.874 222.432 200.542 246.386 214.626C264.128 225.05 271.604 239.59 266.901 254.5C262.451 268.618 247.633 279.337 233.119 279.337H233.111Z" fill="#E6ECF9"/>
<path d="M295.693 197.245C267.752 197.245 246.124 172.096 225.086 147.621C216.371 137.484 207.353 127.001 197.929 118.281C176.706 98.6306 146.102 93.7898 106.968 103.893C104.279 104.585 103.478 104.787 102.854 104.737L102.989 103.058L106.31 102.468C106.647 102.443 107.465 100.292 108.839 99.9378C149.145 89.5392 178.097 95.3415 200.214 115.81C209.772 124.665 218.849 135.224 227.632 145.429C253.727 175.781 278.381 204.438 314.084 190.11L315.332 193.222C308.437 195.996 301.905 197.236 295.693 197.236V197.245Z" fill="#E6ECF9"/>
<path d="M372.36 198.408C350.403 198.408 332.585 188.963 322.201 171.337C303.852 140.191 312.474 92.5838 343.155 55.5519C397.536 -10.0698 467.435 15.8635 468.134 16.1249L466.929 19.2622C466.255 19.0008 398.531 -6.03012 345.734 57.7025C315.93 93.6632 307.443 139.694 325.084 169.641C337.314 190.396 359.565 198.897 387.751 193.559L386.975 196.932C381.437 197.978 377.484 198.417 372.36 198.417V198.408Z" fill="#E6ECF9"/>
</svg>
