<svg width="1954" height="1453" viewBox="0 0 1954 1453" fill="none" xmlns="http://www.w3.org/2000/svg">
<path d="M1877.46 477.528C1821.58 510.245 1769.78 553.366 1719.46 596.401C1695.38 616.984 1671.66 637.567 1648.11 656.934C1642.33 652.649 1636.57 648.485 1630.83 644.44C1602.47 624.525 1574.59 607.781 1546.07 595.784C1517.53 583.787 1497.38 580.702 1465.81 580.65C1448.89 580.633 1425.93 584.455 1409.6 587.506C1393.27 590.556 1375.14 600.72 1359.42 606.358C1313.57 622.228 1238.98 664.629 1226.93 659.488C1191.22 644.251 1119.44 609.957 1064.2 631.209C977.052 664.423 898.466 722.883 810.926 722.797C791.264 722.883 771.733 712.12 752.202 705.761C732.68 699.403 692.765 683.619 672.912 671.484C572.707 610.231 521.269 574.652 433.037 556.657C410.997 552.732 396.474 549.887 374.313 549.338C307.83 547.659 241.077 561.404 175.778 592.048C161.115 596.898 146.521 601.662 131.968 606.307C88.299 620.258 44.9207 633.214 0.568886 644.508C0.568886 754.795 -0.213965 866.401 0.0570238 976.584V1002.62V1007.26V1086.96V1453H1952V1082.38V902.391V442C1926.08 451.392 1901.34 463.56 1877.48 477.528H1877.46Z" fill="#00D8DB"/>
<path d="M1856.3 249.209C1801.05 269.662 1749.83 296.617 1700.08 323.52C1676.28 336.387 1652.82 349.254 1629.54 361.36C1623.82 358.682 1618.12 356.078 1612.45 353.55C1584.41 341.101 1556.85 330.633 1528.64 323.134C1500.43 315.634 1480.5 313.706 1449.29 313.674C1432.56 313.663 1409.86 316.052 1393.71 317.959C1377.57 319.866 1359.64 326.219 1344.1 329.744C1298.77 339.665 1225.01 366.171 1213.11 362.957C1177.8 353.432 1106.83 331.994 1052.21 345.279C966.04 366.042 888.339 402.586 801.786 402.533C782.346 402.586 763.035 395.858 743.724 391.884C724.423 387.909 684.957 378.041 665.328 370.456C566.252 332.165 515.394 309.924 428.157 298.675C406.365 296.221 392.005 294.443 370.094 294.1C304.361 293.05 238.359 301.642 173.797 320.798C159.299 323.83 144.87 326.809 130.481 329.712C87.3039 338.433 44.4145 346.533 0.562475 353.593C0.562475 422.535 -0.211554 492.303 0.0563811 561.181V577.455V580.359V630.177V859H1930V627.317V514.802V227C1904.37 232.871 1879.91 240.478 1856.32 249.209H1856.3Z" fill="#00D8DB"/>
<path d="M561.728 333.068C572.941 338.603 588.93 340.402 598.126 349.535C656.258 404.867 720.243 458.476 794.967 470.489C809.907 472.888 825.283 473.626 841.124 472.385C826.816 471.967 812.933 470.265 799.436 467.417C731.97 453.198 674.264 410.542 621.887 358.667C606.56 342.896 589.059 337.532 568.64 331.997L561.718 333.068H561.728ZM1107.38 341.794C1017.44 371.109 930.047 413.444 835.043 416.013C816.374 416.902 797.715 416.474 779.047 414.375C760.398 412.266 741.72 408.465 723.071 402.651C689.343 392.694 663.278 366.13 629.55 355.338C671.327 386.045 716.743 413.026 764.561 430.564C780.5 436.41 796.707 441.206 813.131 444.74C846.493 451.624 880.982 453.284 914.71 449.964C870.254 445.81 824.255 447.47 781.331 431.699C907.818 453.284 1029.7 396.837 1143.91 346.205C1140.85 347.04 1137.78 343.71 1134.72 345.37C1037.36 382.726 942.308 435.018 837.188 433.444C819.37 433.326 801.71 431.656 784.307 428.037C766.914 424.418 749.769 418.84 733.038 410.949C751.687 415.103 770.365 417.608 789.024 418.722C904.743 427.555 1012.83 379.407 1120.92 342.886C1116.32 342.886 1111.72 341.226 1107.37 341.783L1107.38 341.794Z" fill="#E7ECF8"/>
<path d="M1936.16 254.897C1935.59 255.058 1935.02 255.208 1934.46 255.368C1902.4 264.426 1873.86 276.857 1845.69 290.722C1789.34 318.453 1734.49 351.976 1660.66 375.552C1660.21 375.691 1659.83 375.852 1659.56 376.023C1661.19 376.848 1662.81 377.661 1664.44 378.486C1666.68 378.582 1668.94 378.347 1670.38 377.865C1746.06 353.689 1800.96 319.973 1856.88 292.446C1882.54 279.812 1908.42 268.495 1936.16 260.036V254.897ZM1936.16 278.324C1907.18 286.107 1882.2 296.686 1857.62 308.613C1807.2 333.078 1758.4 363.293 1684.5 386.891C1683.51 387.19 1682.93 387.565 1682.83 387.972C1683.88 388.518 1684.92 389.053 1685.96 389.61C1688.68 390.06 1692.19 389.889 1694.2 389.203C1769.81 365.059 1818.84 334.588 1868.78 310.358C1890.44 299.844 1912.28 290.519 1936.16 283.388V278.313V278.324ZM1936.16 292.906C1914.64 300.465 1894.93 309.93 1874.95 320.401C1828.16 344.909 1779.79 374.92 1705.6 398.615C1704.91 398.829 1704.52 399.096 1704.51 399.386C1705.13 399.717 1705.75 400.049 1706.37 400.371C1708.2 400.713 1710.68 400.617 1712.08 400.146C1787.4 376.088 1835.93 345.884 1882.51 321.483C1900.26 312.179 1917.74 303.731 1936.16 296.793V292.885V292.906ZM1936.16 308.849C1923.11 315.391 1910.27 322.8 1897.08 330.701C1852.63 357.34 1804.09 389.632 1730.67 413.347C1731.37 413.722 1732.07 414.097 1732.78 414.471C1807.48 390.51 1856.34 357.929 1900.96 331.183C1912.87 324.052 1924.46 317.339 1936.15 311.311V308.838L1936.16 308.849ZM1936.16 343.271C1920.75 350.241 1907.94 358.603 1895.38 367.469C1862.7 390.552 1831.49 416.988 1767.69 430.821C1766.5 431.067 1765.67 431.431 1765.35 431.827C1766.62 432.502 1767.91 433.187 1769.19 433.861C1771.35 434.097 1773.8 434.001 1775.62 433.604C1844 418.786 1874.88 391.687 1907.35 368.764C1916.59 362.233 1925.97 356.034 1936.17 350.552V343.271H1936.16Z" fill="white"/>
<path d="M1219.04 367.79C1219.04 367.79 1154.65 338.742 1090.1 340.637C1025.56 342.532 885.59 414.279 783.487 398.882C681.383 383.497 562.865 318.817 428.458 299.866C294.05 280.915 193.568 319.277 193.568 319.277C193.568 319.277 53.8798 352.843 7.11938 353.678" stroke="#E7ECF8" stroke-width="6" stroke-miterlimit="10"/>
<path d="M1630.1 361.119C1646.84 348.71 1664.83 337.843 1682.78 327.65C1700.74 317.222 1719.9 309.502 1738.48 300.551C1760.21 290.176 1781.08 277.767 1802.84 267.456C1830.78 254.105 1859.64 242.199 1889.35 234.447C1902.59 230.978 1916 228.087 1929.58 226.802L1929.7 227.541C1916.57 231.342 1903.66 235.55 1890.85 240.122C1865.28 249.287 1839.88 259.469 1814.63 269.651C1789.78 280.187 1763.31 289.941 1739.42 302.735C1727.25 309.17 1715.54 316.633 1703.62 323.56C1688.69 332.19 1673.43 340.091 1658.18 348.014C1648.99 352.757 1639.79 357.393 1630.43 361.773L1630.1 361.119Z" fill="#E7ECF8"/>
<path d="M525.874 321.408C547.776 330.177 575.611 348.582 578.202 376.216C578.844 383.379 577.618 390.713 574.998 397.223C572.427 403.197 569.302 409.268 567.256 415.456C563.073 427.277 560.977 440.725 564.497 452.973C577.786 498.52 655.15 508.017 693.14 508.788C652.203 512.567 573.742 504.708 558.821 454.836C554.055 437.566 558.653 419.3 565.99 403.818C567.246 401.216 569.035 397.651 570.232 394.974C573.92 386.291 574.8 376.355 571.952 367.329C565.189 346.248 543.712 330.873 525.864 321.397L525.874 321.408Z" fill="#E7ECF8"/>
<path d="M491.276 312.007C514.236 322.136 550.713 345.145 553.383 374.599C554.846 394.246 550.041 407.694 536.415 420.564C532.361 424.579 528.524 428.39 526.161 433.048C521.395 442.662 521.998 454.493 527.891 463.68C533.725 473.23 542.051 481.014 550.535 487.931C563.666 498.52 577.865 507.396 592.46 515.533C582.157 511.422 572.18 506.336 562.48 500.661C545.522 490.351 518.804 472.053 517.4 448.808C516.224 416.613 544.296 417.801 547.667 387.747C548.192 383.582 548.379 379.257 548.122 375.049L547.964 373.025C547.845 372.479 547.549 370.573 547.44 370.017C541.646 345.273 511.052 323.817 491.286 311.997L491.276 312.007Z" fill="#E7ECF8"/>
<path d="M471.747 308.442C497.99 319.684 533.379 345.402 530.779 380.07C527.535 404.996 495.251 398.197 480.449 420.938C478.372 424.054 476.602 427.534 475.356 431.142C470.679 442.245 474.684 453.594 481.892 462.459C500.235 484.804 534.16 500.875 559.76 511.871C532.262 503.413 497.871 489.13 477.977 466.175C468.296 454.504 464.331 441.399 470.887 426.452C474.714 416.623 481.774 408.369 490.445 403.368C498.455 398.508 508.145 396.002 516.026 391.934C524.856 387.555 526.922 380.092 525.528 370.177C521.682 342.254 493.382 320.776 471.747 308.453V308.442Z" fill="#E7ECF8"/>
<path d="M556.843 330.412C578.488 339.299 603.633 360.552 597.523 388.775C595.327 399.171 592.707 410.692 591.283 421.099C590.314 428.23 589.81 435.467 591.145 442.084C593.419 454.386 603.386 462.192 612.701 468.466C624.092 475.725 637.134 480.126 650.087 483.006C671.554 487.952 693.733 489.74 715.684 490.49C736.123 491.25 756.542 490.661 777.01 489.933C763.463 491.828 749.837 493.134 736.172 494.002C698.143 495.929 642.82 495.254 609.586 473.883C599.075 466.806 587.971 457.352 585.657 443.326C584.263 435.596 584.994 427.812 586.161 420.221C587.793 409.471 590.818 398.176 593.379 387.683C599.797 361.248 576.293 340.98 556.853 330.412H556.843Z" fill="#E7ECF8"/>
<path d="M2.74891 516.432C24.2454 519.762 46.2957 519.677 67.9702 518.745C89.5459 517.599 111.547 515.019 132.885 511.379C163.657 506.207 193.855 497.974 224.023 489.623C254.082 481.571 285.091 473.455 315.754 468.573C340.514 464.483 365.876 463.187 390.834 465.939C403.293 467.374 415.643 469.579 427.943 472.128C458.596 478.905 487.726 491.646 517.875 500.351C561.333 513.542 606.847 517.91 651.719 513.06C668.469 511.336 685.833 508.402 702.306 504.687C860.099 465.522 1017.62 420.778 1166.81 351.74C1078.61 399.171 981.019 433.058 885.422 462.47C861.978 469.344 836.427 476.742 812.894 482.909C773.371 493.134 734.027 503.873 694.079 512.064C685.645 513.734 674.728 515.383 666.146 516.443C622.559 521.936 578.073 519.066 535.476 507.599C498.989 498.488 464.321 482.117 427.538 474.419C412.449 471.474 396.598 469.183 381.282 468.444C362.702 467.609 344.034 468.862 325.662 471.903C291.855 477.427 258.552 486.496 225.289 495.158C198.096 502.471 170.578 509.933 142.813 514.484C118.241 518.788 92.9573 521.272 68.0691 521.925C59.4567 522.011 48.6095 521.989 39.9179 521.465C27.4294 520.801 14.9309 519.677 2.64014 517.075L2.75879 516.443L2.74891 516.432Z" fill="#E7ECF8"/>
<path d="M1.15699 536.186C16.4735 539.763 32.6206 540.598 48.2833 540.855C61.2662 541.122 74.7634 540.266 87.7661 539.377C91.8696 538.949 99.4537 538.167 103.498 537.75C163.498 531.058 223.113 514.345 280.582 494.708C290.559 491.378 301.258 488.316 311.601 486.357C316.812 485.233 322.231 484.558 327.432 483.787C332.752 483.327 338.061 482.631 343.411 482.535C345.487 482.449 347.613 482.363 349.413 482.288C356.641 482.288 364.314 482.545 371.424 483.134C374.449 483.466 378.414 483.905 381.381 484.226C400.504 486.839 419.4 491.71 437.841 497.524C478.333 510.33 518.092 525.94 560.067 531.754C601.864 538.306 644.254 534.034 685.684 526.411C748.147 515.008 809.68 498.209 870.778 480.233C1010.76 438.53 1148.61 388.368 1285.96 337.564C1294.99 334.684 1300.85 332.821 1308.86 330.284C1319.02 327.479 1329.5 324.363 1339.78 322.072L1355.36 318.496L1371.07 315.605C1373.69 315.144 1376.3 314.588 1378.93 314.224L1386.84 313.164L1394.75 312.104L1398.71 311.568C1400.02 311.386 1401.36 311.322 1402.68 311.194L1418.58 309.823C1466.36 306.665 1514.71 311.879 1560.67 326.547C1580.71 332.875 1601.33 341.43 1620.34 350.734C1654.1 367.158 1687.08 385.424 1720.16 403.347C1783.88 437.598 1847.41 473.423 1915.58 496.186C1927.52 500.158 1941.54 503.83 1954 506.218L1953.91 506.85C1939.72 504.526 1925.19 500.854 1911.34 496.571C1808.59 463.112 1715.79 402.962 1618.08 356.269C1525.8 311.044 1431.29 305.947 1333.37 330.316C1325.67 332.404 1317.98 334.395 1310.43 336.515C1304.48 338.367 1293.21 341.89 1287.7 343.614C1170.21 386.741 1051.95 428.101 932.45 464.194C861.216 485.704 789.706 506.4 717.267 522.6C686.258 529.248 654.705 535.64 623.153 538.049C596.702 540.127 569.955 538.403 543.772 533.788C488.231 524.355 436.457 497.888 380.738 489.89L378.79 489.665L374.894 489.226L370.998 488.777C363.681 488.209 358.48 487.931 351.44 487.899C341.048 487.899 330.517 488.745 320.233 490.372L316.347 490.939L312.491 491.71L304.788 493.274C288.582 496.989 267.273 504.612 251.601 509.484C239.537 513.392 225.338 517.096 213.255 520.597L205.513 522.482L190.018 526.261C178.419 529.12 169.856 530.555 158.861 532.889C149.161 534.73 144.395 535.298 135.327 536.85C124.54 538.553 117.628 539.163 107.74 540.437L103.785 540.769L95.8644 541.422L87.9441 542.075C72.232 542.91 56.0552 543.274 40.3234 542.407C27.1229 541.54 13.8927 540.276 0.998779 536.818L1.15699 536.197V536.186Z" fill="#E7ECF8"/>
<path d="M0.168094 536.186C54.7895 549.827 112.308 557.236 167.73 545.469C188.564 540.255 209.171 533.906 229.59 527.064C251.966 519.719 274.195 510.822 297.194 505.576C303.72 504.173 311.067 502.931 317.652 502.064C325.345 501.197 333.473 500.618 341.225 500.34C349.086 500.201 359.726 500.276 367.715 500.597C387.442 501.175 406.862 505.983 425.669 512.171C466.536 526.154 506.434 544.035 548.893 551.711C591.066 559.891 634.504 559.228 676.775 552.204C696.017 549.013 715.022 544.474 733.829 538.96C793.988 521.154 852.831 498.424 911.695 476.132C1028.98 431.195 1146.88 383.1 1266.48 345.68C1311.58 331.933 1357.17 318.913 1403.86 313.421C1419.41 311.782 1435.2 310.947 1450.71 313.495L1450.62 314.127C1442.9 313.067 1435.09 313.024 1427.32 313.313C1372.79 316.782 1319.99 334.085 1267.78 350.488C1119.76 399.418 972.011 462.77 824.68 514.045C765.174 534.356 704.758 554.549 642.108 558.639C579.368 564.217 516.995 549.902 457.993 527.61C428.655 517.246 398.665 506.389 367.557 505.95C342.392 505.244 317.118 506.325 292.606 512.631C271.732 517.803 251.65 525.672 231.053 532.3C212.335 538.456 193.429 543.906 174.395 548.821L168.61 550.18L162.786 551.315C139.52 555.566 115.799 555.941 92.3145 554.227C61.098 551.765 30.109 546.015 0 536.84L0.158212 536.219L0.168094 536.186Z" fill="#E7ECF8"/>
<path d="M1309.09 334.417C1363.36 314.866 1423.04 313.014 1478.45 328.464C1533.44 343.806 1582.49 381.634 1630.79 412.705C1705.17 462.556 1783.11 510.908 1870.09 528.435C1873.59 529.088 1880.03 530.233 1883.22 530.833C1888.22 531.7 1894.07 532.343 1899.07 533.081C1903.79 533.638 1910.5 534.131 1915.01 534.591L1925.67 535.094C1932 535.544 1940.74 535.351 1947.03 535.416C1943.03 535.555 1934.75 535.962 1931 536.09C1925.72 536.09 1920.17 536.015 1914.95 535.929C1910.77 535.683 1902.85 535.276 1898.91 534.955C1896.23 534.698 1890.92 534.12 1888.24 533.852C1884.97 533.585 1875.75 532.182 1872.3 531.657C1753.95 512.867 1655.39 434.043 1554.63 370.284C1518.13 346.654 1478.09 329.577 1435.68 324.213C1393.5 318.56 1349.97 321.461 1309.09 334.395V334.417Z" fill="#E7ECF8"/>
<path d="M1363.55 318.86C1430.4 307.789 1503.74 313.71 1566.17 343.143C1573.61 346.59 1581.19 350.841 1588.33 354.995C1679.89 411.559 1768.45 478.37 1872.01 506.486C1887.51 510.833 1904 514.452 1919.86 516.903C1929.26 518.381 1939.55 519.527 1949.02 520.437C1909.81 519.066 1870.8 511.218 1833.43 498.413C1744.03 468.198 1665.94 410.553 1585.61 360.22C1578.67 356.076 1571.27 351.826 1564.03 348.368C1502.79 318.635 1429.92 311.108 1363.56 318.86H1363.55Z" fill="#E7ECF8"/>
<mask id="mask0_105_7" style="mask-type:luminance" maskUnits="userSpaceOnUse" x="0" y="131" width="678" height="397">
<path d="M677.09 131H0V527.066H677.09V131Z" fill="white"/>
</mask>
<g mask="url(#mask0_105_7)">
<path d="M-259.779 369.136C-259.779 369.136 -288.917 321.468 -224.82 314.652C-224.82 314.652 -222.488 260.168 -170.044 231.79C-117.601 203.412 -66.3236 244.275 -66.3236 244.275C-66.3236 244.275 -46.5167 213.625 -13.8801 232.926C-13.8801 232.926 -1.06086 160.287 71.1896 148.928C143.45 137.578 169.089 180.713 169.089 180.713C169.089 180.713 236.684 162.559 262.323 217.033C262.323 217.033 297.292 173.898 339.239 185.257C381.196 196.606 387.017 245.411 387.017 245.411C387.017 245.411 431.306 221.577 469.764 240.867C508.222 260.168 502.401 304.429 502.401 304.429C502.401 304.429 535.027 289.672 554.834 302.157C574.662 314.642 576.984 320.311 576.984 320.311C576.984 320.311 643.413 318.04 643.413 343.01C643.413 367.98 615.442 380.465 592.146 369.116C568.83 357.767 561.842 354.359 561.842 354.359C561.842 354.359 547.857 389.543 516.387 386.145C484.916 382.737 473.263 354.359 473.263 354.359C473.263 354.359 470.931 386.607 419.653 386.376C368.376 386.145 363.711 347.554 363.711 347.554C363.711 347.554 335.74 415.659 263.489 419.057C191.229 422.464 172.588 386.135 172.588 386.135C172.588 386.135 145.783 397.484 130.631 384.999C115.479 372.514 114.313 361.165 114.313 361.165C114.313 361.165 116.645 388.407 71.1896 394.076C25.7337 399.756 11.7584 370.242 11.7584 370.242C11.7584 370.242 -5.72617 422.454 -67.49 424.726C-129.254 426.998 -151.404 379.329 -151.404 379.329C-151.404 379.329 -165.389 419.057 -199.182 416.785C-232.985 414.513 -234.141 378.193 -234.141 378.193C-234.141 378.193 -254.67 381.491 -259.779 369.116V369.136Z" fill="#00D8DB" stroke="#E7ECF8" stroke-width="5" stroke-linecap="round" stroke-linejoin="round"/>
<path d="M44.7047 322.925C33.8877 322.925 22.0696 320.06 10.138 312.822C-29.1146 289.048 -15.4696 233.137 -15.3251 232.574L-12.4248 233.268C-12.559 233.81 -25.6776 287.691 11.7172 310.339C33.4955 323.528 57.9678 323.398 77.1864 309.978C92.1009 299.563 99.5118 283.55 96.0747 269.185C92.648 254.9 83.7508 245.572 71.6644 243.591C60.2591 241.732 48.7507 246.939 42.341 256.861C36.0139 266.652 37.8409 274.251 40.4832 278.906C44.7253 286.374 54.4791 291.803 63.6756 291.803C75.1324 291.803 81.5833 282.112 82.0478 272.542C82.3884 265.566 79.3332 258.228 71.7573 257.534L72.036 254.629C81.573 255.503 85.4333 264.319 85.0307 272.673C84.5043 283.62 77.0006 294.718 63.6756 294.718C53.2818 294.718 42.6713 288.797 37.8615 280.313C34.827 274.975 32.7111 266.3 39.8123 255.312C46.8722 244.385 59.5676 238.656 72.1702 240.716C85.5055 242.898 95.28 253.031 98.9957 268.521C102.711 284.052 94.8465 301.252 78.9411 312.35C70.2504 318.412 58.2671 322.915 44.715 322.915L44.7047 322.925Z" fill="#E7ECF8"/>
<path d="M299.914 301.403C299.294 301.403 298.685 301.403 298.056 301.393C257.699 300.749 220.82 271.205 191.197 247.462C169.295 229.91 150.407 214.781 136.401 215.937C98.6033 219.144 88.2818 249.532 88.1785 249.834L85.3298 248.959C85.433 248.638 96.3016 216.41 136.153 213.032C151.336 211.745 170.699 227.256 193.107 245.21C222.379 268.662 258.803 297.854 298.118 298.478C335.368 299.051 349.023 281.881 349.333 265.586C349.591 252.196 340.9 241.128 329.97 240.907C317.729 240.606 308.315 245.481 304.114 254.136C300.863 260.831 301.637 268.411 306.076 273.457C311.608 279.75 321.847 280.112 328.669 277.257C331.663 276.01 338.516 272.211 337.639 264.018C336.968 257.755 333.593 253.473 328.607 252.538C323.942 251.673 317.512 254.016 313.682 261.203L311.03 259.856C314.962 252.478 322.26 248.386 329.175 249.673C335.533 250.849 339.816 256.097 340.632 263.716C341.375 270.733 337.35 276.805 329.867 279.931C321.867 283.268 310.359 282.786 303.815 275.357C298.613 269.446 297.674 260.63 301.421 252.9C306.076 243.3 316.748 237.761 330.052 238.002C342.634 238.253 352.636 250.658 352.347 265.656C352.027 282.273 338.072 301.413 299.945 301.413L299.914 301.403Z" fill="#E7ECF8"/>
<path d="M171.432 387.07C171.226 386.818 150.706 361.537 157.034 329.067C160.564 310.913 177.687 302.318 192.767 303.172C204.667 303.866 219.024 311.104 220.294 329.238C221.398 344.91 215.494 356.219 204.502 359.476C194.81 362.351 183.787 357.676 178.296 348.378C173.197 339.743 172.423 331.389 176.139 324.845C179.617 318.723 186.636 314.883 194.913 314.572C203.965 314.22 209.157 321.518 209.683 328.876C210.148 335.471 206.814 340.256 201.385 340.778L201.086 337.873C205.658 337.431 206.969 332.857 206.701 329.067C206.277 323.106 202.128 317.205 195.027 317.477C187.802 317.748 181.723 321.025 178.76 326.253C175.571 331.872 176.324 339.21 180.887 346.92C185.696 355.053 195.264 359.164 203.635 356.681C213.203 353.846 218.312 343.663 217.311 329.439C216.165 313.194 203.284 306.711 192.591 306.087C178.833 305.303 163.195 313.114 159.975 329.61C153.906 360.773 173.569 384.999 173.765 385.24L171.432 387.07Z" fill="#E7ECF8"/>
<path d="M156.228 352.56C155.372 351.705 135.317 331.158 150.799 285.47C158.262 263.465 156.218 244.315 145.205 232.926C136.556 223.969 123.354 220.953 108.997 224.653L108.233 221.838C123.685 217.857 137.949 221.174 147.383 230.925C159.17 243.119 161.451 263.334 153.638 286.385C138.764 330.263 158.158 350.318 158.355 350.519L156.218 352.56H156.228Z" fill="#E7ECF8"/>
<path d="M247.491 378.867C242.712 378.867 238.253 378.083 234.125 376.505C217.146 370.021 212.274 352.65 212.078 351.906L214.968 351.162C215.009 351.323 219.675 367.87 235.239 373.8C248.647 378.907 266.07 374.926 287.012 361.959C310.607 347.352 327.885 333.53 341.778 322.422C364.599 304.157 379.678 292.094 402.819 290.707C421.862 289.551 432.483 301.624 434.558 314.079C436.818 327.69 429.789 344.789 408.991 350.167C394.675 353.866 386.8 349.574 382.723 345.312C377.284 339.642 375.508 330.404 378.326 322.322C380.669 315.597 385.592 311.154 391.837 310.138C403.469 308.249 410.416 314.471 412.129 321.488C413.749 328.112 410.715 334.405 405.059 336.124L404.161 333.339C408.867 331.902 410.281 326.504 409.208 322.161C407.918 316.884 402.716 311.325 392.312 313.013C387.192 313.848 383.115 317.577 381.134 323.257C378.667 330.354 380.174 338.416 384.88 343.321C388.41 347.001 395.326 350.68 408.197 347.342C427.188 342.427 433.629 326.896 431.575 314.541C429.861 304.197 421.336 292.516 402.974 293.612C380.803 294.939 366.023 306.771 343.646 324.664C329.702 335.822 312.341 349.715 288.591 364.411C273.057 374.032 259.278 378.857 247.45 378.857L247.491 378.867Z" fill="#E7ECF8"/>
<path d="M236.065 417.931C225.713 417.931 215.494 416.222 206.153 412.995L207.155 410.251C241.319 422.052 287.714 412.864 306.406 372.584C325.81 330.776 356.186 311.083 356.486 310.882L358.127 313.325C357.828 313.516 328.153 332.787 309.131 373.78C294.825 404.601 264.955 417.931 236.065 417.931Z" fill="#E7ECF8"/>
<path d="M537.907 358.3C520.051 358.3 511.061 340.225 501.596 321.206C491.914 301.755 480.942 279.71 458.854 272.452C413.13 257.434 377.377 300.408 377.026 300.85L374.683 299.041C375.054 298.588 412.088 254.006 459.814 269.698C483.089 277.337 494.35 299.975 504.29 319.94C514.859 341.15 523.973 359.476 544.44 354.56C557.074 351.524 564.98 345.543 566.714 337.702C568.004 331.812 565.455 325.237 560.325 321.327C555.794 317.869 550.385 317.215 545.452 319.548C537.773 323.187 533.912 327.65 534.604 332.113C535.213 336.164 539.703 339.833 545.029 340.658C549.219 341.291 551.789 338.527 552.697 337.3C554.483 334.918 554.978 332.013 553.957 330.052C552.842 327.921 550.22 327.469 548.218 327.459V324.544C553.647 324.554 555.804 327.177 556.62 328.735C558.168 331.691 557.569 335.722 555.113 339.019C552.543 342.467 548.6 344.166 544.564 343.533C537.886 342.507 532.447 337.883 531.631 332.545C531.115 329.168 532.054 322.644 544.141 316.924C550.045 314.129 556.785 314.923 562.173 319.035C568.262 323.689 571.204 331.259 569.635 338.315C568.479 343.523 563.772 352.912 545.163 357.385C542.593 357.998 540.188 358.29 537.917 358.29L537.907 358.3Z" fill="#E7ECF8"/>
<path d="M14.9065 350.74C14.6072 350.74 14.3078 350.74 13.9982 350.74C-9.7206 350.499 -34.7915 327.69 -59.0264 305.635C-83.4573 283.409 -108.724 260.349 -131.731 261.384C-158.536 262.5 -171.985 277.146 -175.36 289.36C-178.714 301.503 -173.863 313.365 -162.706 320.311C-147.791 329.59 -131.246 325.438 -121.461 317.205C-112.905 309.998 -109.86 300.609 -113.514 292.697C-118.447 282.012 -130.203 278.644 -139.658 280.062C-147.285 281.197 -155.852 285.872 -157.039 295.552C-158.309 305.896 -151.662 311.576 -145.593 313.285C-140.226 314.803 -133.197 313.908 -130.451 308.349C-127.365 302.086 -130.11 295.542 -134.26 292.577C-137.81 290.034 -141.836 290.255 -145.035 293.16L-147.079 291.029C-142.816 287.149 -137.222 286.837 -132.495 290.225C-127.375 293.884 -123.969 301.926 -127.757 309.606C-130.75 315.687 -138.43 318.351 -146.429 316.079C-153.623 314.039 -161.498 307.354 -160.012 295.201C-158.876 285.882 -151.063 278.805 -140.112 277.166C-129.532 275.588 -116.373 279.408 -110.789 291.491C-106.629 300.488 -110.056 311.445 -119.51 319.397C-130.131 328.333 -148.111 332.847 -164.316 322.754C-176.619 315.094 -181.966 302.006 -178.25 288.586C-174.617 275.427 -160.28 259.645 -131.865 258.459C-107.599 257.454 -81.8678 280.856 -56.9827 303.494C-33.1607 325.167 -8.5233 347.584 14.0395 347.815C14.3285 347.815 14.6175 347.815 14.9065 347.815C59.4953 347.815 74.8227 312.119 74.9776 311.747L77.7541 312.832C77.5992 313.214 61.5596 350.72 14.9168 350.72L14.9065 350.74Z" fill="#E7ECF8"/>
<path d="M-6.02543 316.421C-30.9518 316.421 -50.2324 294.587 -68.9969 273.347C-76.7689 264.541 -84.8094 255.443 -93.2111 247.874C-112.141 230.815 -139.431 226.613 -174.338 235.379C-176.743 235.982 -177.455 236.153 -178.012 236.112L-177.899 234.655V233.197C-177.579 233.177 -176.32 232.855 -175.091 232.554C-139.142 223.527 -110.912 227.96 -91.1881 245.733C-82.6625 253.413 -74.5705 262.58 -66.7365 271.447C-43.4615 297.794 -21.4767 322.674 10.3651 310.229L11.4798 312.933C5.32821 315.336 -0.493116 316.421 -6.03576 316.421H-6.02543Z" fill="#E7ECF8"/>
<path d="M62.3441 317.436C42.7643 317.436 26.8692 309.234 17.6108 293.934C1.25123 266.903 8.93044 225.567 36.303 193.42C84.8037 136.453 147.146 158.97 147.765 159.191L146.691 161.915C146.082 161.684 85.6913 139.961 38.6047 195.279C12.0269 226.502 4.46122 266.461 20.1912 292.446C31.101 310.46 50.9389 317.839 76.082 313.214L76.6394 316.079C71.7057 316.994 66.9269 317.436 62.3545 317.436H62.3441Z" fill="#E7ECF8"/>
</g>
<mask id="mask1_105_7" style="mask-type:luminance" maskUnits="userSpaceOnUse" x="895" y="0" width="1057" height="507">
<path d="M1952 0H895V506.195H1952V0Z" fill="white"/>
</mask>
<g mask="url(#mask1_105_7)">
<path d="M2136.31 377.985C2136.31 377.985 2174.64 313.94 2090.31 304.791C2090.31 304.791 2087.24 231.597 2018.24 193.478C1949.24 155.359 1881.78 210.255 1881.78 210.255C1881.78 210.255 1855.71 169.083 1812.78 194.999C1812.78 194.999 1795.92 97.4101 1700.85 82.1646C1605.78 66.9191 1572.05 124.858 1572.05 124.858C1572.05 124.858 1483.12 100.463 1449.39 173.658C1449.39 173.658 1403.39 115.709 1348.19 130.964C1292.99 146.21 1285.33 211.776 1285.33 211.776C1285.33 211.776 1227.06 179.754 1176.46 205.68C1125.86 231.606 1133.53 291.077 1133.53 291.077C1133.53 291.077 1090.6 271.257 1064.54 288.024C1038.46 304.801 1035.4 312.419 1035.4 312.419C1035.4 312.419 948 309.366 948 342.92C948 376.464 984.79 393.241 1015.45 377.995C1046.13 362.75 1055.32 358.175 1055.32 358.175C1055.32 358.175 1073.73 405.443 1115.12 400.868C1156.52 396.294 1171.86 358.175 1171.86 358.175C1171.86 358.175 1174.93 401.505 1242.39 401.187C1309.86 400.868 1315.99 349.026 1315.99 349.026C1315.99 349.026 1352.79 440.519 1447.85 445.093C1542.92 449.668 1567.45 400.868 1567.45 400.868C1567.45 400.868 1602.72 416.124 1622.65 399.347C1642.58 382.57 1644.12 367.324 1644.12 367.324C1644.12 367.324 1641.05 403.922 1700.85 411.549C1760.65 419.177 1779.05 379.527 1779.05 379.527C1779.05 379.527 1802.05 449.668 1883.32 452.721C1964.59 455.774 1993.72 391.729 1993.72 391.729C1993.72 391.729 2012.12 445.093 2056.58 442.05C2101.05 438.997 2102.58 390.208 2102.58 390.208C2102.58 390.208 2129.58 394.633 2136.31 378.005V377.985Z" fill="#00D8DB" stroke="#E7ECF8" stroke-width="5" stroke-linecap="round" stroke-linejoin="round"/>
<path d="M1735.7 315.909C1749.93 315.909 1765.48 312.051 1781.18 302.344C1832.82 270.401 1814.87 195.298 1814.69 194.542L1810.87 195.477C1811.05 196.203 1828.31 268.592 1779.11 299.013C1750.46 316.735 1718.26 316.556 1692.97 298.526C1673.35 284.543 1663.6 263.032 1668.13 243.719C1672.64 224.526 1684.34 211.995 1700.24 209.34C1715.24 206.844 1730.39 213.835 1738.82 227.171C1747.14 240.318 1744.74 250.532 1741.27 256.787C1735.69 266.821 1722.86 274.111 1710.75 274.111C1695.68 274.111 1687.19 261.093 1686.58 248.234C1686.14 238.866 1690.15 229.001 1700.12 228.076L1699.75 224.178C1687.2 225.351 1682.12 237.196 1682.65 248.423C1683.34 263.132 1693.22 278.029 1710.75 278.029C1724.42 278.029 1738.38 270.073 1744.71 258.676C1748.7 251.496 1751.49 239.841 1742.14 225.083C1732.85 210.404 1716.15 202.707 1699.57 205.471C1682.02 208.395 1669.16 222.01 1664.28 242.824C1659.39 263.679 1669.74 286.791 1690.66 301.708C1702.09 309.853 1717.86 315.899 1735.69 315.909H1735.7Z" fill="#E7ECF8"/>
<path d="M1399.94 286.999C1400.75 286.999 1401.56 286.999 1402.39 286.98C1455.49 286.114 1504 246.424 1542.98 214.521C1571.8 190.942 1596.65 170.614 1615.07 172.166C1664.8 176.472 1678.38 217.296 1678.51 217.703L1682.26 216.53C1682.12 216.092 1667.83 172.802 1615.4 168.267C1595.42 166.537 1569.95 187.372 1540.47 211.498C1501.96 243.003 1454.04 282.216 1402.32 283.061C1353.32 283.827 1335.35 260.765 1334.94 238.876C1334.6 220.886 1346.03 206.018 1360.42 205.72C1376.53 205.312 1388.92 211.866 1394.44 223.501C1398.72 232.492 1397.7 242.685 1391.86 249.458C1384.58 257.911 1371.11 258.398 1362.14 254.559C1358.21 252.879 1349.19 247.777 1350.34 236.768C1351.22 228.354 1355.66 222.596 1362.23 221.353C1368.37 220.19 1376.82 223.342 1381.87 232.999L1385.36 231.199C1380.18 221.284 1370.58 215.794 1361.49 217.515C1353.12 219.096 1347.49 226.147 1346.42 236.37C1345.44 245.798 1350.74 253.943 1360.58 258.159C1371.1 262.644 1386.25 261.988 1394.85 252.013C1401.7 244.067 1402.93 232.223 1398 221.841C1391.87 208.942 1377.83 201.493 1360.33 201.822C1343.78 202.17 1330.62 218.827 1331 238.966C1331.42 261.292 1349.78 287.009 1399.94 287.009V286.999Z" fill="#E7ECF8"/>
<path d="M1568.98 402.082C1569.25 401.744 1596.25 367.782 1587.93 324.164C1583.28 299.779 1560.76 288.223 1540.92 289.376C1525.26 290.301 1506.38 300.027 1504.7 324.392C1503.25 345.446 1511.02 360.631 1525.48 365.007C1538.23 368.866 1552.73 362.591 1559.96 350.1C1566.68 338.504 1567.68 327.276 1562.79 318.485C1558.21 310.261 1548.98 305.099 1538.09 304.682C1526.18 304.204 1519.34 314.01 1518.66 323.905C1518.05 332.756 1522.43 339.19 1529.58 339.896L1529.98 335.998C1523.96 335.401 1522.24 329.255 1522.6 324.164C1523.16 316.158 1528.62 308.222 1537.95 308.59C1547.46 308.948 1555.46 313.363 1559.36 320.375C1563.55 327.923 1562.56 337.778 1556.56 348.141C1550.23 359.07 1537.65 364.59 1526.64 361.258C1514.05 357.449 1507.33 343.765 1508.64 324.651C1510.14 302.832 1527.1 294.11 1541.16 293.275C1559.26 292.221 1579.84 302.712 1584.07 324.88C1592.06 366.748 1566.19 399.287 1565.92 399.615L1568.99 402.072L1568.98 402.082Z" fill="#E7ECF8"/>
<path d="M1588.98 355.719C1590.11 354.575 1616.5 326.968 1596.12 265.588C1586.31 236.032 1588.98 210.295 1603.47 194.989C1614.85 182.966 1632.22 178.909 1651.1 183.881L1652.11 180.102C1631.78 174.762 1613.01 179.207 1600.6 192.314C1585.09 208.703 1582.09 235.853 1592.38 266.821C1611.95 325.765 1586.43 352.715 1586.17 352.974L1588.98 355.719Z" fill="#E7ECF8"/>
<path d="M1468.91 391.063C1475.2 391.063 1481.06 390.009 1486.49 387.89C1508.83 379.179 1515.23 355.838 1515.5 354.853L1511.69 353.859C1511.63 354.078 1505.49 376.304 1485.01 384.27C1467.36 391.132 1444.45 385.782 1416.89 368.368C1385.84 348.747 1363.11 330.17 1344.84 315.253C1314.81 290.719 1294.97 274.519 1264.53 272.649C1239.47 271.088 1225.5 287.318 1222.77 304.055C1219.79 322.344 1229.05 345.316 1256.41 352.536C1275.25 357.509 1285.6 351.731 1290.98 346.022C1298.14 338.405 1300.47 325.983 1296.76 315.134C1293.68 306.094 1287.2 300.127 1278.98 298.774C1263.68 296.228 1254.54 304.602 1252.28 314.02C1250.15 322.91 1254.14 331.374 1261.58 333.681L1262.76 329.941C1256.56 328.012 1254.71 320.762 1256.11 314.925C1257.81 307.834 1264.66 300.365 1278.33 302.633C1285.07 303.757 1290.43 308.769 1293.03 316.397C1296.28 325.924 1294.3 336.764 1288.1 343.357C1283.46 348.3 1274.36 353.242 1257.42 348.767C1232.43 342.164 1223.95 321.289 1226.66 304.691C1228.92 290.788 1240.13 275.105 1264.29 276.567C1293.46 278.347 1312.91 294.239 1342.34 318.286C1360.69 333.283 1383.53 351.94 1414.77 371.68C1435.21 384.599 1453.34 391.083 1468.89 391.083L1468.91 391.063Z" fill="#E7ECF8"/>
<path d="M1483.94 443.542C1497.56 443.542 1511.01 441.245 1523.3 436.909L1521.98 433.219C1477.03 449.071 1415.99 436.73 1391.39 382.61C1365.86 326.441 1325.9 299.988 1325.5 299.719L1323.34 303.001C1323.73 303.259 1362.77 329.146 1387.8 384.221C1406.62 425.631 1445.92 443.532 1483.93 443.532L1483.94 443.542Z" fill="#E7ECF8"/>
<path d="M1086.83 363.436C1110.32 363.436 1122.16 339.15 1134.61 313.612C1147.35 287.487 1161.79 257.871 1190.85 248.115C1251.01 227.937 1298.05 285.677 1298.51 286.264L1301.6 283.827C1301.12 283.22 1252.39 223.332 1189.59 244.406C1158.97 254.679 1144.15 285.08 1131.08 311.901C1117.18 340.404 1105.18 365.017 1078.26 358.414C1061.64 354.336 1051.23 346.291 1048.96 335.769C1047.26 327.863 1050.62 319.022 1057.37 313.771C1063.33 309.127 1070.45 308.252 1076.94 311.374C1087.05 316.257 1092.13 322.254 1091.21 328.261C1090.4 333.701 1084.5 338.633 1077.49 339.737C1071.98 340.583 1068.6 336.873 1067.4 335.232C1065.06 332.04 1064.4 328.122 1065.74 325.496C1067.21 322.622 1070.66 322.015 1073.29 322.015V318.097C1066.15 318.117 1063.31 321.638 1062.24 323.726C1060.2 327.694 1060.99 333.114 1064.23 337.539C1067.61 342.174 1072.8 344.451 1078.11 343.606C1086.89 342.233 1094.05 336.018 1095.12 328.848C1095.8 324.313 1094.57 315.551 1078.66 307.864C1070.9 304.115 1062.02 305.169 1054.94 310.698C1046.93 316.944 1043.06 327.117 1045.12 336.595C1046.64 343.586 1052.83 356.206 1077.32 362.213C1080.7 363.038 1083.87 363.436 1086.85 363.436H1086.83Z" fill="#E7ECF8"/>
<path d="M1774.91 353.282C1775.31 353.282 1775.7 353.282 1776.1 353.282C1807.3 352.954 1840.28 322.314 1872.18 292.688C1904.32 262.823 1937.56 231.845 1967.84 233.237C2003.11 234.739 2020.8 254.42 2025.24 270.819C2029.66 287.139 2023.27 303.07 2008.58 312.409C1988.96 324.87 1967.19 319.291 1954.32 308.242C1943.06 298.565 1939.05 285.955 1943.86 275.314C1950.35 260.954 1965.82 256.429 1978.25 258.338C1988.28 259.87 1999.56 266.145 2001.12 279.153C2002.78 293.046 1994.05 300.674 1986.06 302.981C1979 305.02 1969.75 303.816 1966.14 296.348C1962.08 287.934 1965.69 279.143 1971.16 275.155C1975.83 271.734 1981.13 272.042 1985.33 275.941L1988.02 273.087C1982.41 267.875 1975.06 267.458 1968.83 272.003C1962.09 276.925 1957.61 287.725 1962.6 298.038C1966.54 306.203 1976.64 309.783 1987.17 306.74C1996.63 304.005 2006.99 295.015 2005.04 278.695C2003.54 266.175 1993.26 256.678 1978.85 254.47C1964.94 252.351 1947.61 257.473 1940.27 273.713C1934.8 285.806 1939.31 300.515 1951.75 311.205C1965.73 323.219 1989.37 329.265 2010.7 315.71C2026.89 305.427 2033.92 287.835 2029.04 269.805C2024.26 252.123 2005.4 230.92 1968.01 229.329C1936.08 227.987 1902.24 259.422 1869.5 289.834C1838.15 318.952 1805.74 349.066 1776.06 349.384C1775.68 349.384 1775.29 349.384 1774.92 349.384C1716.26 349.384 1696.09 301.43 1695.89 300.932L1692.24 302.394C1692.45 302.911 1713.55 353.292 1774.91 353.292V353.282Z" fill="#E7ECF8"/>
<path d="M1875.89 402.917C1876.79 402.917 1877.69 402.877 1878.59 402.808C1895.31 401.475 1903.16 393.877 1906.81 387.751C1913.42 376.623 1911.31 362.78 1907.13 353.551C1902.19 342.641 1888.31 338.962 1877.14 340.97C1866.73 342.84 1859.91 349.255 1859.35 357.718C1858.51 370.447 1865.57 383.714 1874.77 386.677C1878.62 387.93 1886.14 388.338 1893.22 377.16L1889.89 375.071C1886.92 379.765 1882.09 384.937 1875.98 382.958C1868.49 380.541 1862.56 368.866 1863.28 357.976C1863.72 351.303 1869.16 346.38 1877.84 344.829C1887.26 343.128 1899.48 346.182 1903.54 355.162C1907.32 363.506 1909.27 375.927 1903.42 385.762C1898.8 393.519 1890.35 397.945 1878.27 398.909C1862.14 400.212 1844.98 388.477 1840 372.784C1835.08 357.27 1843.21 341.985 1862.31 330.827C1888.62 315.452 1925.38 332.885 1960.92 349.742C1991.14 364.072 2019.68 377.617 2043.45 373.381C2096.42 363.943 2092.31 305.228 2092.26 304.642L2088.34 304.95C2088.52 307.227 2092.2 360.721 2042.76 369.522C2020.25 373.53 1990.95 359.637 1962.62 346.201C1926.15 328.907 1888.43 311.026 1860.32 327.445C1839.5 339.598 1830.73 356.554 1836.25 373.948C1841.47 390.406 1858.86 402.907 1875.89 402.907V402.917Z" fill="#E7ECF8"/>
<path d="M1802.46 307.178C1835.25 307.178 1860.62 277.85 1885.31 249.308C1895.54 237.484 1906.12 225.262 1917.17 215.088C1942.07 192.175 1977.98 186.526 2023.9 198.301C2027.06 199.117 2028 199.345 2028.73 199.286L2028.57 197.336L2028.55 195.387C2028.15 195.357 2026.49 194.93 2024.88 194.522C1977.58 182.389 1940.44 188.346 1914.49 212.224C1903.27 222.547 1892.62 234.858 1882.32 246.762C1851.7 282.156 1822.77 315.581 1780.88 298.864L1779.41 302.494C1787.5 305.726 1795.16 307.178 1802.45 307.178H1802.46Z" fill="#E7ECF8"/>
<path d="M1712.5 308.54C1738.26 308.54 1759.17 297.521 1771.36 276.965C1792.89 240.646 1782.78 185.124 1746.77 141.933C1682.96 65.3976 1600.94 95.6499 1600.12 95.9582L1601.53 99.608C1602.33 99.2997 1681.78 70.1114 1743.73 144.43C1778.7 186.367 1788.66 240.05 1767.96 274.966C1753.61 299.172 1727.5 309.077 1694.43 302.862L1693.7 306.71C1700.2 307.934 1706.48 308.53 1712.5 308.53V308.54Z" fill="#E7ECF8"/>
</g>
<g clip-path="url(#clip0_105_7)">
<mask id="mask2_105_7" style="mask-type:luminance" maskUnits="userSpaceOnUse" x="1018" y="1159" width="946" height="566">
<path d="M1018 1159H1964V1724.94H1018V1159Z" fill="white"/>
</mask>
<g mask="url(#mask2_105_7)">
<path d="M2335.48 1516.09C2335.48 1516.09 2376.19 1447.98 2286.64 1438.24C2286.64 1438.24 2283.38 1360.38 2210.1 1319.83C2136.83 1279.28 2065.19 1337.67 2065.19 1337.67C2065.19 1337.67 2037.52 1293.88 1991.92 1321.46C1991.92 1321.46 1974.01 1217.66 1873.06 1201.43C1772.1 1185.21 1736.28 1246.85 1736.28 1246.85C1736.28 1246.85 1641.84 1220.91 1606.02 1298.75C1606.02 1298.75 1557.16 1237.11 1498.56 1253.34C1439.94 1269.56 1431.8 1339.3 1431.8 1339.3C1431.8 1339.3 1369.92 1305.24 1316.19 1332.81C1262.46 1360.38 1270.59 1423.63 1270.59 1423.63C1270.59 1423.63 1225.01 1402.54 1197.34 1420.38C1169.63 1438.22 1166.39 1446.32 1166.39 1446.32C1166.39 1446.32 1073.58 1443.08 1073.58 1478.76C1073.58 1514.44 1112.66 1532.28 1145.21 1516.06C1177.78 1499.85 1187.54 1494.98 1187.54 1494.98C1187.54 1494.98 1207.08 1545.25 1251.05 1540.39C1295.02 1535.53 1311.3 1494.98 1311.3 1494.98C1311.3 1494.98 1314.56 1541.06 1386.2 1540.73C1457.85 1540.39 1464.37 1485.25 1464.37 1485.25C1464.37 1485.25 1503.45 1582.57 1604.39 1587.42C1705.35 1592.29 1731.39 1540.38 1731.39 1540.38C1731.39 1540.38 1768.84 1556.6 1790.01 1538.76C1811.18 1520.92 1812.81 1504.7 1812.81 1504.7C1812.81 1504.7 1809.55 1543.63 1873.06 1551.73C1936.57 1559.84 1956.1 1517.67 1956.1 1517.67C1956.1 1517.67 1980.53 1592.28 2066.82 1595.52C2153.11 1598.77 2184.06 1530.66 2184.06 1530.66C2184.06 1530.66 2203.6 1587.42 2250.81 1584.18C2298.04 1580.93 2299.66 1529.03 2299.66 1529.03C2299.66 1529.03 2328.34 1533.74 2335.48 1516.06V1516.09Z" fill="#00D8DB" stroke="#E7ECF8" stroke-width="5" stroke-linecap="round" stroke-linejoin="round"/>
<path d="M1893.07 1460.06C1908.18 1460.06 1924.69 1455.97 1941.36 1445.62C1996.2 1411.65 1977.14 1331.76 1976.94 1330.95L1972.89 1331.95C1973.07 1332.72 1991.4 1409.71 1939.16 1442.08C1908.73 1460.92 1874.54 1460.73 1847.68 1441.56C1826.85 1426.68 1816.49 1403.8 1821.29 1383.27C1826.08 1362.86 1838.51 1349.53 1855.4 1346.7C1871.33 1344.04 1887.41 1351.48 1896.37 1365.66C1905.21 1379.65 1902.66 1390.51 1898.96 1397.16C1893.04 1407.83 1879.41 1415.59 1866.56 1415.59C1850.55 1415.59 1841.54 1401.74 1840.89 1388.07C1840.42 1378.1 1844.69 1367.61 1855.27 1366.62L1854.88 1362.47C1841.56 1363.72 1836.16 1376.32 1836.72 1388.25C1837.46 1403.9 1847.94 1419.75 1866.56 1419.75C1881.08 1419.75 1895.91 1411.29 1902.63 1399.17C1906.87 1391.54 1909.82 1379.15 1899.9 1363.45C1890.04 1347.83 1872.3 1339.65 1854.69 1342.59C1836.06 1345.71 1822.41 1360.19 1817.21 1382.32C1812.02 1404.51 1823.01 1429.09 1845.23 1444.95C1857.38 1453.61 1874.12 1460.04 1893.05 1460.04L1893.07 1460.06Z" fill="#E7ECF8"/>
<path d="M1553.5 1419.31C1554.36 1419.31 1555.22 1419.31 1556.1 1419.29C1612.48 1418.37 1664.01 1376.16 1705.39 1342.23C1735.99 1317.15 1762.38 1295.53 1781.95 1297.18C1834.76 1301.76 1849.18 1345.19 1849.33 1345.62L1853.31 1344.37C1853.16 1343.91 1837.98 1297.86 1782.3 1293.03C1761.09 1291.19 1734.03 1313.36 1702.73 1339.01C1661.83 1372.52 1610.94 1414.24 1556.01 1415.13C1503.96 1415.94 1484.89 1391.41 1484.45 1368.13C1484.09 1348.99 1496.23 1333.18 1511.51 1332.86C1528.61 1332.43 1541.76 1339.4 1547.63 1351.77C1552.17 1361.33 1551.09 1372.16 1544.89 1379.37C1537.16 1388.37 1522.86 1388.88 1513.32 1384.8C1509.14 1383.02 1499.57 1377.59 1500.79 1365.89C1501.73 1356.94 1506.44 1350.82 1513.41 1349.48C1519.93 1348.25 1528.91 1351.59 1534.26 1361.86L1537.97 1359.94C1532.47 1349.4 1522.28 1343.55 1512.62 1345.39C1503.73 1347.07 1497.75 1354.57 1496.61 1365.45C1495.57 1375.48 1501.2 1384.16 1511.65 1388.62C1522.83 1393.39 1538.91 1392.7 1548.05 1382.09C1555.32 1373.64 1556.63 1361.04 1551.39 1350C1544.89 1336.28 1529.98 1328.37 1511.39 1328.71C1493.81 1329.07 1479.84 1346.8 1480.24 1368.23C1480.69 1391.97 1500.19 1419.32 1553.46 1419.32L1553.5 1419.31Z" fill="#E7ECF8"/>
<path d="M1733.01 1541.72C1733.3 1541.36 1761.97 1505.23 1753.13 1458.84C1748.19 1432.89 1724.27 1420.61 1703.2 1421.83C1686.57 1422.82 1666.51 1433.17 1664.74 1459.08C1663.2 1481.47 1671.45 1497.63 1686.8 1502.29C1700.35 1506.4 1715.75 1499.72 1723.42 1486.43C1730.54 1474.09 1731.62 1462.15 1726.43 1452.8C1721.57 1444.05 1711.77 1438.57 1700.2 1438.12C1687.55 1437.62 1680.3 1448.05 1679.57 1458.56C1678.92 1467.99 1683.57 1474.82 1691.16 1475.57L1691.58 1471.42C1685.19 1470.79 1683.36 1464.25 1683.73 1458.84C1684.32 1450.32 1690.12 1441.89 1700.04 1442.27C1710.14 1442.66 1718.63 1447.34 1722.77 1454.81C1727.23 1462.84 1726.17 1473.33 1719.8 1484.35C1713.08 1495.97 1699.71 1501.84 1688.02 1498.29C1674.65 1494.24 1667.51 1479.69 1668.91 1459.37C1670.51 1436.15 1688.51 1426.89 1703.45 1426C1722.67 1424.88 1744.52 1436.04 1749.02 1459.61C1757.5 1504.14 1730.02 1538.76 1729.75 1539.1L1733.01 1541.72Z" fill="#E7ECF8"/>
<path d="M1754.25 1492.4C1755.45 1491.18 1783.47 1461.82 1761.84 1396.54C1751.41 1365.1 1754.27 1337.73 1769.65 1321.46C1781.74 1308.66 1800.18 1304.35 1820.24 1309.64L1821.31 1305.61C1799.72 1299.93 1779.79 1304.67 1766.61 1318.6C1750.14 1336.02 1746.95 1364.91 1757.87 1397.85C1778.65 1460.54 1751.55 1489.2 1751.28 1489.49L1754.27 1492.4H1754.25Z" fill="#E7ECF8"/>
<path d="M1626.74 1530C1633.42 1530 1639.65 1528.87 1645.42 1526.62C1669.14 1517.35 1675.95 1492.53 1676.22 1491.47L1672.18 1490.41C1672.12 1490.64 1665.61 1514.28 1643.86 1522.76C1625.13 1530.05 1600.79 1524.36 1571.53 1505.83C1538.56 1484.96 1514.42 1465.21 1495.01 1449.34C1463.13 1423.24 1442.06 1406 1409.73 1404.02C1383.12 1402.37 1368.28 1419.62 1365.38 1437.42C1362.22 1456.87 1372.04 1481.3 1401.1 1488.99C1421.1 1494.27 1432.11 1488.14 1437.8 1482.05C1445.4 1473.95 1447.88 1460.75 1443.95 1449.2C1440.67 1439.59 1433.79 1433.24 1425.07 1431.79C1408.82 1429.09 1399.11 1437.98 1396.72 1448.01C1394.45 1457.47 1398.69 1466.46 1406.6 1468.92L1407.85 1464.94C1401.27 1462.89 1399.3 1455.17 1400.8 1448.97C1402.6 1441.43 1409.87 1433.48 1424.41 1435.9C1431.56 1437.09 1437.25 1442.42 1440.02 1450.53C1443.47 1460.67 1441.36 1472.19 1434.79 1479.2C1429.86 1484.46 1420.19 1489.72 1402.21 1484.95C1375.68 1477.93 1366.68 1455.73 1369.55 1438.08C1371.94 1423.3 1383.85 1406.61 1409.51 1408.17C1440.48 1410.07 1461.13 1426.98 1492.4 1452.54C1511.88 1468.49 1536.14 1488.34 1569.32 1509.34C1591.02 1523.09 1610.27 1529.98 1626.8 1529.98L1626.74 1530Z" fill="#E7ECF8"/>
<path d="M1642.71 1585.81C1657.17 1585.81 1671.45 1583.37 1684.5 1578.76L1683.1 1574.84C1635.37 1591.7 1570.54 1578.57 1544.43 1521.02C1517.32 1461.28 1474.88 1433.14 1474.46 1432.85L1472.17 1436.34C1472.58 1436.61 1514.04 1464.15 1540.62 1522.73C1560.61 1566.77 1602.34 1585.81 1642.71 1585.81Z" fill="#E7ECF8"/>
<path d="M1220.99 1500.61C1245.93 1500.61 1258.49 1474.78 1271.72 1447.6C1285.25 1419.81 1300.57 1388.31 1331.43 1377.94C1395.32 1356.48 1445.27 1417.88 1445.76 1418.52L1449.04 1415.93C1448.52 1415.28 1396.78 1351.58 1330.09 1374C1297.57 1384.92 1281.84 1417.27 1267.95 1445.79C1253.19 1476.1 1240.45 1502.29 1211.86 1495.26C1194.21 1490.92 1183.16 1482.38 1180.74 1471.17C1178.94 1462.76 1182.5 1453.36 1189.66 1447.78C1196 1442.83 1203.55 1441.9 1210.44 1445.23C1221.17 1450.43 1226.57 1456.81 1225.6 1463.19C1224.75 1468.98 1218.48 1474.22 1211.04 1475.4C1205.18 1476.3 1201.59 1472.35 1200.32 1470.6C1197.83 1467.2 1197.13 1463.04 1198.56 1460.24C1200.12 1457.2 1203.78 1456.55 1206.58 1456.54V1452.37C1198.99 1452.39 1195.98 1456.14 1194.84 1458.36C1192.68 1462.58 1193.51 1468.34 1196.95 1473.06C1200.54 1477.98 1206.05 1480.41 1211.69 1479.51C1221.02 1478.04 1228.62 1471.43 1229.75 1463.81C1230.48 1458.98 1229.16 1449.66 1212.28 1441.48C1204.03 1437.49 1194.61 1438.63 1187.08 1444.5C1178.58 1451.15 1174.47 1461.97 1176.66 1472.05C1178.27 1479.49 1184.85 1492.91 1210.85 1499.3C1214.44 1500.18 1217.8 1500.59 1220.97 1500.59L1220.99 1500.61Z" fill="#E7ECF8"/>
<path d="M1951.7 1489.8C1952.12 1489.8 1952.54 1489.8 1952.97 1489.8C1986.11 1489.46 2021.14 1456.87 2055 1425.35C2089.13 1393.59 2124.43 1360.64 2156.57 1362.12C2194.03 1363.72 2212.82 1384.65 2217.53 1402.1C2222.22 1419.45 2215.44 1436.4 2199.85 1446.32C2179.01 1459.58 2155.9 1453.65 2142.23 1441.89C2130.27 1431.59 2126.02 1418.17 2131.12 1406.87C2138.02 1391.6 2154.44 1386.79 2167.65 1388.81C2178.31 1390.43 2190.28 1397.11 2191.93 1410.95C2193.71 1425.73 2184.42 1433.84 2175.94 1436.28C2168.44 1438.45 2158.62 1437.17 2154.79 1429.23C2150.47 1420.28 2154.31 1410.93 2160.11 1406.69C2165.07 1403.06 2170.69 1403.38 2175.16 1407.53L2178.02 1404.48C2172.06 1398.94 2164.25 1398.49 2157.64 1403.33C2150.49 1408.56 2145.73 1420.05 2151.02 1431.03C2155.2 1439.72 2165.93 1443.52 2177.11 1440.28C2187.16 1437.36 2198.16 1427.81 2196.09 1410.44C2194.5 1397.13 2183.58 1387.02 2168.28 1384.67C2153.5 1382.42 2135.12 1387.88 2127.32 1405.14C2121.5 1418 2126.29 1433.66 2139.5 1445.02C2154.34 1457.79 2179.46 1464.24 2202.1 1449.81C2219.29 1438.87 2226.76 1420.17 2221.57 1400.99C2216.49 1382.19 2196.46 1359.64 2156.76 1357.94C2122.86 1356.51 2086.91 1389.95 2052.14 1422.29C2018.86 1453.26 1984.43 1485.29 1952.91 1485.62C1952.51 1485.62 1952.1 1485.62 1951.7 1485.62C1889.4 1485.62 1867.99 1434.62 1867.77 1434.09L1863.89 1435.64C1864.11 1436.18 1886.52 1489.78 1951.69 1489.78L1951.7 1489.8Z" fill="#E7ECF8"/>
<path d="M1885.42 1442.22C1912.78 1442.22 1934.99 1430.5 1947.92 1408.63C1970.78 1370.01 1960.05 1310.94 1921.81 1265.01C1854.04 1183.61 1766.94 1215.78 1766.08 1216.1L1767.58 1219.99C1768.43 1219.66 1852.8 1188.62 1918.59 1267.66C1955.72 1312.28 1966.29 1369.38 1944.32 1406.51C1929.07 1432.25 1901.36 1442.79 1866.23 1436.18L1865.45 1440.28C1872.34 1441.58 1879.02 1442.22 1885.41 1442.22H1885.42Z" fill="#E7ECF8"/>
</g>
<mask id="mask3_105_7" style="mask-type:luminance" maskUnits="userSpaceOnUse" x="-7" y="1149" width="1003" height="568">
<path d="M996 1149H-7V1716.74H996V1149Z" fill="white"/>
</mask>
<g mask="url(#mask3_105_7)">
<path d="M-400.861 1507.22C-400.861 1507.22 -444.024 1438.89 -349.075 1429.12C-349.075 1429.12 -345.62 1351.02 -267.933 1310.34C-190.246 1269.67 -114.287 1328.24 -114.287 1328.24C-114.287 1328.24 -84.9466 1284.31 -36.6007 1311.97C-36.6007 1311.97 -17.611 1207.85 89.4164 1191.57C196.459 1175.3 234.439 1237.13 234.439 1237.13C234.439 1237.13 334.57 1211.11 372.55 1289.19C372.55 1289.19 424.351 1227.36 486.488 1243.64C548.641 1259.91 557.264 1329.87 557.264 1329.87C557.264 1329.87 622.872 1295.7 679.841 1323.36C736.81 1351.02 728.187 1414.47 728.187 1414.47C728.187 1414.47 776.517 1393.32 805.858 1411.21C835.229 1429.11 838.67 1437.24 838.67 1437.24C838.67 1437.24 937.074 1433.98 937.074 1469.77C937.074 1505.57 895.639 1523.46 861.13 1507.19C826.591 1490.93 816.24 1486.04 816.24 1486.04C816.24 1486.04 795.522 1536.47 748.904 1531.6C702.286 1526.72 685.024 1486.04 685.024 1486.04C685.024 1486.04 681.569 1532.27 605.61 1531.94C529.651 1531.6 522.74 1476.29 522.74 1476.29C522.74 1476.29 481.305 1573.91 374.278 1578.78C267.235 1583.67 239.622 1531.59 239.622 1531.59C239.622 1531.59 199.915 1547.86 177.469 1529.96C155.024 1512.06 153.297 1495.8 153.297 1495.8C153.297 1495.8 156.752 1534.85 89.4164 1542.97C22.0809 1551.11 1.37872 1508.81 1.37872 1508.81C1.37872 1508.81 -24.5219 1583.65 -116.015 1586.91C-207.508 1590.17 -240.32 1521.83 -240.32 1521.83C-240.32 1521.83 -261.037 1578.78 -311.096 1575.52C-361.169 1572.27 -362.882 1520.21 -362.882 1520.21C-362.882 1520.21 -393.293 1524.93 -400.861 1507.19V1507.22Z" fill="#00D8DB" stroke="#E7ECF8" stroke-width="5" stroke-linecap="round" stroke-linejoin="round"/>
<path d="M50.1832 1440.98C34.1597 1440.98 16.653 1436.88 -1.02177 1426.5C-59.1682 1392.42 -38.9553 1312.28 -38.7413 1311.47L-34.4449 1312.46C-34.6437 1313.24 -54.0768 1390.48 1.31754 1422.94C33.5787 1441.85 69.8304 1441.66 98.2997 1422.42C120.393 1407.49 131.371 1384.54 126.28 1363.95C121.204 1343.47 108.024 1330.1 90.1197 1327.26C73.2247 1324.6 56.1767 1332.06 46.6819 1346.28C37.3093 1360.32 40.0156 1371.21 43.9297 1377.88C50.2138 1388.59 64.6625 1396.37 78.2856 1396.37C95.257 1396.37 104.813 1382.48 105.501 1368.76C106.006 1358.76 101.48 1348.24 90.2573 1347.25L90.6702 1343.08C104.798 1344.34 110.516 1356.97 109.92 1368.95C109.14 1384.64 98.0245 1400.55 78.2856 1400.55C62.8889 1400.55 47.1711 1392.06 40.0462 1379.9C35.551 1372.25 32.4167 1359.81 42.9359 1344.06C53.394 1328.4 72.2003 1320.19 90.8689 1323.14C110.623 1326.27 125.102 1340.79 130.607 1363C136.111 1385.26 124.46 1409.92 100.899 1425.82C88.0251 1434.51 70.2738 1440.97 50.1985 1440.97L50.1832 1440.98Z" fill="#E7ECF8"/>
<path d="M428.235 1410.13C427.317 1410.13 426.415 1410.13 425.483 1410.12C365.7 1409.19 311.07 1366.84 267.189 1332.81C234.744 1307.65 206.764 1285.96 186.016 1287.62C130.026 1292.22 114.736 1335.78 114.583 1336.21L110.363 1334.96C110.516 1334.5 126.616 1288.3 185.649 1283.46C208.14 1281.61 236.824 1303.85 270.018 1329.58C313.379 1363.2 367.336 1405.04 425.574 1405.94C480.755 1406.76 500.983 1382.15 501.441 1358.79C501.824 1339.6 488.95 1323.73 472.758 1323.41C454.625 1322.98 440.681 1329.97 434.458 1342.38C429.641 1351.97 430.788 1362.84 437.363 1370.07C445.558 1379.09 460.725 1379.61 470.832 1375.52C475.266 1373.73 485.418 1368.29 484.118 1356.54C483.125 1347.56 478.125 1341.43 470.74 1340.09C463.829 1338.85 454.304 1342.2 448.631 1352.51L444.702 1350.58C450.527 1340 461.337 1334.13 471.581 1335.98C480.999 1337.67 487.344 1345.19 488.552 1356.11C489.653 1366.17 483.69 1374.87 472.605 1379.35C460.756 1384.14 443.708 1383.44 434.014 1372.8C426.308 1364.32 424.917 1351.69 430.467 1340.6C437.363 1326.84 453.172 1318.9 472.88 1319.25C491.519 1319.61 506.334 1337.39 505.906 1358.89C505.432 1382.71 484.761 1410.15 428.281 1410.15L428.235 1410.13Z" fill="#E7ECF8"/>
<path d="M237.909 1532.93C237.603 1532.57 207.208 1496.33 216.58 1449.79C221.809 1423.76 247.175 1411.44 269.513 1412.67C287.142 1413.66 308.41 1424.04 310.29 1450.03C311.926 1472.5 303.181 1488.71 286.897 1493.38C272.54 1497.5 256.211 1490.8 248.077 1477.47C240.524 1465.09 239.377 1453.12 244.881 1443.73C250.034 1434.96 260.431 1429.45 272.693 1429.01C286.102 1428.5 293.793 1438.96 294.573 1449.51C295.261 1458.97 290.322 1465.82 282.28 1466.57L281.836 1462.41C288.61 1461.78 290.551 1455.22 290.154 1449.79C289.527 1441.24 283.381 1432.78 272.861 1433.17C262.159 1433.56 253.153 1438.26 248.765 1445.75C244.04 1453.81 245.157 1464.33 251.915 1475.38C259.04 1487.04 273.213 1492.93 285.613 1489.37C299.786 1485.31 307.355 1470.71 305.872 1450.32C304.175 1427.03 285.093 1417.74 269.253 1416.85C248.872 1415.72 225.708 1426.92 220.938 1450.56C211.947 1495.23 241.074 1529.96 241.365 1530.31L237.909 1532.93Z" fill="#E7ECF8"/>
<path d="M215.388 1483.46C214.119 1482.24 184.411 1452.78 207.345 1387.29C218.4 1355.75 215.372 1328.3 199.058 1311.97C186.246 1299.13 166.69 1294.81 145.422 1300.11L144.291 1296.08C167.18 1290.37 188.31 1295.13 202.285 1309.11C219.745 1326.58 223.124 1355.56 211.55 1388.6C189.518 1451.5 218.247 1480.25 218.537 1480.54L215.372 1483.46H215.388Z" fill="#E7ECF8"/>
<path d="M350.579 1521.17C343.5 1521.17 336.894 1520.05 330.779 1517.79C305.627 1508.49 298.41 1483.59 298.12 1482.53L302.401 1481.46C302.462 1481.69 309.373 1505.41 332.43 1513.91C352.291 1521.23 378.1 1515.52 409.123 1496.93C444.075 1476 469.67 1456.18 490.249 1440.26C524.055 1414.08 546.393 1396.79 580.672 1394.8C608.882 1393.14 624.615 1410.45 627.688 1428.3C631.036 1447.81 620.624 1472.32 589.816 1480.03C568.609 1485.34 556.943 1479.18 550.903 1473.07C542.846 1464.95 540.216 1451.7 544.39 1440.12C547.861 1430.48 555.154 1424.11 564.404 1422.65C581.636 1419.94 591.926 1428.86 594.464 1438.92C596.864 1448.42 592.369 1457.44 583.99 1459.9L582.66 1455.91C589.632 1453.85 591.727 1446.11 590.137 1439.89C588.225 1432.32 580.519 1424.35 565.107 1426.77C557.524 1427.97 551.484 1433.32 548.549 1441.46C544.895 1451.63 547.127 1463.19 554.099 1470.22C559.328 1475.49 569.572 1480.77 588.638 1475.98C616.771 1468.94 626.312 1446.67 623.269 1428.96C620.731 1414.14 608.102 1397.39 580.902 1398.96C548.06 1400.87 526.165 1417.83 493.017 1443.48C472.361 1459.47 446.643 1479.38 411.462 1500.45C388.451 1514.24 368.039 1521.16 350.517 1521.16L350.579 1521.17Z" fill="#E7ECF8"/>
<path d="M333.653 1577.17C318.318 1577.17 303.181 1574.72 289.344 1570.09L290.827 1566.16C341.436 1583.08 410.162 1569.91 437.852 1512.17C466.596 1452.24 511.594 1424.01 512.037 1423.72L514.468 1427.22C514.025 1427.49 470.067 1455.12 441.888 1513.88C420.697 1558.06 376.449 1577.17 333.653 1577.17Z" fill="#E7ECF8"/>
<path d="M6.04218 1480.85C5.59879 1480.85 5.15536 1480.85 4.69669 1480.85C-30.4389 1480.51 -67.5774 1447.81 -103.477 1416.2C-139.668 1384.34 -177.097 1351.28 -211.178 1352.77C-250.885 1354.37 -270.807 1375.36 -275.807 1392.87C-280.776 1410.28 -273.59 1427.28 -257.062 1437.24C-234.968 1450.54 -210.459 1444.58 -195.964 1432.78C-183.289 1422.45 -178.779 1408.99 -184.191 1397.65C-191.5 1382.34 -208.915 1377.51 -222.92 1379.54C-234.219 1381.17 -246.91 1387.87 -248.668 1401.74C-250.548 1416.57 -240.702 1424.71 -231.712 1427.16C-223.761 1429.34 -213.349 1428.06 -209.282 1420.09C-204.71 1411.11 -208.777 1401.73 -214.924 1397.48C-220.183 1393.83 -226.146 1394.15 -230.886 1398.32L-233.913 1395.26C-227.599 1389.7 -219.312 1389.25 -212.309 1394.11C-204.725 1399.35 -199.68 1410.88 -205.291 1421.89C-209.725 1430.61 -221.101 1434.43 -232.95 1431.17C-243.607 1428.24 -255.273 1418.66 -253.071 1401.24C-251.389 1387.88 -239.815 1377.74 -223.593 1375.39C-207.921 1373.13 -188.427 1378.6 -180.155 1395.92C-173.993 1408.82 -179.069 1424.53 -193.075 1435.92C-208.808 1448.73 -235.442 1455.2 -259.447 1440.74C-277.672 1429.76 -285.592 1411 -280.088 1391.76C-274.706 1372.9 -253.469 1350.27 -211.376 1348.57C-175.431 1347.13 -137.313 1380.68 -100.45 1413.13C-65.1617 1444.2 -28.6653 1476.33 4.75784 1476.66C5.18597 1476.66 5.61407 1476.66 6.04218 1476.66C72.0934 1476.66 94.7985 1425.49 95.0279 1424.96L99.1408 1426.51C98.9114 1427.06 75.1513 1480.82 6.05746 1480.82L6.04218 1480.85Z" fill="#E7ECF8"/>
<path d="M-24.9654 1431.66C-61.8899 1431.66 -90.4509 1400.36 -118.247 1369.91C-129.761 1357.29 -141.671 1344.25 -154.117 1333.4C-182.158 1308.95 -222.584 1302.92 -274.293 1315.49C-277.856 1316.35 -278.911 1316.6 -279.737 1316.54L-279.568 1314.45V1312.36C-279.094 1312.33 -277.229 1311.87 -275.41 1311.44C-222.156 1298.5 -180.339 1304.85 -151.12 1330.33C-138.491 1341.34 -126.504 1354.48 -114.899 1367.19C-80.4209 1404.96 -47.854 1440.62 -0.685455 1422.78L0.96579 1426.66C-8.14682 1430.1 -16.7702 1431.66 -24.9807 1431.66H-24.9654Z" fill="#E7ECF8"/>
<path d="M76.3133 1433.11C47.3089 1433.11 23.7628 1421.36 10.048 1399.42C-14.186 1360.68 -2.81052 1301.43 37.7376 1255.34C109.584 1173.68 201.933 1205.96 202.85 1206.28L201.26 1210.18C200.358 1209.85 110.898 1178.71 41.1472 1258.01C1.77634 1302.77 -9.43095 1360.04 13.8705 1397.29C30.0316 1423.11 59.4183 1433.69 96.6638 1427.06L97.4895 1431.17C90.181 1432.48 83.1019 1433.11 76.3286 1433.11H76.3133Z" fill="#E7ECF8"/>
</g>
</g>
<defs>
<clipPath id="clip0_105_7">
<rect width="1952" height="666" fill="white" transform="translate(0 787)"/>
</clipPath>
</defs>
</svg>
