<svg width="39" height="32" viewBox="0 0 39 32" fill="none" xmlns="http://www.w3.org/2000/svg">
<g id="EMAIL" clip-path="url(#clip0_447_895)">
<path id="Vector" d="M34.79 0H4.17C1.87 0 0 1.87 0 4.17V27.08C0 29.38 1.87 31.25 4.17 31.25H34.78C37.08 31.25 38.95 29.38 38.95 27.08V4.17C38.95 1.87 37.08 0 34.78 0H34.79ZM33.24 3.57L19.5 13.42L6.17 3.57H33.24ZM35.4 27.08C35.4 27.41 35.13 27.69 34.79 27.69H4.17C3.84 27.69 3.56 27.42 3.56 27.08V6.08L19.46 17.83L35.39 6.4V27.07L35.4 27.08Z" fill="#E6ECF9"/>
</g>
<defs>
<clipPath id="clip0_447_895">
<rect width="38.96" height="31.25" fill="white"/>
</clipPath>
</defs>
</svg>
