<svg width="184" height="183" viewBox="0 0 184 183" fill="none" xmlns="http://www.w3.org/2000/svg">
<g id="icon">
<path id="Vector" d="M168.822 104.038C175.781 61.7781 147.163 21.8786 104.902 14.9203C62.642 7.96204 22.7424 36.58 15.7841 78.8403C8.82585 121.101 37.4438 161 79.7042 167.959C121.965 174.917 161.864 146.299 168.822 104.038Z" fill="#00D8DB"/>
<path id="Vector_2" d="M138.098 137.179C163.352 111.925 163.352 70.9806 138.098 45.7265C112.844 20.4725 71.8988 20.4724 46.6447 45.7265C21.3907 70.9805 21.3907 111.925 46.6447 137.179C71.8988 162.434 112.844 162.434 138.098 137.179Z" fill="#0BFFD0"/>
<path id="branding icon" d="M130.662 72.8799L99.9086 83.1903L93.4674 51.4055L87.0262 83.1903L56.2725 72.8799L80.585 94.3543L56.2725 115.829L87.0262 105.518L93.4674 137.303L99.9086 105.518L130.662 115.829L106.35 94.3543L130.662 72.8799Z" stroke="#3D4867" stroke-width="1.5" stroke-linecap="round" stroke-linejoin="round"/>
</g>
</svg>
