<svg width="183" height="183" viewBox="0 0 183 183" fill="none" xmlns="http://www.w3.org/2000/svg">
<g id="icon">
<path id="Vector" d="M168.13 103.952C175.036 61.8678 146.519 22.1531 104.435 15.2465C62.3515 8.33993 22.6368 36.8568 15.7302 78.9407C8.82363 121.025 37.3405 160.739 79.4244 167.646C121.508 174.552 161.223 146.036 168.13 103.952Z" fill="#00D8DB"/>
<path id="Vector_2" d="M137.468 136.979C162.615 111.833 162.615 71.0624 137.468 45.916C112.322 20.7695 71.5514 20.7695 46.405 45.916C21.2585 71.0624 21.2585 111.833 46.405 136.979C71.5514 162.126 112.322 162.126 137.468 136.979Z" fill="#0BFFD0"/>
<path id="character design icon" d="M91.9403 118.949C72.0588 118.949 55.9305 102.832 55.9305 82.939C55.9305 75.2116 58.3702 68.0582 62.5209 62.1964C54.8266 69.7914 50.0577 80.3338 50.0577 92.0022C50.0577 115.129 68.8133 133.885 91.9403 133.885C115.067 133.885 133.823 115.129 133.823 92.0022C133.823 80.3338 129.054 69.7914 121.36 62.1964C125.499 68.0582 127.95 75.2116 127.95 82.939C127.95 102.821 111.833 118.949 91.9403 118.949Z" stroke="#3D4867" stroke-width="1.5" stroke-linecap="round" stroke-linejoin="round"/>
</g>
</svg>
