<svg width="111" height="112" viewBox="0 0 111 112" fill="none" xmlns="http://www.w3.org/2000/svg">
<g clip-path="url(#clip0_597_108)">
<path d="M56 77V112H58V77H56Z" fill="white"/>
</g>
<path d="M111 104C111 108.418 107.369 112 102.891 112H0.528091V96H102.891C107.369 96 111 99.5822 111 104Z" fill="#0BFFD0"/>
<path d="M24.571 106.019V107H19.846V100.7H24.445V101.681H21.016V103.319H24.058V104.282H21.016V106.019H24.571ZM28.4943 102.14C29.1003 102.14 29.5863 102.317 29.9523 102.671C30.3183 103.025 30.5013 103.55 30.5013 104.246V107H29.3763V104.39C29.3763 103.97 29.2773 103.655 29.0793 103.445C28.8813 103.229 28.5993 103.121 28.2333 103.121C27.8193 103.121 27.4923 103.247 27.2523 103.499C27.0123 103.745 26.8923 104.102 26.8923 104.57V107H25.7673V102.194H26.8383V102.815C27.0243 102.593 27.2583 102.425 27.5403 102.311C27.8223 102.197 28.1403 102.14 28.4943 102.14ZM36.3405 102.194L34.2795 107H33.1185L31.0575 102.194H32.2275L33.7215 105.758L35.2605 102.194H36.3405ZM37.0437 102.194H38.1687V107H37.0437V102.194ZM37.6107 101.402C37.4067 101.402 37.2357 101.339 37.0977 101.213C36.9597 101.081 36.8907 100.919 36.8907 100.727C36.8907 100.535 36.9597 100.376 37.0977 100.25C37.2357 100.118 37.4067 100.052 37.6107 100.052C37.8147 100.052 37.9857 100.115 38.1237 100.241C38.2617 100.361 38.3307 100.514 38.3307 100.7C38.3307 100.898 38.2617 101.066 38.1237 101.204C37.9917 101.336 37.8207 101.402 37.6107 101.402ZM40.7162 102.896C41.0402 102.392 41.6102 102.14 42.4262 102.14V103.211C42.3302 103.193 42.2432 103.184 42.1652 103.184C41.7272 103.184 41.3852 103.313 41.1392 103.571C40.8932 103.823 40.7702 104.189 40.7702 104.669V107H39.6452V102.194H40.7162V102.896ZM45.4966 107.063C45.0106 107.063 44.5726 106.958 44.1826 106.748C43.7926 106.538 43.4866 106.247 43.2646 105.875C43.0486 105.497 42.9406 105.071 42.9406 104.597C42.9406 104.123 43.0486 103.7 43.2646 103.328C43.4866 102.956 43.7926 102.665 44.1826 102.455C44.5726 102.245 45.0106 102.14 45.4966 102.14C45.9886 102.14 46.4296 102.245 46.8196 102.455C47.2096 102.665 47.5126 102.956 47.7286 103.328C47.9506 103.7 48.0616 104.123 48.0616 104.597C48.0616 105.071 47.9506 105.497 47.7286 105.875C47.5126 106.247 47.2096 106.538 46.8196 106.748C46.4296 106.958 45.9886 107.063 45.4966 107.063ZM45.4966 106.1C45.9106 106.1 46.2526 105.962 46.5226 105.686C46.7926 105.41 46.9276 105.047 46.9276 104.597C46.9276 104.147 46.7926 103.784 46.5226 103.508C46.2526 103.232 45.9106 103.094 45.4966 103.094C45.0826 103.094 44.7406 103.232 44.4706 103.508C44.2066 103.784 44.0746 104.147 44.0746 104.597C44.0746 105.047 44.2066 105.41 44.4706 105.686C44.7406 105.962 45.0826 106.1 45.4966 106.1ZM51.8644 102.14C52.4704 102.14 52.9564 102.317 53.3224 102.671C53.6884 103.025 53.8714 103.55 53.8714 104.246V107H52.7464V104.39C52.7464 103.97 52.6474 103.655 52.4494 103.445C52.2514 103.229 51.9694 103.121 51.6034 103.121C51.1894 103.121 50.8624 103.247 50.6224 103.499C50.3824 103.745 50.2624 104.102 50.2624 104.57V107H49.1374V102.194H50.2084V102.815C50.3944 102.593 50.6284 102.425 50.9104 102.311C51.1924 102.197 51.5104 102.14 51.8644 102.14ZM61.3645 102.14C61.9705 102.14 62.4505 102.317 62.8045 102.671C63.1585 103.019 63.3355 103.544 63.3355 104.246V107H62.2105V104.39C62.2105 103.97 62.1175 103.655 61.9315 103.445C61.7455 103.229 61.4785 103.121 61.1305 103.121C60.7525 103.121 60.4495 103.247 60.2215 103.499C59.9935 103.745 59.8795 104.099 59.8795 104.561V107H58.7545V104.39C58.7545 103.97 58.6615 103.655 58.4755 103.445C58.2895 103.229 58.0225 103.121 57.6745 103.121C57.2905 103.121 56.9845 103.244 56.7565 103.49C56.5345 103.736 56.4235 104.093 56.4235 104.561V107H55.2985V102.194H56.3695V102.806C56.5495 102.59 56.7745 102.425 57.0445 102.311C57.3145 102.197 57.6145 102.14 57.9445 102.14C58.3045 102.14 58.6225 102.209 58.8985 102.347C59.1805 102.479 59.4025 102.677 59.5645 102.941C59.7625 102.689 60.0175 102.494 60.3295 102.356C60.6415 102.212 60.9865 102.14 61.3645 102.14ZM69.3351 104.624C69.3351 104.702 69.3291 104.813 69.3171 104.957H65.5461C65.6121 105.311 65.7831 105.593 66.0591 105.803C66.3411 106.007 66.6891 106.109 67.1031 106.109C67.6311 106.109 68.0661 105.935 68.4081 105.587L69.0111 106.28C68.7951 106.538 68.5221 106.733 68.1921 106.865C67.8621 106.997 67.4901 107.063 67.0761 107.063C66.5481 107.063 66.0831 106.958 65.6811 106.748C65.2791 106.538 64.9671 106.247 64.7451 105.875C64.5291 105.497 64.4211 105.071 64.4211 104.597C64.4211 104.129 64.5261 103.709 64.7361 103.337C64.9521 102.959 65.2491 102.665 65.6271 102.455C66.0051 102.245 66.4311 102.14 66.9051 102.14C67.3731 102.14 67.7901 102.245 68.1561 102.455C68.5281 102.659 68.8161 102.95 69.0201 103.328C69.2301 103.7 69.3351 104.132 69.3351 104.624ZM66.9051 103.04C66.5451 103.04 66.2391 103.148 65.9871 103.364C65.7411 103.574 65.5911 103.856 65.5371 104.21H68.2641C68.2161 103.862 68.0691 103.58 67.8231 103.364C67.5771 103.148 67.2711 103.04 66.9051 103.04ZM73.1427 102.14C73.7487 102.14 74.2347 102.317 74.6007 102.671C74.9667 103.025 75.1497 103.55 75.1497 104.246V107H74.0247V104.39C74.0247 103.97 73.9257 103.655 73.7277 103.445C73.5297 103.229 73.2477 103.121 72.8817 103.121C72.4677 103.121 72.1407 103.247 71.9007 103.499C71.6607 103.745 71.5407 104.102 71.5407 104.57V107H70.4157V102.194H71.4867V102.815C71.6727 102.593 71.9067 102.425 72.1887 102.311C72.4707 102.197 72.7887 102.14 73.1427 102.14ZM79.4659 106.739C79.3339 106.847 79.1719 106.928 78.9799 106.982C78.7939 107.036 78.5959 107.063 78.3859 107.063C77.8579 107.063 77.4499 106.925 77.1619 106.649C76.8739 106.373 76.7299 105.971 76.7299 105.443V103.13H75.9379V102.23H76.7299V101.132H77.8549V102.23H79.1419V103.13H77.8549V105.416C77.8549 105.65 77.9119 105.83 78.0259 105.956C78.1399 106.076 78.3049 106.136 78.5209 106.136C78.7729 106.136 78.9829 106.07 79.1509 105.938L79.4659 106.739ZM87.0726 105.542H83.9226L83.3016 107H82.0956L84.9306 100.7H86.0826L88.9266 107H87.7026L87.0726 105.542ZM86.6856 104.624L85.4976 101.87L84.3186 104.624H86.6856ZM90.6908 102.896C91.0148 102.392 91.5848 102.14 92.4008 102.14V103.211C92.3048 103.193 92.2178 103.184 92.1398 103.184C91.7018 103.184 91.3598 103.313 91.1138 103.571C90.8678 103.823 90.7448 104.189 90.7448 104.669V107H89.6198V102.194H90.6908V102.896ZM96.42 106.739C96.288 106.847 96.126 106.928 95.934 106.982C95.748 107.036 95.55 107.063 95.34 107.063C94.812 107.063 94.404 106.925 94.116 106.649C93.828 106.373 93.684 105.971 93.684 105.443V103.13H92.892V102.23H93.684V101.132H94.809V102.23H96.096V103.13H94.809V105.416C94.809 105.65 94.866 105.83 94.98 105.956C95.094 106.076 95.259 106.136 95.475 106.136C95.727 106.136 95.937 106.07 96.105 105.938L96.42 106.739Z" fill="#3D4867"/>
<path d="M89.7935 47.6508C92.9608 28.414 79.9341 10.252 60.6974 7.08459C41.4606 3.91722 23.2985 16.944 20.1312 36.1807C16.9638 55.4174 29.9906 73.5795 49.2273 76.7469C68.464 79.9142 86.6261 66.8875 89.7935 47.6508Z" fill="#00D8DB"/>
<path d="M75.8077 62.7362C87.3032 51.2407 87.3032 32.6028 75.8077 21.1073C64.3122 9.61176 45.6743 9.61174 34.1787 21.1073C22.6832 32.6028 22.6832 51.2407 34.1787 62.7362C45.6743 74.2318 64.3122 74.2318 75.8077 62.7362Z" fill="#0BFFD0"/>
<path d="M55 51.8534C60.4419 51.8534 64.8534 47.4419 64.8534 42C64.8534 36.5581 60.4419 32.1466 55 32.1466C49.5581 32.1466 45.1466 36.5581 45.1466 42C45.1466 47.4419 49.5581 51.8534 55 51.8534Z" stroke="#3D4867" stroke-linecap="round" stroke-linejoin="round"/>
<path d="M55 29.5885V17" stroke="#3D4867" stroke-linecap="round" stroke-linejoin="round"/>
<path d="M55 67.0049V54.4164" stroke="#3D4867" stroke-linecap="round" stroke-linejoin="round"/>
<path d="M42.5885 41.9999H30" stroke="#3D4867" stroke-linecap="round" stroke-linejoin="round"/>
<path d="M80 41.9999H67.4164" stroke="#3D4867" stroke-linecap="round" stroke-linejoin="round"/>
<path d="M46.2239 33.2239L39.937 26.937" stroke="#3D4867" stroke-linecap="round" stroke-linejoin="round"/>
<path d="M70.063 57.0679L63.781 50.781" stroke="#3D4867" stroke-linecap="round" stroke-linejoin="round"/>
<path d="M46.2239 50.781L39.937 57.0679" stroke="#3D4867" stroke-linecap="round" stroke-linejoin="round"/>
<path d="M70.063 26.937L63.781 33.2239" stroke="#3D4867" stroke-linecap="round" stroke-linejoin="round"/>
<path d="M50.366 30.4838L47.0504 22.239" stroke="#3D4867" stroke-linecap="round" stroke-linejoin="round"/>
<path d="M62.9545 61.7658L59.634 53.521" stroke="#3D4867" stroke-linecap="round" stroke-linejoin="round"/>
<path d="M43.4839 46.6389L35.2391 49.9545" stroke="#3D4867" stroke-linecap="round" stroke-linejoin="round"/>
<path d="M74.7658 34.0504L66.521 37.366" stroke="#3D4867" stroke-linecap="round" stroke-linejoin="round"/>
<path d="M43.5822 37.1347L35.4014 33.6519" stroke="#3D4867" stroke-linecap="round" stroke-linejoin="round"/>
<path d="M74.5986 50.353L66.4227 46.8701" stroke="#3D4867" stroke-linecap="round" stroke-linejoin="round"/>
<path d="M50.1348 53.4227L46.6519 61.5986" stroke="#3D4867" stroke-linecap="round" stroke-linejoin="round"/>
<path d="M63.353 22.4064L59.8701 30.5823" stroke="#3D4867" stroke-linecap="round" stroke-linejoin="round"/>
<path d="M44.8662 34.8326L41.0636 32.1466" stroke="#3D4867" stroke-linecap="round" stroke-linejoin="round"/>
<path d="M68.9364 51.8583L65.1387 49.1675" stroke="#3D4867" stroke-linecap="round" stroke-linejoin="round"/>
<path d="M47.8325 52.1388L45.1466 55.9365" stroke="#3D4867" stroke-linecap="round" stroke-linejoin="round"/>
<path d="M64.8583 28.0635L62.1674 31.8661" stroke="#3D4867" stroke-linecap="round" stroke-linejoin="round"/>
<path d="M42.8443 39.4814L38.289 38.5369" stroke="#3D4867" stroke-linecap="round" stroke-linejoin="round"/>
<path d="M71.7159 45.4681L67.1556 44.5236" stroke="#3D4867" stroke-linecap="round" stroke-linejoin="round"/>
<path d="M52.4813 54.1556L51.5368 58.7158" stroke="#3D4867" stroke-linecap="round" stroke-linejoin="round"/>
<path d="M58.4681 25.2891L57.5236 29.8444" stroke="#3D4867" stroke-linecap="round" stroke-linejoin="round"/>
<path d="M42.7656 44.1006L38.1808 44.8877" stroke="#3D4867" stroke-linecap="round" stroke-linejoin="round"/>
<path d="M71.8241 39.1173L67.2393 39.9044" stroke="#3D4867" stroke-linecap="round" stroke-linejoin="round"/>
<path d="M57.1005 54.2393L57.8876 58.8241" stroke="#3D4867" stroke-linecap="round" stroke-linejoin="round"/>
<path d="M52.1173 25.1809L52.9044 29.7657" stroke="#3D4867" stroke-linecap="round" stroke-linejoin="round"/>
<path d="M48.2113 31.6055L45.668 27.7094" stroke="#3D4867" stroke-linecap="round" stroke-linejoin="round"/>
<path d="M64.3319 56.2906L61.7887 52.3945" stroke="#3D4867" stroke-linecap="round" stroke-linejoin="round"/>
<path d="M44.6055 48.7886L40.7094 51.3368" stroke="#3D4867" stroke-linecap="round" stroke-linejoin="round"/>
<path d="M69.2906 32.668L65.3945 35.2162" stroke="#3D4867" stroke-linecap="round" stroke-linejoin="round"/>
<path d="M48.6639 42C48.6639 37.3217 52.4567 33.5289 57.135 33.5289C58.9551 33.5289 60.6375 34.1045 62.0149 35.0785C60.2292 33.2682 57.745 32.1466 55 32.1466C49.5592 32.1466 45.1466 36.5592 45.1466 42C45.1466 47.4408 49.5592 51.8534 55 51.8534C57.745 51.8534 60.2243 50.7318 62.0149 48.9215C60.6326 49.8955 58.9502 50.4711 57.135 50.4711C52.4567 50.4711 48.6639 46.6783 48.6639 42Z" stroke="#3D4867" stroke-linecap="round" stroke-linejoin="round"/>
<defs>
<clipPath id="clip0_597_108">
<rect width="2" height="35" fill="white" transform="translate(56 77)"/>
</clipPath>
</defs>
</svg>
