<?xml version="1.0" encoding="UTF-8"?>
<svg id="Layer_1" data-name="Layer 1" xmlns="http://www.w3.org/2000/svg" viewBox="0 0 400 400">
  <defs>
    <style>
      .cls-1 {
        fill: #fff;
        stroke-width: 0px;
      }
    </style>
  </defs>
  <path class="cls-1" d="m200,.79C89.98.79.79,89.98.79,200h0c0,110.02,89.19,199.21,199.21,199.21s199.21-89.19,199.21-199.21h0C399.21,89.98,310.02.79,200,.79Zm-49.1,288h-41.23v-133.19h41.23v133.19Zm-20.81-150.63c-13.47,0-24.38-11.01-24.38-24.58s10.91-24.57,24.38-24.57,24.38,11,24.38,24.57-10.91,24.58-24.38,24.58Zm175.32,150.63h-41.03v-69.92c0-19.17-7.29-29.88-22.44-29.88-16.5,0-25.12,11.16-25.12,29.88v69.92h-39.55v-133.19h39.55v17.94s11.89-22.01,40.14-22.01,48.46,17.25,48.46,52.93v84.33Z"/>
</svg>