<svg width="178" height="177" viewBox="0 0 178 177" fill="none" xmlns="http://www.w3.org/2000/svg">
<g id="icon">
<g id="visual dev icon">
<path id="Vector" d="M165.298 100.954C172.204 59.011 143.801 19.4107 101.857 12.5046C59.9139 5.59854 20.3135 34.0019 13.4075 75.9453C6.50138 117.889 34.9047 157.489 76.8481 164.395C118.791 171.301 158.392 142.898 165.298 100.954Z" fill="#00D8DB"/>
<path id="Vector_2" d="M151.774 103.444C160.055 68.9776 138.828 34.3245 104.362 26.0436C69.8962 17.7627 35.243 38.9899 26.9621 73.4558C18.6813 107.922 39.9084 142.575 74.3743 150.856C108.84 159.137 143.493 137.909 151.774 103.444Z" fill="#0BFFD0"/>
</g>
<g id="visual dev icon_2">
<path id="Vector_3" d="M93.5859 84.7749C93.2338 77.9639 92.1885 64.6939 89.2947 57.3328C86.3898 64.6939 85.3555 77.9639 85.0034 84.7749C78.7206 85.094 61.2804 89.0662 61.2804 89.0662C68.6416 91.971 78.1814 93.0053 85.0034 93.3574C85.3555 100.168 86.4008 113.438 89.2947 120.8C92.1995 113.438 93.2338 100.168 93.5859 93.3574C100.397 93.0053 109.948 91.96 117.309 89.0662C117.309 89.0662 100.408 85.127 93.5859 84.7749Z" stroke="#3D4867" stroke-width="1.5" stroke-linecap="round" stroke-linejoin="round"/>
<g id="Group">
<g id="Group_2">
<g id="Group_3">
<path id="Vector_4" d="M40.1101 89.0771H56.0539" stroke="#3D4867" stroke-width="1.5" stroke-linecap="round" stroke-linejoin="round"/>
<path id="Vector_5" d="M122.514 89.0771H138.468" stroke="#3D4867" stroke-width="1.5" stroke-linecap="round" stroke-linejoin="round"/>
</g>
<g id="Group_4">
<path id="Vector_6" d="M89.2837 39.8926V53.0745" stroke="#3D4867" stroke-width="1.5" stroke-linecap="round" stroke-linejoin="round"/>
<path id="Vector_7" d="M89.2837 125.08V138.251" stroke="#3D4867" stroke-width="1.5" stroke-linecap="round" stroke-linejoin="round"/>
</g>
</g>
<g id="Group_5">
<g id="Group_6">
<path id="Vector_8" d="M63.0519 62.8453L71.3044 71.0868" stroke="#3D4867" stroke-width="1.5" stroke-linecap="round" stroke-linejoin="round"/>
<path id="Vector_9" d="M56.7691 56.5515L60.4111 60.1936" stroke="#3D4867" stroke-width="1.5" stroke-linecap="round" stroke-linejoin="round"/>
<path id="Vector_10" d="M115.57 115.353L107.329 107.111" stroke="#3D4867" stroke-width="1.5" stroke-linecap="round" stroke-linejoin="round"/>
<path id="Vector_11" d="M121.853 121.647L118.211 118.005" stroke="#3D4867" stroke-width="1.5" stroke-linecap="round" stroke-linejoin="round"/>
</g>
<path id="Vector_12" d="M71.3044 107.068L62.6668 115.694" stroke="#3D4867" stroke-width="1.5" stroke-linecap="round" stroke-linejoin="round"/>
<path id="Vector_13" d="M115.57 62.8453L107.329 71.0868" stroke="#3D4867" stroke-width="1.5" stroke-linecap="round" stroke-linejoin="round"/>
<path id="Vector_14" d="M121.853 56.5515L118.211 60.1936" stroke="#3D4867" stroke-width="1.5" stroke-linecap="round" stroke-linejoin="round"/>
<path id="Vector_15" d="M56.7691 121.647L60.4111 118.005" stroke="#3D4867" stroke-width="1.5" stroke-linecap="round" stroke-linejoin="round"/>
</g>
<g id="Group_7">
<g id="Group_8">
<path id="Vector_16" d="M54.6454 74.3217L65.8798 79.1081" stroke="#3D4867" stroke-width="1.5" stroke-linecap="round" stroke-linejoin="round"/>
<path id="Vector_17" d="M112.688 99.046L123.922 103.832" stroke="#3D4867" stroke-width="1.5" stroke-linecap="round" stroke-linejoin="round"/>
</g>
<g id="Group_9">
<path id="Vector_18" d="M104.039 54.4388L99.2526 65.6732" stroke="#3D4867" stroke-width="1.5" stroke-linecap="round" stroke-linejoin="round"/>
<path id="Vector_19" d="M79.3147 112.481L74.5284 123.715" stroke="#3D4867" stroke-width="1.5" stroke-linecap="round" stroke-linejoin="round"/>
</g>
</g>
<g id="Group_10">
<g id="Group_11">
<path id="Vector_20" d="M75.2325 54.1527L79.7879 65.4751" stroke="#3D4867" stroke-width="1.5" stroke-linecap="round" stroke-linejoin="round"/>
<path id="Vector_21" d="M98.7905 112.668L103.346 124.001" stroke="#3D4867" stroke-width="1.5" stroke-linecap="round" stroke-linejoin="round"/>
</g>
<g id="Group_12">
<path id="Vector_22" d="M124.219 75.0149L112.886 79.5812" stroke="#3D4867" stroke-width="1.5" stroke-linecap="round" stroke-linejoin="round"/>
<path id="Vector_23" d="M65.6927 98.5729L54.3593 103.128" stroke="#3D4867" stroke-width="1.5" stroke-linecap="round" stroke-linejoin="round"/>
</g>
</g>
</g>
</g>
</g>
</svg>
