<?xml version="1.0" encoding="UTF-8"?>
<svg id="Layer_1" data-name="Layer 1" xmlns="http://www.w3.org/2000/svg" viewBox="0 0 400 400">
  <defs>
    <style>
      .cls-1 {
        fill: #fff;
        stroke-width: 0px;
      }
    </style>
  </defs>
  <polygon class="cls-1" points="83.46 138.62 83.46 270.55 151.57 203.12 83.46 138.62"/>
  <path class="cls-1" d="m223.9,225.73c-13.54,12.98-35.11,12.98-48.64,0l-16.07-15.5-68.1,67.85h217.42l-68.52-67.85-16.07,15.5Z"/>
  <path class="cls-1" d="m200,.79C89.98.79.79,89.98.79,200h0c0,110.02,89.19,199.21,199.21,199.21s199.21-89.19,199.21-199.21h0C399.21,89.98,310.02.79,200,.79Zm127.11,273.95c0,7.96-6.35,14.24-14.38,14.24H87.27c-8.04,0-14.38-6.28-14.38-14.24v-139.47c0-7.96,6.35-14.24,14.38-14.24h225.03c8.04,0,14.38,6.28,14.81,14.24v139.47Z"/>
  <path class="cls-1" d="m216.71,218.19l91.79-86.7H91.08l91.79,86.7c9.31,8.79,24.53,8.79,33.84,0Z"/>
  <polygon class="cls-1" points="316.11 270.55 316.11 138.62 248.01 203.12 316.11 270.55"/>
</svg>