<svg width="184" height="183" viewBox="0 0 184 183" fill="none" xmlns="http://www.w3.org/2000/svg">
<g id="icon">
<path id="Vector" d="M166.714 108.555C176.162 67.4988 150.539 26.5564 109.482 17.1079C68.4259 7.65946 27.4835 33.2829 18.035 74.3395C8.58656 115.396 34.21 156.338 75.2665 165.787C116.323 175.235 157.266 149.612 166.714 108.555Z" fill="#00D8DB"/>
<path id="Vector_2" d="M154.222 106.306C162.429 72.1468 141.391 37.8021 107.232 29.5949C73.0728 21.3877 38.7281 42.4259 30.5209 76.585C22.3138 110.744 43.3519 145.089 77.511 153.296C111.67 161.503 146.015 140.465 154.222 106.306Z" fill="#0BFFD0"/>
<g id="environment icon">
<path id="Vector_3" d="M91.977 114.493C104.041 114.493 113.82 104.714 113.82 92.6499C113.82 80.5861 104.041 70.8065 91.977 70.8065C79.9133 70.8065 70.1337 80.5861 70.1337 92.6499C70.1337 104.714 79.9133 114.493 91.977 114.493Z" stroke="#3D4867" stroke-width="1.5" stroke-linecap="round" stroke-linejoin="round"/>
<path id="Vector_4" d="M91.977 65.1357V37.229" stroke="#3D4867" stroke-width="1.5" stroke-linecap="round" stroke-linejoin="round"/>
<path id="Vector_5" d="M91.977 148.081V120.175" stroke="#3D4867" stroke-width="1.5" stroke-linecap="round" stroke-linejoin="round"/>
<path id="Vector_6" d="M64.4629 92.6498H36.5562" stroke="#3D4867" stroke-width="1.5" stroke-linecap="round" stroke-linejoin="round"/>
<path id="Vector_7" d="M147.398 92.6498H119.502" stroke="#3D4867" stroke-width="1.5" stroke-linecap="round" stroke-linejoin="round"/>
<path id="Vector_8" d="M72.5219 73.1947L58.585 59.2577" stroke="#3D4867" stroke-width="1.5" stroke-linecap="round" stroke-linejoin="round"/>
<path id="Vector_9" d="M125.369 126.053L111.443 112.116" stroke="#3D4867" stroke-width="1.5" stroke-linecap="round" stroke-linejoin="round"/>
<path id="Vector_10" d="M72.5219 112.116L58.585 126.053" stroke="#3D4867" stroke-width="1.5" stroke-linecap="round" stroke-linejoin="round"/>
<path id="Vector_11" d="M125.369 59.2577L111.443 73.1947" stroke="#3D4867" stroke-width="1.5" stroke-linecap="round" stroke-linejoin="round"/>
<path id="Vector_12" d="M81.7042 67.1204L74.354 48.8431" stroke="#3D4867" stroke-width="1.5" stroke-linecap="round" stroke-linejoin="round"/>
<path id="Vector_13" d="M109.611 136.467L102.25 118.19" stroke="#3D4867" stroke-width="1.5" stroke-linecap="round" stroke-linejoin="round"/>
<path id="Vector_14" d="M66.4477 102.933L48.1703 110.284" stroke="#3D4867" stroke-width="1.5" stroke-linecap="round" stroke-linejoin="round"/>
<path id="Vector_15" d="M135.795 75.0269L117.517 82.377" stroke="#3D4867" stroke-width="1.5" stroke-linecap="round" stroke-linejoin="round"/>
<path id="Vector_16" d="M66.6657 81.8644L48.5302 74.1434" stroke="#3D4867" stroke-width="1.5" stroke-linecap="round" stroke-linejoin="round"/>
<path id="Vector_17" d="M135.424 111.167L117.299 103.446" stroke="#3D4867" stroke-width="1.5" stroke-linecap="round" stroke-linejoin="round"/>
<path id="Vector_18" d="M81.1916 117.972L73.4706 136.097" stroke="#3D4867" stroke-width="1.5" stroke-linecap="round" stroke-linejoin="round"/>
<path id="Vector_19" d="M110.494 49.214L102.773 67.3386" stroke="#3D4867" stroke-width="1.5" stroke-linecap="round" stroke-linejoin="round"/>
<path id="Vector_20" d="M69.5121 76.7608L61.0823 70.8065" stroke="#3D4867" stroke-width="1.5" stroke-linecap="round" stroke-linejoin="round"/>
<path id="Vector_21" d="M122.872 114.504L114.453 108.539" stroke="#3D4867" stroke-width="1.5" stroke-linecap="round" stroke-linejoin="round"/>
<path id="Vector_22" d="M76.088 115.126L70.1337 123.545" stroke="#3D4867" stroke-width="1.5" stroke-linecap="round" stroke-linejoin="round"/>
<path id="Vector_23" d="M113.831 61.755L107.866 70.1848" stroke="#3D4867" stroke-width="1.5" stroke-linecap="round" stroke-linejoin="round"/>
<path id="Vector_24" d="M65.03 87.0664L54.9316 84.9725" stroke="#3D4867" stroke-width="1.5" stroke-linecap="round" stroke-linejoin="round"/>
<path id="Vector_25" d="M129.033 100.338L118.924 98.2441" stroke="#3D4867" stroke-width="1.5" stroke-linecap="round" stroke-linejoin="round"/>
<path id="Vector_26" d="M86.3934 119.597L84.2996 129.706" stroke="#3D4867" stroke-width="1.5" stroke-linecap="round" stroke-linejoin="round"/>
<path id="Vector_27" d="M99.6652 55.6045L97.5714 65.7028" stroke="#3D4867" stroke-width="1.5" stroke-linecap="round" stroke-linejoin="round"/>
<path id="Vector_28" d="M64.8555 97.3063L54.6918 99.0511" stroke="#3D4867" stroke-width="1.5" stroke-linecap="round" stroke-linejoin="round"/>
<path id="Vector_29" d="M129.273 86.2593L119.109 88.0041" stroke="#3D4867" stroke-width="1.5" stroke-linecap="round" stroke-linejoin="round"/>
<path id="Vector_30" d="M96.6336 119.782L98.3785 129.946" stroke="#3D4867" stroke-width="1.5" stroke-linecap="round" stroke-linejoin="round"/>
<path id="Vector_31" d="M85.5865 55.3645L87.3314 65.5282" stroke="#3D4867" stroke-width="1.5" stroke-linecap="round" stroke-linejoin="round"/>
<path id="Vector_32" d="M76.9277 69.6069L71.2896 60.9698" stroke="#3D4867" stroke-width="1.5" stroke-linecap="round" stroke-linejoin="round"/>
<path id="Vector_33" d="M112.664 124.33L107.026 115.693" stroke="#3D4867" stroke-width="1.5" stroke-linecap="round" stroke-linejoin="round"/>
<path id="Vector_34" d="M68.9341 107.699L60.2971 113.348" stroke="#3D4867" stroke-width="1.5" stroke-linecap="round" stroke-linejoin="round"/>
<path id="Vector_35" d="M123.657 71.9624L115.02 77.6113" stroke="#3D4867" stroke-width="1.5" stroke-linecap="round" stroke-linejoin="round"/>
<path id="Vector_36" d="M77.931 92.6499C77.931 82.2789 86.339 73.8709 96.7099 73.8709C100.745 73.8709 104.474 75.1468 107.528 77.3061C103.569 73.2929 98.0622 70.8065 91.977 70.8065C79.9157 70.8065 70.1337 80.5886 70.1337 92.6499C70.1337 104.711 79.9157 114.493 91.977 114.493C98.0622 114.493 103.558 112.007 107.528 107.994C104.464 110.153 100.734 111.429 96.7099 111.429C86.339 111.429 77.931 103.021 77.931 92.6499Z" stroke="#3D4867" stroke-width="1.5" stroke-linecap="round" stroke-linejoin="round"/>
</g>
</g>
</svg>
