<?xml version="1.0" encoding="UTF-8"?>
<svg id="Layer_1" data-name="Layer 1" xmlns="http://www.w3.org/2000/svg" viewBox="0 0 400 400">
  <defs>
    <style>
      .cls-1 {
        fill: #fff;
        stroke-width: 0px;
      }
    </style>
  </defs>
  <path class="cls-1" d="m278.76,131.42c-1.83-4.72-4.02-8.08-7.56-11.62-3.53-3.54-6.9-5.72-11.61-7.56-3.56-1.38-8.91-3.03-18.76-3.48-10.65-.49-13.85-.59-40.82-.59s-30.17.1-40.82.59c-9.85.45-15.2,2.1-18.76,3.48-4.72,1.83-8.08,4.02-11.62,7.56-3.53,3.54-5.72,6.9-7.56,11.62-1.38,3.56-3.03,8.91-3.48,18.76-.48,10.65-.59,13.85-.59,40.82s.1,30.17.59,40.82c.45,9.85,2.1,15.2,3.48,18.76,1.83,4.72,4.02,8.08,7.56,11.62,3.54,3.53,6.9,5.72,11.62,7.56,3.56,1.38,8.91,3.03,18.76,3.48,10.65.48,13.85.59,40.82.59s30.17-.1,40.82-.59c9.85-.45,15.2-2.1,18.76-3.48,4.72-1.83,8.08-4.02,11.61-7.56,3.54-3.54,5.72-6.9,7.56-11.62,1.38-3.56,3.03-8.91,3.48-18.76.49-10.65.59-13.85.59-40.82s-.1-30.17-.59-40.82c-.45-9.85-2.1-15.2-3.48-18.76Zm-78.76,111.47c-28.65,0-51.88-23.23-51.88-51.88s23.23-51.88,51.88-51.88,51.88,23.23,51.88,51.88-23.23,51.88-51.88,51.88Zm53.93-93.69c-6.7,0-12.13-5.43-12.13-12.13s5.43-12.12,12.13-12.12,12.12,5.43,12.12,12.12-5.43,12.13-12.12,12.13Z"/>
  <path class="cls-1" d="m200,157.32c-18.6,0-33.68,15.08-33.68,33.68s15.08,33.68,33.68,33.68,33.68-15.08,33.68-33.68-15.08-33.68-33.68-33.68Z"/>
  <path class="cls-1" d="m200,.79C89.98.79.79,89.98.79,200h0c0,110.02,89.19,199.21,199.21,199.21s199.21-89.19,199.21-199.21h0C399.21,89.98,310.02.79,200,.79Zm100.42,231.87c-.49,10.75-2.2,18.1-4.7,24.52-2.58,6.64-6.04,12.28-11.65,17.89-5.62,5.62-11.25,9.07-17.9,11.65-6.43,2.5-13.77,4.21-24.52,4.7-10.78.49-14.22.61-41.66.61s-30.88-.12-41.65-.61c-10.75-.49-18.1-2.2-24.52-4.7-6.65-2.58-12.28-6.04-17.9-11.65-5.62-5.62-9.07-11.25-11.65-17.89-2.5-6.43-4.21-13.77-4.7-24.52-.49-10.78-.61-14.22-.61-41.65s.12-30.88.61-41.66c.49-10.75,2.2-18.1,4.7-24.52,2.58-6.64,6.03-12.28,11.65-17.9,5.62-5.62,11.25-9.07,17.9-11.65,6.43-2.5,13.77-4.21,24.52-4.7,10.78-.49,14.22-.61,41.65-.61s30.88.12,41.66.61c10.75.49,18.1,2.2,24.52,4.7,6.65,2.58,12.28,6.04,17.9,11.65,5.62,5.62,9.07,11.25,11.65,17.9,2.5,6.43,4.21,13.77,4.7,24.52.49,10.78.61,14.22.61,41.66s-.12,30.88-.61,41.65Z"/>
</svg>