<svg width="111" height="105" viewBox="0 0 111 105" fill="none" xmlns="http://www.w3.org/2000/svg">
<g clip-path="url(#clip0_594_100)">
<path d="M56 70V105H58V70H56Z" fill="white"/>
</g>
<g clip-path="url(#clip1_594_100)">
<path d="M90.5276 40.6853C93.6678 21.6135 80.7527 3.6071 61.6809 0.46688C42.6091 -2.67334 24.6027 10.2418 21.4625 29.3135C18.3223 48.3853 31.2374 66.3917 50.3092 69.5319C69.381 72.6722 87.3873 59.7571 90.5276 40.6853Z" fill="#00D8DB"/>
<path d="M84.3716 41.8188C88.137 26.147 78.4849 10.3901 62.8132 6.62477C47.1414 2.85943 31.3845 12.5115 27.6192 28.1832C23.8538 43.855 33.5059 59.6119 49.1776 63.3772C64.8494 67.1426 80.6063 57.4905 84.3716 41.8188Z" fill="#0BFFD0"/>
<path d="M57.9137 33.3265C57.7536 30.2295 57.2783 24.1956 55.9625 20.8484C54.6416 24.1956 54.1713 30.2295 54.0112 33.3265C51.1544 33.4716 43.2243 35.2777 43.2243 35.2777C46.5714 36.5986 50.9092 37.0689 54.0112 37.229C54.1713 40.326 54.6466 46.3598 55.9625 49.707C57.2833 46.3598 57.7536 40.326 57.9137 37.229C61.0107 37.0689 65.3535 36.5936 68.7007 35.2777C68.7007 35.2777 61.0157 33.4866 57.9137 33.3265Z" stroke="#3D4867" stroke-linecap="round" stroke-linejoin="round"/>
<path d="M33.5981 35.2827H40.8478" stroke="#3D4867" stroke-linecap="round" stroke-linejoin="round"/>
<path d="M71.0672 35.2827H78.3218" stroke="#3D4867" stroke-linecap="round" stroke-linejoin="round"/>
<path d="M55.9575 12.9183V18.9122" stroke="#3D4867" stroke-linecap="round" stroke-linejoin="round"/>
<path d="M55.9575 51.6533V57.6421" stroke="#3D4867" stroke-linecap="round" stroke-linejoin="round"/>
<path d="M44.0298 23.355L47.7822 27.1024" stroke="#3D4867" stroke-linecap="round" stroke-linejoin="round"/>
<path d="M41.173 20.4932L42.829 22.1493" stroke="#3D4867" stroke-linecap="round" stroke-linejoin="round"/>
<path d="M67.9102 47.2304L64.1627 43.483" stroke="#3D4867" stroke-linecap="round" stroke-linejoin="round"/>
<path d="M70.772 50.0922L69.1159 48.4362" stroke="#3D4867" stroke-linecap="round" stroke-linejoin="round"/>
<path d="M47.7822 43.463L43.8547 47.3855" stroke="#3D4867" stroke-linecap="round" stroke-linejoin="round"/>
<path d="M67.9102 23.355L64.1627 27.1024" stroke="#3D4867" stroke-linecap="round" stroke-linejoin="round"/>
<path d="M70.772 20.4932L69.1159 22.1493" stroke="#3D4867" stroke-linecap="round" stroke-linejoin="round"/>
<path d="M41.173 50.0922L42.829 48.4362" stroke="#3D4867" stroke-linecap="round" stroke-linejoin="round"/>
<path d="M40.2123 28.5734L45.3156 30.7498" stroke="#3D4867" stroke-linecap="round" stroke-linejoin="round"/>
<path d="M66.5993 39.8157L71.7076 41.9921" stroke="#3D4867" stroke-linecap="round" stroke-linejoin="round"/>
<path d="M62.6718 19.5326L60.4954 24.6409" stroke="#3D4867" stroke-linecap="round" stroke-linejoin="round"/>
<path d="M51.4246 45.9246L49.2482 51.0328" stroke="#3D4867" stroke-linecap="round" stroke-linejoin="round"/>
<path d="M49.5684 19.4025L51.6397 24.5508" stroke="#3D4867" stroke-linecap="round" stroke-linejoin="round"/>
<path d="M60.2803 46.0096L62.3516 51.163" stroke="#3D4867" stroke-linecap="round" stroke-linejoin="round"/>
<path d="M71.8427 28.8886L66.6894 30.9649" stroke="#3D4867" stroke-linecap="round" stroke-linejoin="round"/>
<path d="M45.2306 39.6005L40.0773 41.6719" stroke="#3D4867" stroke-linecap="round" stroke-linejoin="round"/>
</g>
<path d="M111 97C111 101.418 107.369 105 102.891 105H0.528091V89H102.891C107.369 89 111 92.5822 111 97Z" fill="#0BFFD0"/>
<defs>
<clipPath id="clip0_594_100">
<rect width="2" height="35" fill="white" transform="translate(56 70)"/>
</clipPath>
<clipPath id="clip1_594_100">
<rect width="70" height="70" fill="white" transform="translate(21)"/>
</clipPath>
</defs>
</svg>
