<svg width="102" height="120" viewBox="0 0 102 120" fill="none" xmlns="http://www.w3.org/2000/svg">
<g clip-path="url(#clip0_597_102)">
<path d="M49 85V120H51V85H49Z" fill="white"/>
</g>
<path d="M100.528 104V120H8.10937C3.63114 120 0 116.418 0 112C0 109.791 0.906436 107.79 2.374 106.342C3.84156 104.894 5.87025 104 8.10937 104H100.528Z" fill="#00D8DB"/>
<path d="M25.959 114.01V115H21.315V114.217L23.817 111.841C24.099 111.571 24.288 111.337 24.384 111.139C24.486 110.935 24.537 110.734 24.537 110.536C24.537 110.242 24.438 110.017 24.24 109.861C24.042 109.705 23.751 109.627 23.367 109.627C22.725 109.627 22.233 109.846 21.891 110.284L21.072 109.654C21.318 109.324 21.648 109.069 22.062 108.889C22.482 108.703 22.95 108.61 23.466 108.61C24.15 108.61 24.696 108.772 25.104 109.096C25.512 109.42 25.716 109.861 25.716 110.419C25.716 110.761 25.644 111.082 25.5 111.382C25.356 111.682 25.08 112.024 24.672 112.408L22.989 114.01H25.959ZM27.0843 108.7H29.8383C30.5103 108.7 31.1073 108.832 31.6293 109.096C32.1513 109.354 32.5563 109.723 32.8443 110.203C33.1323 110.677 33.2763 111.226 33.2763 111.85C33.2763 112.474 33.1323 113.026 32.8443 113.506C32.5563 113.98 32.1513 114.349 31.6293 114.613C31.1073 114.871 30.5103 115 29.8383 115H27.0843V108.7ZM29.7843 114.01C30.2463 114.01 30.6513 113.923 30.9993 113.749C31.3533 113.569 31.6233 113.317 31.8093 112.993C32.0013 112.663 32.0973 112.282 32.0973 111.85C32.0973 111.418 32.0013 111.04 31.8093 110.716C31.6233 110.386 31.3533 110.134 30.9993 109.96C30.6513 109.78 30.2463 109.69 29.7843 109.69H28.2543V114.01H29.7843ZM41.0931 113.542H37.9431L37.3221 115H36.1161L38.9511 108.7H40.1031L42.9471 115H41.7231L41.0931 113.542ZM40.7061 112.624L39.5181 109.87L38.3391 112.624H40.7061ZM46.3673 110.14C46.9733 110.14 47.4593 110.317 47.8253 110.671C48.1913 111.025 48.3743 111.55 48.3743 112.246V115H47.2493V112.39C47.2493 111.97 47.1503 111.655 46.9523 111.445C46.7543 111.229 46.4723 111.121 46.1063 111.121C45.6923 111.121 45.3653 111.247 45.1253 111.499C44.8853 111.745 44.7653 112.102 44.7653 112.57V115H43.6403V110.194H44.7113V110.815C44.8973 110.593 45.1313 110.425 45.4133 110.311C45.6953 110.197 46.0133 110.14 46.3673 110.14ZM49.8015 110.194H50.9265V115H49.8015V110.194ZM50.3685 109.402C50.1645 109.402 49.9935 109.339 49.8555 109.213C49.7175 109.081 49.6485 108.919 49.6485 108.727C49.6485 108.535 49.7175 108.376 49.8555 108.25C49.9935 108.118 50.1645 108.052 50.3685 108.052C50.5725 108.052 50.7435 108.115 50.8815 108.241C51.0195 108.361 51.0885 108.514 51.0885 108.7C51.0885 108.898 51.0195 109.066 50.8815 109.204C50.7495 109.336 50.5785 109.402 50.3685 109.402ZM58.469 110.14C59.075 110.14 59.555 110.317 59.909 110.671C60.263 111.019 60.44 111.544 60.44 112.246V115H59.315V112.39C59.315 111.97 59.222 111.655 59.036 111.445C58.85 111.229 58.583 111.121 58.235 111.121C57.857 111.121 57.554 111.247 57.326 111.499C57.098 111.745 56.984 112.099 56.984 112.561V115H55.859V112.39C55.859 111.97 55.766 111.655 55.58 111.445C55.394 111.229 55.127 111.121 54.779 111.121C54.395 111.121 54.089 111.244 53.861 111.49C53.639 111.736 53.528 112.093 53.528 112.561V115H52.403V110.194H53.474V110.806C53.654 110.59 53.879 110.425 54.149 110.311C54.419 110.197 54.719 110.14 55.049 110.14C55.409 110.14 55.727 110.209 56.003 110.347C56.285 110.479 56.507 110.677 56.669 110.941C56.867 110.689 57.122 110.494 57.434 110.356C57.746 110.212 58.091 110.14 58.469 110.14ZM63.7136 110.14C64.4216 110.14 64.9616 110.311 65.3336 110.653C65.7116 110.989 65.9006 111.499 65.9006 112.183V115H64.8386V114.415C64.7006 114.625 64.5026 114.787 64.2446 114.901C63.9926 115.009 63.6866 115.063 63.3266 115.063C62.9666 115.063 62.6516 115.003 62.3816 114.883C62.1116 114.757 61.9016 114.586 61.7516 114.37C61.6076 114.148 61.5356 113.899 61.5356 113.623C61.5356 113.191 61.6946 112.846 62.0126 112.588C62.3366 112.324 62.8436 112.192 63.5336 112.192H64.7756V112.12C64.7756 111.784 64.6736 111.526 64.4696 111.346C64.2716 111.166 63.9746 111.076 63.5786 111.076C63.3086 111.076 63.0416 111.118 62.7776 111.202C62.5196 111.286 62.3006 111.403 62.1206 111.553L61.6796 110.734C61.9316 110.542 62.2346 110.395 62.5886 110.293C62.9426 110.191 63.3176 110.14 63.7136 110.14ZM63.5606 114.244C63.8426 114.244 64.0916 114.181 64.3076 114.055C64.5296 113.923 64.6856 113.737 64.7756 113.497V112.939H63.6146C62.9666 112.939 62.6426 113.152 62.6426 113.578C62.6426 113.782 62.7236 113.944 62.8856 114.064C63.0476 114.184 63.2726 114.244 63.5606 114.244ZM70.2334 114.739C70.1014 114.847 69.9394 114.928 69.7474 114.982C69.5614 115.036 69.3634 115.063 69.1534 115.063C68.6254 115.063 68.2174 114.925 67.9294 114.649C67.6414 114.373 67.4974 113.971 67.4974 113.443V111.13H66.7054V110.23H67.4974V109.132H68.6224V110.23H69.9094V111.13H68.6224V113.416C68.6224 113.65 68.6794 113.83 68.7934 113.956C68.9074 114.076 69.0724 114.136 69.2884 114.136C69.5404 114.136 69.7504 114.07 69.9184 113.938L70.2334 114.739ZM71.1589 110.194H72.2839V115H71.1589V110.194ZM71.7259 109.402C71.5219 109.402 71.3509 109.339 71.2129 109.213C71.0749 109.081 71.0059 108.919 71.0059 108.727C71.0059 108.535 71.0749 108.376 71.2129 108.25C71.3509 108.118 71.5219 108.052 71.7259 108.052C71.9299 108.052 72.1009 108.115 72.2389 108.241C72.3769 108.361 72.4459 108.514 72.4459 108.7C72.4459 108.898 72.3769 109.066 72.2389 109.204C72.1069 109.336 71.9359 109.402 71.7259 109.402ZM75.9205 115.063C75.4345 115.063 74.9965 114.958 74.6065 114.748C74.2165 114.538 73.9105 114.247 73.6885 113.875C73.4725 113.497 73.3645 113.071 73.3645 112.597C73.3645 112.123 73.4725 111.7 73.6885 111.328C73.9105 110.956 74.2165 110.665 74.6065 110.455C74.9965 110.245 75.4345 110.14 75.9205 110.14C76.4125 110.14 76.8535 110.245 77.2435 110.455C77.6335 110.665 77.9365 110.956 78.1525 111.328C78.3745 111.7 78.4855 112.123 78.4855 112.597C78.4855 113.071 78.3745 113.497 78.1525 113.875C77.9365 114.247 77.6335 114.538 77.2435 114.748C76.8535 114.958 76.4125 115.063 75.9205 115.063ZM75.9205 114.1C76.3345 114.1 76.6765 113.962 76.9465 113.686C77.2165 113.41 77.3515 113.047 77.3515 112.597C77.3515 112.147 77.2165 111.784 76.9465 111.508C76.6765 111.232 76.3345 111.094 75.9205 111.094C75.5065 111.094 75.1645 111.232 74.8945 111.508C74.6305 111.784 74.4985 112.147 74.4985 112.597C74.4985 113.047 74.6305 113.41 74.8945 113.686C75.1645 113.962 75.5065 114.1 75.9205 114.1ZM82.2882 110.14C82.8942 110.14 83.3802 110.317 83.7462 110.671C84.1122 111.025 84.2952 111.55 84.2952 112.246V115H83.1702V112.39C83.1702 111.97 83.0712 111.655 82.8732 111.445C82.6752 111.229 82.3932 111.121 82.0272 111.121C81.6132 111.121 81.2862 111.247 81.0462 111.499C80.8062 111.745 80.6862 112.102 80.6862 112.57V115H79.5612V110.194H80.6322V110.815C80.8182 110.593 81.0522 110.425 81.3342 110.311C81.6162 110.197 81.9342 110.14 82.2882 110.14Z" fill="#3D4867"/>
<path d="M76.6275 74.8828C90.413 61.0973 90.413 38.7465 76.6275 24.9609C62.8419 11.1754 40.4911 11.1753 26.7055 24.9609C12.92 38.7465 12.92 61.0973 26.7055 74.8828C40.4911 88.6684 62.8419 88.6684 76.6275 74.8828Z" fill="#00D8DB"/>
<path d="M72.481 70.7364C83.9765 59.2408 83.9765 40.6029 72.481 29.1074C60.9854 17.6119 42.3475 17.6119 30.852 29.1074C19.3565 40.6029 19.3565 59.2408 30.852 70.7364C42.3475 82.2319 60.9855 82.2319 72.481 70.7364Z" fill="#0BFFD0"/>
<path d="M41.3812 28.5081C38.323 28.5081 35.9411 31.1575 36.2691 34.1955C36.2842 34.3217 36.2994 34.4832 36.3195 34.6598C36.6829 37.9097 36.8393 41.1849 36.8646 44.455C36.8747 45.7065 36.9705 46.9732 37.2582 47.705C37.9798 49.5419 40.599 55.6986 40.599 55.6986L44.9591 61.1084C45.277 61.502 45.6959 61.8048 46.1753 61.9815C47.7448 62.5618 51.348 63.9092 51.8072 64.217C52.3976 64.6107 52.66 61.6383 50.8887 60.3716C49.1174 59.105 47.8104 58.1259 47.8104 58.1259L44.8632 54.6489C44.8632 54.6489 50.3033 59.2261 51.7466 59.8518C53.1899 60.4776 56.6821 63.4803 56.6821 63.4803C56.6821 63.4803 61.5772 69.2938 62.6925 69.9953C63.8077 70.7018 65.7708 70.5706 63.1517 67.2954C60.5326 64.0202 59.6797 61.7897 59.1549 61.3961C58.63 61.0024 55.0269 57.1621 55.0269 57.1621L62.4956 64.212C62.4956 64.212 66.3613 69.6521 68.723 68.9961C71.0848 68.34 66.6388 64.9286 66.1796 63.5913C66.1796 63.5913 65.3166 60.5331 64.5294 59.2614C63.7421 57.9897 63.2173 56.3496 63.0861 55.7591C62.9549 55.1687 61.8396 53.7254 61.8396 53.7254C61.8396 53.7254 62.4956 52.1509 61.6428 50.7783C60.7899 49.4006 57.974 45.1413 57.974 45.1413L48.4059 37.5413C48.4059 37.5413 47.2553 35.5379 46.5841 32.5706C46.0492 30.2038 43.9801 28.498 41.5527 28.498H41.3862L41.3812 28.5081Z" stroke="#3D4867" stroke-linecap="round" stroke-linejoin="round"/>
<path d="M42.6327 52.6908L44.8632 54.6589" stroke="#3D4867" stroke-linecap="round" stroke-linejoin="round"/>
<path d="M57.9034 49.4309L61.8345 53.7406" stroke="#3D4867" stroke-linecap="round" stroke-linejoin="round"/>
<path d="M57.1817 53.4529L63.0154 59.0343L66.1746 63.6014" stroke="#3D4867" stroke-linecap="round" stroke-linejoin="round"/>
<defs>
<clipPath id="clip0_597_102">
<rect width="2" height="35" fill="white" transform="translate(49 85)"/>
</clipPath>
</defs>
</svg>
