<svg width="101" height="105" viewBox="0 0 101 105" fill="none" xmlns="http://www.w3.org/2000/svg">
<g clip-path="url(#clip0_594_98)">
<path d="M49 70V105H51V70H49Z" fill="white"/>
</g>
<g clip-path="url(#clip1_594_98)">
<path d="M84.5304 40.6661C87.6607 21.5927 74.7362 3.59304 55.6627 0.462805C36.5893 -2.66743 18.5897 10.2571 15.4594 29.3305C12.3292 48.404 25.2537 66.4036 44.3272 69.5338C63.4006 72.664 81.4002 59.7395 84.5304 40.6661Z" fill="#00D8DB"/>
<path d="M70.6306 55.6335C82.0276 44.2366 82.0276 25.7584 70.6306 14.3615C59.2337 2.9645 40.7555 2.9645 29.3586 14.3615C17.9616 25.7584 17.9616 44.2366 29.3586 55.6335C40.7555 67.0305 59.2337 67.0305 70.6306 55.6335Z" fill="#0BFFD0"/>
<path d="M49.9975 47.4605C40.9867 47.4605 33.677 40.1558 33.677 31.14C33.677 27.6377 34.7827 24.3957 36.6639 21.739C33.1767 25.1812 31.0153 29.9592 31.0153 35.2476C31.0153 45.7294 39.5158 54.2298 49.9975 54.2298C60.4792 54.2298 68.9797 45.7294 68.9797 35.2476C68.9797 29.9592 66.8183 25.1812 63.3311 21.739C65.2073 24.3957 66.318 27.6377 66.318 31.14C66.318 40.1508 59.0133 47.4605 49.9975 47.4605Z" stroke="#3D4867" stroke-linecap="round" stroke-linejoin="round"/>
</g>
<path d="M100.528 89V105H8.10937C3.63114 105 0 101.418 0 97C0 94.7911 0.906436 92.7898 2.374 91.342C3.84156 89.8942 5.87025 89 8.10937 89H100.528Z" fill="#00D8DB"/>
<defs>
<clipPath id="clip0_594_98">
<rect width="2" height="35" fill="white" transform="translate(49 70)"/>
</clipPath>
<clipPath id="clip1_594_98">
<rect width="70" height="70" fill="white" transform="translate(15)"/>
</clipPath>
</defs>
</svg>
