<?xml version="1.0" encoding="UTF-8" standalone="no"?>
<!DOCTYPE svg PUBLIC "-//W3C//DTD SVG 1.1//EN" "http://www.w3.org/Graphics/SVG/1.1/DTD/svg11.dtd">
<!-- Created with Vectornator (http://vectornator.io/) -->
<svg height="100%" stroke-miterlimit="10" style="fill-rule:nonzero;clip-rule:evenodd;stroke-linecap:round;stroke-linejoin:round;" version="1.1" viewBox="0 0 24 24" width="100%" xml:space="preserve" xmlns="http://www.w3.org/2000/svg" xmlns:vectornator="http://vectornator.io" xmlns:xlink="http://www.w3.org/1999/xlink">
<defs/>
<g id="riinstagram-line" vectornator:layerName="ri:instagram-line">
<path d="M12 8.72952C11.0654 8.72952 10.1691 9.10079 9.50819 9.76166C8.84732 10.4225 8.47604 11.3189 8.47604 12.2535C8.47604 13.188 8.84732 14.0844 9.50819 14.7453C10.1691 15.4061 11.0654 15.7774 12 15.7774C12.9346 15.7774 13.8309 15.4061 14.4918 14.7453C15.1526 14.0844 15.524 13.188 15.524 12.2535C15.524 11.3189 15.1526 10.4225 14.4918 9.76166C13.8309 9.10079 12.9346 8.72952 12 8.72952ZM12 6.38022C13.5577 6.38022 15.0516 6.999 16.153 8.10046C17.2545 9.20191 17.8733 10.6958 17.8733 12.2535C17.8733 13.8112 17.2545 15.3051 16.153 16.4065C15.0516 17.5079 13.5577 18.1267 12 18.1267C10.4423 18.1267 8.94843 17.5079 7.84698 16.4065C6.74552 15.3051 6.12674 13.8112 6.12674 12.2535C6.12674 10.6958 6.74552 9.20191 7.84698 8.10046C8.94843 6.999 10.4423 6.38022 12 6.38022ZM19.6352 6.08655C19.6352 6.47597 19.4805 6.84944 19.2052 7.12481C18.9299 7.40017 18.5563 7.55487 18.1669 7.55487C17.7775 7.55487 17.404 7.40017 17.1286 7.12481C16.8533 6.84944 16.6986 6.47597 16.6986 6.08655C16.6986 5.69713 16.8533 5.32366 17.1286 5.0483C17.404 4.77294 17.7775 4.61824 18.1669 4.61824C18.5563 4.61824 18.9299 4.77294 19.2052 5.0483C19.4805 5.32366 19.6352 5.69713 19.6352 6.08655ZM12 2.85626C9.09391 2.85626 8.61935 2.86448 7.26733 2.92439C6.3464 2.96785 5.72853 3.09119 5.1553 3.31438C4.6756 3.4905 4.2419 3.77279 3.88668 4.14016C3.51902 4.49537 3.23633 4.92903 3.05972 5.40878C2.83654 5.98436 2.7132 6.60105 2.67091 7.5208C2.60983 8.81762 2.60278 9.27104 2.60278 12.2535C2.60278 15.1596 2.61101 15.6341 2.67091 16.9862C2.71437 17.9059 2.83771 18.5249 3.05972 19.097C3.25941 19.608 3.49434 19.9756 3.88433 20.3656C4.28019 20.7603 4.64785 20.9964 5.15295 21.1914C5.73323 21.4158 6.3511 21.5403 7.26733 21.5826C8.56414 21.6436 9.01756 21.6507 12 21.6507C14.9061 21.6507 15.3806 21.6425 16.7327 21.5826C17.6513 21.5391 18.2703 21.4158 18.8435 21.1938C19.3225 21.0167 19.7559 20.7351 20.1121 20.3692C20.508 19.9733 20.7441 19.6056 20.9391 19.1005C21.1623 18.5214 21.2868 17.9024 21.3291 16.9862C21.3902 15.6893 21.3972 15.2359 21.3972 12.2535C21.3972 9.34739 21.389 8.87283 21.3291 7.5208C21.2856 6.60223 21.1623 5.98201 20.9391 5.40878C20.7621 4.92952 20.4799 4.49603 20.1133 4.14016C19.7582 3.77231 19.3245 3.4896 18.8447 3.3132C18.2691 3.09002 17.6513 2.96668 16.7327 2.92439C15.4359 2.86331 14.9824 2.85626 12 2.85626ZM12 0.506956C15.1915 0.506956 15.5897 0.518703 16.8419 0.577435C18.0929 0.636168 18.9445 0.832335 19.694 1.12365C20.4692 1.42201 21.1223 1.82609 21.7755 2.47802C22.3728 3.06523 22.835 3.77553 23.1298 4.55951C23.42 5.30776 23.6173 6.16056 23.676 7.41156C23.7313 8.66374 23.7465 9.06195 23.7465 12.2535C23.7465 15.445 23.7348 15.8432 23.676 17.0954C23.6173 18.3464 23.42 19.198 23.1298 19.9474C22.8358 20.7319 22.3735 21.4423 21.7755 22.0289C21.1881 22.626 20.4778 23.0882 19.694 23.3833C18.9457 23.6734 18.0929 23.8708 16.8419 23.9295C15.5897 23.9847 15.1915 24 12 24C8.80847 24 8.41026 23.9883 7.15808 23.9295C5.90708 23.8708 5.05546 23.6734 4.30603 23.3833C3.52175 23.0891 2.81132 22.6267 2.22454 22.0289C1.62713 21.4418 1.16493 20.7315 0.870171 19.9474C0.578857 19.1992 0.38269 18.3464 0.323957 17.0954C0.268749 15.8432 0.253478 15.445 0.253478 12.2535C0.253478 9.06195 0.265225 8.66374 0.323957 7.41156C0.38269 6.15938 0.578857 5.30893 0.870171 4.55951C1.16412 3.77505 1.62641 3.06455 2.22454 2.47802C2.81148 1.88039 3.52187 1.41817 4.30603 1.12365C5.05546 0.832335 5.9059 0.636168 7.15808 0.577435C8.41026 0.522227 8.80847 0.506956 12 0.506956Z" fill="#e6ecf9" fill-rule="nonzero" opacity="1" stroke="none" vectornator:layerName="path"/>
</g>
</svg>
