<svg width="30" height="19" viewBox="0 0 30 19" fill="none" xmlns="http://www.w3.org/2000/svg">
<g id="Layer_1" clip-path="url(#clip0_447_926)">
<path id="Vector" d="M11.0285 18.2811C11.8371 18.1156 12.5368 17.8018 13.1332 17.3511C13.6609 16.9574 14.1025 16.4724 14.4523 15.8961C15.0029 15.0231 15.2839 14.036 15.2839 12.9405C15.2839 11.845 15.043 10.9721 14.5613 10.2246C14.0795 9.47718 13.3626 8.93514 12.4106 8.58709C13.0357 8.26757 13.5118 7.91952 13.8329 7.53153C14.4064 6.84685 14.6932 5.93393 14.6932 4.8042C14.6932 3.67447 14.4064 2.76156 13.8387 1.97417C12.8866 0.69039 11.2751 0.0342342 9.00401 0H0V18.5321H8.3961C9.34238 18.5321 10.2198 18.4465 11.0285 18.2811ZM3.71631 3.21802H7.77098C8.66565 3.21802 9.39973 3.31502 9.97324 3.50901C10.6385 3.78288 10.9769 4.35345 10.9769 5.22072C10.9769 6.0024 10.7245 6.54444 10.2198 6.84685C9.71516 7.15496 9.06137 7.3033 8.24699 7.3033H3.71631V3.21802ZM3.71631 15.3141V10.373H8.30434C9.10724 10.3787 9.72663 10.4871 10.1682 10.6868C10.9597 11.0462 11.3554 11.7081 11.3554 12.6724C11.3554 13.8135 10.9482 14.5838 10.1281 14.9889C9.68075 15.2057 9.04989 15.3141 8.24125 15.3141H3.71631Z" fill="#E6ECF9"/>
<g id="Group">
<path id="Vector_2" d="M18.4381 17.3108C19.8375 18.4349 21.4548 18.9997 23.29 18.9997C25.5094 18.9997 27.2414 18.3322 28.4745 17.0027C29.2716 16.164 29.7132 15.3367 29.8107 14.5264H26.1346C25.9224 14.9258 25.6758 15.2397 25.3947 15.4679C24.8843 15.8901 24.2133 16.0955 23.3932 16.0955C22.619 16.0955 21.9595 15.9243 21.4089 15.582C20.5028 15.0285 20.021 14.0643 19.9694 12.6892H30C30.0172 11.5081 29.977 10.6009 29.8795 9.96759C29.7132 8.89491 29.3462 7.94777 28.7841 7.13185C28.159 6.20753 27.3676 5.53425 26.4041 5.10632C25.4464 4.6784 24.3624 4.46729 23.1638 4.46729C21.1451 4.46729 19.5049 5.10062 18.2374 6.36729C16.97 7.63395 16.3391 9.45407 16.3391 11.8276C16.3391 14.361 17.0388 16.1925 18.4439 17.3165L18.4381 17.3108ZM21.0132 8.19882C21.5236 7.6796 22.2405 7.41714 23.1638 7.41714C24.0126 7.41714 24.7295 7.66248 25.303 8.15317C25.8765 8.64386 26.1976 9.36849 26.2607 10.3213H20.0554C20.1873 9.43125 20.5085 8.72374 21.0132 8.19882Z" fill="#E6ECF9"/>
<path id="Vector_3" d="M26.9719 1.06689H18.874V2.93837H26.9719V1.06689Z" fill="#E6ECF9"/>
</g>
</g>
<defs>
<clipPath id="clip0_447_926">
<rect width="30" height="19" fill="white"/>
</clipPath>
</defs>
</svg>
