<svg width="360" height="191" viewBox="0 0 360 191" fill="none" xmlns="http://www.w3.org/2000/svg">
<g clip-path="url(#clip0_484_497)">
<mask id="mask0_484_497" style="mask-type:luminance" maskUnits="userSpaceOnUse" x="-129" y="31" width="707" height="305">
<path d="M577.944 31.1001H-128.943V335.881H577.944V31.1001Z" fill="white"/>
</mask>
<g mask="url(#mask0_484_497)">
<path d="M549.643 71.2851C529.274 78.2698 510.388 87.4754 492.046 96.6628C483.268 101.057 474.619 105.451 466.035 109.586C463.928 108.671 461.828 107.782 459.735 106.919C449.398 102.667 439.234 99.0923 428.836 96.5311C418.434 93.9699 411.087 93.3113 399.576 93.3003C393.411 93.2967 385.039 94.1126 379.087 94.7638C373.134 95.4151 366.522 97.5848 360.792 98.7886C344.079 102.177 316.886 111.229 312.496 110.131C299.478 106.878 273.31 99.5569 253.171 104.094C221.402 111.185 192.753 123.665 160.84 123.647C153.673 123.665 146.553 121.367 139.433 120.01C132.316 118.652 117.765 115.283 110.528 112.692C73.998 99.6155 55.2464 92.0197 23.0816 88.1779C15.0468 87.3401 9.75243 86.7327 1.67371 86.6156C-22.5624 86.257 -46.8974 89.1914 -70.7018 95.7334C-76.0473 96.7689 -81.3673 97.786 -86.6726 98.7776C-102.592 101.756 -118.406 104.522 -134.574 106.933C-134.574 130.478 -134.859 154.304 -134.761 177.827V183.385V184.376V201.39V279.535H576.817V200.413V161.988V63.7003C567.367 65.7054 558.348 68.3031 549.651 71.2851H549.643Z" fill="#00D8DB"/>
<path d="M70.6465 99.8862C74.7956 101.778 80.7119 102.393 84.1146 105.514C105.625 124.422 129.301 142.742 156.951 146.847C162.48 147.667 168.169 147.919 174.031 147.495C168.736 147.352 163.599 146.771 158.605 145.797C133.641 140.938 112.288 126.362 92.9068 108.634C87.2356 103.245 80.7595 101.412 73.204 99.5203L70.6428 99.8862H70.6465ZM272.552 102.868C239.271 112.886 206.935 127.353 171.78 128.231C164.873 128.535 157.968 128.389 151.06 127.671C144.16 126.951 137.248 125.652 130.348 123.665C117.867 120.262 108.223 111.185 95.7424 107.497C111.201 117.99 128.006 127.21 145.7 133.204C151.598 135.201 157.595 136.84 163.672 138.048C176.017 140.401 188.779 140.968 201.26 139.833C184.81 138.414 167.789 138.981 151.906 133.591C198.709 140.968 243.808 121.678 286.072 104.376C284.937 104.661 283.803 103.523 282.669 104.09C246.644 116.856 211.471 134.726 172.574 134.188C165.981 134.148 159.446 133.577 153.007 132.34C146.571 131.103 140.227 129.197 134.036 126.501C140.936 127.92 147.848 128.776 154.752 129.157C197.572 132.175 237.566 115.722 277.561 103.241C275.86 103.241 274.158 102.674 272.548 102.865L272.552 102.868Z" fill="#E7ECF8"/>
<path d="M313.871 111.752C313.871 111.752 290.045 101.825 266.16 102.473C242.275 103.121 190.484 127.639 152.703 122.377C114.922 117.119 71.0672 95.0164 21.3327 88.5402C-28.4019 82.0641 -65.583 95.1737 -65.583 95.1737C-65.583 95.1737 -117.271 106.644 -134.574 106.93" stroke="#E7ECF8" stroke-width="3" stroke-miterlimit="10"/>
<path d="M57.3795 95.9017C65.4838 98.8983 75.7835 105.188 76.7421 114.631C76.9799 117.079 76.5262 119.585 75.5566 121.81C74.6053 123.852 73.4491 125.926 72.6918 128.041C71.1441 132.08 70.3684 136.676 71.6709 140.862C76.5884 156.426 105.215 159.672 119.272 159.935C104.125 161.227 75.092 158.541 69.5708 141.498C67.8072 135.596 69.5086 129.354 72.2234 124.064C72.6881 123.175 73.3503 121.956 73.7931 121.042C75.1578 118.074 75.4835 114.679 74.4297 111.594C71.9271 104.39 63.9801 99.1361 57.3759 95.8981L57.3795 95.9017Z" fill="#E7ECF8"/>
<path d="M44.5773 92.6893C53.0731 96.1506 66.5705 104.013 67.5584 114.079C68.0999 120.793 66.3218 125.388 61.2799 129.786C59.7798 131.158 58.3601 132.461 57.4857 134.052C55.7221 137.338 55.9453 141.381 58.126 144.52C60.2847 147.784 63.3654 150.444 66.5047 152.808C71.3636 156.426 76.6177 159.459 82.0182 162.24C78.2057 160.835 74.5139 159.097 70.9246 157.158C64.6497 153.635 54.7635 147.382 54.2439 139.438C53.8085 128.436 64.196 128.842 65.4436 118.572C65.6376 117.149 65.7071 115.67 65.6119 114.233L65.5534 113.541C65.5095 113.354 65.3997 112.703 65.3595 112.513C63.2154 104.057 51.895 96.725 44.5809 92.6857L44.5773 92.6893Z" fill="#E7ECF8"/>
<path d="M37.351 91.4709C47.0616 95.3127 60.1566 104.101 59.1943 115.949C57.9942 124.466 46.0481 122.143 40.5708 129.914C39.8024 130.979 39.1475 132.168 38.6865 133.401C36.9559 137.195 38.4377 141.074 41.105 144.103C47.8921 151.739 60.4456 157.231 69.9184 160.989C59.7431 158.098 47.0177 153.217 39.6561 145.373C36.0741 141.385 34.6069 136.906 37.0327 131.799C38.4487 128.44 41.0611 125.619 44.2699 123.91C47.2335 122.249 50.8192 121.393 53.7353 120.003C57.0027 118.506 57.7674 115.956 57.2515 112.568C55.8282 103.025 45.3566 95.6859 37.351 91.4745V91.4709Z" fill="#E7ECF8"/>
<path d="M68.839 98.9788C76.8482 102.016 86.1526 109.278 83.8915 118.923C83.0792 122.476 82.1096 126.413 81.5828 129.969C81.2242 132.406 81.0376 134.879 81.5315 137.141C82.3731 141.345 86.0612 144.012 89.5078 146.156C93.7228 148.637 98.5488 150.14 103.342 151.125C111.285 152.815 119.492 153.426 127.615 153.682C135.177 153.942 142.733 153.741 150.307 153.492C145.294 154.139 140.252 154.586 135.196 154.882C121.124 155.541 100.653 155.31 88.3553 148.007C84.4659 145.589 80.357 142.358 79.5009 137.565C78.985 134.923 79.2557 132.263 79.6875 129.669C80.2912 125.996 81.4108 122.136 82.3584 118.55C84.733 109.516 76.036 102.59 68.8427 98.9788H68.839Z" fill="#E7ECF8"/>
<path d="M-136.191 162.548C-128.237 163.685 -120.078 163.656 -112.058 163.338C-104.074 162.946 -95.9331 162.065 -88.0374 160.821C-76.6511 159.053 -65.477 156.24 -54.3138 153.386C-43.191 150.634 -31.7169 147.861 -20.3708 146.193C-11.2091 144.795 -1.82416 144.352 7.41075 145.292C12.0209 145.783 16.5908 146.536 21.1424 147.407C32.4848 149.723 43.2637 154.077 54.4195 157.052C70.5001 161.56 87.3417 163.052 103.946 161.395C110.144 160.806 116.569 159.803 122.664 158.534C181.052 145.15 239.337 129.859 294.542 106.267C261.909 122.476 225.796 134.056 190.422 144.107C181.747 146.456 172.293 148.984 163.585 151.092C148.96 154.586 134.402 158.256 119.62 161.055C116.499 161.625 112.46 162.189 109.284 162.551C93.1556 164.428 76.6945 163.448 60.9323 159.529C47.4311 156.415 34.6032 150.821 20.9924 148.19C15.409 147.184 9.54387 146.401 3.87633 146.149C-2.99863 145.863 -9.90652 146.291 -16.7046 147.33C-29.2142 149.218 -41.5372 152.317 -53.8455 155.277C-63.9073 157.776 -74.0899 160.327 -84.3639 161.882C-93.4561 163.352 -102.812 164.201 -112.021 164.425C-115.208 164.454 -119.222 164.446 -122.438 164.267C-127.059 164.04 -131.684 163.656 -136.232 162.767L-136.188 162.551L-136.191 162.548Z" fill="#E7ECF8"/>
<path d="M-136.78 169.298C-131.113 170.52 -125.138 170.806 -119.342 170.893C-114.538 170.985 -109.544 170.692 -104.733 170.388C-103.214 170.242 -100.408 169.975 -98.9114 169.832C-76.7096 167.545 -54.6505 161.834 -33.3853 155.124C-29.6935 153.986 -25.7347 152.939 -21.9075 152.27C-19.9793 151.886 -17.9743 151.655 -16.0497 151.392C-14.0813 151.234 -12.1164 150.997 -10.137 150.964C-9.36866 150.934 -8.582 150.905 -7.91609 150.879C-5.24149 150.879 -2.40225 150.967 0.228455 151.169C1.34807 151.282 2.81526 151.432 3.91292 151.542C10.9891 152.434 17.9812 154.099 24.8049 156.086C39.7878 160.462 54.5 165.797 70.0318 167.783C85.4977 170.023 101.183 168.563 116.514 165.958C139.627 162.061 162.396 156.32 185.003 150.177C236.802 135.926 287.809 118.784 338.631 101.423C341.975 100.439 344.141 99.8021 347.105 98.9349C350.866 97.9763 354.744 96.9116 358.546 96.1286L364.312 94.9066L370.126 93.9187C371.096 93.7613 372.061 93.5711 373.035 93.4467L375.962 93.0845L378.889 92.7222L380.352 92.5393C380.839 92.4771 381.333 92.4551 381.823 92.4112L387.707 91.9429C405.386 90.8635 423.274 92.6454 440.284 97.658C447.697 99.8204 455.329 102.744 462.362 105.923C474.853 111.536 487.059 117.778 499.298 123.903C522.875 135.607 546.383 147.85 571.607 155.629C576.027 156.986 581.215 158.241 585.826 159.057L585.793 159.273C580.542 158.479 575.164 157.224 570.041 155.76C532.019 144.326 497.68 123.771 461.527 107.815C427.379 92.36 392.408 90.6184 356.175 98.9459C353.325 99.6594 350.482 100.34 347.686 101.064C345.484 101.697 341.316 102.901 339.275 103.49C295.8 118.228 252.041 132.362 207.824 144.696C181.465 152.047 155.005 159.119 128.2 164.655C116.726 166.927 105.051 169.111 93.3752 169.935C83.5878 170.645 73.6906 170.055 64.002 168.478C43.4503 165.255 24.2926 156.21 3.67509 153.477L2.9543 153.4L1.51271 153.25L0.0711365 153.097C-2.63641 152.903 -4.56094 152.808 -7.16605 152.797C-11.0115 152.797 -14.9081 153.086 -18.7133 153.642L-20.1513 153.836L-21.5782 154.099L-24.4284 154.633C-30.4253 155.903 -38.3101 158.508 -44.1093 160.173C-48.5731 161.508 -53.8272 162.774 -58.2983 163.971L-61.1632 164.615L-66.8966 165.906C-71.1884 166.883 -74.3569 167.374 -78.4256 168.171C-82.0149 168.8 -83.7785 168.994 -87.1336 169.525C-91.1254 170.107 -93.6829 170.315 -97.3418 170.751L-98.8053 170.864L-101.736 171.087L-104.667 171.31C-110.481 171.596 -116.467 171.72 -122.288 171.424C-127.172 171.127 -132.068 170.696 -136.839 169.514L-136.78 169.302V169.298Z" fill="#E7ECF8"/>
<path d="M-137.146 169.298C-116.935 173.959 -95.6514 176.491 -75.1436 172.47C-67.4344 170.688 -59.8094 168.519 -52.2539 166.181C-43.9739 163.671 -35.7489 160.63 -27.2384 158.837C-24.8236 158.358 -22.1051 157.934 -19.6683 157.637C-16.8217 157.341 -13.8141 157.143 -10.9456 157.048C-8.03683 157.001 -4.09995 157.026 -1.1436 157.136C6.15579 157.334 13.3418 158.976 20.3009 161.091C35.4229 165.87 50.1862 171.98 65.8973 174.603C81.5022 177.399 97.5755 177.172 113.217 174.772C120.337 173.681 127.369 172.13 134.329 170.246C156.589 164.161 178.363 156.393 200.144 148.776C243.541 133.419 287.169 116.984 331.423 104.196C348.111 99.4984 364.982 95.0492 382.259 93.1722C388.014 92.6124 393.854 92.327 399.594 93.1979L399.561 93.4137C396.704 93.0515 393.813 93.0369 390.941 93.1357C370.763 94.3211 351.224 100.234 331.906 105.839C277.133 122.56 222.463 144.209 167.946 161.732C145.927 168.672 123.572 175.573 100.389 176.971C77.1738 178.877 54.0939 173.985 32.2616 166.367C21.4058 162.826 10.3086 159.115 -1.20213 158.965C-10.5139 158.724 -19.8659 159.094 -28.9361 161.249C-36.6599 163.016 -44.091 165.705 -51.7124 167.97C-58.6386 170.074 -65.6343 171.936 -72.6775 173.615L-74.818 174.08L-76.973 174.468C-85.5823 175.921 -94.3598 176.049 -103.05 175.463C-114.601 174.622 -126.067 172.657 -137.208 169.521L-137.15 169.309L-137.146 169.298Z" fill="#E7ECF8"/>
<path d="M347.192 100.347C367.272 93.6662 389.357 93.0332 409.857 98.3129C430.208 103.556 448.356 116.483 466.229 127.101C493.751 144.136 522.59 160.66 554.777 166.649C556.072 166.872 558.454 167.264 559.636 167.469C561.487 167.765 563.649 167.984 565.501 168.237C567.246 168.427 569.73 168.596 571.399 168.753L575.343 168.925C577.685 169.078 580.919 169.013 583.246 169.035C581.768 169.082 578.702 169.221 577.315 169.265C575.361 169.265 573.309 169.239 571.377 169.21C569.829 169.126 566.898 168.987 565.442 168.877C564.451 168.789 562.486 168.592 561.494 168.5C560.283 168.409 556.869 167.93 555.593 167.75C511.8 161.329 475.332 134.393 438.049 112.604C424.54 104.529 409.726 98.6934 394.033 96.8604C378.424 94.9285 362.318 95.92 347.192 100.34V100.347Z" fill="#E7ECF8"/>
</g>
<mask id="mask1_484_497" style="mask-type:luminance" maskUnits="userSpaceOnUse" x="-130" y="20" width="241" height="145">
<path d="M110.528 20.1236H-129.492V164.282H110.528V20.1236Z" fill="white"/>
</mask>
<g mask="url(#mask1_484_497)">
<path d="M-223.744 111.082C-223.744 111.082 -234.073 93.7321 -211.351 91.2514C-211.351 91.2514 -210.524 71.4205 -191.934 61.0916C-173.343 50.7627 -155.166 65.6359 -155.166 65.6359C-155.166 65.6359 -148.145 54.4801 -136.575 61.505C-136.575 61.505 -132.031 35.0663 -106.419 30.9318C-80.8038 26.8009 -71.7152 42.501 -71.7152 42.501C-71.7152 42.501 -47.7535 35.8932 -38.6649 55.7204C-38.6649 55.7204 -26.2688 40.0203 -11.3993 44.1548C3.47391 48.2856 5.53749 66.0493 5.53749 66.0493C5.53749 66.0493 21.2376 57.3742 34.8704 64.3955C48.5032 71.4205 46.4397 87.5303 46.4397 87.5303C46.4397 87.5303 58.0052 82.1592 65.0266 86.7034C72.0552 91.2477 72.8784 93.3113 72.8784 93.3113C72.8784 93.3113 96.4267 92.4844 96.4267 101.573C96.4267 110.662 86.5112 115.206 78.2532 111.075C69.9879 106.944 67.5109 105.704 67.5109 105.704C67.5109 105.704 62.5532 118.51 51.3974 117.273C40.2416 116.033 36.1107 105.704 36.1107 105.704C36.1107 105.704 35.2838 117.441 17.1067 117.357C-1.07037 117.273 -2.72417 103.227 -2.72417 103.227C-2.72417 103.227 -12.6396 128.015 -38.2515 129.252C-63.867 130.492 -70.4749 117.269 -70.4749 117.269C-70.4749 117.269 -79.9769 121.4 -85.3481 116.856C-90.7192 112.312 -91.1327 108.181 -91.1327 108.181C-91.1327 108.181 -90.3058 118.096 -106.419 120.16C-122.533 122.227 -127.487 111.485 -127.487 111.485C-127.487 111.485 -133.685 130.489 -155.579 131.316C-177.474 132.143 -185.326 114.792 -185.326 114.792C-185.326 114.792 -190.284 129.252 -202.263 128.425C-214.245 127.598 -214.655 114.379 -214.655 114.379C-214.655 114.379 -221.932 115.579 -223.744 111.075V111.082Z" fill="#00D8DB" stroke="#E7ECF8" stroke-width="3" stroke-linecap="round" stroke-linejoin="round"/>
<path d="M-43.9227 114.624C-45.6167 114.624 -47.1973 114.339 -48.6609 113.764C-54.6796 111.404 -56.4066 105.082 -56.4761 104.811L-55.4517 104.54C-55.437 104.599 -53.7832 110.621 -48.2657 112.78C-43.5129 114.639 -37.3368 113.19 -29.913 108.47C-21.5489 103.154 -15.424 98.1227 -10.4992 94.0797C-2.4095 87.4316 2.93607 83.041 11.1392 82.536C17.8897 82.1153 21.6547 86.5095 22.3901 91.0428C23.1914 95.9969 20.6997 102.221 13.3272 104.178C8.25238 105.525 5.46068 103.962 4.01544 102.411C2.08723 100.347 1.45791 96.9848 2.45677 94.0431C3.28733 91.5953 5.03258 89.9781 7.24618 89.6086C11.3697 88.9207 13.8321 91.1855 14.4395 93.7394C15.0139 96.1506 13.9382 98.441 11.9332 99.0667L11.6148 98.0532C13.2833 97.53 13.7845 95.5652 13.404 93.9845C12.9467 92.0636 11.1026 90.0403 7.41449 90.655C5.59971 90.9587 4.15446 92.3161 3.45197 94.3834C2.5775 96.9665 3.11169 99.9009 4.78012 101.686C6.03145 103.026 8.48288 104.365 13.0454 103.15C19.7777 101.361 22.0608 95.7078 21.3327 91.2111C20.7253 87.4462 17.7031 83.1946 11.1941 83.5934C3.33489 84.0764 -1.90456 88.3829 -9.83692 94.8956C-14.78 98.9569 -20.9342 104.013 -29.3532 109.363C-34.8597 112.864 -39.7443 114.62 -43.9373 114.62L-43.9227 114.624Z" fill="#E7ECF8"/>
<path d="M59.026 107.138C52.6962 107.138 49.5094 100.559 46.1542 93.637C42.7223 86.5571 38.8329 78.5333 31.003 75.8916C14.7944 70.4253 2.12013 86.0668 1.99572 86.2278L1.16516 85.5692C1.29688 85.4046 14.4248 69.1776 31.3433 74.8891C39.594 77.6698 43.5857 85.9095 47.1092 93.176C50.8558 100.896 54.0866 107.566 61.3421 105.777C65.8205 104.672 68.6232 102.495 69.2379 99.6411C69.6952 97.497 68.7915 95.1042 66.973 93.6809C65.3668 92.4222 63.4496 92.1844 61.7006 93.0333C58.9785 94.3578 57.6101 95.9823 57.8552 97.6068C58.0711 99.0813 59.6627 100.417 61.5506 100.717C63.0361 100.947 63.9472 99.9411 64.2692 99.4948C64.9021 98.6276 65.0777 97.5702 64.7155 96.8567C64.3204 96.0811 63.391 95.9164 62.6812 95.9128V94.8517C64.6058 94.8554 65.3705 95.8103 65.6595 96.3774C66.2083 97.4531 65.9961 98.9203 65.1253 100.12C64.2143 101.375 62.8166 101.994 61.386 101.763C59.0187 101.39 57.0905 99.707 56.8015 97.7641C56.6185 96.5348 56.9515 94.1602 61.236 92.0783C63.3288 91.0611 65.7181 91.3502 67.628 92.8467C69.7867 94.5407 70.8294 97.2958 70.2733 99.8643C69.8635 101.76 68.1951 105.177 61.5982 106.805C60.6872 107.028 59.8346 107.134 59.0297 107.134L59.026 107.138Z" fill="#E7ECF8"/>
</g>
<mask id="mask2_484_497" style="mask-type:luminance" maskUnits="userSpaceOnUse" x="191" y="0" width="387" height="187">
<path d="M577.761 0H191.022V186.235H577.761V0Z" fill="white"/>
</mask>
<g mask="url(#mask2_484_497)">
<path d="M645.198 139.065C645.198 139.065 659.222 115.502 628.367 112.136C628.367 112.136 627.244 85.207 601.998 71.1827C576.752 57.1584 552.069 77.3551 552.069 77.3551C552.069 77.3551 542.531 62.2076 526.823 71.7425C526.823 71.7425 520.654 35.8383 485.87 30.2293C451.085 24.6203 438.744 45.9367 438.744 45.9367C438.744 45.9367 406.206 36.9616 393.865 63.8906C393.865 63.8906 377.034 42.5706 356.837 48.1832C336.64 53.7922 333.838 77.9149 333.838 77.9149C333.838 77.9149 312.518 66.1335 294.004 75.6721C275.49 85.2107 278.297 107.091 278.297 107.091C278.297 107.091 262.589 99.7985 253.054 105.967C243.512 112.14 242.392 114.942 242.392 114.942C242.392 114.942 210.414 113.819 210.414 126.164C210.414 138.505 223.875 144.678 235.093 139.069C246.318 133.46 249.681 131.777 249.681 131.777C249.681 131.777 256.417 149.167 271.561 147.484C286.708 145.801 292.321 131.777 292.321 131.777C292.321 131.777 293.444 147.718 318.127 147.601C342.813 147.484 345.056 128.411 345.056 128.411C345.056 128.411 358.52 162.072 393.301 163.755C428.086 165.438 437.061 147.484 437.061 147.484C437.061 147.484 449.966 153.097 457.258 146.924C464.55 140.752 465.113 135.143 465.113 135.143C465.113 135.143 463.99 148.607 485.87 151.414C507.75 154.22 514.482 139.632 514.482 139.632C514.482 139.632 522.897 165.438 552.633 166.561C582.368 167.685 593.026 144.122 593.026 144.122C593.026 144.122 599.758 163.755 616.026 162.635C632.296 161.512 632.856 143.562 632.856 143.562C632.856 143.562 642.735 145.19 645.198 139.072V139.065Z" fill="#00D8DB" stroke="#E7ECF8" stroke-width="3" stroke-linecap="round" stroke-linejoin="round"/>
<path d="M375.772 105.59C376.068 105.59 376.364 105.59 376.668 105.583C396.096 105.265 413.845 90.6623 428.108 78.9248C438.652 70.2497 447.745 62.771 454.484 63.3418C472.68 64.926 477.648 79.9456 477.696 80.0956L479.068 79.6638C479.017 79.5029 473.788 63.5759 454.605 61.9075C447.295 61.2709 437.976 68.9361 427.189 77.8125C413.099 89.4037 395.566 103.83 376.642 104.141C358.714 104.423 352.139 95.9384 351.989 87.8853C351.865 81.2664 356.047 75.7965 361.312 75.6867C367.206 75.5367 371.74 77.9479 373.759 82.2287C375.325 85.5363 374.952 89.2866 372.815 91.7783C370.152 94.8883 365.223 95.0676 361.941 93.6552C360.503 93.0369 357.203 91.1599 357.624 87.1096C357.946 84.0142 359.57 81.8957 361.974 81.4384C364.221 81.0103 367.312 82.1702 369.16 85.7229L370.437 85.0606C368.542 81.4128 365.029 79.3931 361.703 80.0261C358.641 80.6078 356.581 83.2019 356.19 86.9632C355.831 90.4318 357.77 93.4284 361.37 94.9797C365.22 96.6299 370.763 96.3884 373.909 92.7186C376.416 89.7952 376.866 85.4375 375.062 81.6177C372.819 76.8722 367.682 74.1317 361.279 74.2524C355.224 74.3805 350.409 80.509 350.548 87.9182C350.701 96.1323 357.419 105.594 375.772 105.594V105.59Z" fill="#E7ECF8"/>
<path d="M401.007 143.876C403.308 143.876 405.452 143.489 407.439 142.709C415.613 139.504 417.954 130.917 418.053 130.555L416.659 130.189C416.637 130.269 414.391 138.447 406.897 141.377C400.44 143.902 392.057 141.934 381.973 135.527C370.613 128.308 362.296 121.473 355.611 115.985C344.624 106.959 337.365 100.999 326.227 100.311C317.058 99.7363 311.947 105.707 310.948 111.865C309.858 118.594 313.246 127.046 323.256 129.702C330.15 131.532 333.936 129.406 335.905 127.306C338.525 124.503 339.377 119.933 338.02 115.941C336.893 112.615 334.522 110.42 331.514 109.922C325.916 108.986 322.572 112.067 321.745 115.531C320.966 118.802 322.426 121.916 325.148 122.765L325.58 121.389C323.311 120.679 322.634 118.012 323.147 115.864C323.769 113.256 326.275 110.508 331.276 111.342C333.743 111.756 335.704 113.6 336.655 116.406C337.844 119.911 337.12 123.899 334.851 126.325C333.153 128.143 329.824 129.962 323.626 128.315C314.482 125.886 311.38 118.206 312.371 112.099C313.198 106.984 317.3 101.214 326.139 101.752C336.812 102.407 343.929 108.254 354.697 117.101C361.411 122.619 369.767 129.483 381.198 136.745C388.676 141.498 395.31 143.884 400.999 143.884L401.007 143.876Z" fill="#E7ECF8"/>
<path d="M406.506 163.184C411.489 163.184 416.41 162.339 420.907 160.744L420.424 159.386C403.978 165.219 381.644 160.678 372.643 140.767C363.302 120.101 348.682 110.369 348.535 110.27L347.745 111.477C347.888 111.573 362.172 121.097 371.33 141.359C378.216 156.595 392.595 163.181 406.502 163.181L406.506 163.184Z" fill="#E7ECF8"/>
<path d="M261.21 133.712C269.804 133.712 274.136 124.777 278.692 115.381C283.353 105.77 288.636 94.8737 299.269 91.2843C321.281 83.8606 338.492 105.104 338.66 105.32L339.791 104.423C339.615 104.2 321.785 82.1665 298.808 89.9196C287.605 93.6992 282.182 104.884 277.4 114.752C272.314 125.238 267.924 134.294 258.074 131.865C251.993 130.364 248.184 127.404 247.354 123.533C246.732 120.625 247.961 117.372 250.431 115.44C252.611 113.731 255.217 113.409 257.591 114.558C261.29 116.355 263.149 118.561 262.812 120.771C262.516 122.772 260.357 124.587 257.792 124.993C255.776 125.304 254.54 123.939 254.101 123.336C253.244 122.161 253.003 120.72 253.493 119.754C254.031 118.696 255.293 118.473 256.256 118.473V117.032C253.643 117.039 252.604 118.334 252.213 119.102C251.466 120.562 251.755 122.556 252.941 124.185C254.177 125.89 256.076 126.728 258.019 126.417C261.232 125.912 263.851 123.625 264.243 120.987C264.492 119.318 264.042 116.095 258.22 113.267C255.381 111.887 252.132 112.275 249.542 114.309C246.611 116.607 245.195 120.35 245.949 123.837C246.505 126.409 248.77 131.052 257.73 133.262C258.967 133.566 260.127 133.712 261.217 133.712H261.21Z" fill="#E7ECF8"/>
</g>
</g>
<defs>
<clipPath id="clip0_484_497">
<rect width="876.292" height="296" fill="white" transform="translate(-227)"/>
</clipPath>
</defs>
</svg>
