<svg width="360" height="128" viewBox="0 0 360 128" fill="none" xmlns="http://www.w3.org/2000/svg">
<path d="M549.643 8.28509C529.274 15.2698 510.388 24.4754 492.046 33.6628C483.268 38.0571 474.619 42.4513 466.035 46.5858C463.928 45.6711 461.828 44.782 459.735 43.9185C449.398 39.6669 439.234 36.0923 428.836 33.5311C418.434 30.9699 411.087 30.3113 399.576 30.3003C393.411 30.2967 385.039 31.1126 379.087 31.7638C373.134 32.4151 366.522 34.5848 360.792 35.7886C344.079 39.1767 316.886 48.2286 312.496 47.131C299.478 43.8783 273.31 36.5569 253.171 41.0939C221.402 48.1847 192.753 60.665 160.84 60.6467C153.673 60.665 146.553 58.3673 139.433 57.0098C132.316 55.6524 117.765 52.2826 110.528 49.6922C73.998 36.6155 55.2464 29.0197 23.0816 25.1779C15.0468 24.3401 9.75243 23.7327 1.67371 23.6156C-22.5624 23.257 -46.8974 26.1914 -70.7018 32.7334C-76.0473 33.7689 -81.3673 34.786 -86.6726 35.7776C-102.592 38.7559 -118.406 41.522 -134.574 43.9331C-134.574 67.4778 -134.859 91.3041 -134.761 114.827V120.385V121.376V138.39V216.535H576.817V137.413V98.9877V0.700317C567.367 2.70536 558.348 5.30313 549.651 8.28509H549.643Z" fill="#00D8DB"/>
<path d="M70.6465 36.8862C74.7956 38.7778 80.7119 39.3925 84.1146 42.5135C105.625 61.4224 129.301 79.7422 156.951 83.8474C162.48 84.667 168.169 84.9194 174.031 84.495C168.736 84.3523 163.599 83.7706 158.605 82.7973C133.641 77.9384 112.288 63.3616 92.9068 45.6345C87.2356 40.245 80.7595 38.4119 73.204 36.5203L70.6428 36.8862H70.6465ZM272.552 39.8682C239.271 49.8861 206.935 64.3531 171.78 65.2312C164.873 65.5349 157.968 65.3886 151.06 64.6714C144.16 63.9506 137.248 62.6517 130.348 60.665C117.867 57.2623 108.223 48.1847 95.7424 44.4966C111.201 54.9901 128.006 64.2104 145.7 70.2036C151.598 72.2013 157.595 73.8405 163.672 75.0479C176.017 77.4005 188.779 77.9676 201.26 76.8334C184.81 75.4138 167.789 75.9809 151.906 70.5914C198.709 77.9676 243.808 58.6782 286.072 41.3756C284.937 41.661 283.803 40.5231 282.669 41.0902C246.644 53.8559 211.471 71.7257 172.574 71.1878C165.981 71.1476 159.446 70.5768 153.007 69.3401C146.571 68.1034 140.227 66.1972 134.036 63.5006C140.936 64.9202 147.848 65.7764 154.752 66.1569C197.572 69.1755 237.566 52.7217 277.561 40.2414C275.86 40.2414 274.158 39.6742 272.548 39.8645L272.552 39.8682Z" fill="#E7ECF8"/>
<path d="M313.871 48.7519C313.871 48.7519 290.045 38.8254 266.16 39.4731C242.275 40.1207 190.484 64.6386 152.703 59.3771C114.922 54.1194 71.0672 32.0164 21.3327 25.5402C-28.4019 19.0641 -65.583 32.1737 -65.583 32.1737C-65.583 32.1737 -117.271 43.6441 -134.574 43.9295" stroke="#E7ECF8" stroke-width="3" stroke-miterlimit="10"/>
<path d="M57.3795 32.9017C65.4838 35.8983 75.7835 42.1879 76.7421 51.6313C76.9799 54.0791 76.5262 56.5854 75.5566 58.81C74.6053 60.8516 73.4491 62.9262 72.6918 65.041C71.1441 69.0803 70.3684 73.6758 71.6709 77.8615C76.5884 93.4262 105.215 96.6716 119.272 96.9351C104.125 98.2266 75.092 95.541 69.5708 78.4982C67.8072 72.5965 69.5086 66.3545 72.2234 61.0638C72.6881 60.1747 73.3503 58.9563 73.7931 58.0416C75.1578 55.0743 75.4835 51.6789 74.4297 48.5945C71.9271 41.3902 63.9801 36.1361 57.3759 32.8981L57.3795 32.9017Z" fill="#E7ECF8"/>
<path d="M44.5773 29.6893C53.0731 33.1506 66.5705 41.0134 67.5584 51.0789C68.0999 57.7929 66.3218 62.3884 61.2799 66.7863C59.7798 68.1583 58.3601 69.4609 57.4857 71.0525C55.7221 74.3381 55.9453 78.3811 58.126 81.5204C60.2847 84.7841 63.3654 87.4441 66.5047 89.8077C71.3636 93.4263 76.6177 96.4595 82.0182 99.2402C78.2057 97.8352 74.5139 96.0972 70.9246 94.1581C64.6497 90.6346 54.7635 84.3816 54.2439 76.4383C53.8085 65.4362 64.196 65.8423 65.4436 55.5719C65.6376 54.1487 65.7071 52.6705 65.6119 51.2326L65.5534 50.541C65.5095 50.3544 65.3997 49.7032 65.3595 49.5129C63.2154 41.0573 51.895 33.725 44.5809 29.6857L44.5773 29.6893Z" fill="#E7ECF8"/>
<path d="M37.351 28.4709C47.0616 32.3127 60.1566 41.1012 59.1943 52.9485C57.9942 61.4663 46.0481 59.1429 40.5708 66.9143C39.8024 67.979 39.1475 69.1681 38.6865 70.4012C36.9559 74.1954 38.4377 78.0738 41.105 81.1033C47.8921 88.7393 60.4456 94.2312 69.9184 97.9888C59.7431 95.0983 47.0177 90.2174 39.6561 82.3729C36.0741 78.3848 34.6069 73.9063 37.0327 68.7986C38.4487 65.4398 41.0611 62.6188 44.2699 60.9101C47.2335 59.249 50.8192 58.3929 53.7353 57.0025C57.0027 55.506 57.7674 52.9558 57.2515 49.5677C55.8282 40.0255 45.3566 32.6859 37.351 28.4745V28.4709Z" fill="#E7ECF8"/>
<path d="M68.839 35.9788C76.8482 39.0157 86.1526 46.2785 83.8915 55.9232C83.0792 59.4759 82.1096 63.4128 81.5828 66.9692C81.2242 69.406 81.0376 71.8793 81.5315 74.1405C82.3731 78.3445 86.0612 81.0118 89.5078 83.1559C93.7228 85.6366 98.5488 87.1404 103.342 88.1246C111.285 89.815 119.492 90.426 127.615 90.6821C135.177 90.9419 142.733 90.7407 150.307 90.4919C145.294 91.1395 140.252 91.5858 135.196 91.8822C121.124 92.5408 100.653 92.3103 88.3553 85.0073C84.4659 82.5888 80.357 79.358 79.5009 74.5649C78.985 71.9233 79.2557 69.2633 79.6875 66.6692C80.2912 62.9957 81.4108 59.1356 82.3584 55.55C84.733 46.5163 76.036 39.5901 68.8427 35.9788H68.839Z" fill="#E7ECF8"/>
<path d="M-136.191 99.5475C-128.237 100.685 -120.078 100.656 -112.058 100.338C-104.074 99.9463 -95.9331 99.0646 -88.0374 97.8205C-76.6511 96.0533 -65.477 93.2397 -54.3138 90.3858C-43.191 87.6343 -31.7169 84.8609 -20.3708 83.1925C-11.2091 81.7948 -1.82416 81.3521 7.41075 82.2924C12.0209 82.7827 16.5908 83.5364 21.1424 84.4072C32.4848 86.7233 43.2637 91.0773 54.4195 94.0519C70.5001 98.5596 87.3417 100.052 103.946 98.395C110.144 97.8059 116.569 96.8034 122.664 95.5338C181.052 82.1497 239.337 66.8595 294.542 43.2673C261.909 59.4759 225.796 71.0561 190.422 81.107C181.747 83.4559 172.293 85.9842 163.585 88.0917C148.96 91.5859 134.402 95.2557 119.62 98.0547C116.499 98.6255 112.46 99.1889 109.284 99.5512C93.1556 101.428 76.6945 100.448 60.9323 96.529C47.4311 93.4153 34.6032 87.8209 20.9924 85.1902C15.409 84.1841 9.54387 83.4011 3.87633 83.1486C-2.99863 82.8632 -9.90652 83.2913 -16.7046 84.3304C-29.2142 86.2184 -41.5372 89.3174 -53.8455 92.2774C-63.9073 94.7764 -74.0899 97.3266 -84.3639 98.8816C-93.4561 100.352 -102.812 101.201 -112.021 101.425C-115.208 101.454 -119.222 101.446 -122.438 101.267C-127.059 101.04 -131.684 100.656 -136.232 99.767L-136.188 99.5512L-136.191 99.5475Z" fill="#E7ECF8"/>
<path d="M-136.78 106.298C-131.113 107.52 -125.138 107.806 -119.342 107.893C-114.538 107.985 -109.544 107.692 -104.733 107.388C-103.214 107.242 -100.408 106.975 -98.9114 106.832C-76.7096 104.545 -54.6505 98.834 -33.3853 92.1237C-29.6935 90.9858 -25.7347 89.9394 -21.9075 89.2698C-19.9793 88.8857 -17.9743 88.6551 -16.0497 88.3917C-14.0813 88.2344 -12.1164 87.9966 -10.137 87.9636C-9.36866 87.9344 -8.582 87.9051 -7.91609 87.8795C-5.24149 87.8795 -2.40225 87.9673 0.228455 88.1685C1.34807 88.2819 2.81526 88.432 3.91292 88.5417C10.9891 89.4345 17.9812 91.0993 24.8049 93.086C39.7878 97.462 54.5 102.797 70.0318 104.783C85.4977 107.023 101.183 105.563 116.514 102.958C139.627 99.0609 162.396 93.3202 185.003 87.177C236.802 72.9258 287.809 55.7841 338.631 38.423C341.975 37.4387 344.141 36.8021 347.105 35.9349C350.866 34.9763 354.744 33.9116 358.546 33.1286L364.312 31.9066L370.126 30.9187C371.096 30.7613 372.061 30.5711 373.035 30.4467L375.962 30.0845L378.889 29.7222L380.352 29.5393C380.839 29.4771 381.333 29.4551 381.823 29.4112L387.707 28.9429C405.386 27.8635 423.274 29.6454 440.284 34.658C447.697 36.8204 455.329 39.7438 462.362 42.9233C474.853 48.536 487.059 54.778 499.298 60.9029C522.875 72.6075 546.383 84.85 571.607 92.6286C576.027 93.9861 581.215 95.2411 585.826 96.057L585.793 96.2728C580.542 95.4789 575.164 94.2239 570.041 92.7604C532.019 81.3265 497.68 60.7711 461.527 44.8149C427.379 29.36 392.408 27.6184 356.175 35.9459C353.325 36.6594 350.482 37.3399 347.686 38.0644C345.484 38.6974 341.316 39.9011 339.275 40.4902C295.8 55.228 252.041 69.3621 207.824 81.696C181.465 89.0466 155.005 96.1192 128.2 101.655C116.726 103.927 105.051 106.111 93.3752 106.935C83.5878 107.645 73.6906 107.055 64.002 105.478C43.4503 102.255 24.2926 93.2104 3.67509 90.4772L2.9543 90.4004L1.51271 90.2504L0.0711365 90.0967C-2.63641 89.9028 -4.56094 89.8077 -7.16605 89.7967C-11.0115 89.7967 -14.9081 90.0858 -18.7133 90.6419L-20.1513 90.8358L-21.5782 91.0993L-24.4284 91.6334C-30.4253 92.9031 -38.3101 95.5081 -44.1093 97.1729C-48.5731 98.5084 -53.8272 99.7744 -58.2983 100.971L-61.1632 101.615L-66.8966 102.906C-71.1884 103.883 -74.3569 104.374 -78.4256 105.171C-82.0149 105.8 -83.7785 105.994 -87.1336 106.525C-91.1254 107.107 -93.6829 107.315 -97.3418 107.751L-98.8053 107.864L-101.736 108.087L-104.667 108.31C-110.481 108.596 -116.467 108.72 -122.288 108.424C-127.172 108.127 -132.068 107.696 -136.839 106.514L-136.78 106.302V106.298Z" fill="#E7ECF8"/>
<path d="M-137.146 106.298C-116.935 110.959 -95.6514 113.491 -75.1436 109.47C-67.4344 107.688 -59.8094 105.519 -52.2539 103.181C-43.9739 100.671 -35.7489 97.6302 -27.2384 95.8374C-24.8236 95.3581 -22.1051 94.9337 -19.6683 94.6373C-16.8217 94.3409 -13.8141 94.1434 -10.9456 94.0482C-8.03683 94.0007 -4.09995 94.0263 -1.1436 94.1361C6.15579 94.3336 13.3418 95.9764 20.3009 98.0913C35.4229 102.87 50.1862 108.98 65.8973 111.603C81.5022 114.399 97.5755 114.172 113.217 111.772C120.337 110.681 127.369 109.13 134.329 107.246C156.589 101.161 178.363 93.3933 200.144 85.7756C243.541 70.4195 287.169 53.984 331.423 41.1963C348.111 36.4984 364.982 32.0492 382.259 30.1722C388.014 29.6124 393.854 29.327 399.594 30.1979L399.561 30.4137C396.704 30.0515 393.813 30.0369 390.941 30.1357C370.763 31.3211 351.224 37.2338 331.906 42.8391C277.133 59.56 222.463 81.2094 167.946 98.7316C145.927 105.672 123.572 112.573 100.389 113.971C77.1738 115.877 54.0939 110.985 32.2616 103.367C21.4058 99.8255 10.3086 96.1155 -1.20213 95.9655C-10.5139 95.724 -19.8659 96.0935 -28.9361 98.2486C-36.6599 100.016 -44.091 102.705 -51.7124 104.97C-58.6386 107.074 -65.6343 108.936 -72.6775 110.615L-74.818 111.08L-76.973 111.468C-85.5823 112.921 -94.3598 113.049 -103.05 112.463C-114.601 111.622 -126.067 109.657 -137.208 106.521L-137.15 106.309L-137.146 106.298Z" fill="#E7ECF8"/>
<path d="M347.192 37.3472C367.272 30.6662 389.357 30.0332 409.857 35.3129C430.208 40.556 448.356 53.4827 466.229 64.1006C493.751 81.1362 522.59 97.6595 554.777 103.649C556.072 103.872 558.454 104.264 559.636 104.469C561.487 104.765 563.649 104.984 565.501 105.237C567.246 105.427 569.73 105.596 571.399 105.753L575.343 105.925C577.685 106.078 580.919 106.013 583.246 106.035C581.768 106.082 578.702 106.221 577.315 106.265C575.361 106.265 573.309 106.239 571.377 106.21C569.829 106.126 566.898 105.987 565.442 105.877C564.451 105.789 562.486 105.592 561.494 105.5C560.283 105.409 556.869 104.93 555.593 104.75C511.8 98.3291 475.332 71.3927 438.049 49.6043C424.54 41.5293 409.726 35.6934 394.033 33.8604C378.424 31.9285 362.318 32.92 347.192 37.3399V37.3472Z" fill="#E7ECF8"/>
</svg>
