<svg width="1056" height="144" viewBox="0 0 1056 144" fill="none" xmlns="http://www.w3.org/2000/svg">
<path d="M305.142 108.95V143.98H307.353V108.95H305.142Z" fill="#E6ECF9"/>
<path d="M751.508 107.95V142.98H753.719V107.95H751.508Z" fill="#E6ECF9"/>
<path d="M977.626 108.91V142.97H979.837V108.91H977.626Z" fill="#E6ECF9"/>
<path d="M169.64 27.3811C168.226 72.7472 131.444 109.088 86.2323 109.088C41.0207 109.088 4.23832 72.7472 2.83524 27.3811H0.449997C1.86387 74.0786 39.7147 111.5 86.2431 111.5C132.771 111.5 170.622 74.0786 172.036 27.3811H169.651H169.64Z" fill="#E6ECF9"/>
<path d="M390.637 27.3811C389.223 72.7472 352.44 109.088 307.229 109.088C262.017 109.088 225.235 72.7472 223.821 27.3811H221.436C222.849 74.0786 260.7 111.5 307.229 111.5C353.757 111.5 391.608 74.0786 393.022 27.3811H390.637Z" fill="#E6ECF9"/>
<path d="M611.633 27.3811C610.219 72.7472 573.437 109.088 528.225 109.088C483.013 109.088 446.231 72.7472 444.817 27.3811H442.432C443.846 74.0786 481.697 111.5 528.225 111.5C574.753 111.5 612.604 74.0786 614.018 27.3811H611.633Z" fill="#E6ECF9"/>
<path d="M832.618 27.3811C831.204 72.7472 794.422 109.088 749.211 109.088C703.999 109.088 667.216 72.7472 665.803 27.3811H663.417C664.831 74.0786 702.682 111.5 749.211 111.5C795.739 111.5 833.59 74.0786 835.004 27.3811H832.618Z" fill="#E6ECF9"/>
<path d="M1053.61 27.3811C1052.2 72.7472 1015.42 109.088 970.207 109.088C924.995 109.088 888.213 72.7472 886.799 27.3811H884.414C885.828 74.0786 923.678 111.5 970.207 111.5C1016.74 111.5 1054.59 74.0786 1056 27.3811H1053.61Z" fill="#E6ECF9"/>
<path d="M172.036 27.3812C172.036 13.5869 183.099 2.4009 196.741 2.4009C210.384 2.4009 221.446 13.5869 221.446 27.3812H223.821C223.821 12.2555 211.7 0 196.741 0C181.782 0 169.662 12.2555 169.662 27.3812H172.036Z" fill="#E6ECF9"/>
<path d="M393.022 27.3812C393.022 13.5869 404.084 2.4009 417.727 2.4009C431.369 2.4009 442.432 13.5869 442.432 27.3812H444.806C444.806 12.2555 432.686 0 417.727 0C402.768 0 390.647 12.2555 390.647 27.3812H393.022Z" fill="#E6ECF9"/>
<path d="M614.018 27.3812C614.018 13.5869 625.081 2.4009 638.723 2.4009C652.365 2.4009 663.428 13.5869 663.428 27.3812H665.803C665.803 12.2555 653.682 0 638.723 0C623.764 0 611.644 12.2555 611.644 27.3812H614.018Z" fill="#E6ECF9"/>
<path d="M835.014 27.3812C835.014 13.5869 846.077 2.4009 859.72 2.4009C873.362 2.4009 884.425 13.5869 884.425 27.3812H886.799C886.799 12.2555 874.679 0 859.72 0C844.761 0 832.64 12.2555 832.64 27.3812H835.014Z" fill="#E6ECF9"/>
<path d="M79.0821 108.94V143.97H81.2934V108.94H79.0821Z" fill="#E6ECF9"/>
<path d="M527.039 108.94V143.97H529.25V108.94H527.039Z" fill="#E6ECF9"/>
</svg>
