<svg width="18" height="19" viewBox="0 0 18 19" fill="none" xmlns="http://www.w3.org/2000/svg">
<g id="LINKEDIN" clip-path="url(#clip0_447_931)">
<g id="Group">
<path id="Vector" d="M4.07099 6.3335H0.355469V19.0002H4.07099V6.3335Z" fill="#E6ECF9"/>
<path id="Vector_2" d="M2.19932 4.6753C3.41561 4.6753 4.39864 3.62658 4.39864 2.33765C4.39864 1.04872 3.41006 0 2.19932 0C0.988584 0 0 1.04872 0 2.33765C0 3.62658 0.98303 4.6753 2.19932 4.6753Z" fill="#E6ECF9"/>
</g>
<path id="Vector_3" d="M10.0136 12.3504C10.0136 10.5693 10.7912 9.50891 12.2796 9.50891C13.6458 9.50891 14.3012 10.5283 14.3012 12.3504V19.0001H18V10.9795C18 7.58723 16.1784 5.94678 13.6292 5.94678C11.08 5.94678 10.0081 8.03836 10.0081 8.03836V6.33346H6.4425V19.0001H10.0081V12.3504H10.0136Z" fill="#E6ECF9"/>
</g>
<defs>
<clipPath id="clip0_447_931">
<rect width="18" height="19" fill="white"/>
</clipPath>
</defs>
</svg>
