<svg id="Layer_1" data-name="Layer 1" xmlns="http://www.w3.org/2000/svg" viewBox="0 0 1002.34 860.09"><defs><style>.cls-1{fill:#fff;}</style></defs><g id="Group_2" data-name="Group 2"><g id="Group_1" data-name="Group 1"><path id="Path_1" data-name="Path 1" class="cls-1" d="M26.06,352.28a131.27,131.27,0,0,0,41.05,17.6c5.65,1.7,11.36,2.67,16.71,4.23a26.14,26.14,0,0,1,7.94,3.64,14.76,14.76,0,0,1,5.79,8.91,20.76,20.76,0,0,1-4.15,16.25A30.11,30.11,0,0,1,76.77,413a58.25,58.25,0,0,1-37.12-3.79,93.9,93.9,0,0,1-12.33-6.16l-24,43.51a156.65,156.65,0,0,0,72.38,15.66A73.53,73.53,0,0,0,149,388.59a65.3,65.3,0,0,0-26.5-49.89,139,139,0,0,0-40.69-16.93h0c-5-1.56-11.58-2.82-17.52-5a28.49,28.49,0,0,1-8.68-4.67,14.59,14.59,0,0,1-5.27-10.69,22.36,22.36,0,0,1,7-16.34,29.64,29.64,0,0,1,16.19-7.27,58.86,58.86,0,0,1,33,7.42c3.19,1.56,5.5,3,8,4.38l20.78-44.47A141.11,141.11,0,0,0,77,231.86a83,83,0,0,0-51,16A69.21,69.21,0,0,0,0,301.43,66.86,66.86,0,0,0,26.06,352.28Z"/><path id="Path_2" data-name="Path 2" class="cls-1" d="M264.08,462.23A89.49,89.49,0,0,0,352.87,374h.07V237.5H305.21V374.11a41.07,41.07,0,0,1-82.11,0V237.5H175.36V374.11h.07A89.2,89.2,0,0,0,264.08,462.23Z"/><path id="Path_3" data-name="Path 3" class="cls-1" d="M518.73,366.54l-98.08-129H379.3V456.67h46.62v-129l98.08,129h41.28V237.5H518.73Z"/><path id="Path_4" data-name="Path 4" class="cls-1" d="M731.21,237.5v129l-98.08-129H591.85V456.67h46.63v-129l98,129h41.35V237.5Z"/><path id="Path_5" data-name="Path 5" class="cls-1" d="M880.06,456.67h46.62V388.73l75.66-151.23H950.22l-46.85,93.7-46.92-93.7H804.33l75.73,151.23Z"/><path id="Path_6" data-name="Path 6" class="cls-1" d="M111.29,594.83l-73-105.94H0V708.12H46.62V582.21l64.67,93.91L176,582.21V708.12h46.55V488.89H184.27Z"/><path id="Path_7" data-name="Path 7" class="cls-1" d="M364.6,713.69A115.15,115.15,0,1,0,248.93,598.54,115.15,115.15,0,0,0,364.6,713.69Z"/><path id="Path_8" data-name="Path 8" class="cls-1" d="M738,598.47A115.67,115.67,0,1,0,621.85,713.61h.52A115.48,115.48,0,0,0,738,598.47Zm-183.83,0a68.18,68.18,0,1,1,68.16,69.93C587.84,668.48,554.21,636.18,554.21,598.47Z"/><path id="Path_9" data-name="Path 9" class="cls-1" d="M903.82,488.89V618l-98.08-129.1H764.47V708.12H811V579l98.08,129.1h41.28V488.89Z"/><path id="Path_10" data-name="Path 10" class="cls-1" d="M33.48,748.66H0V857.35H10.77V828H33.48a39.72,39.72,0,1,0,3.76-79.36C36,748.6,34.74,748.6,33.48,748.66Zm0,68.6H10.77V759.5H33.48a29,29,0,1,1,0,57.76Z"/><path id="Path_11" data-name="Path 11" class="cls-1" d="M209.73,788.3a40,40,0,0,0-40.4-39.67l-1.17,0H134.67V857.35h10.77V828h13.88l34.82,29.33h15.59l-35.34-29.77A39.61,39.61,0,0,0,209.73,788.3Zm-41.65,29H145.37V759.5h22.71a29,29,0,1,1,0,57.76Z"/><path id="Path_12" data-name="Path 12" class="cls-1" d="M326.29,746.06a57,57,0,1,0,57,57h0A57.12,57.12,0,0,0,326.29,746.06Zm0,103.27a46.26,46.26,0,1,1,46.25-46.25h0a46.16,46.16,0,0,1-46.07,46.25Z"/><path id="Path_13" data-name="Path 13" class="cls-1" d="M482.27,831.73a16.44,16.44,0,0,1-11.95,16.63,28.84,28.84,0,0,1-27.39-7.94l-7.06,8.17a39.84,39.84,0,0,0,37.79,10.09,27.87,27.87,0,0,0,19.45-26.87V748.66H482.35v83.07Z"/><path id="Path_14" data-name="Path 14" class="cls-1" d="M559.63,748.66V857.35h72.24V846.58H570.4V808.42H630V797.66H570.4V759.42h61.47V748.66Z"/><path id="Path_15" data-name="Path 15" class="cls-1" d="M751.47,756.68A50.68,50.68,0,0,1,785,769l7-8.09a61.38,61.38,0,0,0-40.54-15c-36.08,0-60.06,25.91-60.06,57.09s24,57.09,60.06,57.09a61.42,61.42,0,0,0,40.54-15l-7-8.1a50.74,50.74,0,0,1-33.49,12.33c-31.1,0-49.29-20.42-49.29-46.33S720.37,756.68,751.47,756.68Z"/><path id="Path_16" data-name="Path 16" class="cls-1" d="M891.05,748.66h-39.5v10.76h39.5v97.93h10.76V759.42h39.57V748.66Z"/><path id="Path_17" data-name="Path 17" class="cls-1" d="M476,35.27A253.17,253.17,0,0,1,712,196.67h59.76c-49-149.78-210.19-231.46-360-182.43A285.34,285.34,0,0,0,229.33,196.67h10.84A253,253,0,0,1,476,35.27Z"/></g></g></svg>