<svg xmlns="http://www.w3.org/2000/svg" width="118.832" height="101.968" viewBox="0 0 118.832 101.968">
  <g id="Group_1" data-name="Group 1" transform="translate(-34.85 -35)">
    <g id="Group_1_1_" transform="translate(34.85 35)">
      <path id="Path_1_1_" d="M57.239,102.2a15.519,15.519,0,0,0,4.867,2.086c.669.2,1.347.317,1.98.5a3.149,3.149,0,0,1,.942.431,1.751,1.751,0,0,1,.687,1.056,2.447,2.447,0,0,1-.493,1.928,3.552,3.552,0,0,1-1.972,1.2,6.946,6.946,0,0,1-4.4-.449,11.311,11.311,0,0,1-1.461-.731l-2.852,5.158a18.55,18.55,0,0,0,8.582,1.857,8.711,8.711,0,0,0,8.7-8.731,7.727,7.727,0,0,0-3.142-5.915,16.236,16.236,0,0,0-4.823-2.007h0c-.6-.185-1.373-.334-2.077-.59a3.338,3.338,0,0,1-1.03-.555,1.733,1.733,0,0,1-.625-1.267,2.676,2.676,0,0,1,.827-1.936,3.548,3.548,0,0,1,1.919-.863,6.955,6.955,0,0,1,3.908.88c.378.185.651.352.942.519L70.178,89.5a16.724,16.724,0,0,0-6.9-1.576,9.809,9.809,0,0,0-6.047,1.9,8.2,8.2,0,0,0-3.081,6.346A7.926,7.926,0,0,0,57.239,102.2Z" transform="translate(-54.15 -60.432)" fill="#fff"/>
      <path id="Path_2_1_" d="M88.288,115.323a10.61,10.61,0,0,0,10.527-10.456h.009V88.68H93.164v16.2a4.869,4.869,0,0,1-9.735,0V88.68H77.77v16.2h.009A10.576,10.576,0,0,0,88.288,115.323Z" transform="translate(-56.98 -60.524)" fill="#fff"/>
      <path id="Path_3_1_" d="M121.77,103.977l-11.627-15.3h-4.9v25.983h5.527v-15.3l11.627,15.3h4.894V88.68H121.77Z" transform="translate(-60.272 -60.524)" fill="#fff"/>
      <path id="Path_4_1_" d="M150.391,88.68v15.3l-11.627-15.3H133.87v25.983H139.4v-15.3l11.618,15.3h4.9V88.68Z" transform="translate(-63.703 -60.524)" fill="#fff"/>
      <path id="Path_5_1_" d="M171.468,114.663H177v-8.054l8.969-17.929h-6.179l-5.554,11.108L168.669,88.68H162.49l8.978,17.929Z" transform="translate(-67.132 -60.524)" fill="#fff"/>
      <path id="Path_6_1_" d="M67.344,135.1l-8.652-12.56H54.15v25.991h5.527V133.6l7.666,11.134L75.019,133.6v14.928h5.519V122.54H76Z" transform="translate(-54.15 -64.581)" fill="#fff"/>
      <path id="Path_7_1_" d="M101.393,149.1A13.652,13.652,0,1,0,87.68,135.451,13.647,13.647,0,0,0,101.393,149.1Z" transform="translate(-58.168 -64.492)" fill="#fff"/>
      <path id="Path_8_1_" d="M149.826,135.425a13.713,13.713,0,1,0-13.775,13.651h.062A13.688,13.688,0,0,0,149.826,135.425Zm-21.793,0a8.083,8.083,0,1,1,8.08,8.3A8.523,8.523,0,0,1,128.033,135.425Z" transform="translate(-62.328 -64.474)" fill="#fff"/>
      <path id="Path_9_1_" d="M173.641,122.54v15.306L162.014,122.54H157.12v25.991h5.519V133.225l11.627,15.306h4.894V122.54Z" transform="translate(-66.489 -64.581)" fill="#fff"/>
      <path id="Path_10_1_" d="M58.12,157.529H54.15v12.886h1.276v-3.477H58.12a4.71,4.71,0,0,0,.449-9.409A3.824,3.824,0,0,0,58.12,157.529Zm0,8.133H55.426v-6.848H58.12a3.433,3.433,0,0,1,.493,6.848A4.594,4.594,0,0,1,58.12,165.662Z" transform="translate(-54.15 -68.773)" fill="#fff"/>
      <path id="Path_11_1_" d="M81.189,162.23a4.741,4.741,0,0,0-4.788-4.7H72.29v12.886h1.276v-3.477h1.646l4.128,3.477h1.848L77,166.886A4.7,4.7,0,0,0,81.189,162.23Zm-4.938,3.433H73.557v-6.848h2.693a3.433,3.433,0,0,1,.493,6.848A4.61,4.61,0,0,1,76.251,165.663Z" transform="translate(-56.324 -68.774)" fill="#fff"/>
      <path id="Path_12_1_" d="M97.18,157.18a6.76,6.76,0,1,0,6.76,6.76h0A6.773,6.773,0,0,0,97.18,157.18Zm0,12.243a5.483,5.483,0,1,1,5.483-5.483h0a5.475,5.475,0,0,1-5.466,5.483Z" transform="translate(-58.496 -68.732)" fill="#fff"/>
      <path id="Path_13_1_" d="M118.361,167.379a1.953,1.953,0,0,1-1.417,1.972,3.427,3.427,0,0,1-3.248-.942l-.836.968a4.722,4.722,0,0,0,4.48,1.2,3.309,3.309,0,0,0,2.306-3.186V157.53H118.37v9.849Z" transform="translate(-61.185 -68.774)" fill="#fff"/>
      <path id="Path_14_1_" d="M129.53,157.53v12.886h8.564v-1.276h-7.288v-4.524h7.068v-1.276h-7.068v-4.533h7.288V157.53Z" transform="translate(-63.183 -68.774)" fill="#fff"/>
      <path id="Path_15_1_" d="M154.4,158.436a6.028,6.028,0,0,1,3.97,1.461l.836-.959a7.3,7.3,0,0,0-4.806-1.778,6.777,6.777,0,1,0,0,13.537,7.3,7.3,0,0,0,4.806-1.778l-.836-.959a6.027,6.027,0,0,1-3.97,1.461c-3.688,0-5.844-2.42-5.844-5.492S150.713,158.436,154.4,158.436Z" transform="translate(-65.31 -68.729)" fill="#fff"/>
      <path id="Path_16_1_" d="M173.532,157.53H168.85v1.276h4.682v11.609h1.276V158.806H179.5V157.53Z" transform="translate(-67.894 -68.774)" fill="#fff"/>
      <path id="Path_17_1_" d="M114.288,60.871A30.013,30.013,0,0,1,142.26,80.006h7.085a33.832,33.832,0,0,0-64.305,0h1.285A29.993,29.993,0,0,1,114.288,60.871Z" transform="translate(-57.852 -56.69)" fill="#fff"/>
    </g>
  </g>
</svg>
