<svg id="Layer_1" data-name="Layer 1" xmlns="http://www.w3.org/2000/svg" viewBox="0 0 1061.03 434.29"><defs><style>.cls-1{fill:#b09bff;}.cls-2{fill:#e6ecf9;}.cls-3,.cls-4,.cls-5{fill:none;}.cls-3,.cls-4{stroke:#e6ecf9;stroke-miterlimit:10;}.cls-3{stroke-width:5px;}.cls-4{stroke-width:4px;}</style></defs><rect class="cls-1" x="84.88" y="285.5" width="893.72" height="135.96"/><rect class="cls-1" x="0.93" y="380.6" width="101.04" height="40.86"/><rect class="cls-1" x="249.92" y="289.96" width="45.61" height="46.43"/><rect class="cls-1" x="633.02" y="297.4" width="193.35" height="69.13"/><path class="cls-1" d="M962.87,159.81c-7.08-7.08-12-14.38-16.18-20.16a61.27,61.27,0,0,0-5.89-7.33c-1.94-1.94-4-3.4-6.54-3.68a12.69,12.69,0,0,0-4.65.28,3.43,3.43,0,0,0-.82.24,4,4,0,0,1-.42-.62c-.59-1-1.5-2.94-2.91-5.95-2.78-6-5.38-12.57-7.75-17.6a35.62,35.62,0,0,0-3.45-6.19,7,7,0,0,0-2-2,3.68,3.68,0,0,0-3.28-.19,5.9,5.9,0,0,1-4.22.06,16.64,16.64,0,0,1-5.61-3c-1.59-1.27-4.09-4.5-6.71-7.33a24.09,24.09,0,0,0-4.19-3.75A7.27,7.27,0,0,0,883,81.19c-2.81.46-4.3,1.21-5.39.93s-3-1.69-6.14-7.15c-3.26-5.71-5.73-9.26-8.08-11.6a13.34,13.34,0,0,0-7-3.89,21.24,21.24,0,0,0-4.68-1,7.58,7.58,0,0,0-1.39.1c-2.63.41-5.35,2.17-9.5,6.32-4.42,4.41-7.09,10.51-9.23,16.23S827.75,92.27,826,95a15.88,15.88,0,0,1-6.75,5.95,11.49,11.49,0,0,1-6.36,1.16,5.68,5.68,0,0,0-4.15.75,8.32,8.32,0,0,0-2.66,3.12c-1.37,2.5-2.32,5.78-3.51,9.69s-2.16,5.29-3.45,6.11-3.52,1.24-7.21,2.06c-8.13,1.8-11.78,8.14-15.64,12.77a67.78,67.78,0,0,1-6.4,5.95c-2.29,2-42.49,20.71-66.51,32.27-.06-.07-.12-.13-.17-.2-6.21-7.77-15.35-18.64-24.55-28.41s-18.1-18.38-25.36-22a46.32,46.32,0,0,0-20.87-5,34.3,34.3,0,0,0-18.84,5.37c-9,6-22.21,12.85-31.86,32.16-1.77,3.54-6.34,7.66-12.56,11.32a119,119,0,0,1-21.77,9.61,153.32,153.32,0,0,1-22.21,5.73c-6.49,1.12-12,1.12-13.21.76a24.46,24.46,0,0,0-6.66-1.29,8.11,8.11,0,0,0-5.31,2.2c-2.39,2.38-3.22,4.72-8.27,9a38.13,38.13,0,0,1-6.19,4.3c-3.51-.78-9.42-2.45-14.9-4.31-3.34-1.14-6.56-2.36-9-3.48a30.3,30.3,0,0,1-3.07-1.57,8.67,8.67,0,0,1-1.22-.9c-2.29-3.15-2.62-5.75-2.23-7.12a2.62,2.62,0,0,0,0-1.7,10.68,10.68,0,0,0-.43-1.37c-.37-1-.9-2.14-1.55-3.47-1.31-2.67-3.12-6-5-9.4-3.85-6.82-8.12-13.86-9.81-16.39a94.82,94.82,0,0,1-5.62-10.63,73.61,73.61,0,0,1-4-10c-1-4.27-2.26-8.31-4.51-11.3a11,11,0,0,0-3.53-2.77,42.11,42.11,0,0,0-5-2.45,39.78,39.78,0,0,0-5.38-1.83,10.8,10.8,0,0,0-4.68-.45,1.48,1.48,0,0,1-1.09-.3,7.69,7.69,0,0,1-1.74-1.63,23.42,23.42,0,0,1-2.86-4.83,7,7,0,0,0-4.51-3.79,11.17,11.17,0,0,0-3.23-.42,13.91,13.91,0,0,0-1.76.12,6.32,6.32,0,0,0-4.25,2.46,13.93,13.93,0,0,0-2,4.43,10.66,10.66,0,0,1-1.62,2.08,37.27,37.27,0,0,1-3.78,3.23,44.21,44.21,0,0,1-4.15,2.81,15.93,15.93,0,0,1-2.61,1.28,6.48,6.48,0,0,0-3.54,2.49,27.89,27.89,0,0,0-2.83,4,34.21,34.21,0,0,0-3.82,8.76,29.08,29.08,0,0,1-1.73,4.28c-.91,2-2.08,4.24-3.27,6.54-2.38,4.61-4.81,9.08-5.75,11.53a17.74,17.74,0,0,1-2.27,3.38c-1.19,1.47-2.69,3.14-4.22,4.8s-3.07,3.32-4.38,4.81a23.81,23.81,0,0,0-3.05,4c-1.24,2.28-1.29,4.93-1.19,7.43a10.41,10.41,0,0,0-4.38,3.44c-1.59,2-3.54,4.15-5.21,4.95a3.19,3.19,0,0,1-2.29.32,6.07,6.07,0,0,1-3-2.13c-2.91-3.32-5.08-5.24-7.52-6s-4.76.28-6.57,1.64c-1,.74-2.94,1.19-6.09,1.19-1.91,0-20.51-.29-23.2-.49l-23.7,7.9-8.88,5.92-26.66,31.6-12.84,5.92-13.82,16.79,1,16.79c-1.5.67-8.74,9.31-9.87,9.87-.12.06.11,8.83,0,8.89l-12.84,8.89c.3-.14-22.12,21.76-19.75,20.73l49.37,6.91c-4.2,3.26,47.82,3.31,44.44,6.92-2.21,2.35,34.79-16.76,31.45-14.66V385c.42-.21.93-.42,1.34-.62,1.59-.8,3.46-1.66,5.52-2.56s4.34-1.84,6.73-2.8,4.9-1.93,7.45-2.9,5.14-1.93,7.69-2.85c5.09-1.85,10-3.57,14.14-5,2.47-.84,4.65-1.55,6.4-2.1l.27-.09.07,0,1.25-.39h0l1.28-.38a33,33,0,0,1,3.42-.73c1.34-.22,2.84-.42,4.47-.58s3.38-.27,5.19-.34,3.55-.1,5.37-.07v10.49c.72-.33,1.42-.67,2.08-1,3.75-1.87,9.56-4.25,15.75-6.61l.09,0a14.21,14.21,0,0,1,1.74.92,16.06,16.06,0,0,0,1.62.89,15.43,15.43,0,0,0,1.69.7,17.46,17.46,0,0,0,1.74.53c.58.14,1.18.25,1.78.34a18.18,18.18,0,0,0,1.81.18c.61,0,1.22,0,1.83,0s1.23-.07,1.85-.14,1.22-.16,1.84-.27,1.22-.26,1.82-.42l.49-.14h.06l1.26-.39a29.44,29.44,0,0,0,3.49-1.44,31.88,31.88,0,0,0,3.28-1.86,29.75,29.75,0,0,0,3-2.23c.92-.79,1.69-1.52,2.32-2.18s1.15-1.25,1.58-1.78c.86-1.06,1.39-1.85,1.92-2.38a2.58,2.58,0,0,1,.83-.6,2.75,2.75,0,0,1,1.09-.2,8.17,8.17,0,0,1,1.58.2l.1,0h0l1.32.33h0c.28.07.58.15.9.25a8.24,8.24,0,0,0,1.72.26,22.55,22.55,0,0,0,2.33,0c.87,0,1.82-.13,2.85-.25l.87-.11h.08c.72-.1,1.47-.21,2.25-.35a20.64,20.64,0,0,1,6.86,2.17c8.26,5.16,19,2.1,25.91-3.79a31.9,31.9,0,0,0,5.08-5.52l.06-.07h.1a14.34,14.34,0,0,1,2.75.59c2.41.69,5.53.36,9.59-.34a92.85,92.85,0,0,0,13.63-3.52,73.1,73.1,0,0,0,13.54-6c4-2.36,7.29-5,9-8.36,5.17-10.33,11.66-13.5,17.24-17.22a14.72,14.72,0,0,1,6.19-2.19h5.19c13.59,20.32,9.17,47.55,10.31,76.44a130.11,130.11,0,0,0,4.8,32.09h150.6V404.78h0v-.31h0v-82.8c-.83-.32-1.72-.63-2.5-.94-1.49-.62-2.86-1.23-4-1.84-.59-.3-1.14-.6-1.64-.89a15.16,15.16,0,0,1-1.35-.87,10,10,0,0,0-1.28-.76,13.69,13.69,0,0,0-1.47-.6,16.22,16.22,0,0,0-1.63-.46c-.57-.13-1.16-.23-1.76-.32s-1.23-.14-1.87-.19-1.29-.06-1.94-.07c-1.32,0-2.67,0-4,.15s-2.7.28-4,.49l-1.87.34a49.05,49.05,0,0,0-8.21.08,68.39,68.39,0,0,0-8.4,1.24c-.25-.1-.51-.21-.76-.33a37.42,37.42,0,0,1-3.56-1.82c-.63-.36-1.26-.73-1.87-1.12v-1.58H920V263.45c.46.57.92,1.15,1.37,1.74,1.07,1.43,2.11,2.92,3.13,4.44s2,3.07,3,4.61,1.89,3.05,2.79,4.52,1.78,2.87,2.62,4.18,1.67,2.52,2.46,3.6c.39.53.78,1,1.16,1.49s.75.88,1.12,1.25a10.64,10.64,0,0,0,1.08,1,6.43,6.43,0,0,0,1,.67c.68.34,1.41.76,2.19,1.23s1.6,1,2.46,1.53,1.76,1.08,2.67,1.61,1.87,1,2.83,1.49c.47.22,1,.44,1.44.63s1,.37,1.46.52,1,.28,1.47.38a14.71,14.71,0,0,0,1.46.22,10,10,0,0,0,1.45,0,7.68,7.68,0,0,0,1.43-.19,7.9,7.9,0,0,0,1.41-.43,9.33,9.33,0,0,0,1.37-.7,22,22,0,0,1,2.49-1.36,10,10,0,0,1,1.11-.45,7.48,7.48,0,0,1,1.07-.3,9.61,9.61,0,0,1,1-.17,9,9,0,0,1,1,0,10.68,10.68,0,0,1,2.17.28c.19,0,.43.13.64.18V166.82A79.24,79.24,0,0,1,962.87,159.81Z"/><path class="cls-2" d="M392.11,98.33a13.91,13.91,0,0,0-1.76.12,6.32,6.32,0,0,0-4.25,2.46,13.93,13.93,0,0,0-2,4.43,10.66,10.66,0,0,1-1.62,2.08,37.27,37.27,0,0,1-3.78,3.23,44.21,44.21,0,0,1-4.15,2.81,15.93,15.93,0,0,1-2.61,1.28,6.48,6.48,0,0,0-3.54,2.49,27.89,27.89,0,0,0-2.83,4,34.21,34.21,0,0,0-3.82,8.76,29.08,29.08,0,0,1-1.73,4.28c-.91,2-2.08,4.24-3.27,6.54-2.38,4.61-4.81,9.08-5.75,11.53a17.74,17.74,0,0,1-2.27,3.38c-1.19,1.47-2.69,3.14-4.22,4.8s-3.07,3.32-4.38,4.81a23.81,23.81,0,0,0-3.05,4c-1.36,2.5-1.29,5.45-1.16,8.15s.37,5.37.29,6c0-.2-.35.9-1.06,2a34.61,34.61,0,0,1-2.76,3.63,29.27,29.27,0,0,1-3.16,3.21c-1,.82-1.95,1.17-1.7,1.14a11.19,11.19,0,0,0-5.19,1.84,6.19,6.19,0,0,0-2.72,5.55c-.05-.54,0,0-.34.6a23,23,0,0,1-1.6,2.5c-1.41,2-3.43,4.44-5.59,6.9s-4.47,4.91-6.48,6.91a45.78,45.78,0,0,1-4.54,4.11c-1.34.92-4.11,2.54-7.17,4.19v4.74a106,106,0,0,0,9.55-5.5,43.15,43.15,0,0,0,5.11-4.58c2.09-2.08,4.44-4.58,6.66-7.11s4.31-5.06,5.86-7.23a26.62,26.62,0,0,0,1.9-3,4.61,4.61,0,0,0,.81-3c-.09-.8.16-1.15.95-1.71a7.73,7.73,0,0,1,3.25-1.11,7,7,0,0,0,3.93-2.09,33.39,33.39,0,0,0,3.64-3.68,36.46,36.46,0,0,0,3.1-4.09,8.55,8.55,0,0,0,1.7-3.74,44.19,44.19,0,0,0-.27-6.7c-.11-2.48.12-5,.67-6a25.49,25.49,0,0,1,2.5-3.21c1.25-1.41,2.79-3.06,4.33-4.74s3.09-3.4,4.39-5a17.79,17.79,0,0,0,2.92-4.51c.65-1.69,3.16-6.47,5.56-11.11,1.2-2.32,2.39-4.64,3.35-6.68a27.75,27.75,0,0,0,2-5.12,33,33,0,0,1,3.35-7.57,23.26,23.26,0,0,1,2.38-3.4,11,11,0,0,1,1.3-1.16,13.27,13.27,0,0,0,3.83-1.76,51.56,51.56,0,0,0,4.55-3.08,40.6,40.6,0,0,0,4.22-3.62,9.38,9.38,0,0,0,2.66-3.82,11.17,11.17,0,0,1,1.31-3.15,1.63,1.63,0,0,1,1.41-.8,8.78,8.78,0,0,1,3.29.17,2.57,2.57,0,0,1,1.87,1.48,26.6,26.6,0,0,0,3.44,5.77,11.11,11.11,0,0,0,2.81,2.56,5.73,5.73,0,0,0,4,.84,10.57,10.57,0,0,1,2.92.39,36,36,0,0,1,4.8,1.64,39.2,39.2,0,0,1,4.53,2.2,13.92,13.92,0,0,1,2.29,1.66c1.57,2.11,2.85,5.71,3.77,9.74a68.52,68.52,0,0,0,4.25,10.84,92.43,92.43,0,0,0,5.94,11.2c1.49,2.25,5.84,9.39,9.64,16.12,1.9,3.37,3.68,6.66,4.92,9.19.62,1.26,1.11,2.35,1.4,3.11.13.35.22.62.26.78-.73,3,.25,6.67,2.95,10.39a7.53,7.53,0,0,0,2.44,2,32.24,32.24,0,0,0,3.5,1.79c2.68,1.21,6,2.46,9.43,3.63A124.94,124.94,0,0,0,486.89,203c3.2.48,6.36,1,8.75,2.1a8,8,0,0,1,4.84,5.9,55.29,55.29,0,0,0,3,9.54,12.15,12.15,0,0,0,5,5.82c3.82,2.08,3.86.8,7.88,6.67,1.19,1.73,2.91,2.19,5.11,2.81a69.84,69.84,0,0,0,8.16,1.58c6.4.92,14.52,1.67,22.77,2.54s16.63,1.86,23.41,3.23,12,3.4,13.45,5c4.3,4.72,8.33,11.4,11.94,17.27,1.81,2.94,3.52,5.68,5.17,7.92s3.17,4,5.15,5c2.37,1.19,6.08,4,10.19,5.88s9.07,3.1,13.49.34c3.38-2.11,4.7-2.35,7.34-1.76.34.07,14.89,2.15,15.28,2.26V280.8c-.06,0-14.31-2-14.37-2-3.45-.77-6.63-.1-10.47,2.29-2.79,1.75-5.93,1.11-9.49-.57s-7.07-4.32-10.1-5.83a14.29,14.29,0,0,1-3.65-3.77c-1.5-2-3.18-4.71-5-7.63-3.59-5.84-7.68-12.69-12.4-17.89-3-3.34-8.67-4.89-15.72-6.31s-15.51-2.41-23.8-3.29-16.39-1.62-22.61-2.52a63.86,63.86,0,0,1-7.63-1.47,23.46,23.46,0,0,1-2.79-1.14c-4.26-6.23-6.13-6.24-9.33-8a7.78,7.78,0,0,1-3.21-3.91,52.79,52.79,0,0,1-2.78-8.79,12.71,12.71,0,0,0-7.11-8.67c-3.2-1.51-6.73-2-9.9-2.45a131.4,131.4,0,0,1-16.86-4.69c-3.34-1.14-6.56-2.36-9-3.48a30.3,30.3,0,0,1-3.07-1.57,8.67,8.67,0,0,1-1.22-.9c-2.29-3.15-2.62-5.75-2.23-7.12a2.62,2.62,0,0,0,0-1.7,10.68,10.68,0,0,0-.43-1.37c-.37-1-.9-2.14-1.55-3.47-1.31-2.67-3.12-6-5-9.4-3.85-6.82-8.12-13.86-9.81-16.39a94.82,94.82,0,0,1-5.62-10.63,73.61,73.61,0,0,1-4-10c-1-4.27-2.26-8.31-4.51-11.3a11,11,0,0,0-3.53-2.77,42.11,42.11,0,0,0-5-2.45,39.78,39.78,0,0,0-5.38-1.83,10.8,10.8,0,0,0-4.68-.45,1.48,1.48,0,0,1-1.09-.3,7.69,7.69,0,0,1-1.74-1.63,23.42,23.42,0,0,1-2.86-4.83,7,7,0,0,0-4.51-3.79,11.17,11.17,0,0,0-3.23-.42Zm58.89,82s0,0,0,0,0,.14,0,0Zm0,0"/><path class="cls-2" d="M851.7,58.46a7.58,7.58,0,0,0-1.39.1c-2.63.41-5.35,2.17-9.5,6.32-4.42,4.41-7.09,10.51-9.23,16.23S827.75,92.27,826,95a15.88,15.88,0,0,1-6.75,5.95,11.49,11.49,0,0,1-6.36,1.16,5.68,5.68,0,0,0-4.15.75,8.32,8.32,0,0,0-2.66,3.12c-1.37,2.5-2.32,5.78-3.51,9.69s-2.16,5.29-3.45,6.11-3.52,1.24-7.21,2.06c-8.13,1.8-11.78,8.14-15.64,12.77a67.78,67.78,0,0,1-6.4,5.95c-3.19,2.71-63,29.12-67.27,32.21l-1,.72c.17.38.33.75.5,1.12.43.92.87,1.83,1.31,2.73.55-.39,1.11-.79,1.66-1.2,4.32-3.15,64.23-29.61,67.51-32.39a63.41,63.41,0,0,0,6.9-6.47c4.19-5,7-9.95,13.33-11.36,3.56-.79,6.19-1.09,8.57-2.62s3.89-4.13,5.19-8.41a57.06,57.06,0,0,1,3.17-8.91,4.73,4.73,0,0,1,1.29-1.62,1.07,1.07,0,0,1,1-.15,14.85,14.85,0,0,0,8.94-1.47,20,20,0,0,0,8.53-7.52c2.31-3.69,3.84-9.11,5.92-14.66s4.64-11.11,8.27-14.74c3.91-3.9,6-5,7.2-5.15s2.25.42,4.6.89a8.44,8.44,0,0,1,4.87,2.75c1.87,1.88,4.23,5.17,7.4,10.72,3.32,5.81,5.82,8.41,8.76,9.14s5.06-.53,7.08-.87a3.37,3.37,0,0,1,2.24.77,20.61,20.61,0,0,1,3.43,3.11c2.41,2.6,4.73,5.81,7.17,7.76a20.57,20.57,0,0,0,7.07,3.79,10.18,10.18,0,0,0,6.68-.13,3.5,3.5,0,0,1,.66.7,34.78,34.78,0,0,1,3,5.45c2.26,4.83,4.89,11.48,7.74,17.6,1.41,3,2.31,4.94,3.08,6.27a8.26,8.26,0,0,0,1.18,1.67,3.73,3.73,0,0,0,1.86,1.07,4.89,4.89,0,0,0,2.86-.4,7.94,7.94,0,0,1,3.15-.18c1.12.13,2.44.88,4,2.48a59.24,59.24,0,0,1,5.46,6.82c4.09,5.69,9.21,13.27,16.61,20.68a87.68,87.68,0,0,0,11,9.26v-5.21a79.24,79.24,0,0,1-8-7c-7.08-7.08-12-14.38-16.18-20.16a61.27,61.27,0,0,0-5.89-7.33c-1.94-1.94-4-3.4-6.54-3.68a12.69,12.69,0,0,0-4.65.28,3.43,3.43,0,0,0-.82.24,4,4,0,0,1-.42-.62c-.59-1-1.5-2.94-2.91-5.95-2.78-6-5.38-12.57-7.75-17.6a35.62,35.62,0,0,0-3.45-6.19,7,7,0,0,0-2-2,3.68,3.68,0,0,0-3.28-.19,5.9,5.9,0,0,1-4.22.06,16.64,16.64,0,0,1-5.61-3c-1.59-1.27-4.09-4.5-6.71-7.33a24.09,24.09,0,0,0-4.19-3.75A7.27,7.27,0,0,0,883,81.19c-2.81.46-4.3,1.21-5.39.93s-3-1.69-6.14-7.15c-3.26-5.71-5.73-9.26-8.08-11.6a13.34,13.34,0,0,0-7-3.89,21.24,21.24,0,0,0-4.68-1Z"/><path class="cls-2" d="M312.37,181.39c1,.28,2.84,1.59,5.56,4.7a10.15,10.15,0,0,0,5.14,3.43,7.66,7.66,0,0,0,5.08-.61c3-1.41,5-4.07,6.66-6.11,1.43-1.78,2.12-2.25,3.44-2.33-.07-1-.16-2-.21-3.1l0-1.07h0c-2.61.16-4.72,1.7-6.46,3.89-1.59,2-3.54,4.15-5.21,4.95a3.19,3.19,0,0,1-2.29.32,6.07,6.07,0,0,1-3-2.13c-2.91-3.32-5.08-5.24-7.52-6s-4.76.28-6.57,1.64c-1,.74-2.94,1.19-6.09,1.19-1.91,0-4.26-.15-6.95-.36v4.2c2.59.19,4.91.34,6.95.34"/><path class="cls-2" d="M493,202.43a147.76,147.76,0,0,0,12.1-12.26.4.4,0,0,0,.1-.13,1.59,1.59,0,0,0,.17,0,24,24,0,0,1,4.7,1c4.13,1.18,9.45.61,16.38-.58a159.06,159.06,0,0,0,23.28-6,124.64,124.64,0,0,0,23.12-10.22c6.83-4,12.46-8.57,15.31-14.27,8.82-17.64,19.91-23.07,29.44-29.42,7.82-5.22,21.27-5.61,32.55,0,5.07,2.53,14.36,10.94,23.36,20.51s18.06,20.34,24.17,28c12.94,16.17,29.87,23.1,46.61,19.75,7.08-1.41,25.64-3,43.85-2.43a157.73,157.73,0,0,1,25.77,2.64c7.59,1.55,13.65,4,16.61,6.64,15.78,14.19,34.18,24.9,52.34,41.55,5.43,5,14.18,8.77,24.75,12.28,3.93,1.3,8.11,2.54,12.44,3.72v-7.41c-3.55-1-7-2-10.19-3.09-10.17-3.37-18.36-7.27-22.17-10.77-18.8-17.22-37.36-28.06-52.39-41.58-4.73-4.26-11.76-6.66-20-8.33a164.28,164.28,0,0,0-27-2.79c-18.76-.58-37.15.9-45.48,2.57-14.05,2.81-27.93-2.58-39.63-17.2-6.21-7.77-15.35-18.64-24.55-28.41s-18.1-18.38-25.36-22a46.32,46.32,0,0,0-20.87-5h0a34.3,34.3,0,0,0-18.84,5.37c-9,6-22.21,12.85-31.86,32.16-1.77,3.54-6.34,7.66-12.56,11.32a119,119,0,0,1-21.77,9.61,153.32,153.32,0,0,1-22.21,5.73c-6.49,1.12-12,1.12-13.21.76a24.46,24.46,0,0,0-6.66-1.29,8.11,8.11,0,0,0-5.31,2.2c-2.39,2.38-10.9,11-15.95,15.33M289.62,243.84,632.44,119.26"/><path class="cls-2" d="M637.86,120.24a2.3,2.3,0,0,0-1.1,3.44c23.5,36.65,15.9,85.87,17.85,138.1.71,19.06,2.77,38.52,8.2,57.82h4.36c-5.53-19.23-7.56-38.72-8.28-58C657,210,665,159.71,640.31,121.15a2.15,2.15,0,0,0-.58-.62c-.62-.12-1.25-.21-1.87-.29ZM650,123.83a2.34,2.34,0,0,0-.64,3.26c22.07,33.3,17.35,84.85,23.38,137.78,2.08,18.32,5.53,36.82,12,54.73h4.47c-6.58-18-10-36.61-12.17-55.27-5.87-51.58-.86-103.12-23.19-138.39a22.7,22.7,0,0,0-2.11-1.27c-.56-.3-1.12-.57-1.69-.84Zm15.3,11.88a2.33,2.33,0,0,0-.7,3.35c20.63,29.95,18.15,81.65,27.6,133.15,2.94,16,7.12,32.07,13.6,47.39h4.59c-6.72-15.47-11-31.78-14-48.24-8.75-47.72-6.59-96.63-24.62-128.94-.84-.91-1.68-1.8-2.51-2.67-1.35-1.41-2.67-2.75-4-4Zm17.11,18.76a1.52,1.52,0,0,0-1.07,2.44c9.73,13.48,14.53,32.78,18.38,54.78s6.8,46.66,13.11,70.84c3.3,12.64,12.5,34.94,18.28,46.86h3.13c-6-12.1-15.27-34.68-18.66-47.66-6.23-23.9-9.17-48.47-13.05-70.59-3.55-20.26-7.88-38.51-16.45-52.35-1.07-1.29-2.15-2.59-3.25-3.88l-.37-.44Zm15.7,19.36a2.3,2.3,0,0,0-1.15,3.63c8.89,11.64,13.85,29.54,18.42,50.18s8.8,44,16.73,66.52c3.06,8.67,11.64,27,16,35.23H753c-4.79-8.65-13.62-27.53-16.88-36.8-7.77-22.07-12-45.2-16.58-66-3.69-16.65-7.59-31.82-14-43.74l-.39-.4c-.81-.87-1.62-1.77-2.41-2.71s-1.58-1.91-2.35-2.93-1.5-2-2.3-3ZM713,189.36a1.54,1.54,0,0,0-.69,2.46c18.82,23,22.3,85.78,50,132.06h3.33c-27.33-45-30.61-107.27-50.3-132.94-.78-.49-1.56-1-2.33-1.58Zm6.89,4.09a1.51,1.51,0,0,0,.26.61c16.41,23.11,22.28,66.9,43.34,104.76A145.66,145.66,0,0,0,777.4,319.6h3.73A143.39,143.39,0,0,1,766,297.3c-19.85-35.69-25.81-77.26-41.48-102l-.87-.29c-.93-.33-1.85-.7-2.76-1.1-.32-.14-.64-.29-1-.45Zm30.58,1.79c-1.63.2-3.09.41-4.39.63a2.16,2.16,0,0,0,.16.51c15.25,34.28,31.27,64.27,60.46,84.36C832.1,298.21,867.25,308,920,307V302.5c-52.23,1-86.46-8.68-111-25.55-27.94-19.22-43.52-48-58.57-81.71Zm-22.62,1c15.5,26,23.95,65.22,46.5,97.9a129.37,129.37,0,0,0,22.83,25.46h4.56a125.73,125.73,0,0,1-25.07-27.23c-21.51-31.16-30-68.89-45.1-95.49-.79-.09-1.58-.21-2.36-.36-.45-.08-.91-.18-1.36-.28Zm15.18.19c-.49.1-1,.19-1.48.26,15.28,31.08,28.61,63.59,55.07,87.53,20.46,18.51,48.75,31.82,91.7,35.38H920V319c-61.14,1.37-97.63-13.42-122.46-35.88-26-23.55-39.3-55.64-54.52-86.65Zm-5.94.69c-.55,0-1.09,0-1.63,0C750.69,225.57,761.57,261,785.77,289a122.7,122.7,0,0,0,39.85,30.64h3.44a121.51,121.51,0,0,1-42.24-31.66c-23.74-27.43-34.59-62.33-49.73-90.82Zm0,0"/><path class="cls-2" d="M782.72,203.63c-.9,0-1.81,0-2.73.07a65.06,65.06,0,0,0-23.06,5.35,2.14,2.14,0,1,0,1.69,3.94c15.38-6.59,28.25-5.77,41.92-3.22s28.05,6.94,45.65,7.1a2.13,2.13,0,0,0,2-1.39L845,213l-.57-.45c-16.08-.43-29.57-4.47-43-7a97.83,97.83,0,0,0-18.61-1.92Zm41.36,16c-21,0-40.31,4.4-54.43,11.73a2.14,2.14,0,0,0,2,3.8C792.94,224.13,828,219.75,862,229a2.16,2.16,0,0,0,2.62-1.38c-1.63-1.23-3.25-2.43-4.86-3.62a149.66,149.66,0,0,0-35.63-4.37Zm5.64,6.63c-22.39,0-43.51,4.41-57.55,11.68a1.43,1.43,0,1,0,1.31,2.54c21.46-11.12,61.77-15.57,95.89-6.26a1.43,1.43,0,0,0,1.82-1.5l-1.88-1.47a156.64,156.64,0,0,0-39.59-5ZM839,232.4c-1.67,0-3.32,0-5,.1-22,.81-42.55,6.31-56.4,13.49a.72.72,0,1,0,.66,1.27c21.76-11.28,61-18.46,95.25-9.11a.71.71,0,0,0,.37-1.38A131,131,0,0,0,839,232.4Zm41.82,8.24c-19.33,2.17-34.72.8-49.59.79-15.18,0-29.87,1.46-47.05,9.77a2.14,2.14,0,1,0,1.86,3.86c16.51-8,30.27-9.36,45.19-9.35s30.95,1.47,51.33-1a2.16,2.16,0,0,0,1.67-1.09q-1.71-1.54-3.41-3Zm-4.47,9h-3.39c-27.17.15-56.9,3.71-75.63,12.78a2.14,2.14,0,1,0,1.86,3.86c23.34-11.3,67.84-13.94,99.25-11.45a2.14,2.14,0,0,0,2.29-1.56c-2.09-.84-4.06-1.69-5.88-2.56l-1-.5c-5.58-.34-11.47-.54-17.51-.57Zm36.31,12.28c-31.43.08-71.91,6.25-93.07,16.49a2.14,2.14,0,1,0,1.87,3.85c21.41-10.36,67.09-16.85,98.59-15.94V262c-1.43,0-2.89-.07-4.37-.09Zm4.25,12.68c-1.92,0-3.83,0-5.72.08-22.68.63-43.38,5.15-61.81,14.07a2.14,2.14,0,1,0,1.86,3.86c20.12-9.74,43.15-14.11,68.81-13.7v-4.28l-3.14,0Zm0,0"/><path class="cls-1" d="M1060.47,346.56,1043.11,332l-23.58-14.63-32.84-24.65-8.21-12.27-1.57-15.71-8.49-3.15-9.32-2.31-14.9-22.7-16,1.42L901,244.24l-9.6,6.13L886,262.17l-13.69,11.95-20.76,6.77L838,288,825.3,300.39l-59.67,23.49-27.78,7.65-17-4.41-20.29,16.52-11.8,4.56-26.1-6.29-22.07,13.47,25.6,17.95,20.71,12.6,9,5.38h364.75S1061.6,347.69,1060.47,346.56Z"/><rect class="cls-1" x="964.17" y="346.29" width="96.87" height="75.41"/><path class="cls-2" d="M527.51,307.74a20.11,20.11,0,0,0-11,3.15c-5.24,3.49-13,7.52-18.66,18.83-1,2.07-3.71,4.48-7.35,6.63A68.85,68.85,0,0,1,477.72,342a88.1,88.1,0,0,1-13,3.36,26.48,26.48,0,0,1-7.73.45,14.09,14.09,0,0,0-3.9-.76,4.75,4.75,0,0,0-3.12,1.29c-1.39,1.39-1.88,2.76-4.84,5.3-5.75,4.93-14.81,7.27-21,3.42-4.36-2.72-11.05-3.47-17.64-3.59S393.61,352,390,353c-6.61,1.89-32.45,10.77-43.64,16.36l-.21.11v4.63c.72-.33,1.42-.67,2.08-1,10.45-5.22,36.91-14.37,42.92-16.08,2.71-.78,9-1.5,15.28-1.39s12.64,1.17,15.5,2.95c8.26,5.16,19,2.1,25.91-3.79a31.9,31.9,0,0,0,5.08-5.52l.06-.07h.1a14.34,14.34,0,0,1,2.75.59c2.41.69,5.53.36,9.59-.34a92.85,92.85,0,0,0,13.63-3.52,73.1,73.1,0,0,0,13.54-6c4-2.36,7.29-5,9-8.36,5.17-10.33,11.66-13.51,17.24-17.22,4.58-3.06,12.45-3.28,19.06,0,3,1.48,8.4,6.41,13.68,12s10.57,11.91,14.15,16.38c7.57,9.47,17.49,13.52,27.29,11.56,4.14-.83,15-1.76,25.68-1.42a91.52,91.52,0,0,1,15.08,1.55c4.45.9,8,2.32,9.73,3.88,9.24,8.31,20,14.58,30.65,24.33,3.17,2.91,8.3,5.14,14.49,7.19,2.3.76,4.75,1.49,7.28,2.18v-4.34c-2.08-.58-4.08-1.18-6-1.81-5.95-2-10.75-4.26-13-6.3-11-10.09-21.87-16.44-30.67-24.35-2.77-2.5-6.89-3.9-11.69-4.88a95.91,95.91,0,0,0-15.79-1.63c-11-.34-21.75.53-26.63,1.5-8.23,1.65-16.35-1.51-23.21-10.07-3.63-4.55-9-10.91-14.37-16.63s-10.6-10.77-14.85-12.89a27.18,27.18,0,0,0-12.22-2.91Zm0,0"/><path class="cls-2" d="M530.68,310.06A1.25,1.25,0,0,0,530,312c13.76,20.34,9.31,47.66,10.45,76.65a130.11,130.11,0,0,0,4.8,32.09h2.55c-3.23-10.68-4.42-21.49-4.84-32.19-1.13-28.66,3.59-56.55-10.88-78a1.37,1.37,0,0,0-.34-.34l-1.1-.16Zm7.13,2a1.26,1.26,0,0,0-.38,1.81c12.92,18.48,10.16,47.1,13.69,76.47a129.15,129.15,0,0,0,7,30.38h2.62A126.18,126.18,0,0,1,553.61,390c-3.44-28.62-.5-57.23-13.58-76.81a13.41,13.41,0,0,0-1.23-.7l-1-.47Zm9,6.6a1.26,1.26,0,0,0-.41,1.86c12.08,16.62,10.63,45.31,16.16,73.89a120.52,120.52,0,0,0,8,26.31h2.68A117.81,117.81,0,0,1,565,393.93c-5.13-26.48-3.87-53.63-14.42-71.56-.49-.5-1-1-1.47-1.48-.79-.78-1.57-1.53-2.33-2.24Zm10,10.41a.84.84,0,0,0-.63,1.35c5.7,7.49,8.51,18.19,10.77,30.4s4,25.9,7.67,39.32a107.78,107.78,0,0,0,7.81,20.57h1.83a106,106,0,0,1-8-21c-3.66-13.27-5.38-26.9-7.65-39.18-2.08-11.25-4.61-21.37-9.63-29.05-.62-.72-1.26-1.44-1.9-2.16l-.22-.24ZM566,339.8a1.26,1.26,0,0,0-.67,2c5.2,6.46,8.11,16.39,10.78,27.85s5.16,24.41,9.8,36.92a98.62,98.62,0,0,0,6.5,14.12h2.84a96.18,96.18,0,0,1-7-15c-4.55-12.24-7-25.08-9.71-36.61-2.16-9.24-4.44-17.66-8.19-24.28a2.39,2.39,0,0,1-.23-.22q-.72-.72-1.41-1.5t-1.38-1.62c-.42-.54-.88-1.1-1.35-1.68Zm8.71,8.62a.84.84,0,0,0-.4,1.37c11,12.78,12.23,45.23,28.44,70.92h1.95c-16-25-17.09-57.16-28.62-71.41-.46-.28-.92-.57-1.37-.88Zm4,2.27a.7.7,0,0,0,.15.34c9.61,12.83,13,37.13,25.38,58.14a80.71,80.71,0,0,0,8.14,11.54h2.18a79,79,0,0,1-8.88-12.38c-11.63-19.81-15.12-42.88-24.29-56.61l-.51-.17c-.55-.18-1.08-.38-1.62-.61l-.55-.25Zm17.9,1c-1,.11-1.81.23-2.57.35a1,1,0,0,0,.1.28c8.92,19,18.31,35.67,35.4,46.82,14.87,9.7,35.45,15.14,66.34,14.58v-2.5c-30.58.56-50.62-4.82-65-14.18-16.36-10.67-25.49-26.62-34.3-45.35Zm-13.24.55c9.07,14.41,14,36.2,27.23,54.34A73.64,73.64,0,0,0,624,420.71h2.67A71.51,71.51,0,0,1,612,405.59c-12.59-17.29-17.55-38.23-26.4-53-.47-.06-.93-.12-1.39-.2l-.79-.16Zm8.89.11-.87.14c9,17.25,16.75,35.29,32.24,48.58,12,10.27,28.55,17.66,53.7,19.64h18.55v-.36c-35.8.76-57.16-7.45-71.7-19.91-15.24-13.07-23-30.88-31.92-48.09Zm-3.48.38h-1c8.92,15.78,15.29,35.44,29.46,51a71.57,71.57,0,0,0,23.33,17h2a71,71,0,0,1-24.73-17.57c-13.9-15.23-20.26-34.6-29.12-50.41Zm0,0"/><path class="cls-2" d="M615.51,357.15c-.53,0-1.07,0-1.6,0a38.17,38.17,0,0,0-13.51,3.13,1.26,1.26,0,1,0,1,2.31c9-3.86,16.54-3.38,24.55-1.89s16.42,4.06,26.73,4.16a1.25,1.25,0,0,0,1.18-.82c-.64-.48-1.28-1-1.91-1.45l-.33-.26c-9.42-.26-17.31-2.62-25.21-4.09a57.32,57.32,0,0,0-10.89-1.13Zm24.21,9.38c-12.31,0-23.6,2.58-31.87,6.86a1.25,1.25,0,0,0,1.15,2.23c12.49-6.47,33-9,52.9-3.61a1.25,1.25,0,0,0,1.53-.81c-.95-.72-1.9-1.42-2.84-2.12a87.83,87.83,0,0,0-20.87-2.55Zm3.3,3.88c-13.1,0-25.47,2.58-33.69,6.84a.83.83,0,1,0,.77,1.48c12.56-6.51,36.16-9.11,56.14-3.66a.84.84,0,0,0,1.07-.88l-1.1-.86A91.57,91.57,0,0,0,643,370.41Zm5.41,3.58c-1,0-1.94,0-2.9.06-12.87.47-24.92,3.7-33,7.9a.42.42,0,1,0,.39.74c12.74-6.6,35.69-10.81,55.77-5.33a.42.42,0,0,0,.22-.81A76.75,76.75,0,0,0,648.43,374Zm24.49,4.83c-11.32,1.27-20.33.47-29,.46-8.9,0-17.5.85-27.56,5.72a1.26,1.26,0,1,0,1.1,2.26c9.66-4.68,17.72-5.48,26.45-5.47s18.13.86,30.06-.57a1.26,1.26,0,0,0,1-.64c-.67-.6-1.34-1.19-2-1.76Zm-2.62,5.24h-2c-15.91.09-33.32,2.18-44.28,7.49a1.25,1.25,0,1,0,1.09,2.25c13.66-6.61,39.72-8.16,58.11-6.7a1.25,1.25,0,0,0,1.34-.91c-1.23-.49-2.38-1-3.44-1.5l-.59-.29c-3.26-.2-6.71-.32-10.25-.34Zm21.27,7.19c-18.41.05-42.11,3.66-54.5,9.66a1.25,1.25,0,0,0-.62,1.69,1.26,1.26,0,0,0,1.71.57c12.54-6.07,39.29-9.87,57.73-9.34v-2.52l-2.56-.05Zm2.48,7.43c-1.12,0-2.24,0-3.34,0-13.29.37-25.41,3-36.2,8.24a1.26,1.26,0,1,0,1.09,2.26c11.78-5.7,25.27-8.26,40.29-8v-2.51Zm0,0"/><path class="cls-2" d="M396.73,207.14a15.4,15.4,0,0,0-12.84,6.48c-4.88,6.18-6.75,12-8.89,15.41a7.72,7.72,0,0,1-3.48,3.3c-1.41.61-3.47.9-6.88.41-4.15-.59-7.5,0-9.62,2s-2.59,4.64-2.9,7.31c-.61,5.34-.38,11.64-3.95,17.28-3.45,5.45-13.6,12.73-24.11,19s-21.3,11.76-26.71,15.09c-5.66,3.48-9,7.93-13.09,12a41.83,41.83,0,0,1-8.69,6.75v5.65a47.74,47.74,0,0,0,12.57-9c4.47-4.39,7.49-8.41,12.16-11.28,4.92-3,15.94-8.65,26.65-15.06S348.19,269,352.77,261.8c4.46-7.06,4.11-14.53,4.65-19.23.26-2.36.8-3.83,1.41-4.4s1.7-1,5-.58c4.05.57,7.3.33,9.95-.81a13.1,13.1,0,0,0,5.81-5.27c2.73-4.29,4.3-9.55,8.6-15a10.54,10.54,0,0,1,5.84-4.15,14.53,14.53,0,0,1,6.61.2c5,1.1,10.91,3.91,17.53,3.91a55.81,55.81,0,0,1,19,3.76c6.19,2.48,10.76,6.08,11.64,10.14,1.38,6.32,6.83,11.4,13,15.3a59.88,59.88,0,0,0,18.85,7.77,70,70,0,0,1,16.63,6.09c5.36,2.79,9.46,6.35,10.12,8.17.77,2.14,2.36,3,4.42,4.26a76.7,76.7,0,0,0,7.86,4.15c6.29,3,14.43,6.29,22.79,9.48s16.92,6.24,24,8.63,12.48,4.1,15.11,4.71c4.24,1,14.18,4.19,23.84,6.35a77.44,77.44,0,0,0,13.83,2.05c4.22.14,8.1-.24,10.76-2.7A7.6,7.6,0,0,1,633,302.7c.32-.06.26-.11.83.34,1.15.9,3.11,3.94,6.29,6.87a78.4,78.4,0,0,0,15.19,10.45,45.29,45.29,0,0,0,9.54,3.87c3.16.81,6.32,1.09,9.18,0a65.7,65.7,0,0,1,17-3.51c6.59-.51,13,.23,16,2.19s8,4.11,13.69,6v-5.29a56.93,56.93,0,0,1-10.6-4.71c-5-3.33-12.38-3.65-19.56-3.09a69.21,69.21,0,0,0-18.61,3.89,9.9,9.9,0,0,1-5.66-.18,40.2,40.2,0,0,1-8.33-3.4,75.83,75.83,0,0,1-14.07-9.65c-2.55-2.36-4-5.14-6.61-7.15a6.91,6.91,0,0,0-5.31-1.41,11.42,11.42,0,0,0-5.61,3.26c-.78.72-3.21,1.39-6.81,1.27a73.55,73.55,0,0,1-12.77-1.92c-9.28-2.07-18.85-5.2-23.8-6.34-1.95-.45-7.58-2.18-14.57-4.55s-15.5-5.4-23.79-8.56-16.34-6.46-22.39-9.31a76,76,0,0,1-7.31-3.85c-1.74-1.09-2.56-2.31-2.36-1.75-1.63-4.54-6.71-7.85-12.55-10.89a73.83,73.83,0,0,0-18.08-6.61,56,56,0,0,1-17-7c-5.57-3.51-9.87-8-10.8-12.22-1.41-6.52-7.74-10.86-14.74-13.67a60.2,60.2,0,0,0-21.15-4.17c-4.85,0-10.41-2.48-16.31-3.77a26.25,26.25,0,0,0-4.54-.62l-.59,0Zm0,0"/><path class="cls-2" d="M396.72,209.6a12,12,0,0,0-1.47.06c-.38,0-.75.09-1.13.15a1.47,1.47,0,0,0,.27.63c17.51,23.88,11.85,55.95,13.3,90,.8,18.69,3.87,38,14.35,56.59l1.32-.13c.63-.07,1.29-.15,2-.25-10.65-18.42-13.65-37.52-14.45-56.33-1.42-33.26,4.44-65.65-13.24-90.66l-.42,0Zm19.34,4.29a1.41,1.41,0,0,0,.2.63c13.24,23,4.56,51.41,2.82,82.21-1.08,19,.68,39,12.23,58.85,1-.2,2.06-.43,3.12-.67-11.61-19.53-13.24-39-12.16-58,1.69-30,10.6-58.69-2.7-82.86l-1.4,0c-.7,0-1.4,0-2.11-.11Zm24.55,5.86a1.48,1.48,0,0,0-1.42,2c9,22.16-2.95,46.06-8.16,72.85-3.57,18.32-3.72,38,8.63,59,1-.27,2-.57,3-.87-12.32-20.49-12-39.46-8.5-57.59,5.12-26.3,17.6-50.81,8-74.4a1.57,1.57,0,0,0-1.41-1ZM462.38,243a.57.57,0,0,0,0,.18C464.8,253.82,462.26,263,458,272s-10.37,17.81-14.78,27.44-7.1,20.16-4.46,32.46a63.16,63.16,0,0,0,8.12,19.46l1.45-.5c.53-.18,1-.37,1.56-.56a60.86,60.86,0,0,1-8-19c-2.5-11.62,0-21.43,4.26-30.75s10.33-18.09,14.77-27.39c4.08-8.59,6.76-17.7,5.14-28-.9-.5-1.8-1-2.67-1.57-.33-.21-.66-.42-1-.64Zm24.33,10a1,1,0,0,0-1,1c.3,10.35-4.1,18.07-10.16,25.06s-13.79,13.18-19.89,20.27-10.58,15.19-9.88,25.8c.44,6.74,2.94,14.44,8.29,23.56.65-.27,1.3-.55,1.93-.84-5.27-9-7.68-16.44-8.1-22.83-.66-10.06,3.49-17.57,9.42-24.47s13.67-13.08,19.89-20.26,10.95-15.45,10.63-26.34a1,1,0,0,0-1.08-1ZM508.93,265c-1.84,10-8.15,16.31-16,21.26s-17.23,8.56-25,13.11-13.95,10.13-15.19,19c-.95,6.87,1,15.64,7.32,27.41.16-.1.33-.18.5-.27l.42-.24c-6.2-11.62-8.1-20.2-7.19-26.77,1.19-8.53,7.06-13.83,14.71-18.31s17-8.07,25-13.13c7.67-4.84,14-11.09,16.21-20.75-.11-.21-.22-.42-.36-.64a6.78,6.78,0,0,0-.46-.68Zm21.9,13.23a11.85,11.85,0,0,1-3.91,6.26,29.26,29.26,0,0,1-10.16,5.21c-8.31,2.73-19.13,4.21-29.18,6.73s-19.43,6.07-24.69,13.23-6.13,17.74.31,33.7a1.13,1.13,0,0,0,.32.43l.49-.32c.41-.27.8-.54,1.18-.81-6.3-15.64-5.31-25.39-.53-31.9s13.6-10,23.48-12.44,20.71-3.94,29.34-6.77a31,31,0,0,0,10.9-5.64,14,14,0,0,0,4.42-6.87l-1.36-.55-.61-.26Zm22.45,8.67c-5.92,8.64-14.54,12.24-24.41,13.8-10.06,1.6-21.3.95-31.55,1.12s-19.69,1.13-25.9,6.6-8.58,15.09-5.46,31.43a1.56,1.56,0,0,0,1.3,1.2,20.79,20.79,0,0,0,1.84-1.77c-3-15.86-.63-24.2,4.52-28.73s13.7-5.61,23.76-5.78,21.44.51,32-1.17,20.43-5.85,26.89-15.6l-.33-.12-2.69-1Zm0,0"/><path class="cls-2" d="M382.86,220.19l-.28,0c-.42.72-.8,1.43-1.16,2.12a1.52,1.52,0,0,0,.32.4c10.34,9.28,14.83,23,16.67,37.65,1.51,12,1.22,24.33,1,35.61-10-21.8-27.08-36.66-45.1-42.09a1.68,1.68,0,0,0-1,0c-.16.61-.34,1.22-.55,1.83-.05.15-.1.31-.16.47a1.63,1.63,0,0,0,.76.48c18.78,5.67,37.13,22.4,46.09,47.41a1.62,1.62,0,0,0,3.11-.45c.06-12.84.91-28.58-1-43.61s-6.5-29.44-17.62-39.42a1.71,1.71,0,0,0-1.11-.43Zm-7.51,12.53a.3.3,0,0,1-.08.08,9.51,9.51,0,0,1-1.21,1c-.17.11-.35.22-.54.32a1.44,1.44,0,0,0,.49,1.12c10.33,9.5,14.26,20.08,16.46,32.32-9.06-14.43-23.49-23.27-35.31-25a1.89,1.89,0,0,0-.41,0c-.1.91-.18,1.88-.25,2.89l.16,0c12.5,1.83,29.72,13.13,37.35,31.71.66,1.62,3.29,1,3.07-.69-2-16.53-5.27-30.88-18.82-43.33a1.65,1.65,0,0,0-.91-.43Zm-30.18,37.53c-1.49,0-3,0-4.58.13l-.13.1c-.94.73-1.93,1.45-2.95,2.17a1.64,1.64,0,0,0,1.58.8c13.45-1.21,23.37,1.84,31.24,7.44s13.68,13.83,18.42,23c9.49,18.39,14.45,40.4,24.52,52.18a1.8,1.8,0,0,0,.2.19l1.43.33a1.44,1.44,0,0,0,.88-2.34c-9.15-10.72-14.42-32.79-24.14-51.62-4.86-9.42-10.9-18.08-19.36-24.1a45.27,45.27,0,0,0-23.5-8.16c-1.17-.08-2.38-.13-3.61-.14Zm-13,8.08c-1.11,0-2.23,0-3.37.08-1.08.67-2.17,1.34-3.27,2l-.91.54a1.65,1.65,0,0,0,1.45.61c13.47-1.22,23.86,1.57,32.37,6.77s15.13,12.87,20.69,21.48c11.12,17.22,17.79,38,27.77,49.72a1,1,0,0,0,.18.18l.43-.47c.68-.77,1.17-1.4,1.6-1.89-9.09-10.91-15.95-31.57-27.24-49-5.7-8.83-12.59-16.88-21.67-22.43a51.76,51.76,0,0,0-24.38-7.43c-1.2-.07-2.41-.1-3.65-.1Zm-12,6.86c-1,0-2.05,0-3.09.07-1.56.88-3.07,1.72-4.55,2.53a1.66,1.66,0,0,0,1.53.63c26.94-2.43,43.68,10.5,56.45,27.12s21.12,36.8,31,48.4a1.47,1.47,0,0,0,.32.29c.47-.33.93-.68,1.38-1s.68-.55,1-.82a1.51,1.51,0,0,0-.18-.26c-9.32-10.9-17.85-31.25-30.94-48.28-11.45-14.91-26.74-27.38-49.26-28.56-1.21-.06-2.43-.09-3.68-.09Zm-10.36,5.63c-1,0-1.94,0-2.92.08l-3.23,1.78-1.42.8a1.67,1.67,0,0,0,1.44.58c27-2.43,44.94,10.07,58.9,26.21s23.48,35.73,33.31,47.27l.59-.25q1.14-.53,2.22-1.11a1.36,1.36,0,0,0-.24-.38c-9.37-11-19.09-30.83-33.39-47.36C352.58,304,336.28,292,313.54,290.9c-1.22-.06-2.46-.09-3.71-.08Zm-13.1,11.72q-3.14,0-6.37.27l-2.43,2.56a1.67,1.67,0,0,0,1.39.47c27.06-2.44,47,7.81,62.78,21.57s27.12,30.87,36.81,42.25c.61-.11,1.23-.24,1.84-.39.39-.09.77-.2,1.15-.31a1.41,1.41,0,0,0-.34-.95c-9.5-11.12-21.07-28.61-37.26-42.73-14.17-12.36-32-22.16-55.08-22.71-.83,0-1.66,0-2.49,0Zm-12,15.55h-2.31q-3.37,0-6.87.27v2.95c51.67-3.47,81.69,25.53,100.54,47.4.3.12.6.23.9.32a18.1,18.1,0,0,0,1.88.52l.78.16a1.37,1.37,0,0,0-.09-1.7c-17.81-20.85-46.61-49.57-94.83-49.92Zm12.26,19c-1.3,0-2.61,0-3.92.06A118.37,118.37,0,0,0,275.57,339v3c33.09-6.18,65.77,2.5,83,21.87,1.17.1,2.31.22,3.43.36a1.36,1.36,0,0,0-.24-1.4c-14.11-16.51-38.29-25.71-64.74-25.76Zm6.07,12.75a92.69,92.69,0,0,0-27.51,4.68v3.09c24-7.91,44-6.69,67.64,6.21,1-.07,2-.12,3.08-.16l.63,0a1.44,1.44,0,0,0-.77-1.63c-14.57-8.15-28-12-41.78-12.17Zm1.79,9.62A55.53,55.53,0,0,0,292,361a77.21,77.21,0,0,0-16.42,6.16v3.36a76.75,76.75,0,0,1,17.22-6.67c10.21-2.44,21-2,34.91,2.72l3-.87a1.46,1.46,0,0,0-1-1.59,78.24,78.24,0,0,0-20.23-4.49c-1.55-.12-3.06-.17-4.56-.16Zm0,0"/><path class="cls-1" d="M.55,346.56,17.91,332l23.57-14.63,32.85-24.65,8.21-12.27,1.57-15.71,8.49-3.15,9.32-2.31,14.9-22.7,16,1.42,27.21,6.29,9.59,6.13,5.35,11.8,13.68,11.95,20.76,6.77L223,288l12.74,12.43,59.67,23.49,27.77,7.65,17-4.41,20.29,16.52,11.79,4.56,26.11-6.29,22.07,13.47-25.6,17.95-20.72,12.6-9,5.38H.38S-.58,347.69.55,346.56Z"/><path class="cls-2" d="M120.81,233.65a13.77,13.77,0,0,0-3.79.47,15,15,0,0,0-8,6c-4.5,6.19-6.22,12-8.21,15.41a7.4,7.4,0,0,1-3.21,3.31c-1.29.6-3.19.89-6.34.4-3.82-.58-6.92,0-8.87,2s-2.39,4.63-2.67,7.31c-.56,5.34-.36,11.63-3.65,17.27-3.19,5.46-12.54,12.73-22.24,19s-19.64,11.77-24.63,15.09c-5.22,3.48-8.25,7.93-12.07,12a39.9,39.9,0,0,1-8,6.74v5.65a44.4,44.4,0,0,0,11.6-9c4.12-4.39,6.9-8.4,11.21-11.27,4.54-3,14.7-8.66,24.58-15.07S76,295.54,80.26,288.3c4.12-7.06,3.79-14.52,4.29-19.23.25-2.36.74-3.82,1.3-4.4s1.57-1.05,4.62-.58c3.73.58,6.73.33,9.17-.81A12.55,12.55,0,0,0,105,258c2.52-4.3,4-9.56,7.94-15,1.87-2.57,3.59-3.67,5.38-4.15a12.24,12.24,0,0,1,6.09.2c4.61,1.09,10.07,3.9,16.18,3.9a47.93,47.93,0,0,1,17.54,3.76c5.72,2.49,9.93,6.08,10.75,10.14,1.26,6.32,6.29,11.4,12,15.3a53.15,53.15,0,0,0,17.39,7.78A60.69,60.69,0,0,1,213.6,286c5,2.78,8.73,6.34,9.34,8.16.71,2.14,2.17,3,4.07,4.26a69.77,69.77,0,0,0,7.26,4.16c5.79,3,13.31,6.28,21,9.47s15.6,6.24,22.12,8.64,11.51,4.09,13.94,4.7c3.91,1,13.08,4.2,22,6.36a68,68,0,0,0,12.76,2.05c3.89.14,7.47-.25,9.93-2.7a7.09,7.09,0,0,1,2.66-1.93c.3-.06.24-.1.77.35,1.05.89,2.86,3.93,5.8,6.87a72.36,72.36,0,0,0,14,10.44,39.56,39.56,0,0,0,8.8,3.88c2.91.81,5.83,1.09,8.47-.05a56.9,56.9,0,0,1,15.64-3.51c6.08-.51,12,.23,14.78,2.2s7.38,4.1,12.63,6v-5.29a49.79,49.79,0,0,1-9.78-4.71c-4.66-3.32-11.42-3.64-18-3.09a59.47,59.47,0,0,0-17.16,3.89,8.51,8.51,0,0,1-5.22-.17,35.74,35.74,0,0,1-7.68-3.4,70.41,70.41,0,0,1-13-9.66c-2.36-2.36-3.72-5.13-6.1-7.15a6,6,0,0,0-4.9-1.41c-1.85.37-3.42,1.51-5.17,3.27-.72.72-3,1.39-6.28,1.27A63.69,63.69,0,0,1,314.49,327c-8.56-2.08-17.39-5.21-21.95-6.35-1.8-.45-7-2.18-13.44-4.55s-14.3-5.4-21.94-8.56-15.07-6.45-20.66-9.31a68.27,68.27,0,0,1-6.73-3.84c-1.61-1.1-2.36-2.32-2.18-1.76-1.51-4.53-6.19-7.85-11.57-10.88a64.43,64.43,0,0,0-16.69-6.61,49.39,49.39,0,0,1-15.68-7c-5.14-3.51-9.11-8-10-12.21-1.31-6.53-7.14-10.87-13.6-13.67a51.58,51.58,0,0,0-19.5-4.18c-4.48,0-9.6-2.48-15-3.76a21.62,21.62,0,0,0-4.19-.63Zm0,0"/><path class="cls-2" d="M120.8,236.1c-.45,0-.91,0-1.35.06s-.7.09-1,.16a1.53,1.53,0,0,0,.25.62c16.15,23.89,10.93,55.95,12.27,90,.73,18.68,3.57,37.95,13.23,56.58l1.22-.12c.58-.07,1.19-.16,1.81-.25-9.82-18.42-12.58-37.52-13.32-56.33-1.31-33.27,4.1-65.65-12.22-90.66l-.38,0-.46,0Zm17.84,4.29a1.43,1.43,0,0,0,.18.64c12.22,23,4.21,51.41,2.6,82.21-1,19,.63,39,11.28,58.85.94-.21,1.9-.44,2.88-.68-10.7-19.52-12.21-39-11.22-58,1.57-30,9.78-58.68-2.48-82.86l-1.29,0a16,16,0,0,1-2-.12Zm22.64,5.86a1.47,1.47,0,0,0-1.31,2c8.31,22.15-2.72,46.06-7.53,72.85-3.29,18.31-3.42,38,8,59,.93-.28,1.85-.57,2.78-.87-11.37-20.5-11.09-39.47-7.84-57.59,4.72-26.3,16.23-50.82,7.39-74.41a1.47,1.47,0,0,0-1.3-1Zm20.08,23.25a1,1,0,0,0,0,.17c2.21,10.66-.13,19.83-4.1,28.86s-9.56,17.8-13.63,27.43-6.55,20.17-4.11,32.46A66.15,66.15,0,0,0,167,377.88l1.34-.49,1.43-.57a63.62,63.62,0,0,1-7.37-19c-2.31-11.61,0-21.42,3.94-30.74S175.89,309,180,299.71c3.77-8.58,6.24-17.7,4.75-28-.84-.5-1.66-1-2.47-1.58l-.9-.63Zm22.44,10a1,1,0,0,0-1,1c.28,10.35-3.78,18.08-9.37,25.07s-12.71,13.17-18.35,20.27S165.36,341,166,351.62c.41,6.73,2.72,14.44,7.65,23.56l1.78-.84c-4.86-9-7.08-16.44-7.47-22.84-.61-10.05,3.22-17.57,8.69-24.46S189.25,314,195,306.77s10.09-15.45,9.79-26.34a1,1,0,0,0-1-1Zm20.5,12.08c-1.71,10-7.52,16.3-14.75,21.26s-15.9,8.56-23.06,13.1-12.86,10.13-14,19c-.88,6.86.94,15.63,6.74,27.4l.47-.27.38-.23c-5.71-11.63-7.46-20.2-6.62-26.78,1.09-8.53,6.51-13.83,13.56-18.31s15.72-8.07,23.08-13.12c7.07-4.85,13-11.1,15-20.75-.1-.22-.21-.43-.33-.65s-.27-.45-.42-.67Zm20.19,13.22a12,12,0,0,1-3.6,6.26,26.26,26.26,0,0,1-9.37,5.22c-7.67,2.72-17.65,4.21-26.92,6.72S186.68,329,181.83,336.2s-5.65,17.73.29,33.7a1,1,0,0,0,.29.42c.15-.11.31-.21.45-.32.38-.26.74-.53,1.09-.8-5.81-15.64-4.9-25.4-.49-31.91s12.54-10,21.66-12.43,19.1-3.94,27.06-6.77a28.12,28.12,0,0,0,10.06-5.64,14.23,14.23,0,0,0,4.07-6.87l-1.25-.56-.57-.26Zm20.71,8.68c-5.46,8.63-13.41,12.23-22.52,13.8-9.27,1.59-19.64.94-29.09,1.12s-18.16,1.13-23.9,6.59-7.9,15.09-5,31.44a1.46,1.46,0,0,0,1.19,1.19,20,20,0,0,0,1.7-1.77c-2.79-15.86-.58-24.2,4.17-28.73s12.64-5.61,21.91-5.78,19.78.52,29.54-1.16S262,324.29,268,314.53l-.31-.12-2.48-1Zm0,0"/><path class="cls-2" d="M108,246.69l-.26,0c-.39.72-.74,1.43-1.07,2.12a1.46,1.46,0,0,0,.29.41c9.54,9.27,13.69,22.95,15.38,37.65,1.39,12,1.13,24.32,1,35.61-9.19-21.8-25-36.66-41.6-42.1a1.44,1.44,0,0,0-1,0c-.15.6-.31,1.21-.5,1.82l-.15.47a1.47,1.47,0,0,0,.69.49c17.33,5.66,34.25,22.4,42.51,47.41a1.47,1.47,0,0,0,2.87-.46c.07-12.84.85-28.57-.88-43.6s-6-29.44-16.25-39.43a1.5,1.5,0,0,0-1-.43Zm-6.93,12.54-.07.08a8.64,8.64,0,0,1-1.12,1c-.16.12-.33.22-.49.33a1.48,1.48,0,0,0,.44,1.12c9.53,9.5,13.16,20.07,15.19,32.31-8.36-14.42-21.67-23.27-32.57-25a1.64,1.64,0,0,0-.38,0c-.09.91-.16,1.89-.23,2.9l.15,0c11.53,1.83,27.41,13.14,34.44,31.71a1.47,1.47,0,0,0,2.84-.68c-1.85-16.54-4.86-30.88-17.36-43.34a1.41,1.41,0,0,0-.84-.42ZM73.25,296.75c-1.37,0-2.78,0-4.22.14l-.12.1c-.87.72-1.78,1.44-2.72,2.16a1.48,1.48,0,0,0,1.46.8c12.4-1.21,21.55,1.84,28.81,7.44s12.62,13.83,17,23c8.75,18.38,13.33,40.39,22.62,52.17a1.12,1.12,0,0,0,.18.2c.39.08.84.19,1.32.32a1.47,1.47,0,0,0,.81-2.34c-8.44-10.71-13.31-32.79-22.27-51.62-4.48-9.41-10-18.07-17.86-24.09a39.59,39.59,0,0,0-21.66-8.17c-1.09-.08-2.2-.13-3.34-.14Zm-12,8.08c-1,0-2.05,0-3.1.08l-3,2-.84.53a1.48,1.48,0,0,0,1.34.61c12.42-1.21,22,1.57,29.85,6.77s14,12.87,19.09,21.48C114.82,353.52,121,374.35,130.17,386l.16.18.4-.47c.63-.77,1.08-1.4,1.48-1.89-8.38-10.92-14.71-31.58-25.12-49.05-5.27-8.84-11.62-16.89-20-22.43a45.15,45.15,0,0,0-22.49-7.43c-1.1-.07-2.22-.11-3.37-.11Zm-11,6.86c-.93,0-1.89,0-2.85.08l-4.19,2.53a1.49,1.49,0,0,0,1.41.62c24.85-2.43,40.28,10.5,52.06,27.12s19.49,36.81,28.62,48.4a2,2,0,0,0,.29.29c.44-.33.87-.67,1.28-1l.92-.82a2.46,2.46,0,0,0-.17-.27C119,377.72,111.12,357.38,99,340.34,88.48,325.43,74.38,313,53.61,311.78c-1.11-.06-2.25-.09-3.4-.09Zm-9.56,5.63c-.88,0-1.78,0-2.69.08l-3,1.78-1.31.8a1.48,1.48,0,0,0,1.32.59c24.87-2.44,41.45,10.06,54.33,26.2S111,382.5,120.05,394.05l.54-.26c.7-.34,1.39-.71,2.06-1.11a1.68,1.68,0,0,0-.23-.38c-8.64-11-17.6-30.83-30.79-47.36-11.54-14.47-26.57-26.47-47.55-27.54-1.13-.06-2.27-.09-3.43-.07ZM28.57,329.05q-2.88,0-5.87.26l-2.24,2.56a1.45,1.45,0,0,0,1.29.47c25-2.44,43.34,7.81,57.9,21.58s25,30.86,33.94,42.24c.57-.11,1.14-.24,1.7-.39.36-.09.72-.19,1.07-.3a1.45,1.45,0,0,0-.32-1c-8.76-11.12-19.43-28.61-34.37-42.73-13.07-12.36-29.54-22.15-50.8-22.71-.76,0-1.53,0-2.3,0Zm-11,15.54H15.4c-2.08,0-4.19.12-6.34.27v2.95c47.66-3.48,75.35,25.53,92.73,47.4l.83.32c.57.2,1.15.37,1.74.52q.36.09.72.15a1.46,1.46,0,0,0-.09-1.7c-16.43-20.85-43-49.57-87.46-49.92Zm11.3,19c-1.2,0-2.4,0-3.61.06a101.12,101.12,0,0,0-16.16,1.87v3C39.58,362.34,69.72,371,85.6,390.4c1.08.09,2.14.21,3.17.36a1.47,1.47,0,0,0-.22-1.4c-13-16.52-35.32-25.71-59.72-25.77Zm5.61,12.75A79.27,79.27,0,0,0,9.06,381v3.09c22.12-7.91,40.55-6.7,62.38,6.2.93-.06,1.88-.12,2.84-.15l.59,0a1.49,1.49,0,0,0-.71-1.63c-13.45-8.16-25.87-12-38.54-12.18ZM36.08,386A47.46,47.46,0,0,0,24.2,387.5a67.79,67.79,0,0,0-15.14,6.16V397a67.1,67.1,0,0,1,15.88-6.68c9.42-2.44,19.37-2,32.2,2.73,1.06-.34,2-.63,2.78-.87a1.48,1.48,0,0,0-1-1.6,67.79,67.79,0,0,0-18.66-4.49c-1.43-.11-2.83-.17-4.21-.16Zm0,0"/><path class="cls-2" d="M939.38,233.65h-.54a21.62,21.62,0,0,0-4.19.63c-5.45,1.28-10.57,3.76-15,3.76a51.58,51.58,0,0,0-19.5,4.18c-6.46,2.8-12.29,7.14-13.6,13.67-.85,4.25-4.82,8.7-10,12.21a49.39,49.39,0,0,1-15.68,7,64.43,64.43,0,0,0-16.69,6.61c-5.38,3-10.06,6.35-11.57,10.88.18-.56-.57.66-2.18,1.76a68.27,68.27,0,0,1-6.73,3.84c-5.59,2.86-13,6.15-20.66,9.31s-15.49,6.19-21.94,8.56-11.64,4.1-13.44,4.55c-4.56,1.14-13.39,4.27-21.95,6.35a63.69,63.69,0,0,1-11.78,1.92c-3.32.12-5.56-.55-6.28-1.27-1.76-1.76-3.32-2.9-5.17-3.27a6,6,0,0,0-4.9,1.41c-2.38,2-3.75,4.79-6.1,7.15a70.41,70.41,0,0,1-13,9.66,35.74,35.74,0,0,1-7.68,3.4,8.51,8.51,0,0,1-5.22.17,59.47,59.47,0,0,0-17.17-3.89c-6.62-.55-13.37-.23-18,3.09a49.79,49.79,0,0,1-9.78,4.71v5.29c5.25-1.9,9.76-3.95,12.63-6s8.7-2.71,14.78-2.2a56.9,56.9,0,0,1,15.64,3.51c2.64,1.14,5.56.86,8.47.05a39.56,39.56,0,0,0,8.8-3.88,72.36,72.36,0,0,0,14-10.44c2.94-2.94,4.75-6,5.8-6.87.53-.45.47-.41.77-.35a7.09,7.09,0,0,1,2.66,1.93c2.46,2.45,6,2.84,9.93,2.7a68,68,0,0,0,12.76-2.05c8.9-2.16,18.07-5.38,22-6.36,2.43-.61,7.43-2.31,13.94-4.7s14.41-5.45,22.12-8.64,15.23-6.51,21-9.47a69.77,69.77,0,0,0,7.26-4.16c1.9-1.29,3.36-2.12,4.07-4.26.61-1.82,4.39-5.38,9.33-8.16a60.89,60.89,0,0,1,15.34-6.09,53.15,53.15,0,0,0,17.39-7.78c5.71-3.9,10.74-9,12-15.3.81-4.06,5-7.65,10.75-10.14A47.93,47.93,0,0,1,919.6,243c6.11,0,11.57-2.81,16.18-3.9a12.24,12.24,0,0,1,6.09-.2c1.79.48,3.51,1.58,5.38,4.15,4,5.45,5.42,10.71,7.94,15a12.55,12.55,0,0,0,5.36,5.26c2.44,1.14,5.44,1.39,9.17.81,3-.47,4.06,0,4.62.58s1,2,1.3,4.4c.5,4.71.17,12.17,4.29,19.23,4.22,7.24,13.92,14.25,23.81,20.66s20,12,24.58,15.07c4.31,2.87,7.09,6.88,11.21,11.27a44.23,44.23,0,0,0,11.6,9v-5.65a39.9,39.9,0,0,1-8-6.74c-3.82-4.08-6.85-8.53-12.07-12-5-3.32-14.94-8.8-24.63-15.09s-19.06-13.56-22.24-19c-3.29-5.64-3.09-11.93-3.65-17.27-.28-2.68-.71-5.31-2.67-7.31s-5.05-2.59-8.88-2c-3.14.49-5,.2-6.34-.4a7.43,7.43,0,0,1-3.2-3.31c-2-3.37-3.71-9.22-8.21-15.41a15,15,0,0,0-8.05-6,13.77,13.77,0,0,0-3.79-.47Zm0,0"/><path class="cls-2" d="M939.39,236.1l-.46,0-.39,0c-16.31,30.8-10.9,70.68-12.21,111.65-.74,23.16-3.51,46.69-13.33,69.37.63.12,1.24.22,1.82.31l1.22.15c9.66-22.94,12.5-46.67,13.23-69.69,1.34-41.9-3.88-81.39,12.27-110.8a2.25,2.25,0,0,0,.25-.77,7.72,7.72,0,0,0-1-.19,10.19,10.19,0,0,0-1.35-.08Zm-17.84,5.29a14.21,14.21,0,0,1-1.95.14l-1.29,0c-12.26,29.77-4,65.09-2.48,102,1,23.38-.52,47.41-11.22,71.46,1,.3,1.94.58,2.87.83,10.66-24.49,12.28-49.05,11.29-72.48-1.61-37.93-9.62-72.9,2.6-101.24a2.07,2.07,0,0,0,.18-.78Zm-20.68,1.78s-1,3.14-1,3.14c-.6.05-.21-2.63-.41-1.94-8.84,29.05.71,64.67,5.43,97.06,3.25,22.32,3.52,45.68-7.84,70.92.93.38,1.85.74,2.78,1.08,11.38-25.86,11.25-50.09,8-72.64-4.81-33-13.88-67.86-5.57-95.15.37-1.16.84-3-.17-3Zm-23,27.81-.91.79c-.8.67-1.63,1.32-2.46,1.93-1.49,12.69,2,30.17,5.75,40.74,4.09,11.46,9.68,22.26,13.61,33.74s6.25,23.56,3.94,37.86a90,90,0,0,1-7.37,23.36l1.43.7,1.34.61a93.87,93.87,0,0,0,7.49-24c2.44-15.15,0-28.12-4.11-40s-9.67-22.68-13.63-33.79-7.32-28.66-5.11-41.78a1.66,1.66,0,0,0,0-.22Zm-22,7.87a1.11,1.11,0,0,0-1,1.19c-.29,13.42,4.63,34.25,10.37,43.1s12.87,16.46,18.35,24.95,9.3,17.75,8.69,30.13c-.39,7.88-2.61,17.08-7.47,28.12.58.35,1.18.7,1.78,1,4.93-11.23,7.24-20.72,7.65-29,.64-13.07-3.48-23-9.11-31.77s-12.76-16.35-18.35-25-10.23-28.78-9.94-41.52a1.14,1.14,0,0,0-1-1.26Zm-22.74,16.89c-.15.28-.3.56-.42.84s-.23.53-.33.79c2,11.89,10.69,28.21,17.76,34.19,7.36,6.22,16,10.64,23.08,16.16s12.47,12,13.56,22.55c.84,8.1-.91,18.66-6.62,33l.38.29.46.33c5.81-14.49,7.63-25.29,6.75-33.75-1.14-10.94-6.85-17.81-14-23.41s-15.8-10-23.05-16.14-15.86-22.48-17.56-34.82Zm-23.2,13.45-.57.32-1.25.68c.7,3.38,7.94,17.65,9.89,19.93A27.1,27.1,0,0,0,828,337.07c8,3.48,18,5.29,27.06,8.34s17.25,7.3,21.66,15.32,5.32,20-.49,39.28c.35.34.71.67,1.08,1l.46.39a1.32,1.32,0,0,0,.29-.52c5.94-19.67,5.14-32.69.29-41.51s-13.5-13.2-22.77-16.3-19.25-4.92-26.92-8.28a25.47,25.47,0,0,1-9.37-6.42c-1.8-2.11-8.86-16.06-9.42-19.18Zm-24.56,8.15-2.49,1.21-.3.14c6,12,24.73,31.16,34.48,33.22s20.26,1.22,29.54,1.43,17.16,1.54,21.91,7.12,7,15.85,4.17,35.39a23.84,23.84,0,0,0,1.7,2.18,1.67,1.67,0,0,0,1.19-1.47c2.88-20.13.71-32-5-38.72s-14.43-7.9-23.89-8.12-19.82.59-29.09-1.38c-9.11-1.93-26.73-20.37-32.19-31Zm0,0"/><path class="cls-2" d="M952.17,249.15a1.31,1.31,0,0,0-1,.53c-10.26,12.29-14.51,30-16.25,48.55s-.95,37.89-.89,53.7c0,2.05,2.35,2.51,2.87.56,8.27-30.8,28.19-54.41,45.51-61.39a1.49,1.49,0,0,0,.7-.6l-.15-.57c-.19-.75-.35-1.5-.5-2.25a1.19,1.19,0,0,0-1,0c-16.62,6.69-35.41,28-44.6,54.84-.18-13.9-.44-29.06,1-43.86,1.69-18.09,5.84-34.94,15.37-46.36a1.71,1.71,0,0,0,.3-.5c-.33-.85-.69-1.72-1.07-2.61a1.1,1.1,0,0,0-.26,0Zm8.93,11.43a1.4,1.4,0,0,0-.84.52c-12.5,15.35-17.51,37-19.36,57.37-.2,2.12,2.23,2.84,2.84.85,7-22.88,22.91-36.8,34.44-39.05l.15,0c-.07-1.24-.14-2.44-.23-3.56a1.23,1.23,0,0,0-.38,0c-10.9,2.12-24.21,13-32.57,30.78,2-15.07,7.66-32.1,17.19-43.8a2,2,0,0,0,.44-1.38c-.16-.12-.33-.26-.49-.4a9.28,9.28,0,0,1-1.12-1.21l-.07-.1Zm42.39,47.78c-1.14,0-2.25.07-3.33.17-8.69.83-32.37,6.93-38.22,12.49-7.81,7.42-13.38,18.08-17.86,29.68-9,23.19-13.83,50.37-22.27,63.57a2,2,0,0,0,.81,2.88c.48-.16.93-.3,1.32-.4a1.08,1.08,0,0,0,.18-.24c9.29-14.51,13.87-41.62,22.62-64.26,4.37-11.32,9.73-21.46,17-28.35s33-13.1,45.36-11.6a1.45,1.45,0,0,0,1.46-1c-.94-.89-1.85-1.78-2.72-2.67l-.12-.12c-1.44-.12-2.85-.18-4.22-.16Zm14.32,8c-1.14,0-2.26.05-3.36.13-8.8.69-35.08,8.38-41.36,13.51-8.37,6.83-14.72,16.74-20,27.62-10.41,21.52-16.74,47-25.12,60.41.4.6.85,1.37,1.48,2.33l.39.58a1.19,1.19,0,0,0,.16-.23c9.21-14.38,15.36-40,25.62-61.24,5.13-10.6,11.24-20.05,19.09-26.45s36.29-14.19,48.71-12.69a1.39,1.39,0,0,0,1.34-.75l-.83-.66c-1-.81-2-1.63-3-2.46-1-.07-2.09-.1-3.11-.1Zm9.91,7.63c-1.15,0-2.29,0-3.4.11-20.77,1.45-52.61,22-63.17,40.35-12.08,21-19.95,46-28.54,59.46a2.55,2.55,0,0,0-.17.33c.29.32.59.66.92,1s.84.86,1.27,1.27a1.79,1.79,0,0,0,.3-.36c9.13-14.28,16.84-39.14,28.62-59.6s45-41.58,69.8-38.59a1.37,1.37,0,0,0,1.41-.76c-1.36-1-2.76-2-4.19-3.12q-1.46-.09-2.85-.09Zm10.56,10.26q-1.74,0-3.42.09c-21,1.32-54.76,17.95-66.3,35.77-13.19,20.36-22.15,44.83-30.79,58.33a1.87,1.87,0,0,0-.23.47c.67.48,1.36.94,2.06,1.36l.54.32c9.07-14.22,17.88-38.39,30.72-58.22s48.21-37.12,73.07-34.13a1.38,1.38,0,0,0,1.33-.72l-1.31-1-3-2.2c-.9-.05-1.8-.08-2.69-.09Zm4.28,5.55c-.77,0-1.54,0-2.3,0-21.26.69-48.67,23.49-61.74,38.71-14.94,17.39-25.61,38.93-34.37,52.62a2.07,2.07,0,0,0-.32,1.18c.35.13.71.26,1.07.37a17.21,17.21,0,0,0,1.7.48c8.93-14,19.45-35.15,33.94-52s43.9-40.31,68.85-37.31a1.32,1.32,0,0,0,1.28-.58c-.76-1.06-1.5-2.12-2.24-3.16q-3-.3-5.87-.32Zm.1,29.88c-44.47.43-71,35.81-87.47,61.48a2.18,2.18,0,0,0-.08,2.1l.72-.19a15.86,15.86,0,0,0,1.74-.65c.28-.12.55-.25.82-.39,17.39-26.94,45.08-62.65,92.74-58.37v-3.64c-2.15-.18-4.26-.3-6.34-.33Zm-11.31,23.4c-24.39.07-46.69,11.39-59.71,31.74a2.14,2.14,0,0,0-.22,1.72c1-.18,2.09-.33,3.17-.44,15.88-23.87,46-34.56,76.54-26.94v-3.7a82.7,82.7,0,0,0-16.16-2.3c-1.21-.06-2.41-.08-3.62-.08Zm-5.6,15.71h-1.18c-12.67.18-25.1,4.94-38.54,15a2,2,0,0,0-.71,2l.59,0c1,.05,1.91.11,2.84.19,21.83-15.88,40.26-17.38,62.38-7.64v-3.8c-8.8-3.72-17.15-5.71-25.38-5.78Zm-1.65,11.84a40.12,40.12,0,0,0-4.2.2,57.05,57.05,0,0,0-18.66,5.53,1.88,1.88,0,0,0-1,2c.8.3,1.71.65,2.78,1.08,12.83-5.87,22.78-6.36,32.2-3.36a61.18,61.18,0,0,1,15.88,8.22v-4.14a61.18,61.18,0,0,0-15.14-7.59,39.35,39.35,0,0,0-11.89-1.9Zm0,0"/><path class="cls-3" d="M300.89,182.18s-16.28-2.46-22.21-1.48-10.86,5.93-20.74,5.93-31.59,36.53-44.43,41.47-11.85,2-12.84,8.89-4.93,6.91-7.9,10.86,3,17.77-4,21.72-6.42,13.34-6.42,13.34"/><path class="cls-4" d="M302.5,223.29s-9.5,7.28-21.35,8.27-32.59,2-39.5,9.87-18.09,13.29-21.72,15.8c-35.06,24.19-69.62,50.86-69.62,50.86"/><rect class="cls-5" x="53.52" y="0.05" width="854.87" height="306.11"/></svg>