<svg width="360" height="157" viewBox="0 0 360 157" fill="none" xmlns="http://www.w3.org/2000/svg">
<path d="M430.862 65.2254C426.333 60.6946 423.168 56.0166 420.51 52.3213C419.18 50.4737 417.98 48.8673 416.739 47.6257C415.498 46.3841 414.157 45.4485 412.551 45.272C411.234 45.1249 410.24 45.2838 409.575 45.4485C409.169 45.5545 409.058 45.5839 409.046 45.6074C408.981 45.525 408.916 45.4427 408.781 45.2073C408.399 44.5483 407.816 43.3243 406.917 41.3943C405.14 37.5872 403.47 33.3506 401.958 30.126C401.199 28.5137 400.499 27.1662 399.746 26.1659C399.37 25.6658 398.988 25.2362 398.446 24.9185C397.905 24.6007 397.029 24.4654 396.352 24.8008C395.723 25.1185 394.782 25.1656 393.647 24.842C392.512 24.5183 391.229 23.8299 390.059 22.8943C389.041 22.0823 387.441 20.011 385.765 18.2046C384.924 17.2984 384.053 16.4452 383.083 15.8038C382.112 15.1624 380.977 14.6917 379.736 14.8976C377.942 15.1977 376.989 15.6743 376.289 15.4978C375.589 15.3213 374.36 14.4151 372.36 10.9199C370.272 7.26578 368.69 4.99447 367.19 3.49399C365.69 1.99351 364.184 1.29917 362.708 1.00496C361.837 0.82843 360.931 0.375344 359.714 0.351807C359.431 0.351807 359.137 0.363575 358.82 0.416534C357.137 0.681324 355.396 1.80521 352.738 4.459C349.908 7.28343 348.203 11.1906 346.832 14.8505C345.462 18.5105 344.379 21.994 343.28 23.7534C342.144 25.5716 340.55 26.825 338.956 27.5605C337.368 28.296 335.774 28.4725 334.892 28.296C333.968 28.1136 332.986 28.2901 332.233 28.7785C331.486 29.2669 330.969 29.973 330.533 30.7733C329.657 32.3738 329.051 34.4744 328.292 36.9811C327.533 39.476 326.91 40.3646 326.086 40.8883C325.257 41.4178 323.828 41.6826 321.469 42.2063C316.27 43.3596 313.934 47.4139 311.464 50.3795C310.97 50.9738 309.411 52.4567 307.37 54.1925C305.905 55.4341 280.184 67.4497 264.808 74.8461C264.773 74.7991 264.738 74.7579 264.702 74.7167C260.726 69.7504 254.879 62.7894 248.997 56.5344C243.115 50.2795 237.41 44.766 232.769 42.4476C228.499 40.3116 223.852 39.2407 219.417 39.2701C214.982 39.2995 210.765 40.4352 207.359 42.7065C201.63 46.5254 193.154 50.9326 186.972 63.2954C185.843 65.5608 182.913 68.1911 178.937 70.5389C174.961 72.8867 170.003 74.9991 165.003 76.6879C160.003 78.3767 154.951 79.6418 150.798 80.3597C146.639 81.0775 143.151 81.0775 142.346 80.8422C140.563 80.3361 139.352 80.0184 138.081 80.0184C136.811 80.0184 135.44 80.6656 134.681 81.4247C133.158 82.9487 132.623 84.4492 129.388 87.2207C128.188 88.2504 126.852 89.1801 125.429 89.9745C123.182 89.4802 119.4 88.4093 115.894 87.2148C113.753 86.4851 111.695 85.7025 110.106 84.9847C109.312 84.6257 108.636 84.2786 108.148 83.9844C107.66 83.6901 107.36 83.3959 107.365 83.4077C105.901 81.3894 105.689 79.73 105.936 78.8474C106.095 78.2943 105.989 78.0413 105.924 77.7588C105.86 77.4764 105.766 77.194 105.648 76.8821C105.413 76.2584 105.072 75.5111 104.654 74.6579C103.819 72.9514 102.66 70.8213 101.431 68.6383C98.966 64.2781 96.2368 59.7708 95.1545 58.1526C94.2252 56.758 92.79 54.0101 91.5606 51.3445C90.3313 48.679 89.2608 45.9664 89.0255 44.9248C88.3961 42.1946 87.5786 39.6055 86.1434 37.6931C85.5846 36.9458 84.8316 36.4751 83.8847 35.922C82.9377 35.3747 81.8201 34.8275 80.6613 34.3509C79.5026 33.8743 78.3145 33.4565 77.2263 33.1799C76.1381 32.9034 75.197 32.7151 74.2265 32.8916C74.05 32.9269 73.8559 32.8916 73.5324 32.6974C73.203 32.4973 72.803 32.1266 72.4207 31.6559C71.6561 30.7144 70.9679 29.4081 70.5914 28.5667C70.0032 27.2486 68.8327 26.4778 67.7092 26.1424C67.0034 25.9364 66.3035 25.8658 65.6447 25.8658C65.2506 25.8658 64.8683 25.9011 64.5153 25.9423C63.3919 26.0835 62.4037 26.7014 61.7979 27.5193C61.192 28.3431 60.8685 29.2846 60.545 30.3496C60.5332 30.379 60.145 31.0322 59.5039 31.6794C58.8628 32.3267 57.9981 33.0622 57.0923 33.7448C56.1865 34.4274 55.2395 35.0688 54.4336 35.5454C53.6278 36.022 52.8749 36.3339 52.769 36.3574C51.7397 36.5869 51.1397 37.2224 50.5045 37.952C49.8692 38.6817 49.2634 39.5702 48.6987 40.5293C47.5694 42.4417 46.6224 44.5424 46.2518 46.137C46.1577 46.5548 45.7342 47.6316 45.146 48.879C44.5578 50.1265 43.8167 51.5917 43.052 53.0686C41.5286 56.0166 39.9758 58.8763 39.3699 60.4474C39.2287 60.8123 38.6758 61.6714 37.9171 62.6128C37.1583 63.5543 36.1995 64.6194 35.2231 65.6844C34.2467 66.7495 33.2527 67.8086 32.4174 68.7677C31.5763 69.721 30.8999 70.5154 30.4705 71.3038C29.6705 72.7631 29.6411 74.4637 29.7058 76.0583C28.6294 76.4643 27.706 77.2528 26.906 78.259C25.8884 79.53 24.6473 80.9187 23.5768 81.4306C23.0416 81.6836 22.6063 81.7542 22.1122 81.6366C21.6181 81.5189 20.977 81.1658 20.2065 80.2773C18.3419 78.1472 16.9537 76.9233 15.395 76.4643C13.8304 76.0053 12.3481 76.6467 11.1894 77.5117C10.56 77.9824 9.30717 78.2766 7.28965 78.2766C6.0662 78.2766 -5.83301 78.0942 -7.55054 77.9648L-22.7143 83.0193L-28.4021 86.8147L-45.4598 107.039L-53.6711 110.834L-62.5175 121.579L-61.8882 132.323C-62.8528 132.753 -67.4878 138.284 -68.2054 138.643C-68.2819 138.678 -68.1289 144.298 -68.2054 144.333L-76.4166 150.023C-76.2284 149.935 -90.5687 163.957 -89.0511 163.298L-57.4591 167.723C-60.153 169.812 -26.8611 169.841 -29.0256 172.148C-30.4373 173.654 -6.76236 161.421 -8.9034 162.768V181.863V189.865V209.365C-8.62695 209.236 -8.30344 209.101 -8.04463 208.971C-7.02705 208.465 -5.83301 207.912 -4.50957 207.335C-3.18613 206.759 -1.73328 206.153 -0.203972 205.541C1.32534 204.929 2.93112 204.305 4.56042 203.681C6.18974 203.063 7.84844 202.452 9.47775 201.857C12.7364 200.674 15.8891 199.568 18.5242 198.68C20.1065 198.144 21.5005 197.691 22.6181 197.338C22.6769 197.32 22.7357 197.303 22.7886 197.285C22.8063 197.285 22.8181 197.273 22.8357 197.268C23.118 197.179 23.3827 197.097 23.6298 197.02C23.9415 196.926 24.218 196.844 24.4532 196.773C25.0473 196.603 25.7885 196.444 26.6413 196.303C27.4942 196.161 28.4589 196.038 29.5 195.938C30.5411 195.838 31.6645 195.761 32.8233 195.714C33.9409 195.667 35.0937 195.655 36.2583 195.673V200.892V202.387C36.7171 202.175 37.1642 201.957 37.5877 201.745C39.9875 200.545 43.7049 199.021 47.6635 197.515C47.6811 197.521 47.7047 197.532 47.7223 197.538C48.1282 197.721 48.4987 197.915 48.8399 198.127C49.181 198.338 49.5222 198.527 49.881 198.697C50.2339 198.868 50.5927 199.015 50.9574 199.145C51.3221 199.274 51.6926 199.386 52.0691 199.48C52.4455 199.574 52.8279 199.645 53.2102 199.704C53.5925 199.757 53.9807 199.798 54.3689 199.815C54.7571 199.839 55.1512 199.839 55.5395 199.827C55.9335 199.815 56.3218 199.786 56.7159 199.745C57.1099 199.698 57.504 199.639 57.8922 199.568C58.2863 199.492 58.6745 199.403 59.0628 199.303C59.1686 199.274 59.2686 199.245 59.3745 199.215C59.3863 199.215 59.398 199.209 59.4157 199.203C59.6862 199.127 59.9509 199.045 60.2156 198.956C60.9803 198.697 61.7273 198.391 62.4508 198.032C63.1743 197.679 63.8742 197.279 64.5448 196.838C65.2153 196.403 65.8506 195.926 66.4388 195.414C67.0328 194.908 67.5152 194.443 67.9269 194.019C68.3327 193.596 68.6621 193.213 68.9386 192.878C69.4915 192.201 69.8268 191.695 70.1679 191.354C70.3385 191.183 70.5091 191.06 70.7032 190.971C70.8973 190.889 71.1208 190.842 71.3972 190.842C71.6737 190.842 72.0031 190.883 72.409 190.971C72.4325 190.971 72.456 190.983 72.4736 190.983C72.7207 191.036 73.0089 191.107 73.3148 191.189C73.4971 191.236 73.6853 191.289 73.8912 191.348C74.1853 191.43 74.5559 191.489 74.9911 191.519C75.4264 191.542 75.9264 191.542 76.4793 191.519C77.0322 191.489 77.6439 191.436 78.3027 191.36C78.485 191.336 78.6732 191.313 78.8615 191.289C78.8791 191.289 78.8968 191.289 78.9085 191.283C79.3732 191.219 79.8555 191.148 80.3555 191.06C82.2142 191.383 83.7847 191.854 84.7434 192.448C90.0313 195.755 96.925 193.79 101.325 190.024C103.472 188.182 104.313 186.752 104.572 186.493C104.595 186.47 104.601 186.458 104.607 186.446C104.619 186.446 104.636 186.452 104.672 186.452C104.866 186.452 105.454 186.552 106.43 186.835C107.977 187.276 109.971 187.064 112.571 186.617C115.165 186.17 118.229 185.399 121.288 184.363C124.347 183.334 127.394 182.045 129.952 180.533C132.511 179.021 134.623 177.32 135.687 175.184C138.993 168.57 143.145 166.54 146.716 164.157C147.798 163.433 149.169 162.962 150.674 162.757H153.998C162.691 175.767 159.868 193.196 160.597 211.684C160.862 218.457 161.638 225.365 163.668 232.226H165.303H171.873H173.549H179.784H193.795H195.613H200.406H201.653H206.594H207.988H224.652H225.94H260.014V231.414V227.754V227.001V226.924V222.028V221.828V221.411V221.21V219.734V218.127V215.014V213.873V213.402V212.472V211.095V168.823C259.479 168.623 258.914 168.423 258.414 168.223C257.462 167.829 256.585 167.434 255.82 167.052C255.438 166.858 255.085 166.67 254.768 166.481C254.444 166.293 254.156 166.111 253.909 165.928C253.656 165.746 253.379 165.587 253.085 165.44C252.791 165.293 252.474 165.169 252.144 165.051C251.815 164.94 251.462 164.84 251.103 164.757C250.738 164.675 250.362 164.61 249.98 164.551C249.591 164.498 249.191 164.457 248.786 164.428C248.38 164.398 247.962 164.386 247.539 164.381C246.698 164.369 245.827 164.41 244.962 164.481C244.098 164.551 243.233 164.663 242.386 164.798C241.98 164.863 241.58 164.934 241.186 165.01C239.492 164.863 237.71 164.916 235.939 165.063C234.087 165.216 232.257 165.499 230.563 165.863C230.399 165.799 230.24 165.728 230.075 165.652C229.322 165.316 228.552 164.916 227.799 164.486C227.393 164.257 226.993 164.016 226.599 163.769V162.757H238.839H241.627H252.85H255.709H266.361H269.296H279.384H281.389H290.295H293.4H301.588H303.723H312.164H314.546H324.816H327.733H343.009H345.215H383.106C383.106 162.757 383.13 162.757 383.136 162.757H403.411V162.368V155.125V141.438V138.696V131.564C403.705 131.929 403.999 132.3 404.281 132.682C404.97 133.594 405.634 134.548 406.281 135.524C406.928 136.495 407.564 137.49 408.175 138.472C408.787 139.455 409.381 140.432 409.957 141.367C410.534 142.303 411.093 143.209 411.634 144.045C412.175 144.886 412.698 145.657 413.204 146.345C413.457 146.687 413.704 147.004 413.951 147.305C414.193 147.599 414.434 147.869 414.669 148.105C414.904 148.346 415.134 148.552 415.357 148.729C415.581 148.905 415.804 149.052 416.022 149.158C416.457 149.376 416.922 149.646 417.422 149.947C417.922 150.247 418.445 150.582 418.998 150.923C419.545 151.265 420.122 151.618 420.71 151.953C421.298 152.294 421.904 152.618 422.515 152.906C422.821 153.048 423.133 153.183 423.439 153.306C423.751 153.43 424.062 153.542 424.374 153.636C424.686 153.736 424.998 153.812 425.309 153.877C425.621 153.942 425.933 153.989 426.245 154.018C426.556 154.048 426.868 154.054 427.174 154.036C427.48 154.018 427.786 153.977 428.092 153.913C428.392 153.848 428.697 153.754 428.992 153.636C429.292 153.518 429.58 153.365 429.868 153.189C430.444 152.83 430.968 152.541 431.456 152.318C431.703 152.206 431.938 152.112 432.168 152.03C432.397 151.947 432.627 151.888 432.85 151.835C433.074 151.788 433.291 151.753 433.515 151.729C433.732 151.706 433.956 151.7 434.179 151.706C434.626 151.718 435.079 151.782 435.568 151.888C435.691 151.918 435.844 151.971 435.973 152.006V69.7092C434.203 68.3558 432.485 66.873 430.833 65.2195L430.862 65.2254Z" fill="#AC9FFF"/>
<path d="M65.6682 25.8663C65.2741 25.8663 64.8918 25.9016 64.5389 25.9428C63.4154 26.084 62.4273 26.7018 61.8214 27.5197C61.2156 28.3435 60.8921 29.285 60.5686 30.35C60.5568 30.3795 60.1686 31.0326 59.5275 31.6799C58.8863 32.3271 58.0217 33.0627 57.1158 33.7452C56.21 34.4278 55.263 35.0692 54.4572 35.5458C53.6513 36.0224 52.8985 36.3343 52.7926 36.3578C51.7632 36.5873 51.1633 37.2228 50.528 37.9525C49.8928 38.6821 49.2869 39.5706 48.7223 40.5298C47.5929 42.4421 46.6459 44.5428 46.2754 46.1374C46.1813 46.5552 45.7578 47.632 45.1696 48.8795C44.5814 50.1269 43.8402 51.5921 43.0756 53.0691C41.5522 56.0171 39.9993 58.8768 39.3935 60.4479C39.2523 60.8127 38.6994 61.6718 37.9406 62.6133C37.1818 63.5548 36.2231 64.6198 35.2467 65.6848C34.2703 66.7499 33.2762 67.809 32.441 68.7682C31.5998 69.7214 30.9234 70.5158 30.494 71.3043C29.6176 72.9048 29.6647 74.7936 29.747 76.5177C29.8294 78.2477 29.9823 79.96 29.9352 80.3425C29.9529 80.2189 29.7117 80.9191 29.2588 81.6193C28.8059 82.3196 28.1707 83.1551 27.4942 83.9436C26.8178 84.7321 26.0884 85.4735 25.465 85.9972C24.8415 86.5209 24.218 86.7445 24.3827 86.7268C23.2828 86.8504 22.0887 87.1858 21.0594 87.9037C20.0359 88.6216 19.1713 89.9279 19.3242 91.4519C19.2889 91.1106 19.3124 91.4342 19.1007 91.8402C18.8889 92.2463 18.5301 92.8053 18.0772 93.4408C17.1714 94.7117 15.8773 96.2887 14.4951 97.8598C13.1128 99.4309 11.6364 101.002 10.3542 102.279C9.07191 103.562 7.92492 104.574 7.44848 104.909C6.58972 105.503 4.81924 106.533 2.86642 107.592V110.629C5.31921 109.34 7.68964 107.998 8.97191 107.11C9.81892 106.527 10.913 105.503 12.2482 104.174C13.5775 102.844 15.0892 101.243 16.5067 99.6251C17.9302 98.0069 19.2595 96.3887 20.2535 94.9942C20.7535 94.2999 21.1593 93.6644 21.4652 93.0818C21.7711 92.4993 22.0652 92.0344 21.9769 91.1871C21.924 90.6752 22.0828 90.4457 22.5887 90.0985C23.0945 89.7455 23.9356 89.4689 24.6709 89.3865C25.7473 89.2688 26.4002 88.7039 27.1825 88.0449C27.9648 87.3859 28.7647 86.5621 29.5176 85.6912C30.2646 84.8204 30.9587 83.9083 31.4998 83.0727C32.041 82.2372 32.4704 81.6135 32.5821 80.672C32.7351 79.4245 32.4821 77.977 32.4116 76.3883C32.3351 74.7995 32.488 73.2167 32.8351 72.5753C33.0174 72.2458 33.6409 71.4337 34.4408 70.5217C35.2408 69.6155 36.2231 68.5563 37.2113 67.4795C38.1994 66.4027 39.1876 65.3024 40.0169 64.2785C40.8463 63.2547 41.5168 62.3544 41.8874 61.3952C42.305 60.3125 43.9108 57.2586 45.446 54.2871C46.2107 52.8043 46.9694 51.3156 47.587 50.0093C48.1988 48.703 48.6693 47.6438 48.8811 46.7317C49.1222 45.6785 50.0104 43.5954 51.0221 41.8831C51.528 41.0299 52.0691 40.2473 52.5397 39.706C53.0102 39.1646 53.4808 38.9351 53.3749 38.9646C54.1807 38.788 54.9101 38.382 55.8277 37.8407C56.7394 37.2993 57.757 36.6109 58.7393 35.8694C59.7215 35.128 60.6686 34.3337 61.4391 33.5511C62.2096 32.7685 62.8449 32.0977 63.139 31.1091C63.4331 30.1382 63.7213 29.4498 63.9801 29.0967C64.2389 28.7436 64.3742 28.6495 64.88 28.5848C65.5682 28.4965 66.3799 28.5142 66.9858 28.6966C67.5916 28.8731 67.9504 29.1202 68.1798 29.6381C68.621 30.6325 69.3621 32.08 70.3797 33.3333C70.8855 33.9571 71.4678 34.5396 72.1796 34.975C72.8913 35.4105 73.7971 35.687 74.7441 35.5164C74.8912 35.487 75.6911 35.5282 76.6087 35.7635C77.5263 35.9989 78.6203 36.3755 79.6791 36.8109C80.7378 37.2522 81.773 37.7524 82.5789 38.2231C83.3847 38.6939 83.9906 39.2176 84.0376 39.2823C85.0493 40.6298 85.861 42.9364 86.4551 45.5137C86.8257 47.126 87.9021 49.715 89.1726 52.4571C90.4372 55.1991 91.8606 57.9588 92.9723 59.6241C93.9311 61.0657 96.7074 65.6378 99.1425 69.945C100.36 72.0986 101.495 74.2052 102.295 75.8234C102.695 76.6354 103.007 77.3297 103.189 77.8122C103.272 78.0358 103.33 78.2124 103.354 78.3124C102.889 80.2483 103.513 82.5843 105.248 84.9616C105.666 85.5382 106.177 85.8736 106.807 86.2561C107.436 86.6386 108.195 87.0152 109.048 87.4035C110.759 88.1802 112.883 88.9805 115.077 89.7278C119.465 91.2224 124.041 92.5052 126.323 92.8464C128.37 93.1524 130.393 93.4702 131.917 94.188C133.44 94.9059 134.493 95.8827 135.017 97.9657C135.634 100.437 136.205 102.438 136.964 104.074C137.722 105.703 138.734 107.016 140.163 107.792C142.604 109.128 142.634 108.304 145.204 112.064C145.963 113.171 147.063 113.465 148.469 113.859C149.874 114.253 151.645 114.571 153.692 114.871C157.786 115.46 162.985 115.942 168.262 116.501C173.538 117.06 178.902 117.69 183.243 118.566C187.584 119.443 190.907 120.749 191.848 121.785C194.595 124.81 197.171 129.076 199.489 132.836C200.648 134.719 201.742 136.466 202.8 137.908C203.859 139.344 204.83 140.491 206.094 141.121C207.612 141.88 209.988 143.651 212.612 144.887C215.235 146.122 218.423 146.864 221.246 145.098C223.411 143.745 224.258 143.598 225.946 143.975C226.164 144.022 235.475 145.351 235.722 145.422V142.656C235.681 142.645 226.564 141.374 226.528 141.362C224.323 140.874 222.282 141.297 219.829 142.833C218.041 143.951 216.029 143.539 213.753 142.468C211.476 141.397 209.235 139.703 207.288 138.732C206.824 138.496 205.912 137.625 204.953 136.325C203.994 135.019 202.924 133.312 201.771 131.441C199.471 127.699 196.854 123.315 193.83 119.99C191.889 117.854 188.284 116.86 183.772 115.948C179.261 115.042 173.844 114.406 168.544 113.847C163.244 113.288 158.056 112.806 154.074 112.229C152.086 111.941 150.398 111.629 149.186 111.294C147.981 110.958 147.31 110.423 147.404 110.564C144.675 106.574 143.475 106.568 141.434 105.45C140.622 105.009 139.999 104.274 139.381 102.95C138.763 101.626 138.211 99.7486 137.605 97.3243C136.905 94.5176 135.099 92.7346 133.052 91.7696C131.005 90.8046 128.746 90.5104 126.711 90.2044C124.917 89.9338 120.212 88.6628 115.93 87.2035C113.789 86.4738 111.73 85.6912 110.142 84.9733C109.348 84.6144 108.671 84.2672 108.183 83.973C107.695 83.6788 107.395 83.3846 107.401 83.3964C105.936 81.3781 105.724 79.7187 105.971 78.8361C106.13 78.283 106.024 78.03 105.96 77.7475C105.895 77.4651 105.801 77.1826 105.683 76.8708C105.448 76.247 105.107 75.4997 104.689 74.6465C103.854 72.9401 102.695 70.81 101.466 68.627C99.0013 64.2667 96.2721 59.7594 95.1898 58.1413C94.2605 56.7467 92.8253 53.9988 91.5959 51.3332C90.3666 48.6677 89.2961 45.955 89.0608 44.9135C88.4314 42.1832 87.6139 39.5942 86.1787 37.6818C85.6199 36.9345 84.867 36.4638 83.92 35.9106C82.973 35.3634 81.8554 34.8162 80.6967 34.3396C79.5379 33.8629 78.3498 33.4451 77.2616 33.1686C76.1734 32.892 75.2323 32.7037 74.2618 32.8803C74.0853 32.9156 73.8912 32.8803 73.5677 32.6861C73.2383 32.486 72.8383 32.1153 72.456 31.6446C71.6914 30.7031 71.0032 29.3968 70.6267 28.5554C70.0385 27.2373 68.868 26.4665 67.7446 26.1311C67.0387 25.9251 66.3388 25.8545 65.68 25.8545L65.6682 25.8663ZM103.348 78.3418C103.348 78.3418 103.348 78.3477 103.348 78.3536C103.36 78.4183 103.33 78.4418 103.348 78.3418Z" fill="#E7ECF8"/>
<path d="M359.737 0.346313C359.455 0.346313 359.161 0.358082 358.843 0.41104C357.161 0.675831 355.42 1.79972 352.761 4.45351C349.932 7.27794 348.226 11.1851 346.856 14.8451C345.485 18.505 344.403 21.9885 343.303 23.7479C342.168 25.5661 340.574 26.8195 338.98 27.555C337.392 28.2905 335.798 28.467 334.915 28.2905C333.992 28.1081 333.01 28.2846 332.257 28.773C331.51 29.2614 330.992 29.9675 330.557 30.7678C329.68 32.3683 329.075 34.469 328.316 36.9756C327.557 39.4706 326.934 40.3591 326.11 40.8828C325.281 41.4123 323.851 41.6771 321.493 42.2008C316.293 43.3541 313.958 47.4084 311.487 50.374C310.993 50.9683 309.435 52.4512 307.394 54.187C305.353 55.917 267.061 72.8283 264.349 74.7995C264.138 74.9525 263.92 75.1113 263.708 75.2643C263.814 75.4997 263.92 75.7409 264.032 75.9763C264.302 76.5647 264.585 77.1473 264.867 77.7239C265.226 77.4709 265.579 77.212 265.932 76.959C268.696 74.9407 307.035 58 309.129 56.223C311.223 54.4459 312.758 53.0337 313.546 52.0863C316.222 48.8736 318.005 45.7137 322.075 44.8134C324.351 44.3074 326.028 44.1132 327.551 43.1364C329.075 42.1596 330.045 40.4885 330.874 37.7524C331.639 35.2457 332.274 33.2039 332.904 32.0505C333.221 31.4739 333.521 31.1444 333.727 31.009C333.933 30.8737 334.033 30.8384 334.392 30.9149C336.08 31.2562 338.092 30.9149 340.109 29.9793C342.127 29.0437 344.132 27.4608 345.573 25.1601C347.05 22.8005 348.032 19.3288 349.361 15.7806C350.691 12.2325 352.332 8.66661 354.655 6.34234C357.149 3.84743 358.502 3.17074 359.261 3.04717C360.02 2.92949 360.696 3.31785 362.202 3.61795C363.302 3.83566 364.113 4.17695 365.313 5.37733C366.513 6.57771 368.019 8.68427 370.054 12.2383C372.178 15.9513 373.778 17.6165 375.654 18.0873C377.53 18.558 378.895 17.746 380.189 17.5283C380.495 17.4753 380.959 17.5871 381.618 18.0225C382.277 18.458 383.042 19.1817 383.812 20.0114C385.353 21.6766 386.841 23.7302 388.4 24.9777C389.806 26.1016 391.359 26.9607 392.923 27.4079C394.364 27.8198 395.853 27.8669 397.194 27.3196C397.276 27.3843 397.405 27.4903 397.617 27.7727C398.135 28.4612 398.817 29.7204 399.541 31.2621C400.987 34.3513 402.67 38.6115 404.493 42.5245C405.393 44.4604 405.97 45.6843 406.458 46.5375C406.699 46.9612 406.922 47.3025 407.217 47.6084C407.511 47.9144 407.94 48.2028 408.405 48.291C409.334 48.4734 409.775 48.1498 410.24 48.0321C410.704 47.9144 411.257 47.8085 412.251 47.9203C412.969 48.0027 413.81 48.4793 414.84 49.5091C415.869 50.5388 417.022 52.0569 418.328 53.8751C420.945 57.5175 424.221 62.3661 428.962 67.1088C431.215 69.3566 433.574 71.3101 435.997 73.0401V69.7096C434.227 68.3562 432.509 66.8734 430.856 65.2199C426.327 60.6891 423.163 56.0111 420.504 52.3158C419.175 50.4682 417.975 48.8618 416.734 47.6202C415.492 46.3786 414.151 45.443 412.546 45.2665C411.228 45.1194 410.234 45.2783 409.569 45.443C409.163 45.549 409.052 45.5784 409.04 45.6019C408.975 45.5195 408.911 45.4372 408.775 45.2018C408.393 44.5428 407.811 43.3188 406.911 41.3888C405.134 37.5817 403.464 33.3451 401.952 30.1205C401.193 28.5082 400.493 27.1607 399.741 26.1604C399.364 25.6603 398.982 25.2307 398.441 24.913C397.899 24.5952 397.023 24.4599 396.347 24.7953C395.717 25.113 394.776 25.1601 393.641 24.8365C392.506 24.5128 391.223 23.8244 390.053 22.8888C389.035 22.0768 387.435 20.0055 385.759 18.1991C384.924 17.2929 384.047 16.4397 383.077 15.7983C382.106 15.1569 380.971 14.6862 379.73 14.8921C377.936 15.1922 376.983 15.6688 376.283 15.4923C375.583 15.3158 374.354 14.4096 372.354 10.9144C370.266 7.26028 368.684 4.98897 367.184 3.48849C365.684 1.98801 364.178 1.29367 362.702 0.999461C361.831 0.822934 360.925 0.36985 359.708 0.346313H359.737Z" fill="#E7ECF8"/>
<path d="M14.6421 79.0302C15.2656 79.2127 16.4537 80.0541 18.1948 82.043C19.2242 83.2139 20.3241 83.9553 21.4828 84.2378C22.6416 84.5202 23.7886 84.2966 24.7356 83.8494C26.6295 82.9433 27.9589 81.2427 29 79.9364C29.9117 78.7949 30.3528 78.4948 31.1999 78.4418C31.1528 77.824 31.0999 77.1532 31.0704 76.4588C31.0587 76.2294 31.0528 75.9999 31.0469 75.7704C29.3764 75.8763 28.0295 76.8649 26.9119 78.2594C25.8943 79.5304 24.6532 80.9191 23.5827 81.431C23.0474 81.684 22.6122 81.7546 22.1181 81.637C21.624 81.5193 20.9829 81.1662 20.2123 80.2777C18.3477 78.1476 16.9596 76.9237 15.4009 76.4647C13.8363 76.0058 12.354 76.6471 11.1953 77.5121C10.5659 77.9829 9.31304 78.2771 7.29552 78.2771C6.07207 78.2771 4.57217 78.177 2.84875 78.0476V80.7308C4.50159 80.8544 5.98972 80.9485 7.29552 80.9485" fill="#E7ECF8"/>
<path d="M130.193 92.4993C133.858 89.3571 137.493 85.0969 137.94 84.6497C137.975 84.6144 137.993 84.5908 138.005 84.5673C138.028 84.5673 138.058 84.5791 138.111 84.5791C138.446 84.5791 139.446 84.7497 141.116 85.2263C143.757 85.9795 147.169 85.6147 151.598 84.8498C156.033 84.0848 161.268 82.7667 166.491 81.0074C171.714 79.248 176.92 77.0473 181.29 74.4641C185.66 71.8868 189.26 68.9741 191.084 65.3259C196.724 54.034 203.818 50.5624 209.918 46.4964C214.923 43.1541 223.529 42.907 230.752 46.5199C233.993 48.138 239.933 53.528 245.698 59.6535C251.456 65.7731 257.256 72.6753 261.167 77.5592C269.443 87.9096 280.278 92.3404 290.989 90.1985C295.512 89.2923 307.394 88.2744 319.046 88.6392C324.869 88.8216 330.674 89.3394 335.533 90.3339C340.391 91.3283 344.268 92.8758 346.162 94.5823C356.255 103.668 368.025 110.523 379.648 121.173C383.118 124.356 388.718 126.787 395.482 129.034C398 129.87 400.67 130.664 403.44 131.418V126.675C401.17 126.039 398.976 125.386 396.917 124.704C390.412 122.544 385.171 120.049 382.73 117.813C370.701 106.786 358.826 99.8486 349.214 91.1929C346.185 88.4627 341.686 86.9328 336.445 85.8618C331.198 84.7909 325.187 84.2613 319.187 84.0789C307.188 83.7023 295.418 84.6556 290.089 85.7265C281.095 87.5271 272.219 84.073 264.726 74.7112C260.75 69.7449 254.903 62.7839 249.021 56.529C243.139 50.274 237.434 44.7605 232.793 42.4421C228.522 40.3061 223.876 39.2352 219.441 39.2646C215.006 39.294 210.788 40.4297 207.383 42.701C201.653 46.5199 193.178 50.9272 186.996 63.2899C185.866 65.5554 182.937 68.1856 178.961 70.5334C174.985 72.8812 170.026 74.9937 165.026 76.6824C160.027 78.3712 154.974 79.6363 150.822 80.3542C146.663 81.0721 143.175 81.0721 142.369 80.8367C140.587 80.3307 139.375 80.0129 138.105 80.0129C136.834 80.0129 135.464 80.6602 134.705 81.4192C133.181 82.9433 127.735 88.4627 124.506 91.2341M0.084259 119.008L219.441 39.2646L0.084259 119.008Z" fill="#E7ECF8"/>
<path d="M222.905 41.7948C222.029 42.0772 221.676 43.1246 222.199 43.8837C237.233 66.1261 232.369 95.9886 233.616 127.675C234.069 139.238 235.392 151.047 238.863 162.757H241.651C238.116 151.088 236.816 139.267 236.351 127.569C235.116 96.2416 240.28 65.7495 224.464 42.3538C224.364 42.2067 224.24 42.0772 224.093 41.9772C223.693 41.9066 223.293 41.8536 222.893 41.8007L222.905 41.7948ZM230.687 43.972C229.999 44.3839 229.81 45.2959 230.281 45.9491C244.398 66.1496 241.38 97.4361 245.233 129.546C246.568 140.662 248.774 151.889 252.88 162.751H255.738C251.533 151.859 249.309 140.538 247.95 129.217C244.198 97.9245 247.403 66.6498 233.116 45.2488C232.646 44.9546 232.193 44.6957 231.763 44.478C231.404 44.3015 231.046 44.1308 230.681 43.972H230.687ZM240.474 51.1801C239.733 51.5744 239.522 52.5394 240.027 53.2102C253.232 71.3807 251.644 102.755 257.691 133.995C259.573 143.727 262.244 153.454 266.396 162.745H269.331C265.032 153.36 262.32 143.463 260.385 133.471C254.785 104.521 256.168 74.8465 244.633 55.2403C244.098 54.693 243.557 54.1458 243.027 53.6221C242.163 52.7689 241.316 51.951 240.48 51.1743L240.474 51.1801ZM251.427 62.5602C250.68 62.5838 250.28 63.4488 250.738 64.0372C256.967 72.2221 260.032 83.9259 262.502 97.2713C264.973 110.617 266.855 125.58 270.89 140.256C273.002 147.923 275.719 155.513 279.413 162.745H281.419C277.596 155.402 274.813 147.646 272.649 139.773C268.661 125.268 266.779 110.364 264.296 96.9418C262.026 84.6496 259.256 73.5755 253.774 65.1787C253.091 64.3961 252.397 63.6076 251.691 62.825C251.615 62.7368 251.533 62.6485 251.45 62.5602H251.421H251.427ZM261.467 74.3052C260.485 74.5464 260.091 75.7291 260.738 76.5117C266.42 83.5728 269.596 94.4292 272.519 106.957C275.443 119.484 278.148 133.648 283.23 147.317C285.183 152.577 287.507 157.767 290.324 162.751H293.43C290.365 157.496 287.883 151.989 285.795 146.363C280.825 132.977 278.131 118.943 275.184 106.339C272.825 96.2357 270.331 87.0386 266.232 79.801C266.149 79.7187 266.067 79.6422 265.985 79.5539C265.461 79.0302 264.949 78.483 264.443 77.9122C263.938 77.3414 263.438 76.7471 262.944 76.1352C262.479 75.5526 261.985 74.9407 261.467 74.3052ZM270.984 83.7317C270.331 83.9082 270.09 84.7085 270.537 85.2204C282.583 99.1955 283.901 134.671 301.618 162.751H303.753C286.26 135.425 285.072 100.266 272.472 84.6908C271.972 84.3907 271.472 84.073 270.984 83.7376V83.7317ZM275.39 86.2148C275.419 86.3502 275.478 86.4738 275.56 86.5797C286.06 100.602 289.812 127.169 303.288 150.141C305.853 154.513 308.788 158.756 312.187 162.751H314.57C310.817 158.503 307.629 153.942 304.858 149.217C292.159 127.569 288.342 102.349 278.313 87.3328C278.125 87.274 277.943 87.2152 277.754 87.1563C277.16 86.9563 276.572 86.7327 275.99 86.4855C275.79 86.3973 275.584 86.309 275.384 86.2148H275.39ZM294.959 87.2975C293.918 87.4211 292.977 87.5506 292.148 87.68C292.171 87.7859 292.206 87.8918 292.253 87.9919C302.006 108.787 312.264 126.987 330.939 139.173C347.191 149.776 369.678 155.731 403.44 155.119V152.377C370.025 152.989 348.12 147.105 332.439 136.872C314.564 125.21 304.594 107.775 294.959 87.2975ZM280.49 87.9036C290.407 103.656 295.812 127.469 310.246 147.305C314.293 152.866 319.069 158.102 324.851 162.751H327.769C321.316 157.867 316.105 152.242 311.723 146.228C297.965 127.322 292.548 104.432 282.872 88.292C282.366 88.2331 281.86 88.1625 281.36 88.0743C281.072 88.0213 280.784 87.9625 280.49 87.9036ZM290.201 88.0213C289.883 88.0801 289.571 88.1331 289.254 88.1802C299.029 107.039 307.558 126.763 324.487 141.285C337.574 152.512 355.679 160.591 383.165 162.751H403.44V162.363C364.313 163.192 340.968 154.219 325.087 140.591C308.429 126.304 299.941 106.833 290.201 88.0213ZM286.395 88.4391C286.048 88.4509 285.701 88.4509 285.354 88.4509C295.1 105.703 302.059 127.193 317.546 144.163C324.181 151.436 332.392 157.861 343.038 162.757H345.244C333.81 157.82 325.157 151.153 318.216 143.551C303.023 126.91 296.077 105.733 286.395 88.445V88.4391Z" fill="#E7ECF8"/>
<path d="M315.599 93.276C315.023 93.276 314.434 93.2937 313.852 93.3231C309.176 93.5349 304.312 94.5117 299.094 96.7477C298.388 97.0419 298.059 97.8539 298.359 98.5542C298.659 99.2544 299.477 99.578 300.171 99.2661C310.011 95.0471 318.246 95.5708 326.992 97.2067C335.739 98.8425 344.938 101.649 356.202 101.749C356.779 101.749 357.296 101.402 357.496 100.861C356.796 100.331 356.096 99.8016 355.408 99.272C355.285 99.1779 355.161 99.0837 355.038 98.9837C344.75 98.7071 336.121 96.124 327.492 94.5117C323.575 93.782 319.646 93.2583 315.587 93.2819L315.599 93.276ZM342.062 103.526C328.604 103.503 316.264 106.345 307.229 111.029C305.617 111.87 306.87 114.294 308.488 113.465C322.134 106.392 344.544 103.591 366.29 109.522C366.996 109.722 367.731 109.334 367.966 108.64C366.925 107.851 365.89 107.086 364.861 106.321C357.167 104.415 349.444 103.538 342.062 103.526ZM345.668 107.769C331.345 107.751 317.828 110.587 308.847 115.248C308.388 115.471 308.2 116.036 308.435 116.489C308.67 116.942 309.235 117.119 309.688 116.872C323.416 109.752 349.209 106.91 371.037 112.865C371.654 113.047 372.266 112.547 372.201 111.905C371.801 111.588 371.401 111.282 371.001 110.97C362.784 108.781 354.085 107.787 345.668 107.775V107.769ZM351.579 111.682C350.514 111.682 349.456 111.705 348.403 111.747C334.345 112.264 321.175 115.789 312.311 120.385C312.082 120.496 311.987 120.779 312.105 121.008C312.223 121.238 312.505 121.32 312.735 121.197C326.657 113.977 351.744 109.381 373.678 115.365C374.26 115.512 374.495 114.648 373.919 114.483C366.631 112.494 359.014 111.652 351.579 111.682ZM378.336 116.954C365.966 118.343 356.126 117.472 346.609 117.46C336.892 117.454 327.492 118.396 316.499 123.715C315.811 124.039 315.523 124.863 315.852 125.551C316.181 126.234 317.011 126.522 317.693 126.186C328.257 121.073 337.062 120.196 346.609 120.202C356.155 120.208 366.413 121.144 379.454 119.584C379.901 119.537 380.301 119.278 380.518 118.884C379.789 118.225 379.06 117.584 378.336 116.954ZM375.477 122.691H373.313C355.926 122.785 336.903 125.068 324.916 130.87C324.234 131.2 323.951 132.024 324.281 132.7C324.61 133.383 325.428 133.665 326.11 133.336C341.039 126.104 369.513 124.409 389.612 126.01C390.276 126.081 390.894 125.657 391.076 125.01C389.735 124.474 388.477 123.933 387.312 123.368C387.094 123.262 386.888 123.162 386.677 123.056C383.106 122.838 379.342 122.709 375.472 122.691H375.477ZM398.717 130.553C378.607 130.606 352.702 134.554 339.162 141.109C338.456 141.421 338.15 142.262 338.486 142.957C338.821 143.651 339.668 143.933 340.356 143.574C354.061 136.937 383.289 132.789 403.44 133.365V130.617C402.523 130.594 401.593 130.57 400.641 130.558C400.005 130.553 399.364 130.553 398.711 130.553H398.717ZM401.429 138.667C400.205 138.667 398.982 138.685 397.776 138.714C383.259 139.12 370.013 142.015 358.22 147.723C357.508 148.035 357.202 148.876 357.543 149.576C357.879 150.277 358.732 150.553 359.414 150.194C372.284 143.963 387.018 141.168 403.44 141.427V138.685C402.77 138.679 402.093 138.667 401.429 138.667Z" fill="#E7ECF8"/>
<path d="M62.5978 95.5237C61.7979 95.5178 60.9862 95.6061 60.1686 95.8297C58.304 96.3416 56.5335 97.5891 55.016 99.6662C52.1397 103.626 51.0339 107.369 49.7692 109.534C49.134 110.617 48.5458 111.258 47.7164 111.647C46.8871 112.035 45.6695 112.217 43.6579 111.905C41.2051 111.529 39.2288 111.905 37.9759 113.188C36.723 114.471 36.4466 116.154 36.2701 117.866C35.9113 121.285 36.0407 125.316 33.935 128.923C31.8939 132.418 25.912 137.072 19.7065 141.097C13.501 145.122 7.13675 148.629 3.94284 150.759C0.607759 152.983 -1.33918 155.831 -3.7802 158.444C-5.19187 159.95 -6.76823 161.415 -8.90927 162.763V166.382C-5.62713 164.61 -3.33905 162.575 -1.48623 160.592C1.14889 157.779 2.93114 155.213 5.68978 153.372C8.58959 151.436 15.095 147.835 21.4182 143.727C27.7413 139.626 33.9468 135.136 36.6525 130.5C39.2876 125.98 39.0817 121.202 39.3993 118.19C39.5582 116.683 39.8758 115.742 40.2346 115.377C40.5934 115.006 41.2345 114.706 43.1873 115.006C45.5754 115.377 47.4929 115.218 49.0575 114.483C50.6221 113.747 51.6809 112.488 52.4867 111.117C54.0984 108.369 55.0277 105.003 57.5629 101.508C58.7569 99.8604 59.8627 99.1661 61.0038 98.8483C62.1449 98.5364 63.4272 98.6306 64.9036 98.9778C67.8563 99.678 71.3443 101.473 75.2558 101.473C78.3792 101.473 82.8259 102.291 86.4845 103.879C90.1431 105.468 92.8429 107.769 93.3605 110.37C94.1722 114.418 97.3897 117.666 101.042 120.167C104.695 122.662 108.871 124.409 112.171 125.145C115.006 125.775 118.824 127.263 121.982 129.046C125.141 130.829 127.564 133.106 127.952 134.271C128.411 135.642 129.346 136.178 130.558 137.002C131.77 137.825 133.346 138.714 135.199 139.661C138.905 141.556 143.716 143.686 148.645 145.728C153.58 147.77 158.633 149.723 162.797 151.253C166.967 152.783 170.161 153.878 171.72 154.266C174.22 154.89 180.09 156.949 185.784 158.332C188.631 159.02 191.454 159.556 193.948 159.644C196.442 159.732 198.73 159.485 200.301 157.914C201.206 157.008 201.818 156.72 202.006 156.684C202.195 156.649 202.153 156.62 202.495 156.902C203.171 157.473 204.33 159.421 206.206 161.298C208.047 163.139 211.47 165.87 215.17 167.988C217.023 169.047 218.935 169.947 220.799 170.465C222.664 170.983 224.528 171.165 226.217 170.436C228.34 169.53 232.334 168.512 236.228 168.188C240.116 167.864 243.921 168.335 245.68 169.594C247.521 170.907 250.403 172.225 253.762 173.437V170.053C250.98 168.977 248.692 167.888 247.509 167.041C244.527 164.911 240.204 164.705 235.969 165.058C231.734 165.411 227.605 166.429 224.981 167.553C224.305 167.847 223.123 167.853 221.64 167.441C220.158 167.029 218.429 166.234 216.729 165.264C213.323 163.316 209.971 160.627 208.424 159.085C206.918 157.579 206.041 155.802 204.518 154.507C203.753 153.86 202.571 153.366 201.389 153.607C200.201 153.842 199.201 154.572 198.077 155.702C197.618 156.161 196.183 156.59 194.06 156.514C191.936 156.437 189.26 155.949 186.519 155.284C181.043 153.954 175.396 151.953 172.479 151.224C171.326 150.936 168.009 149.829 163.879 148.311C159.75 146.793 154.733 144.851 149.845 142.833C144.957 140.809 140.199 138.702 136.628 136.872C134.84 135.96 133.352 135.107 132.317 134.413C131.287 133.712 130.805 132.936 130.923 133.289C129.958 130.388 126.958 128.264 123.517 126.322C120.076 124.38 116.1 122.815 112.842 122.091C110.048 121.467 106.095 119.831 102.807 117.584C99.5189 115.336 96.9779 112.494 96.4309 109.769C95.5957 105.592 91.8606 102.814 87.7315 101.02C83.6023 99.2249 78.9026 98.3481 75.2558 98.3481C72.3913 98.3481 69.1151 96.7594 65.627 95.9356C64.7565 95.7297 63.8566 95.5767 62.9449 95.5355C62.8331 95.5355 62.7155 95.5237 62.6037 95.5237H62.5978Z" fill="#E7ECF8"/>
<path d="M62.592 97.0948C62.2979 97.0948 62.0096 97.1007 61.7214 97.1302C61.4979 97.1537 61.2744 97.189 61.0568 97.2302C61.0803 97.3773 61.1332 97.5126 61.2156 97.6303C71.5502 112.918 68.2092 133.442 69.0621 155.219C69.5327 167.182 71.3502 179.515 77.5322 191.443C77.7851 191.419 78.0439 191.396 78.3086 191.36C78.6791 191.319 79.0732 191.26 79.4732 191.201C73.1913 179.409 71.4208 167.188 70.9443 155.143C70.1091 133.848 73.5677 113.118 63.1272 97.1125C63.0449 97.1125 62.9625 97.1066 62.8802 97.1007C62.7802 97.1007 62.6861 97.0948 62.5861 97.0948H62.592ZM74.0089 99.8428C74.0147 99.984 74.0559 100.125 74.1206 100.249C81.9378 114.983 76.8146 133.153 75.7852 152.871C75.15 165.046 76.1911 177.815 83.0024 190.542C83.6023 190.407 84.22 190.266 84.8434 190.107C77.9968 177.609 77.0322 165.122 77.6675 152.971C78.6674 133.765 83.9259 115.407 76.0793 99.9369C75.797 99.9252 75.5205 99.9193 75.25 99.9193C74.8323 99.9193 74.4206 99.8899 74.003 99.8487L74.0089 99.8428ZM88.4962 103.591C87.8491 103.62 87.4256 104.274 87.6609 104.874C92.9782 119.055 85.9198 134.36 82.8436 151.506C80.7378 163.228 80.6555 175.82 87.9374 189.26C88.5256 189.083 89.1196 188.895 89.7137 188.701C82.4377 175.585 82.6142 163.44 84.6964 151.842C87.7197 135.007 95.084 119.314 89.4255 104.215C89.2961 103.856 88.9726 103.615 88.5903 103.591C88.5608 103.591 88.5256 103.591 88.4962 103.591ZM101.342 118.472C101.342 118.508 101.348 118.549 101.36 118.584C102.772 125.404 101.272 131.282 98.7366 137.055C96.2015 142.827 92.6135 148.452 90.0137 154.613C87.4139 160.774 85.8199 167.517 87.3845 175.39C88.155 179.256 89.6726 183.381 92.1724 187.847C92.4606 187.741 92.7429 187.635 93.0312 187.53C93.337 187.412 93.6429 187.288 93.9487 187.165C91.4548 182.757 89.9667 178.739 89.2314 175.026C87.755 167.594 89.2314 161.309 91.7489 155.343C94.2664 149.376 97.8426 143.763 100.46 137.808C102.872 132.312 104.454 126.481 103.495 119.884C102.96 119.567 102.431 119.231 101.919 118.878C101.725 118.743 101.531 118.608 101.336 118.472H101.342ZM115.7 124.851C115.347 124.851 115.065 125.151 115.077 125.504C115.259 132.13 112.659 137.072 109.083 141.55C105.507 146.028 100.948 149.982 97.3426 154.525C93.737 159.068 91.096 164.246 91.5136 171.042C91.7783 175.349 93.2488 180.286 96.4074 186.123C96.7897 185.947 97.1721 185.764 97.5485 185.582C94.4369 179.839 93.0194 175.061 92.7665 170.965C92.3724 164.528 94.8251 159.721 98.3249 155.308C101.825 150.894 106.389 146.934 110.065 142.339C113.742 137.737 116.524 132.447 116.336 125.474C116.336 125.127 116.047 124.851 115.7 124.857V124.851ZM128.817 132.583C127.729 138.996 124.006 143.015 119.376 146.193C114.742 149.376 109.207 151.671 104.625 154.584C100.042 157.496 96.3898 161.062 95.6604 166.752C95.0957 171.148 96.2662 176.761 99.9778 184.293C100.078 184.234 100.178 184.176 100.278 184.123C100.36 184.076 100.442 184.023 100.525 183.975C96.8662 176.538 95.7486 171.048 96.2839 166.835C96.9838 161.374 100.448 157.979 104.96 155.113C109.471 152.248 115.018 149.947 119.729 146.711C124.253 143.61 128.011 139.608 129.293 133.43C129.235 133.295 129.164 133.153 129.088 133.018C129.005 132.877 128.917 132.73 128.817 132.583ZM141.74 141.05C141.381 142.674 140.587 143.963 139.434 145.057C137.963 146.458 135.893 147.523 133.44 148.394C128.535 150.135 122.147 151.089 116.218 152.695C110.289 154.307 104.754 156.579 101.648 161.168C98.5484 165.752 98.0308 172.519 101.831 182.74C101.866 182.846 101.936 182.94 102.019 183.01C102.113 182.946 102.213 182.875 102.307 182.81C102.548 182.64 102.778 182.469 103.001 182.293C99.2837 172.284 99.866 166.04 102.683 161.874C105.501 157.708 110.712 155.496 116.541 153.913C122.37 152.33 128.764 151.389 133.858 149.582C136.405 148.676 138.634 147.552 140.293 145.969C141.54 144.781 142.451 143.327 142.898 141.574C142.634 141.456 142.357 141.338 142.099 141.221C141.975 141.168 141.857 141.109 141.734 141.056L141.74 141.05ZM154.986 146.605C151.492 152.13 146.404 154.437 140.581 155.437C134.646 156.461 128.011 156.043 121.965 156.155C115.912 156.267 110.342 156.879 106.677 160.374C103.007 163.875 101.619 170.036 103.46 180.498C103.53 180.886 103.836 181.192 104.225 181.263C104.625 180.892 104.983 180.516 105.307 180.133C103.525 169.983 104.936 164.64 107.977 161.745C111.018 158.844 116.065 158.155 122 158.044C127.935 157.932 134.658 158.373 140.904 157.302C147.139 156.225 152.963 153.56 156.774 147.311C156.709 147.287 156.645 147.264 156.58 147.234C156.056 147.028 155.521 146.822 154.992 146.611L154.986 146.605Z" fill="#E7ECF8"/>
<path d="M54.416 103.873C54.3572 103.873 54.3042 103.873 54.2454 103.885C53.9984 104.344 53.7749 104.797 53.5572 105.239C53.6043 105.333 53.669 105.421 53.7513 105.497C59.851 111.435 62.5037 120.19 63.5919 129.599C64.48 137.29 64.3095 145.169 64.1977 152.395C58.3157 138.443 48.2164 128.928 37.5818 125.451C37.3818 125.386 37.1642 125.392 36.9642 125.463C36.8701 125.851 36.7642 126.239 36.6466 126.634C36.6172 126.734 36.5819 126.834 36.5466 126.934C36.6583 127.081 36.8171 127.187 36.9936 127.246C48.0752 130.87 58.904 141.585 64.1918 157.591C64.5271 158.603 66.0211 158.367 66.027 157.302C66.0682 149.082 66.5682 139.008 65.4565 129.393C64.3448 119.773 61.6214 110.552 55.0571 104.156C54.8866 103.985 54.6513 103.885 54.4042 103.879L54.416 103.873ZM49.9869 111.894C49.9869 111.894 49.9575 111.929 49.9398 111.947C49.7163 112.176 49.481 112.388 49.2222 112.576C49.1222 112.647 49.0164 112.717 48.9105 112.788C48.8987 113.059 49.0046 113.318 49.1928 113.506C55.2924 119.584 57.6099 126.357 58.9098 134.189C53.5572 124.957 45.046 119.296 38.0641 118.19C37.9818 118.178 37.9053 118.172 37.823 118.178C37.7641 118.761 37.723 119.384 37.6759 120.031C37.7053 120.037 37.7406 120.043 37.77 120.049C45.1519 121.22 55.3101 128.458 59.8098 140.344C60.2039 141.379 61.7508 141.009 61.6273 139.908C60.445 129.323 58.5157 120.143 50.5221 112.17C50.381 112.023 50.1928 111.929 49.9869 111.9V111.894ZM32.1704 135.913C31.294 135.907 30.394 135.937 29.4647 135.995C29.4412 136.019 29.4176 136.037 29.3882 136.06C28.8294 136.525 28.2471 136.984 27.6472 137.449C27.8236 137.796 28.1942 138.002 28.5765 137.961C36.5113 137.184 42.3639 139.138 47.0106 142.721C51.6574 146.305 55.0866 151.577 57.8864 157.461C63.486 169.23 66.4152 183.316 72.356 190.86C72.3913 190.907 72.4325 190.948 72.4736 190.984C72.7207 191.036 73.0089 191.107 73.3148 191.189C73.9794 191.025 74.2559 190.23 73.8324 189.689C68.4327 182.834 65.3212 168.7 59.5863 156.649C56.7159 150.624 53.1573 145.081 48.1635 141.227C44.4167 138.337 39.8581 136.431 34.2997 136.001C33.6056 135.948 32.8939 135.919 32.1645 135.913H32.1704ZM24.4827 141.085C23.8298 141.085 23.171 141.103 22.4946 141.138C21.8534 141.568 21.2123 141.997 20.5594 142.415C20.3829 142.533 20.2065 142.645 20.0241 142.756C20.2182 143.033 20.5476 143.18 20.8829 143.145C28.8294 142.368 34.9643 144.151 39.9817 147.476C45.0049 150.8 48.9105 155.713 52.1926 161.227C58.7569 172.248 62.6919 185.576 68.5857 193.055C68.6151 193.096 68.6504 193.137 68.6857 193.172C68.7739 193.072 68.8621 192.967 68.9386 192.872C69.3386 192.378 69.6268 191.978 69.8856 191.66C64.5212 184.676 60.4686 171.448 53.8102 160.262C50.4457 154.607 46.3754 149.453 41.0228 145.904C37.0054 143.245 32.2645 141.509 26.6296 141.15C25.9237 141.103 25.2061 141.079 24.4768 141.079L24.4827 141.085ZM17.4243 145.475C16.8243 145.475 16.2185 145.493 15.6009 145.522C14.6833 146.081 13.7892 146.622 12.9187 147.14C13.1187 147.434 13.4657 147.587 13.8186 147.54C29.7176 145.987 39.5993 154.26 47.1341 164.899C54.6689 175.537 59.6039 188.459 65.4447 195.879C65.4976 195.95 65.5623 196.015 65.6329 196.062C65.9153 195.85 66.1858 195.632 66.4505 195.408C66.6623 195.226 66.8564 195.055 67.0387 194.885C67.0093 194.826 66.974 194.767 66.927 194.714C61.4273 187.735 56.3923 174.714 48.6693 163.81C41.9109 154.266 32.888 146.287 19.5947 145.528C18.883 145.487 18.1595 145.469 17.4243 145.469V145.475ZM11.3071 149.082C10.7424 149.082 10.166 149.105 9.58364 149.129C8.9131 149.529 8.27195 149.912 7.67787 150.271C7.37789 150.453 7.11909 150.612 6.84264 150.782C7.04263 151.047 7.36026 151.189 7.68965 151.159C23.6004 149.6 34.2114 157.602 42.4521 167.935C50.6692 178.244 56.31 190.807 62.1096 198.192C62.2273 198.139 62.3449 198.086 62.4567 198.027C62.9037 197.809 63.3448 197.568 63.7742 197.315C63.7389 197.227 63.6919 197.144 63.633 197.074C58.104 190.054 52.3691 177.338 43.9285 166.758C36.5466 157.496 26.9237 149.817 13.501 149.129C12.7834 149.094 12.0541 149.076 11.3129 149.082H11.3071ZM3.57814 156.584C2.34881 156.59 1.09596 156.649 -0.180431 156.755C-0.650989 157.296 -1.12155 157.844 -1.60975 158.397C-1.40389 158.626 -1.09214 158.744 -0.786273 158.703C15.1774 157.143 26.9472 163.698 36.2642 172.513C45.5342 181.28 52.2632 192.266 57.9864 199.551C58.351 199.48 58.7157 199.398 59.0745 199.304C59.3039 199.245 59.5274 199.174 59.7568 199.11C59.7627 198.886 59.6921 198.674 59.551 198.498C53.9454 191.384 47.1165 180.186 37.5583 171.148C29.1941 163.239 18.6536 156.967 5.05452 156.608C4.56631 156.59 4.07811 156.59 3.58403 156.59L3.57814 156.584ZM-3.4861 166.535C-3.93902 166.535 -4.39192 166.535 -4.85072 166.54C-6.18004 166.558 -7.53289 166.617 -8.90927 166.711V168.6C21.5887 166.376 39.3052 184.94 50.428 198.939C50.6045 199.01 50.7751 199.08 50.9574 199.145C51.3221 199.274 51.6926 199.386 52.0691 199.48C52.222 199.516 52.375 199.551 52.5279 199.58C52.7455 199.245 52.722 198.804 52.475 198.492C41.9639 185.146 24.965 166.764 -3.49198 166.54L-3.4861 166.535ZM3.74872 178.697C2.97818 178.697 2.20765 178.709 1.43711 178.733C-1.97443 178.85 -5.43891 179.244 -8.90339 179.927V181.851C10.6247 177.891 29.9117 183.446 40.0758 195.85C40.764 195.909 41.4404 195.985 42.105 196.079C42.2109 195.773 42.158 195.438 41.9639 195.185C33.635 184.611 19.3654 178.727 3.75461 178.691L3.74872 178.697ZM7.33084 186.859C2.06647 186.894 -3.27434 187.93 -8.90927 189.86V191.837C5.24863 186.776 17.0361 187.553 31.0117 195.809C31.5998 195.767 32.2116 195.732 32.8292 195.709C32.9527 195.709 33.0762 195.703 33.1997 195.697C33.2997 195.291 33.1174 194.861 32.7468 194.655C24.1415 189.436 16.1891 186.959 8.08962 186.865H7.33084V186.859ZM8.38371 193.014C5.73683 193.025 3.22523 193.367 0.778333 194.002C-2.52145 194.855 -5.69183 196.221 -8.90927 197.95V200.104C-5.46244 198.186 -2.15089 196.709 1.25477 195.832C7.28379 194.273 13.654 194.532 21.8593 197.58C22.5416 197.362 23.1298 197.18 23.6357 197.021C23.7004 196.574 23.4416 196.15 23.0181 195.997C18.6654 194.338 14.7362 193.414 11.0835 193.125C10.1718 193.049 9.2719 193.014 8.3896 193.019L8.38371 193.014Z" fill="#E7ECF8"/>
<path d="M7.29556 79.5422C7.29556 79.5422 -3.1214 77.9652 -6.91527 78.5949C-10.7091 79.2245 -13.8678 82.3902 -20.185 82.3902C-26.5022 82.3902 -40.4013 105.774 -48.6184 108.94C-56.8297 112.1 -56.2003 110.205 -56.8297 114.63C-57.459 119.055 -59.9883 119.055 -61.8823 121.585C-63.7763 124.115 -59.9883 132.965 -64.4115 135.489C-68.8348 138.02 -68.5171 144.022 -68.5171 144.022" stroke="#E7ECF8" stroke-width="2" stroke-miterlimit="10"/>
<path d="M8.32491 105.856C8.32491 105.856 2.24295 110.517 -5.33891 111.152C-12.9208 111.782 -26.1905 112.417 -30.6137 117.472C-35.037 122.526 -42.1894 125.981 -44.5128 127.587C-66.9408 143.074 -89.057 160.138 -89.057 160.138" stroke="#E7ECF8" stroke-width="2" stroke-miterlimit="10"/>
</svg>
