<svg width="2275" height="464" viewBox="0 0 2275 464" fill="none" xmlns="http://www.w3.org/2000/svg">
<g clip-path="url(#clip0_11_15)">
<mask id="mask0_11_15" style="mask-type:luminance" maskUnits="userSpaceOnUse" x="938" y="0" width="1340" height="478">
<path d="M2277.11 0.0716553H938.417V477.747H2277.11V0.0716553Z" fill="white"/>
</mask>
<g mask="url(#mask0_11_15)">
<path d="M2362.4 249.388C2351.32 238.343 2343.58 226.938 2337.07 217.93C2333.82 213.425 2330.88 209.509 2327.84 206.482C2324.8 203.456 2321.52 201.175 2317.59 200.744C2314.37 200.386 2311.93 200.773 2310.31 201.175C2309.31 201.433 2309.04 201.505 2309.01 201.562C2308.85 201.361 2308.7 201.16 2308.36 200.587C2307.43 198.98 2306 195.996 2303.8 191.291C2299.45 182.01 2295.37 171.681 2291.67 163.82C2289.81 159.89 2288.1 156.605 2286.25 154.166C2285.33 152.947 2284.4 151.9 2283.07 151.125C2281.75 150.35 2279.6 150.02 2277.95 150.838C2276.41 151.613 2274.1 151.727 2271.32 150.938C2268.55 150.15 2265.41 148.471 2262.54 146.19C2260.05 144.211 2256.14 139.161 2252.04 134.757C2249.98 132.548 2247.85 130.468 2245.47 128.905C2243.1 127.341 2240.32 126.193 2237.28 126.695C2232.89 127.427 2230.56 128.589 2228.84 128.159C2227.13 127.728 2224.12 125.519 2219.23 116.998C2214.12 108.09 2210.25 102.553 2206.57 98.8947C2202.9 95.2368 2199.22 93.544 2195.61 92.8268C2193.47 92.3964 2191.26 91.2919 2188.28 91.2345C2187.59 91.2345 2186.87 91.2632 2186.09 91.3923C2181.97 92.0378 2177.71 94.7777 2171.21 101.247C2164.28 108.133 2160.11 117.658 2156.75 126.581C2153.4 135.503 2150.75 143.995 2148.06 148.285C2145.28 152.717 2141.38 155.773 2137.48 157.566C2133.59 159.359 2129.69 159.789 2127.53 159.359C2125.27 158.914 2122.87 159.345 2121.02 160.535C2119.19 161.726 2117.93 163.447 2116.86 165.398C2114.72 169.3 2113.24 174.421 2111.38 180.532C2109.52 186.615 2108 188.781 2105.98 190.057C2103.95 191.348 2100.45 191.994 2094.68 193.271C2081.95 196.082 2076.24 205.966 2070.19 213.196C2068.98 214.645 2065.17 218.26 2060.17 222.491C2056.59 225.518 1993.64 254.811 1956.01 272.842C1955.92 272.728 1955.84 272.627 1955.75 272.527C1946.02 260.42 1931.71 243.45 1917.31 228.201C1902.92 212.952 1888.96 199.511 1877.6 193.859C1867.15 188.652 1855.77 186.041 1844.92 186.112C1834.07 186.184 1823.74 188.953 1815.41 194.49C1801.39 203.8 1780.65 214.544 1765.52 244.683C1762.75 250.206 1755.58 256.618 1745.85 262.342C1736.12 268.066 1723.99 273.215 1711.75 277.332C1699.51 281.45 1687.15 284.534 1676.98 286.284C1666.81 288.034 1658.27 288.034 1656.3 287.46C1651.94 286.226 1648.97 285.452 1645.86 285.452C1642.75 285.452 1639.4 287.03 1637.54 288.88C1633.81 292.596 1632.5 296.254 1624.59 303.01C1621.65 305.52 1618.38 307.787 1614.9 309.724C1609.4 308.519 1600.14 305.908 1591.56 302.996C1586.32 301.217 1581.28 299.309 1577.4 297.559C1575.45 296.684 1573.8 295.838 1572.6 295.12C1571.41 294.403 1570.67 293.686 1570.69 293.714C1567.1 288.794 1566.59 284.749 1567.19 282.597C1567.58 281.249 1567.32 280.632 1567.16 279.943C1567 279.255 1566.77 278.566 1566.49 277.806C1565.91 276.285 1565.07 274.463 1564.05 272.383C1562.01 268.223 1559.17 263.03 1556.16 257.708C1550.13 247.079 1543.45 236.091 1540.8 232.146C1538.53 228.746 1535.02 222.047 1532.01 215.548C1529 209.05 1526.38 202.437 1525.8 199.898C1524.26 193.242 1522.26 186.93 1518.75 182.268C1517.38 180.446 1515.54 179.299 1513.22 177.95C1510.91 176.616 1508.17 175.282 1505.33 174.12C1502.5 172.958 1499.59 171.94 1496.93 171.265C1494.26 170.591 1491.96 170.132 1489.59 170.562C1489.15 170.649 1488.68 170.562 1487.89 170.089C1487.08 169.601 1486.1 168.698 1485.17 167.55C1483.29 165.255 1481.61 162.07 1480.69 160.019C1479.25 156.806 1476.39 154.926 1473.64 154.109C1471.91 153.607 1470.2 153.435 1468.58 153.435C1467.62 153.435 1466.68 153.521 1465.82 153.621C1463.07 153.965 1460.65 155.472 1459.17 157.465C1457.69 159.474 1456.89 161.769 1456.1 164.365C1456.07 164.437 1455.12 166.029 1453.55 167.607C1451.99 169.185 1449.87 170.978 1447.65 172.642C1445.44 174.307 1443.12 175.87 1441.15 177.032C1439.17 178.194 1437.33 178.954 1437.07 179.012C1434.55 179.571 1433.08 181.12 1431.53 182.899C1429.97 184.678 1428.49 186.844 1427.11 189.182C1424.35 193.844 1422.03 198.966 1421.12 202.853C1420.89 203.872 1419.85 206.497 1418.42 209.538C1416.98 212.579 1415.16 216.151 1413.29 219.752C1409.56 226.938 1405.76 233.91 1404.28 237.74C1403.93 238.63 1402.58 240.724 1400.72 243.019C1398.87 245.314 1396.52 247.911 1394.13 250.507C1391.74 253.104 1389.31 255.686 1387.26 258.024C1385.2 260.348 1383.55 262.285 1382.5 264.207C1380.54 267.764 1380.47 271.91 1380.63 275.798C1377.99 276.787 1375.73 278.71 1373.78 281.163C1371.28 284.261 1368.25 287.647 1365.63 288.895C1364.32 289.511 1363.25 289.684 1362.04 289.397C1360.83 289.11 1359.26 288.249 1357.38 286.083C1352.82 280.89 1349.42 277.906 1345.6 276.787C1341.77 275.668 1338.15 277.232 1335.31 279.341C1333.77 280.488 1330.7 281.206 1325.77 281.206C1322.77 281.206 1293.65 280.761 1289.45 280.445L1252.34 292.768L1238.42 302.02L1196.67 351.324L1176.57 360.577L1154.92 386.771L1156.46 412.965C1154.1 414.012 1142.76 427.496 1141 428.371C1140.82 428.457 1141.19 442.157 1141 442.243L1120.91 456.114C1121.37 455.899 1086.27 490.083 1089.99 488.477L1167.3 499.264C1160.71 504.357 1242.19 504.429 1236.89 510.052C1233.43 513.724 1291.38 483.901 1286.14 487.186V533.735V553.245V600.784C1286.81 600.468 1287.6 600.139 1288.24 599.823C1290.73 598.589 1293.65 597.241 1296.89 595.835C1300.13 594.429 1303.68 592.952 1307.43 591.46C1311.17 589.968 1315.1 588.447 1319.09 586.927C1323.07 585.421 1327.13 583.929 1331.12 582.48C1339.1 579.596 1346.81 576.9 1353.26 574.733C1357.13 573.428 1360.55 572.323 1363.28 571.463C1363.42 571.42 1363.57 571.377 1363.7 571.334C1363.74 571.334 1363.77 571.305 1363.81 571.291C1364.5 571.075 1365.15 570.875 1365.76 570.688C1366.52 570.459 1367.2 570.258 1367.77 570.086C1369.23 569.67 1371.04 569.282 1373.13 568.938C1375.21 568.594 1377.58 568.293 1380.12 568.049C1382.67 567.805 1385.42 567.618 1388.26 567.504C1390.99 567.389 1393.81 567.36 1396.66 567.403V580.127V583.771C1397.79 583.254 1398.88 582.724 1399.92 582.207C1405.79 579.281 1414.89 575.566 1424.58 571.893C1424.62 571.908 1424.68 571.936 1424.72 571.951C1425.71 572.395 1426.62 572.869 1427.46 573.385C1428.29 573.901 1429.13 574.36 1430 574.776C1430.87 575.192 1431.75 575.551 1432.64 575.867C1433.53 576.182 1434.44 576.455 1435.36 576.684C1436.28 576.914 1437.22 577.086 1438.15 577.23C1439.09 577.359 1440.04 577.459 1440.99 577.502C1441.94 577.559 1442.9 577.559 1443.85 577.531C1444.82 577.502 1445.77 577.43 1446.73 577.33C1447.7 577.215 1448.66 577.072 1449.61 576.9C1450.57 576.713 1451.52 576.498 1452.47 576.254C1452.73 576.182 1452.98 576.111 1453.24 576.039C1453.27 576.039 1453.3 576.025 1453.34 576.01C1454 575.824 1454.65 575.623 1455.3 575.408C1457.17 574.776 1459 574.031 1460.77 573.155C1462.54 572.295 1464.25 571.319 1465.89 570.243C1467.53 569.182 1469.09 568.02 1470.53 566.772C1471.98 565.538 1473.16 564.405 1474.17 563.372C1475.16 562.339 1475.97 561.407 1476.64 560.589C1478 558.94 1478.82 557.706 1479.65 556.874C1480.07 556.458 1480.49 556.157 1480.96 555.941C1481.44 555.741 1481.98 555.626 1482.66 555.626C1483.34 555.626 1484.14 555.726 1485.14 555.941C1485.2 555.941 1485.25 555.97 1485.3 555.97C1485.9 556.099 1486.61 556.271 1487.35 556.472C1487.8 556.587 1488.26 556.716 1488.77 556.86C1489.48 557.06 1490.39 557.204 1491.46 557.276C1492.52 557.333 1493.75 557.333 1495.1 557.276C1496.45 557.204 1497.95 557.075 1499.56 556.888C1500.01 556.831 1500.47 556.773 1500.93 556.716C1500.97 556.716 1501.02 556.716 1501.04 556.702C1502.18 556.544 1503.36 556.372 1504.59 556.157C1509.13 556.946 1512.98 558.093 1515.32 559.542C1528.27 567.604 1545.14 562.813 1555.91 553.632C1561.16 549.142 1563.22 545.656 1563.85 545.025C1563.91 544.968 1563.92 544.939 1563.94 544.91C1563.97 544.91 1564.01 544.925 1564.1 544.925C1564.57 544.925 1566.01 545.168 1568.4 545.857C1572.19 546.933 1577.07 546.416 1583.43 545.326C1589.78 544.236 1597.28 542.357 1604.76 539.832C1612.25 537.322 1619.71 534.18 1625.97 530.493C1632.23 526.807 1637.4 522.661 1640 517.454C1648.09 501.33 1658.26 496.381 1666.99 490.571C1669.64 488.807 1673 487.659 1676.68 487.157H1684.82C1706.09 518.874 1699.18 561.364 1700.97 606.436C1701.61 622.947 1703.51 639.788 1708.48 656.514H1712.48H1728.56H1732.67H1747.92H1782.21H1786.66H1798.39H1801.45H1813.54H1816.95H1857.73H1860.88H1944.28V654.535V645.612V643.776V643.59V631.654V631.167V630.148V629.661V626.06V622.144V614.555V611.772V610.625V608.358V605.001V501.947C1942.97 501.459 1941.59 500.971 1940.36 500.484C1938.03 499.523 1935.88 498.561 1934.01 497.629C1933.08 497.156 1932.21 496.697 1931.44 496.237C1930.64 495.778 1929.94 495.334 1929.33 494.889C1928.72 494.444 1928.04 494.057 1927.32 493.698C1926.6 493.34 1925.82 493.039 1925.02 492.752C1924.21 492.479 1923.35 492.235 1922.47 492.034C1921.58 491.834 1920.65 491.676 1919.72 491.532C1918.77 491.403 1917.79 491.303 1916.8 491.231C1915.8 491.159 1914.78 491.131 1913.74 491.116C1911.69 491.088 1909.56 491.188 1907.44 491.36C1905.32 491.532 1903.21 491.805 1901.13 492.135C1900.14 492.293 1899.16 492.465 1898.2 492.651C1894.05 492.293 1889.69 492.422 1885.36 492.78C1880.82 493.153 1876.35 493.842 1872.2 494.731C1871.8 494.573 1871.41 494.401 1871 494.215C1869.16 493.397 1867.28 492.422 1865.43 491.375C1864.44 490.815 1863.46 490.227 1862.5 489.624V487.157H1892.45H1899.28H1926.74H1933.74H1959.81H1966.99H1991.68H1996.59H2018.38H2025.99H2046.02H2051.25H2071.91H2077.74H2102.87H2110.01H2147.4H2152.79H2245.53C2245.53 487.157 2245.59 487.157 2245.6 487.157H2295.22V486.21V468.552V435.185V428.5V411.114C2295.94 412.004 2296.66 412.907 2297.35 413.84C2299.04 416.063 2300.66 418.387 2302.25 420.768C2303.83 423.135 2305.38 425.56 2306.88 427.955C2308.38 430.351 2309.83 432.732 2311.24 435.013C2312.65 437.294 2314.02 439.503 2315.35 441.54C2316.67 443.591 2317.95 445.47 2319.19 447.149C2319.81 447.981 2320.41 448.755 2321.02 449.487C2321.61 450.204 2322.2 450.864 2322.77 451.438C2323.35 452.026 2323.91 452.528 2324.46 452.959C2325.01 453.389 2325.55 453.748 2326.08 454.006C2327.15 454.537 2328.29 455.196 2329.51 455.928C2330.73 456.66 2332.02 457.477 2333.37 458.309C2334.71 459.141 2336.12 460.002 2337.56 460.82C2339 461.652 2340.48 462.441 2341.98 463.144C2342.73 463.488 2343.49 463.818 2344.24 464.119C2345 464.42 2345.76 464.693 2346.53 464.922C2347.29 465.166 2348.05 465.353 2348.81 465.51C2349.58 465.668 2350.34 465.783 2351.1 465.855C2351.87 465.926 2352.63 465.941 2353.38 465.898C2354.13 465.855 2354.88 465.754 2355.62 465.597C2356.36 465.439 2357.11 465.209 2357.83 464.922C2358.56 464.635 2359.27 464.262 2359.97 463.832C2361.38 462.957 2362.66 462.254 2363.86 461.709C2364.46 461.436 2365.04 461.207 2365.6 461.006C2366.16 460.805 2366.72 460.662 2367.27 460.533C2367.82 460.418 2368.35 460.332 2368.9 460.275C2369.43 460.217 2369.98 460.203 2370.52 460.217C2371.62 460.246 2372.73 460.404 2373.92 460.662C2374.22 460.734 2374.6 460.863 2374.91 460.949V260.319C2370.58 257.02 2366.38 253.405 2362.33 249.374L2362.4 249.388Z" fill="#AC9FFF"/>
<path d="M1468.64 153.434C1467.68 153.434 1466.74 153.521 1465.88 153.621C1463.13 153.965 1460.71 155.471 1459.23 157.465C1457.74 159.474 1456.95 161.769 1456.16 164.365C1456.13 164.437 1455.18 166.029 1453.61 167.607C1452.04 169.185 1449.93 170.978 1447.71 172.642C1445.49 174.306 1443.18 175.87 1441.2 177.032C1439.23 178.194 1437.39 178.954 1437.13 179.012C1434.61 179.571 1433.14 181.12 1431.59 182.899C1430.03 184.678 1428.55 186.844 1427.17 189.182C1424.4 193.844 1422.09 198.966 1421.18 202.853C1420.95 203.872 1419.91 206.497 1418.47 209.538C1417.03 212.579 1415.22 216.151 1413.35 219.752C1409.62 226.938 1405.82 233.91 1404.34 237.74C1403.99 238.63 1402.64 240.724 1400.78 243.019C1398.92 245.314 1396.58 247.911 1394.19 250.507C1391.8 253.104 1389.37 255.686 1387.32 258.024C1385.26 260.348 1383.61 262.284 1382.56 264.207C1380.41 268.109 1380.53 272.713 1380.73 276.916C1380.93 281.134 1381.3 285.308 1381.19 286.241C1381.23 285.939 1380.64 287.647 1379.53 289.354C1378.42 291.061 1376.87 293.098 1375.21 295.02C1373.56 296.942 1371.77 298.75 1370.25 300.026C1368.72 301.303 1367.2 301.848 1367.6 301.805C1364.91 302.106 1361.99 302.924 1359.47 304.674C1356.96 306.424 1354.85 309.609 1355.22 313.324C1355.13 312.492 1355.19 313.281 1354.67 314.271C1354.15 315.261 1353.28 316.623 1352.17 318.173C1349.95 321.271 1346.78 325.116 1343.4 328.946C1340.02 332.776 1336.4 336.606 1333.27 339.719C1330.13 342.846 1327.32 345.313 1326.16 346.131C1324.05 347.58 1319.72 350.09 1314.94 352.673V360.075C1320.94 356.933 1326.75 353.662 1329.88 351.496C1331.96 350.076 1334.63 347.58 1337.9 344.338C1341.16 341.096 1344.85 337.194 1348.32 333.249C1351.81 329.304 1355.06 325.36 1357.49 321.96C1358.72 320.267 1359.71 318.718 1360.46 317.298C1361.21 315.878 1361.93 314.744 1361.71 312.679C1361.58 311.431 1361.97 310.871 1363.21 310.025C1364.45 309.164 1366.51 308.49 1368.3 308.289C1370.94 308.002 1372.54 306.625 1374.45 305.018C1376.37 303.412 1378.32 301.403 1380.17 299.28C1381.99 297.157 1383.69 294.934 1385.02 292.897C1386.34 290.86 1387.39 289.339 1387.67 287.044C1388.04 284.003 1387.42 280.474 1387.25 276.601C1387.06 272.728 1387.44 268.869 1388.29 267.305C1388.73 266.502 1390.26 264.522 1392.22 262.299C1394.17 260.09 1396.58 257.508 1399 254.882C1401.41 252.257 1403.83 249.575 1405.86 247.079C1407.89 244.583 1409.53 242.388 1410.44 240.05C1411.46 237.41 1415.39 229.965 1419.15 222.721C1421.02 219.106 1422.88 215.477 1424.39 212.292C1425.89 209.107 1427.04 206.525 1427.56 204.302C1428.15 201.734 1430.32 196.656 1432.8 192.482C1434.03 190.402 1435.36 188.494 1436.51 187.174C1437.66 185.854 1438.81 185.295 1438.55 185.366C1440.53 184.936 1442.31 183.946 1444.56 182.627C1446.79 181.307 1449.28 179.628 1451.68 177.821C1454.09 176.014 1456.4 174.077 1458.29 172.169C1460.18 170.261 1461.73 168.626 1462.45 166.216C1463.17 163.849 1463.88 162.171 1464.51 161.31C1465.14 160.449 1465.47 160.22 1466.71 160.062C1468.4 159.847 1470.38 159.89 1471.87 160.334C1473.35 160.765 1474.23 161.367 1474.79 162.63C1475.87 165.054 1477.68 168.583 1480.17 171.638C1481.41 173.159 1482.83 174.579 1484.58 175.641C1486.32 176.702 1488.53 177.376 1490.85 176.96C1491.21 176.889 1493.17 176.989 1495.42 177.563C1497.66 178.137 1500.34 179.055 1502.93 180.116C1505.52 181.192 1508.05 182.411 1510.03 183.559C1512 184.707 1513.48 185.983 1513.6 186.141C1516.07 189.426 1518.06 195.049 1519.51 201.332C1520.42 205.263 1523.05 211.575 1526.16 218.26C1529.26 224.944 1532.74 231.672 1535.46 235.732C1537.81 239.246 1544.6 250.392 1550.56 260.893C1553.54 266.143 1556.32 271.279 1558.28 275.224C1559.26 277.203 1560.02 278.896 1560.47 280.072C1560.67 280.617 1560.81 281.048 1560.87 281.292C1559.73 286.011 1561.26 291.706 1565.51 297.502C1566.53 298.907 1567.78 299.725 1569.32 300.657C1570.86 301.59 1572.72 302.508 1574.81 303.455C1579 305.348 1584.19 307.299 1589.56 309.121C1600.3 312.765 1611.5 315.892 1617.09 316.724C1622.09 317.47 1627.05 318.244 1630.78 319.995C1634.5 321.745 1637.08 324.126 1638.36 329.204C1639.87 335.229 1641.27 340.106 1643.13 344.094C1644.98 348.068 1647.46 351.267 1650.96 353.16C1656.93 356.417 1657 354.408 1663.29 363.575C1665.15 366.272 1667.84 366.989 1671.28 367.95C1674.72 368.911 1679.06 369.686 1684.07 370.417C1694.09 371.852 1706.81 373.028 1719.72 374.391C1732.64 375.754 1745.77 377.289 1756.39 379.426C1767.01 381.563 1775.15 384.748 1777.45 387.273C1784.17 394.646 1790.48 405.046 1796.15 414.213C1798.98 418.803 1801.66 423.064 1804.25 426.578C1806.84 430.078 1809.22 432.876 1812.31 434.41C1816.03 436.261 1821.84 440.579 1828.27 443.591C1834.69 446.604 1842.49 448.411 1849.4 444.108C1854.69 440.808 1856.77 440.45 1860.9 441.368C1861.43 441.483 1884.22 444.725 1884.82 444.897V438.155C1884.72 438.126 1862.41 435.027 1862.32 434.999C1856.93 433.808 1851.93 434.841 1845.93 438.585C1841.55 441.31 1836.63 440.306 1831.06 437.695C1825.49 435.085 1820 430.953 1815.24 428.586C1814.1 428.013 1811.87 425.889 1809.52 422.719C1807.18 419.535 1804.56 415.375 1801.73 410.813C1796.11 401.689 1789.7 391.002 1782.3 382.897C1777.55 377.69 1768.73 375.266 1757.68 373.042C1746.64 370.833 1733.39 369.284 1720.42 367.921C1707.44 366.558 1694.75 365.382 1685 363.976C1680.14 363.273 1676.01 362.513 1673.04 361.696C1670.09 360.878 1668.45 359.572 1668.68 359.917C1662 350.191 1659.06 350.176 1654.07 347.451C1652.08 346.375 1650.55 344.582 1649.04 341.354C1647.53 338.127 1646.18 333.551 1644.7 327.64C1642.98 320.798 1638.56 316.451 1633.55 314.099C1628.54 311.746 1623.02 311.029 1618.04 310.283C1613.64 309.623 1602.13 306.525 1591.65 302.967C1586.41 301.188 1581.37 299.28 1577.48 297.53C1575.54 296.655 1573.88 295.809 1572.69 295.092C1571.5 294.374 1570.76 293.657 1570.78 293.686C1567.19 288.765 1566.67 284.72 1567.28 282.568C1567.67 281.22 1567.41 280.603 1567.25 279.915C1567.09 279.226 1566.86 278.537 1566.57 277.777C1566 276.257 1565.16 274.435 1564.14 272.355C1562.1 268.195 1559.26 263.002 1556.25 257.68C1550.22 247.05 1543.54 236.062 1540.89 232.117C1538.62 228.717 1535.1 222.018 1532.1 215.52C1529.09 209.021 1526.47 202.408 1525.89 199.869C1524.35 193.213 1522.35 186.901 1518.84 182.239C1517.47 180.417 1515.63 179.27 1513.31 177.921C1510.99 176.587 1508.26 175.253 1505.42 174.091C1502.58 172.929 1499.68 171.911 1497.01 171.237C1494.35 170.562 1492.05 170.103 1489.67 170.534C1489.24 170.62 1488.77 170.534 1487.97 170.06C1487.17 169.573 1486.19 168.669 1485.25 167.521C1483.38 165.226 1481.7 162.041 1480.78 159.99C1479.34 156.777 1476.47 154.898 1473.72 154.08C1471.99 153.578 1470.28 153.406 1468.67 153.406L1468.64 153.434ZM1560.86 281.363C1560.86 281.363 1560.86 281.378 1560.86 281.392C1560.89 281.55 1560.81 281.607 1560.86 281.363Z" fill="#E7ECF8"/>
<path d="M2188.34 91.2201C2187.64 91.2201 2186.93 91.2488 2186.15 91.3779C2182.03 92.0234 2177.77 94.7633 2171.26 101.233C2164.34 108.119 2160.16 117.644 2156.81 126.566C2153.46 135.489 2150.81 143.981 2148.12 148.27C2145.34 152.703 2141.44 155.758 2137.53 157.551C2133.65 159.345 2129.75 159.775 2127.59 159.345C2125.33 158.9 2122.92 159.33 2121.08 160.521C2119.25 161.712 2117.99 163.433 2116.92 165.384C2114.78 169.286 2113.29 174.407 2111.44 180.518C2109.58 186.6 2108.05 188.766 2106.04 190.043C2104.01 191.334 2100.51 191.98 2094.74 193.256C2082.01 196.068 2076.3 205.952 2070.25 213.181C2069.04 214.63 2065.23 218.245 2060.23 222.477C2055.24 226.695 1961.52 267.922 1954.89 272.728C1954.37 273.101 1953.84 273.488 1953.32 273.861C1953.58 274.435 1953.84 275.023 1954.11 275.597C1954.77 277.031 1955.46 278.451 1956.15 279.857C1957.03 279.24 1957.9 278.609 1958.76 277.992C1965.52 273.072 2059.35 231.773 2064.48 227.44C2069.6 223.108 2073.36 219.665 2075.29 217.356C2081.84 209.524 2086.2 201.82 2096.16 199.625C2101.73 198.392 2105.84 197.918 2109.56 195.537C2113.29 193.156 2115.67 189.082 2117.7 182.411C2119.57 176.3 2121.12 171.323 2122.66 168.511C2123.44 167.105 2124.18 166.302 2124.68 165.972C2125.18 165.642 2125.43 165.556 2126.31 165.742C2130.44 166.575 2135.36 165.742 2140.3 163.462C2145.24 161.181 2150.14 157.322 2153.67 151.713C2157.29 145.961 2159.69 137.497 2162.94 128.847C2166.2 120.197 2170.21 111.504 2175.9 105.838C2182 99.7554 2185.31 98.1057 2187.17 97.8045C2189.03 97.5176 2190.68 98.4643 2194.37 99.1959C2197.06 99.7267 2199.05 100.559 2201.98 103.485C2204.92 106.411 2208.6 111.547 2213.59 120.211C2218.78 129.263 2222.7 133.323 2227.29 134.47C2231.88 135.618 2235.22 133.638 2238.39 133.108C2239.14 132.978 2240.27 133.251 2241.89 134.313C2243.5 135.374 2245.37 137.139 2247.26 139.161C2251.03 143.221 2254.67 148.227 2258.48 151.268C2261.92 154.008 2265.73 156.103 2269.55 157.193C2273.08 158.197 2276.72 158.312 2280.01 156.978C2280.21 157.135 2280.52 157.394 2281.04 158.082C2282.31 159.761 2283.98 162.83 2285.75 166.589C2289.29 174.12 2293.41 184.506 2297.87 194.045C2300.07 198.765 2301.48 201.749 2302.68 203.829C2303.27 204.861 2303.82 205.693 2304.54 206.439C2305.25 207.185 2306.31 207.888 2307.44 208.103C2309.72 208.548 2310.8 207.759 2311.93 207.472C2313.07 207.185 2314.42 206.927 2316.86 207.2C2318.61 207.4 2320.67 208.562 2323.19 211.073C2325.71 213.583 2328.53 217.284 2331.73 221.717C2338.13 230.596 2346.15 242.417 2357.75 253.979C2363.27 259.459 2369.04 264.221 2374.97 268.439V260.319C2370.64 257.02 2366.43 253.405 2362.39 249.374C2351.31 238.328 2343.56 226.924 2337.05 217.915C2333.8 213.411 2330.86 209.495 2327.83 206.468C2324.79 203.441 2321.51 201.16 2317.58 200.73C2314.35 200.371 2311.92 200.759 2310.29 201.16C2309.3 201.419 2309.03 201.49 2309 201.548C2308.84 201.347 2308.68 201.146 2308.35 200.572C2307.41 198.966 2305.99 195.982 2303.79 191.277C2299.44 181.995 2295.35 171.667 2291.65 163.806C2289.79 159.875 2288.08 156.59 2286.24 154.152C2285.32 152.932 2284.38 151.885 2283.06 151.111C2281.73 150.336 2279.59 150.006 2277.93 150.824C2276.39 151.598 2274.09 151.713 2271.31 150.924C2268.53 150.135 2265.39 148.457 2262.53 146.176C2260.04 144.196 2256.12 139.147 2252.02 134.743C2249.98 132.534 2247.83 130.454 2245.46 128.89C2243.08 127.327 2240.3 126.179 2237.27 126.681C2232.87 127.413 2230.54 128.575 2228.83 128.144C2227.12 127.714 2224.11 125.505 2219.21 116.984C2214.1 108.076 2210.23 102.538 2206.56 98.8803C2202.89 95.2224 2199.2 93.5296 2195.59 92.8124C2193.46 92.382 2191.24 91.2775 2188.26 91.2201H2188.34Z" fill="#E7ECF8"/>
<path d="M1343.76 283.042C1345.29 283.486 1348.19 285.538 1352.46 290.386C1354.97 293.241 1357.67 295.049 1360.5 295.737C1363.34 296.426 1366.15 295.881 1368.46 294.79C1373.1 292.581 1376.35 288.435 1378.9 285.251C1381.13 282.468 1382.21 281.736 1384.28 281.607C1384.17 280.101 1384.04 278.466 1383.97 276.773C1383.94 276.214 1383.92 275.654 1383.91 275.095C1379.82 275.353 1376.52 277.763 1373.79 281.163C1371.3 284.261 1368.26 287.646 1365.64 288.895C1364.33 289.511 1363.27 289.683 1362.06 289.397C1360.85 289.11 1359.28 288.249 1357.39 286.083C1352.83 280.89 1349.43 277.906 1345.62 276.787C1341.79 275.668 1338.16 277.232 1335.33 279.341C1333.78 280.488 1330.72 281.206 1325.78 281.206C1322.79 281.206 1319.12 280.962 1314.9 280.646V287.187C1318.94 287.489 1322.59 287.718 1325.78 287.718" fill="#E7ECF8"/>
<path d="M1626.56 315.878C1635.53 308.217 1644.42 297.832 1645.52 296.741C1645.6 296.655 1645.65 296.598 1645.67 296.54C1645.73 296.54 1645.8 296.569 1645.93 296.569C1646.75 296.569 1649.2 296.985 1653.29 298.147C1659.75 299.983 1668.1 299.094 1678.94 297.229C1689.8 295.364 1702.61 292.151 1715.39 287.862C1728.17 283.573 1740.91 278.208 1751.61 271.91C1762.31 265.627 1771.12 258.526 1775.58 249.632C1789.38 222.104 1806.74 213.641 1821.67 203.728C1833.92 195.58 1854.98 194.978 1872.66 203.786C1880.59 207.73 1895.13 220.87 1909.24 235.804C1923.33 250.722 1937.53 267.549 1947.1 279.456C1967.35 304.688 1993.87 315.49 2020.08 310.269C2031.15 308.06 2060.23 305.578 2088.75 306.467C2103 306.912 2117.21 308.174 2129.1 310.599C2140.99 313.023 2150.48 316.796 2155.11 320.956C2179.81 343.104 2208.62 359.816 2237.06 385.781C2245.56 393.542 2259.26 399.466 2275.82 404.946C2281.98 406.983 2288.51 408.919 2295.29 410.756V399.193C2289.74 397.644 2284.37 396.052 2279.33 394.388C2263.41 389.123 2250.58 383.041 2244.61 377.59C2215.17 350.707 2186.1 333.794 2162.58 312.693C2155.17 306.037 2144.16 302.307 2131.33 299.696C2118.49 297.086 2103.78 295.795 2089.09 295.35C2059.73 294.432 2030.92 296.756 2017.88 299.366C1995.87 303.756 1974.15 295.335 1955.81 272.513C1946.08 260.405 1931.77 243.435 1917.37 228.186C1902.98 212.938 1889.01 199.496 1877.66 193.844C1867.2 188.637 1855.83 186.026 1844.98 186.098C1834.12 186.17 1823.8 188.938 1815.47 194.476C1801.45 203.786 1780.7 214.53 1765.57 244.669C1762.81 250.192 1755.64 256.604 1745.91 262.328C1736.18 268.051 1724.04 273.201 1711.81 277.318C1699.57 281.435 1687.2 284.519 1677.04 286.269C1666.86 288.02 1658.33 288.02 1656.36 287.446C1651.99 286.212 1649.03 285.437 1645.92 285.437C1642.81 285.437 1639.46 287.015 1637.6 288.866C1633.87 292.581 1620.54 306.037 1612.64 312.793M1308.13 380.502L1844.98 186.098Z" fill="#E7ECF8"/>
<path d="M1853.46 192.266C1851.31 192.955 1850.45 195.508 1851.73 197.359C1888.52 251.583 1876.62 324.384 1879.67 401.632C1880.78 429.82 1884.02 458.611 1892.51 487.157H1899.33C1890.68 458.711 1887.5 429.892 1886.36 401.374C1883.34 325.001 1895.98 250.665 1857.27 193.629C1857.03 193.271 1856.72 192.955 1856.36 192.711C1855.39 192.539 1854.41 192.41 1853.43 192.281L1853.46 192.266ZM1872.5 197.574C1870.82 198.578 1870.36 200.802 1871.51 202.394C1906.06 251.641 1898.67 327.913 1908.1 406.194C1911.37 433.292 1916.77 460.662 1926.82 487.143H1933.81C1923.52 460.59 1918.08 432.99 1914.75 405.391C1905.57 329.104 1913.41 252.86 1878.45 200.687C1877.3 199.97 1876.19 199.339 1875.14 198.808C1874.26 198.377 1873.38 197.961 1872.49 197.574H1872.5ZM1896.46 215.147C1894.64 216.108 1894.12 218.46 1895.36 220.096C1927.68 264.393 1923.79 340.881 1938.59 417.039C1943.2 440.765 1949.73 464.478 1959.9 487.128H1967.08C1956.56 464.248 1949.92 440.12 1945.18 415.762C1931.48 345.184 1934.86 272.842 1906.63 225.045C1905.32 223.711 1904 222.377 1902.7 221.1C1900.59 219.02 1898.51 217.026 1896.47 215.132L1896.46 215.147ZM1923.26 242.89C1921.43 242.947 1920.45 245.056 1921.58 246.491C1936.82 266.445 1944.32 294.977 1950.37 327.511C1956.41 360.046 1961.02 396.525 1970.89 432.302C1976.06 450.993 1982.71 469.498 1991.75 487.128H1996.66C1987.3 469.226 1980.5 450.319 1975.2 431.126C1965.44 395.765 1960.83 359.429 1954.76 326.708C1949.2 296.741 1942.42 269.744 1929 249.274C1927.33 247.366 1925.63 245.443 1923.91 243.536C1923.72 243.32 1923.52 243.105 1923.32 242.89H1923.25H1923.26ZM1947.83 271.523C1945.43 272.111 1944.46 274.994 1946.05 276.902C1959.95 294.116 1967.73 320.583 1974.88 351.123C1982.04 381.664 1988.66 416.192 2001.1 449.516C2005.87 462.34 2011.56 474.993 2018.46 487.143H2026.06C2018.56 474.333 2012.48 460.906 2007.37 447.192C1995.21 414.557 1988.61 380.344 1981.4 349.617C1975.63 324.987 1969.53 302.565 1959.49 284.921C1959.29 284.72 1959.09 284.534 1958.89 284.319C1957.61 283.042 1956.35 281.708 1955.12 280.316C1953.88 278.925 1952.66 277.476 1951.45 275.984C1950.31 274.564 1949.1 273.072 1947.83 271.523ZM1971.12 294.503C1969.53 294.934 1968.94 296.885 1970.03 298.133C1999.51 332.202 2002.74 418.688 2046.1 487.143H2051.32C2008.51 420.525 2005.6 334.813 1974.77 296.842C1973.54 296.11 1972.32 295.335 1971.12 294.518V294.503ZM1981.91 300.557C1981.98 300.887 1982.12 301.188 1982.32 301.446C2008.02 335.631 2017.2 400.398 2050.18 456.401C2056.46 467.06 2063.64 477.403 2071.96 487.143H2077.79C2068.61 476.786 2060.81 465.668 2054.03 454.149C2022.95 401.374 2013.6 339.891 1989.06 303.283C1988.6 303.139 1988.15 302.996 1987.69 302.852C1986.24 302.365 1984.8 301.819 1983.37 301.217C1982.89 301.002 1982.38 300.787 1981.89 300.557H1981.91ZM2029.8 303.197C2027.25 303.498 2024.95 303.813 2022.92 304.129C2022.98 304.387 2023.06 304.645 2023.18 304.889C2047.05 355.585 2072.15 399.954 2117.86 429.662C2157.63 455.512 2212.66 470.029 2295.29 468.537V461.853C2213.51 463.344 2159.9 448.999 2121.53 424.053C2077.78 395.622 2053.38 353.117 2029.8 303.197ZM1994.39 304.674C2018.66 343.076 2031.89 401.13 2067.21 449.487C2077.12 463.043 2088.81 475.81 2102.96 487.143H2110.1C2094.31 475.236 2081.55 461.523 2070.83 446.862C2037.16 400.771 2023.9 344.969 2000.22 305.621C1998.98 305.477 1997.74 305.305 1996.52 305.09C1995.81 304.961 1995.11 304.818 1994.39 304.674ZM2018.15 304.961C2017.38 305.104 2016.61 305.234 2015.84 305.348C2039.76 351.324 2060.63 399.409 2102.06 434.812C2134.09 462.182 2178.4 481.878 2245.67 487.143H2295.29V486.196C2199.54 488.219 2142.4 466.343 2103.53 433.119C2062.77 398.29 2041.99 350.822 2018.15 304.961ZM2008.84 305.979C2007.99 306.008 2007.14 306.008 2006.29 306.008C2030.15 348.068 2047.17 400.456 2085.08 441.827C2101.32 459.557 2121.41 475.222 2147.47 487.157H2152.87C2124.88 475.122 2103.71 458.869 2086.72 440.335C2049.54 399.767 2032.53 348.14 2008.84 305.994V305.979Z" fill="#E7ECF8"/>
<path d="M2080.31 317.771C2078.9 317.771 2077.46 317.814 2076.04 317.886C2064.59 318.402 2052.69 320.783 2039.92 326.235C2038.19 326.952 2037.39 328.931 2038.12 330.638C2038.85 332.346 2040.86 333.135 2042.55 332.374C2066.64 322.089 2086.79 323.366 2108.2 327.353C2129.6 331.341 2152.12 338.184 2179.68 338.428C2181.09 338.428 2182.36 337.581 2182.85 336.262C2181.14 334.971 2179.42 333.68 2177.74 332.389C2177.44 332.159 2177.14 331.93 2176.83 331.686C2151.66 331.011 2130.54 324.714 2109.42 320.783C2099.83 319.005 2090.22 317.728 2080.28 317.785L2080.31 317.771ZM2145.08 342.76C2112.14 342.703 2081.94 349.631 2059.83 361.05C2055.88 363.101 2058.95 369.011 2062.91 366.989C2096.31 349.746 2151.15 342.918 2204.37 357.378C2206.1 357.865 2207.9 356.919 2208.47 355.226C2205.93 353.304 2203.39 351.439 2200.87 349.574C2182.04 344.926 2163.14 342.789 2145.08 342.76ZM2153.9 353.103C2118.85 353.06 2085.77 359.974 2063.79 371.335C2062.66 371.88 2062.2 373.258 2062.78 374.362C2063.36 375.467 2064.74 375.897 2065.85 375.295C2099.44 357.937 2162.57 351.008 2215.99 365.526C2217.5 365.97 2219 364.751 2218.84 363.187C2217.86 362.413 2216.88 361.667 2215.9 360.906C2195.79 355.57 2174.5 353.146 2153.9 353.117V353.103ZM2168.37 362.642C2165.76 362.642 2163.17 362.7 2160.6 362.8C2126.19 364.062 2093.96 372.655 2072.27 383.859C2071.7 384.131 2071.47 384.82 2071.76 385.379C2072.05 385.939 2072.74 386.139 2073.3 385.838C2107.38 368.237 2168.77 357.033 2222.45 371.622C2223.88 371.981 2224.45 369.872 2223.04 369.47C2205.21 364.622 2186.56 362.571 2168.37 362.642ZM2233.85 375.495C2203.58 378.881 2179.5 376.758 2156.21 376.729C2132.42 376.715 2109.42 379.01 2082.52 391.978C2080.83 392.767 2080.13 394.775 2080.93 396.453C2081.74 398.117 2083.77 398.82 2085.44 398.003C2111.29 385.537 2132.84 383.399 2156.21 383.414C2179.57 383.428 2204.67 385.709 2236.59 381.908C2237.68 381.793 2238.66 381.162 2239.19 380.201C2237.41 378.594 2235.62 377.03 2233.85 375.495ZM2226.86 389.482H2221.56C2179.01 389.711 2132.45 395.277 2103.12 409.421C2101.45 410.225 2100.75 412.233 2101.56 413.883C2102.37 415.547 2104.37 416.235 2106.04 415.432C2142.57 397.802 2212.26 393.671 2261.45 397.572C2263.08 397.744 2264.59 396.712 2265.03 395.134C2261.75 393.828 2258.67 392.509 2255.82 391.131C2255.29 390.873 2254.78 390.629 2254.27 390.371C2245.53 389.84 2236.32 389.525 2226.84 389.482H2226.86ZM2283.73 408.647C2234.52 408.776 2171.12 418.401 2137.98 434.382C2136.25 435.142 2135.5 437.193 2136.33 438.886C2137.15 440.579 2139.22 441.267 2140.9 440.392C2174.44 424.211 2245.97 414.098 2295.29 415.504V408.805C2293.05 408.747 2290.77 408.69 2288.44 408.661C2286.89 408.647 2285.32 408.647 2283.72 408.647H2283.73ZM2290.37 428.429C2287.38 428.429 2284.38 428.472 2281.43 428.543C2245.9 429.533 2213.48 436.591 2184.62 450.505C2182.88 451.266 2182.13 453.317 2182.97 455.024C2183.79 456.731 2185.87 457.405 2187.54 456.53C2219.04 441.339 2255.1 434.525 2295.29 435.156V428.472C2293.65 428.457 2292 428.429 2290.37 428.429Z" fill="#E7ECF8"/>
<path d="M1461.13 323.251C1459.17 323.237 1457.18 323.452 1455.18 323.997C1450.62 325.245 1446.28 328.286 1442.57 333.35C1435.53 343.004 1432.82 352.127 1429.73 357.406C1428.18 360.046 1426.74 361.61 1424.71 362.556C1422.68 363.503 1419.7 363.948 1414.77 363.187C1408.77 362.269 1403.93 363.187 1400.87 366.315C1397.8 369.442 1397.12 373.545 1396.69 377.719C1395.81 386.053 1396.13 395.88 1390.98 404.673C1385.98 413.194 1371.34 424.541 1356.16 434.353C1340.97 444.165 1325.39 452.715 1317.58 457.908C1309.41 463.33 1304.65 470.273 1298.67 476.642C1295.22 480.315 1291.36 483.886 1286.12 487.171V495.994C1294.15 491.676 1299.75 486.712 1304.29 481.878C1310.74 475.021 1315.1 468.767 1321.85 464.277C1328.95 459.557 1344.87 450.778 1360.34 440.765C1375.82 430.767 1391.01 419.822 1397.63 408.518C1404.08 397.501 1403.57 385.853 1404.35 378.508C1404.74 374.836 1405.52 372.54 1406.39 371.651C1407.27 370.747 1408.84 370.016 1413.62 370.747C1419.47 371.651 1424.16 371.264 1427.99 369.471C1431.82 367.677 1434.41 364.608 1436.38 361.265C1440.32 354.566 1442.6 346.361 1448.8 337.84C1451.73 333.823 1454.43 332.13 1457.22 331.356C1460.02 330.596 1463.16 330.825 1466.77 331.671C1474 333.379 1482.53 337.754 1492.1 337.754C1499.75 337.754 1510.63 339.748 1519.59 343.621C1528.54 347.494 1535.15 353.103 1536.41 359.443C1538.4 369.313 1546.27 377.231 1555.21 383.328C1564.15 389.41 1574.37 393.671 1582.45 395.464C1589.39 396.999 1598.73 400.628 1606.46 404.975C1614.19 409.321 1620.12 414.873 1621.07 417.713C1622.2 421.055 1624.48 422.361 1627.45 424.369C1630.42 426.377 1634.27 428.543 1638.81 430.853C1647.88 435.472 1659.65 440.665 1671.72 445.643C1683.79 450.62 1696.16 455.383 1706.35 459.113C1716.56 462.842 1724.37 465.511 1728.19 466.457C1734.31 467.978 1748.67 472.999 1762.61 476.37C1769.58 478.048 1776.48 479.353 1782.59 479.569C1788.69 479.784 1794.29 479.181 1798.14 475.351C1800.35 473.142 1801.85 472.439 1802.31 472.353C1802.77 472.267 1802.67 472.195 1803.5 472.884C1805.16 474.275 1808 479.024 1812.59 483.6C1817.09 488.09 1825.47 494.746 1834.53 499.91C1839.06 502.492 1843.74 504.687 1848.3 505.949C1852.87 507.212 1857.43 507.656 1861.56 505.877C1866.76 503.668 1876.53 501.187 1886.06 500.398C1895.58 499.609 1904.89 500.756 1909.2 503.826C1913.7 507.025 1920.75 510.238 1928.97 513.193V504.945C1922.17 502.32 1916.57 499.666 1913.67 497.6C1906.37 492.407 1895.79 491.905 1885.43 492.766C1875.06 493.627 1864.96 496.108 1858.54 498.848C1856.88 499.566 1853.99 499.58 1850.36 498.576C1846.73 497.572 1842.5 495.635 1838.34 493.268C1830.01 488.52 1821.8 481.964 1818.02 478.206C1814.33 474.534 1812.19 470.201 1808.46 467.045C1806.59 465.467 1803.69 464.262 1800.8 464.851C1797.89 465.424 1795.44 467.203 1792.69 469.957C1791.57 471.076 1788.06 472.124 1782.86 471.937C1777.67 471.751 1771.12 470.56 1764.41 468.939C1751.01 465.697 1737.19 460.82 1730.05 459.041C1727.22 458.338 1719.11 455.641 1709 451.94C1698.89 448.239 1686.61 443.505 1674.65 438.585C1662.69 433.65 1651.04 428.515 1642.31 424.053C1637.93 421.83 1634.29 419.75 1631.75 418.057C1629.23 416.35 1628.05 414.457 1628.34 415.317C1625.98 408.245 1618.64 403.067 1610.22 398.333C1601.8 393.599 1592.07 389.783 1584.09 388.019C1577.25 386.498 1567.58 382.51 1559.53 377.03C1551.49 371.551 1545.27 364.622 1543.93 357.98C1541.88 347.795 1532.74 341.024 1522.64 336.649C1512.53 332.274 1501.03 330.137 1492.1 330.137C1485.09 330.137 1477.08 326.263 1468.54 324.255C1466.41 323.753 1464.21 323.38 1461.98 323.28C1461.7 323.28 1461.41 323.251 1461.14 323.251H1461.13Z" fill="#E7ECF8"/>
<path d="M1461.11 327.081C1460.39 327.081 1459.69 327.095 1458.98 327.167C1458.43 327.225 1457.89 327.311 1457.35 327.411C1457.41 327.77 1457.54 328.1 1457.74 328.386C1483.04 365.655 1474.86 415.69 1476.95 468.781C1478.1 497.945 1482.55 528.012 1497.68 557.089C1498.29 557.032 1498.93 556.974 1499.58 556.888C1500.48 556.788 1501.45 556.644 1502.43 556.501C1487.05 527.754 1482.72 497.959 1481.55 468.595C1479.51 416.68 1487.97 366.143 1462.42 327.124C1462.22 327.124 1462.02 327.11 1461.82 327.095C1461.57 327.095 1461.34 327.081 1461.1 327.081H1461.11ZM1489.05 333.78C1489.07 334.124 1489.17 334.469 1489.33 334.77C1508.46 370.69 1495.92 414.987 1493.4 463.058C1491.85 492.737 1494.39 523.866 1511.06 554.894C1512.53 554.564 1514.04 554.22 1515.57 553.833C1498.81 523.364 1496.45 492.924 1498.01 463.301C1500.45 416.479 1513.32 371.723 1494.12 334.01C1493.43 333.981 1492.75 333.967 1492.09 333.967C1491.07 333.967 1490.06 333.895 1489.04 333.795L1489.05 333.78ZM1524.51 342.918C1522.93 342.99 1521.89 344.582 1522.46 346.045C1535.48 380.617 1518.2 417.928 1510.67 459.73C1505.52 488.305 1505.32 519.003 1523.14 551.767C1524.58 551.337 1526.03 550.878 1527.49 550.404C1509.68 518.429 1510.11 488.821 1515.21 460.547C1522.61 419.506 1540.63 381.248 1526.78 344.439C1526.47 343.563 1525.67 342.975 1524.74 342.918C1524.67 342.918 1524.58 342.918 1524.51 342.918ZM1555.95 379.197C1555.95 379.283 1555.96 379.383 1555.99 379.469C1559.45 396.095 1555.78 410.426 1549.57 424.498C1543.37 438.571 1534.59 452.284 1528.22 467.304C1521.86 482.323 1517.96 498.762 1521.79 517.956C1523.67 527.381 1527.39 537.436 1533.51 548.324C1534.21 548.066 1534.9 547.808 1535.61 547.55C1536.36 547.263 1537.1 546.962 1537.85 546.66C1531.75 535.916 1528.11 526.118 1526.31 517.067C1522.7 498.949 1526.31 483.628 1532.47 469.082C1538.63 454.537 1547.38 440.851 1553.79 426.334C1559.69 412.936 1563.56 398.72 1561.22 382.639C1559.91 381.865 1558.61 381.047 1557.36 380.186C1556.88 379.856 1556.41 379.526 1555.93 379.197H1555.95ZM1591.09 394.747C1590.22 394.747 1589.53 395.478 1589.56 396.339C1590.01 412.491 1583.64 424.541 1574.89 435.458C1566.14 446.374 1554.98 456.014 1546.16 467.088C1537.34 478.163 1530.87 490.786 1531.89 507.355C1532.54 517.856 1536.14 529.891 1543.87 544.121C1544.81 543.691 1545.74 543.246 1546.66 542.802C1539.05 528.801 1535.58 517.153 1534.96 507.168C1534 491.475 1540 479.755 1548.56 468.996C1557.13 458.238 1568.3 448.583 1577.3 437.38C1586.29 426.162 1593.1 413.266 1592.64 396.267C1592.64 395.421 1591.94 394.747 1591.09 394.761V394.747ZM1623.19 413.596C1620.53 429.232 1611.41 439.03 1600.08 446.776C1588.74 454.537 1575.19 460.131 1563.98 467.232C1552.77 474.333 1543.83 483.026 1542.04 496.897C1540.66 507.613 1543.53 521.298 1552.61 539.66C1552.85 539.517 1553.1 539.373 1553.34 539.244C1553.54 539.129 1553.75 539 1553.95 538.885C1544.99 520.753 1542.26 507.369 1543.57 497.098C1545.28 483.786 1553.76 475.509 1564.8 468.523C1575.84 461.537 1589.42 455.928 1600.95 448.038C1612.02 440.478 1621.22 430.724 1624.35 415.662C1624.21 415.332 1624.04 414.987 1623.85 414.657C1623.65 414.313 1623.43 413.955 1623.19 413.596ZM1654.82 434.238C1653.94 438.198 1651.99 441.339 1649.17 444.007C1645.57 447.421 1640.51 450.018 1634.5 452.141C1622.5 456.387 1606.86 458.711 1592.35 462.627C1577.84 466.558 1564.3 472.095 1556.7 483.284C1549.11 494.459 1547.84 510.956 1557.14 535.873C1557.23 536.131 1557.4 536.361 1557.6 536.533C1557.83 536.375 1558.08 536.203 1558.31 536.045C1558.9 535.629 1559.46 535.213 1560.01 534.783C1550.91 510.382 1552.34 495.162 1559.23 485.005C1566.13 474.849 1578.88 469.455 1593.15 465.597C1607.41 461.738 1623.06 459.443 1635.53 455.039C1641.76 452.83 1647.21 450.09 1651.27 446.231C1654.33 443.333 1656.56 439.79 1657.65 435.515C1657 435.228 1656.33 434.941 1655.69 434.654C1655.39 434.525 1655.1 434.382 1654.8 434.253L1654.82 434.238ZM1687.23 447.78C1678.68 461.25 1666.23 466.873 1651.98 469.312C1637.45 471.808 1621.22 470.79 1606.42 471.062C1591.61 471.335 1577.97 472.826 1569 481.347C1560.02 489.883 1556.62 504.902 1561.13 530.407C1561.3 531.354 1562.05 532.1 1563 532.272C1563.98 531.369 1564.86 530.45 1565.65 529.518C1561.29 504.773 1564.74 491.748 1572.19 484.69C1579.63 477.618 1591.98 475.939 1606.5 475.667C1621.03 475.394 1637.48 476.47 1652.77 473.859C1668.03 471.234 1682.28 464.736 1691.61 449.502C1691.45 449.444 1691.29 449.387 1691.13 449.315C1689.85 448.813 1688.54 448.311 1687.25 447.794L1687.23 447.78Z" fill="#E7ECF8"/>
<path d="M1441.1 343.606C1440.96 343.606 1440.83 343.606 1440.68 343.635C1440.08 344.754 1439.53 345.859 1439 346.935C1439.12 347.164 1439.27 347.379 1439.48 347.566C1454.4 362.04 1460.9 383.385 1463.56 406.323C1465.73 425.072 1465.32 444.28 1465.04 461.895C1450.65 427.883 1425.93 404.688 1399.9 396.21C1399.41 396.052 1398.88 396.066 1398.39 396.238C1398.16 397.185 1397.9 398.132 1397.61 399.093C1397.54 399.337 1397.46 399.581 1397.37 399.825C1397.64 400.183 1398.03 400.441 1398.46 400.585C1425.58 409.421 1452.09 435.544 1465.03 474.562C1465.85 477.03 1469.5 476.456 1469.52 473.859C1469.62 453.819 1470.84 429.261 1468.12 405.821C1465.4 382.367 1458.74 359.888 1442.67 344.295C1442.25 343.879 1441.68 343.635 1441.07 343.621L1441.1 343.606ZM1430.26 363.159C1430.26 363.159 1430.19 363.245 1430.15 363.288C1429.6 363.847 1429.02 364.364 1428.39 364.823C1428.15 364.995 1427.89 365.167 1427.63 365.339C1427.6 365.999 1427.86 366.63 1428.32 367.089C1443.25 381.908 1448.92 398.419 1452.1 417.512C1439 395.005 1418.17 381.205 1401.08 378.508C1400.88 378.479 1400.69 378.465 1400.49 378.479C1400.35 379.899 1400.25 381.42 1400.13 382.998C1400.2 383.012 1400.29 383.027 1400.36 383.041C1418.43 385.896 1443.29 403.54 1454.3 432.517C1455.27 435.042 1459.05 434.138 1458.75 431.455C1455.86 405.649 1451.14 383.27 1431.57 363.833C1431.23 363.474 1430.77 363.245 1430.26 363.173V363.159ZM1386.66 421.715C1384.51 421.701 1382.31 421.772 1380.04 421.916C1379.98 421.973 1379.92 422.016 1379.85 422.074C1378.48 423.207 1377.06 424.326 1375.59 425.459C1376.02 426.306 1376.93 426.808 1377.86 426.707C1397.28 424.814 1411.61 429.576 1422.98 438.312C1434.35 447.048 1442.74 459.902 1449.6 474.247C1463.3 502.937 1470.47 537.279 1485.01 555.669C1485.09 555.784 1485.2 555.884 1485.3 555.97C1485.9 556.099 1486.61 556.271 1487.35 556.472C1488.98 556.071 1489.66 554.134 1488.62 552.814C1475.41 536.102 1467.79 501.646 1453.76 472.267C1446.73 457.578 1438.02 444.065 1425.8 434.669C1416.63 427.625 1405.47 422.977 1391.87 421.93C1390.17 421.801 1388.43 421.729 1386.64 421.715H1386.66ZM1367.84 434.324C1366.25 434.324 1364.63 434.367 1362.98 434.453C1361.41 435.501 1359.84 436.548 1358.24 437.566C1357.81 437.853 1357.38 438.126 1356.93 438.398C1357.41 439.073 1358.21 439.431 1359.03 439.345C1378.48 437.452 1393.5 441.798 1405.78 449.903C1418.07 458.008 1427.63 469.986 1435.66 483.427C1451.73 510.296 1461.36 542.787 1475.78 561.02C1475.85 561.12 1475.94 561.22 1476.03 561.307C1476.24 561.063 1476.46 560.804 1476.64 560.575C1477.62 559.37 1478.33 558.394 1478.96 557.62C1465.83 540.592 1455.91 508.345 1439.62 481.075C1431.39 467.289 1421.42 454.723 1408.32 446.073C1398.49 439.589 1386.89 435.357 1373.1 434.482C1371.37 434.367 1369.61 434.31 1367.83 434.31L1367.84 434.324ZM1350.57 445.026C1349.1 445.026 1347.62 445.069 1346.11 445.141C1343.86 446.503 1341.67 447.823 1339.54 449.085C1340.03 449.803 1340.88 450.176 1341.75 450.061C1380.66 446.274 1404.84 466.443 1423.28 492.379C1441.72 518.314 1453.8 549.816 1468.09 567.905C1468.22 568.077 1468.38 568.235 1468.55 568.35C1469.24 567.834 1469.91 567.303 1470.55 566.758C1471.07 566.313 1471.55 565.897 1471.99 565.481C1471.92 565.337 1471.84 565.194 1471.72 565.065C1458.26 548.052 1445.94 516.306 1427.04 489.725C1410.5 466.457 1388.42 447.005 1355.88 445.155C1354.14 445.054 1352.37 445.011 1350.57 445.011V445.026ZM1335.6 453.819C1334.22 453.819 1332.81 453.877 1331.38 453.934C1329.74 454.909 1328.17 455.842 1326.72 456.717C1325.98 457.162 1325.35 457.549 1324.67 457.965C1325.16 458.611 1325.94 458.955 1326.75 458.883C1365.68 455.082 1391.65 474.591 1411.82 499.781C1431.93 524.913 1445.74 555.54 1459.93 573.543C1460.22 573.414 1460.51 573.285 1460.78 573.141C1461.87 572.61 1462.95 572.022 1464.01 571.405C1463.92 571.19 1463.8 570.989 1463.66 570.817C1450.13 553.704 1436.09 522.704 1415.44 496.912C1397.37 474.333 1373.82 455.612 1340.97 453.934C1339.21 453.848 1337.43 453.805 1335.61 453.819H1335.6ZM1316.68 472.109C1313.67 472.123 1310.61 472.267 1307.48 472.525C1306.33 473.845 1305.18 475.179 1303.99 476.527C1304.49 477.087 1305.25 477.374 1306 477.273C1345.07 473.472 1373.88 489.452 1396.68 510.941C1419.37 532.315 1435.83 559.097 1449.84 576.857C1450.73 576.684 1451.63 576.484 1452.5 576.254C1453.06 576.111 1453.61 575.938 1454.17 575.781C1454.19 575.236 1454.01 574.719 1453.67 574.289C1439.95 556.946 1423.24 529.647 1399.85 507.613C1379.37 488.333 1353.58 473.042 1320.3 472.167C1319.1 472.124 1317.91 472.124 1316.7 472.124L1316.68 472.109ZM1299.39 496.367C1298.29 496.367 1297.18 496.367 1296.05 496.381C1292.8 496.424 1289.49 496.567 1286.12 496.797V501.402C1360.76 495.979 1404.12 541.238 1431.34 575.365C1431.77 575.537 1432.19 575.709 1432.64 575.867C1433.53 576.182 1434.44 576.455 1435.36 576.684C1435.73 576.77 1436.11 576.857 1436.48 576.928C1437.01 576.111 1436.96 575.035 1436.35 574.274C1410.63 541.74 1369.02 496.926 1299.38 496.381L1299.39 496.367ZM1317.1 526.018C1315.21 526.018 1313.33 526.046 1311.44 526.104C1303.09 526.391 1294.62 527.352 1286.14 529.016V533.707C1333.93 524.052 1381.13 537.594 1406.01 567.834C1407.69 567.977 1409.35 568.163 1410.97 568.393C1411.23 567.647 1411.1 566.829 1410.63 566.213C1390.24 540.435 1355.32 526.089 1317.12 526.003L1317.1 526.018ZM1325.87 545.914C1312.98 546 1299.91 548.525 1286.12 553.23V558.05C1320.77 545.713 1349.62 547.607 1383.82 567.733C1385.26 567.633 1386.76 567.547 1388.27 567.489C1388.57 567.489 1388.88 567.475 1389.18 567.461C1389.42 566.471 1388.98 565.424 1388.07 564.921C1367.01 552.197 1347.55 546.158 1327.72 545.929H1325.87V545.914ZM1328.44 560.919C1321.97 560.948 1315.82 561.78 1309.83 563.329C1301.76 565.409 1294 568.737 1286.12 572.955V578.205C1294.56 573.528 1302.66 569.928 1311 567.79C1325.75 563.989 1341.34 564.62 1361.42 572.051C1363.09 571.52 1364.53 571.075 1365.77 570.688C1365.93 569.598 1365.3 568.565 1364.26 568.192C1353.61 564.147 1343.99 561.895 1335.05 561.192C1332.82 561.005 1330.62 560.919 1328.46 560.934L1328.44 560.919Z" fill="#E7ECF8"/>
<path d="M1325.78 284.29C1325.78 284.29 1300.29 280.445 1291 281.98C1281.72 283.515 1273.99 291.233 1258.53 291.233C1243.07 291.233 1209.05 348.24 1188.94 355.958C1168.84 363.661 1170.38 359.042 1168.84 369.829C1167.3 380.617 1161.11 380.617 1156.48 386.785C1151.84 392.953 1161.11 414.528 1150.29 420.682C1139.46 426.851 1140.24 441.483 1140.24 441.483" stroke="#E7ECF8" stroke-width="5" stroke-miterlimit="10"/>
<path d="M1328.3 348.441C1328.3 348.441 1313.42 359.802 1294.86 361.351C1276.3 362.886 1243.83 364.435 1233 376.758C1222.18 389.08 1204.67 397.501 1198.99 401.417C1144.1 439.173 1089.97 480.774 1089.97 480.774" stroke="#E7ECF8" stroke-width="4" stroke-miterlimit="10"/>
</g>
</g>
<g clip-path="url(#clip1_11_15)">
<path d="M204.051 310.391C203.377 310.391 202.723 310.45 202.119 310.519C200.197 310.756 198.506 311.792 197.469 313.164C196.433 314.546 195.879 316.126 195.326 317.912C195.305 317.962 194.641 319.057 193.544 320.143C192.447 321.229 190.968 322.463 189.418 323.608C187.868 324.753 186.247 325.829 184.869 326.629C183.49 327.428 182.202 327.951 182.02 327.991C180.259 328.376 179.233 329.442 178.146 330.666C177.059 331.89 176.022 333.381 175.056 334.99C173.124 338.198 171.503 341.722 170.869 344.397C170.708 345.098 169.983 346.904 168.977 348.997C167.971 351.089 166.702 353.547 165.394 356.025C162.787 360.97 160.13 365.768 159.094 368.403C158.852 369.015 157.906 370.457 156.608 372.036C155.31 373.615 153.669 375.402 151.998 377.189C150.328 378.975 148.627 380.752 147.198 382.361C145.758 383.96 144.601 385.293 143.866 386.616C142.367 389.301 142.447 392.469 142.588 395.361C142.729 398.264 142.991 401.136 142.91 401.778C142.94 401.57 142.528 402.745 141.753 403.92C140.978 405.094 139.891 406.496 138.733 407.819C137.576 409.142 136.328 410.385 135.261 411.264C134.194 412.142 133.128 412.518 133.409 412.488C131.527 412.695 129.484 413.258 127.723 414.462C125.972 415.666 124.492 417.858 124.754 420.414C124.694 419.842 124.734 420.385 124.372 421.066C124.009 421.747 123.395 422.685 122.62 423.751C121.07 425.883 118.856 428.529 116.491 431.164C114.126 433.8 111.6 436.435 109.406 438.577C107.212 440.729 105.249 442.427 104.434 442.99C102.965 443.987 99.9351 445.714 96.5938 447.491V452.585C100.791 450.423 104.847 448.172 107.041 446.682C108.49 445.704 110.362 443.987 112.646 441.756C114.921 439.525 117.508 436.84 119.933 434.126C122.369 431.411 124.643 428.696 126.344 426.357C127.2 425.192 127.894 424.126 128.417 423.149C128.941 422.172 129.444 421.392 129.293 419.97C129.202 419.111 129.474 418.726 130.34 418.144C131.205 417.552 132.644 417.088 133.903 416.95C135.744 416.752 136.861 415.805 138.2 414.699C139.539 413.594 140.907 412.212 142.196 410.751C143.474 409.29 144.661 407.76 145.587 406.358C146.513 404.956 147.248 403.91 147.439 402.331C147.701 400.238 147.268 397.81 147.147 395.144C147.016 392.479 147.278 389.824 147.872 388.748C148.184 388.195 149.251 386.833 150.619 385.303C151.988 383.783 153.669 382.006 155.36 380.199C157.051 378.393 158.741 376.547 160.161 374.829C161.58 373.112 162.727 371.602 163.361 369.993C164.076 368.176 166.823 363.053 169.45 358.068C170.758 355.581 172.057 353.083 173.113 350.892C174.16 348.701 174.965 346.924 175.328 345.394C175.74 343.627 177.26 340.132 178.991 337.26C179.857 335.829 180.783 334.516 181.588 333.608C182.393 332.699 183.198 332.314 183.017 332.364C184.396 332.068 185.644 331.387 187.214 330.478C188.774 329.57 190.515 328.415 192.196 327.172C193.876 325.928 195.497 324.595 196.815 323.282C198.134 321.969 199.221 320.844 199.724 319.186C200.227 317.557 200.72 316.402 201.163 315.81C201.606 315.218 201.837 315.06 202.703 314.951C203.88 314.803 205.269 314.833 206.306 315.139C207.343 315.435 207.956 315.849 208.349 316.718C209.104 318.386 210.372 320.815 212.113 322.917C212.979 323.963 213.975 324.941 215.193 325.671C216.411 326.402 217.96 326.866 219.581 326.579C219.832 326.53 221.201 326.599 222.771 326.994C224.341 327.389 226.213 328.02 228.025 328.751C229.836 329.491 231.608 330.33 232.987 331.12C234.365 331.91 235.402 332.788 235.483 332.897C237.214 335.157 238.603 339.027 239.619 343.35C240.253 346.055 242.095 350.398 244.269 354.998C246.433 359.598 248.868 364.228 250.77 367.021C252.411 369.44 257.161 377.11 261.328 384.335C263.411 387.948 265.354 391.482 266.723 394.197C267.407 395.559 267.94 396.724 268.252 397.533C268.393 397.908 268.494 398.204 268.534 398.372C267.739 401.62 268.806 405.539 271.775 409.527C272.489 410.494 273.365 411.057 274.442 411.698C275.519 412.34 276.817 412.972 278.276 413.623C281.205 414.926 284.838 416.269 288.592 417.522C296.101 420.03 303.931 422.181 307.836 422.754C311.338 423.267 314.8 423.8 317.407 425.005C320.014 426.209 321.815 427.847 322.711 431.342C323.768 435.488 324.744 438.844 326.042 441.588C327.34 444.322 329.072 446.524 331.517 447.827C335.694 450.067 335.744 448.685 340.142 454.993C341.441 456.849 343.323 457.342 345.728 458.004C348.134 458.665 351.163 459.198 354.665 459.702C361.67 460.689 370.567 461.498 379.595 462.436C388.623 463.374 397.801 464.43 405.229 465.901C412.656 467.372 418.343 469.563 419.953 471.3C424.653 476.374 429.061 483.531 433.027 489.838C435.009 492.997 436.881 495.929 438.693 498.347C440.505 500.756 442.165 502.681 444.329 503.737C446.926 505.01 450.992 507.981 455.48 510.054C459.969 512.127 465.424 513.371 470.255 510.41C473.959 508.139 475.408 507.893 478.296 508.524C478.669 508.603 494.601 510.834 495.024 510.953V506.313C494.953 506.294 479.353 504.161 479.293 504.142C475.519 503.322 472.026 504.033 467.83 506.609C464.77 508.485 461.328 507.794 457.433 505.997C453.538 504.201 449.704 501.358 446.372 499.729C445.577 499.334 444.017 497.873 442.377 495.692C440.736 493.5 438.904 490.638 436.932 487.499C432.997 481.221 428.518 473.867 423.345 468.29C420.024 464.706 413.854 463.038 406.135 461.508C398.415 459.988 389.146 458.922 380.078 457.984C371.01 457.046 362.133 456.237 355.319 455.27C351.918 454.786 349.029 454.263 346.956 453.7C344.893 453.137 343.745 452.239 343.906 452.476C339.237 445.783 337.183 445.773 333.691 443.898C332.302 443.158 331.235 441.924 330.179 439.703C329.122 437.482 328.176 434.333 327.139 430.266C325.942 425.557 322.852 422.566 319.349 420.948C315.847 419.329 311.982 418.835 308.5 418.322C305.43 417.868 297.379 415.736 290.052 413.287C286.388 412.063 282.866 410.751 280.148 409.546C278.79 408.944 277.632 408.362 276.797 407.868C275.962 407.375 275.448 406.881 275.458 406.901C272.952 403.515 272.59 400.731 273.013 399.251C273.285 398.323 273.103 397.898 272.993 397.425C272.882 396.951 272.721 396.477 272.52 395.954C272.117 394.907 271.533 393.654 270.819 392.222C269.39 389.36 267.407 385.786 265.303 382.124C261.086 374.81 256.417 367.248 254.565 364.534C252.975 362.194 250.519 357.585 248.415 353.113C246.312 348.641 244.48 344.091 244.078 342.344C243.001 337.763 241.602 333.42 239.146 330.212C238.19 328.958 236.902 328.169 235.281 327.241C233.661 326.323 231.749 325.405 229.766 324.605C227.783 323.805 225.75 323.105 223.888 322.641C222.026 322.177 220.416 321.861 218.756 322.157C218.454 322.216 218.121 322.157 217.568 321.831C217.004 321.496 216.32 320.874 215.666 320.084C214.357 318.505 213.18 316.313 212.536 314.902C211.529 312.691 209.526 311.397 207.604 310.835C206.396 310.489 205.199 310.371 204.072 310.371L204.051 310.391ZM268.524 398.422C268.524 398.422 268.524 398.431 268.524 398.441C268.544 398.55 268.494 398.589 268.524 398.422Z" fill="#E7ECF8"/>
<path d="M116.743 399.577C117.809 399.883 119.842 401.294 122.822 404.631C124.583 406.595 126.465 407.839 128.448 408.312C130.43 408.786 132.393 408.411 134.013 407.661C137.254 406.141 139.528 403.288 141.31 401.097C142.87 399.182 143.625 398.678 145.074 398.589C144.993 397.553 144.903 396.428 144.853 395.263C144.832 394.878 144.822 394.493 144.812 394.108C141.954 394.286 139.649 395.944 137.737 398.283C135.996 400.416 133.872 402.745 132.041 403.604C131.125 404.028 130.38 404.147 129.534 403.949C128.689 403.752 127.592 403.16 126.274 401.669C123.083 398.096 120.708 396.043 118.041 395.273C115.364 394.503 112.828 395.579 110.845 397.03C109.768 397.819 107.624 398.313 104.172 398.313C102.079 398.313 99.5123 398.145 96.5635 397.928V402.429C99.3916 402.637 101.938 402.795 104.172 402.795" fill="#E7ECF8"/>
<path d="M314.458 422.172C320.728 416.9 326.948 409.754 327.713 409.003C327.773 408.944 327.803 408.905 327.823 408.865C327.864 408.865 327.914 408.885 328.005 408.885C328.578 408.885 330.289 409.171 333.148 409.971C337.666 411.234 343.504 410.622 351.082 409.339C358.671 408.056 367.628 405.845 376.565 402.893C385.503 399.942 394.41 396.25 401.887 391.916C409.365 387.593 415.525 382.707 418.645 376.587C428.296 357.644 440.434 351.82 450.871 344.999C459.436 339.392 474.16 338.977 486.519 345.038C492.065 347.753 502.23 356.795 512.093 367.071C521.946 377.337 531.869 388.916 538.562 397.109C552.723 414.472 571.261 421.905 589.589 418.312C597.328 416.792 617.658 415.084 637.596 415.696C647.56 416.002 657.493 416.871 665.806 418.539C674.12 420.207 680.752 422.803 683.993 425.666C701.263 440.907 721.402 452.407 741.289 470.274C747.227 475.614 756.809 479.691 768.383 483.462C772.69 484.863 777.26 486.196 782 487.459V479.503C778.115 478.437 774.361 477.341 770.839 476.196C759.707 472.574 750.74 468.388 746.563 464.637C725.982 446.139 705.661 434.501 689.216 419.98C684.033 415.4 676.334 412.833 667.366 411.037C658.389 409.24 648.103 408.352 637.837 408.046C617.306 407.414 597.167 409.013 588.049 410.81C572.66 413.83 557.473 408.036 544.651 392.331C537.848 384 527.844 372.322 517.779 361.829C507.715 351.336 497.952 342.087 490.011 338.198C482.705 334.614 474.754 332.818 467.165 332.867C459.577 332.917 452.36 334.822 446.533 338.632C436.73 345.038 422.228 352.432 411.65 373.171C409.718 376.972 404.705 381.384 397.902 385.323C391.098 389.261 382.614 392.805 374.059 395.638C365.505 398.471 356.859 400.593 349.754 401.797C342.638 403.002 336.67 403.002 335.291 402.607C332.242 401.758 330.169 401.225 327.995 401.225C325.821 401.225 323.476 402.311 322.177 403.584C319.571 406.141 310.251 415.4 304.726 420.049M91.8333 466.641L467.165 332.867Z" fill="#E7ECF8"/>
<path d="M473.093 337.112C471.593 337.586 470.99 339.343 471.885 340.616C497.61 377.929 489.287 428.025 491.42 481.181C492.195 500.578 494.46 520.39 500.398 540.033H505.168C499.12 520.459 496.895 500.627 496.1 481.004C493.987 428.45 502.823 377.297 475.76 338.05C475.589 337.803 475.378 337.586 475.126 337.418C474.442 337.299 473.757 337.211 473.073 337.122L473.093 337.112ZM486.408 340.764C485.231 341.455 484.909 342.985 485.714 344.081C509.868 377.969 504.705 430.453 511.298 484.32C513.582 502.967 517.356 521.801 524.381 540.023H529.273C522.077 521.752 518.272 502.76 515.947 483.768C509.526 431.273 515.011 378.808 490.565 342.906C489.76 342.413 488.985 341.978 488.25 341.613C487.636 341.317 487.022 341.031 486.398 340.764H486.408ZM503.155 352.856C501.887 353.518 501.525 355.137 502.391 356.262C524.985 386.744 522.268 439.377 532.614 491.783C535.835 508.11 540.404 524.427 547.509 540.013H552.531C545.174 524.269 540.535 507.666 537.224 490.904C527.642 442.338 530.007 392.558 510.271 359.667C509.355 358.749 508.429 357.831 507.523 356.953C506.044 355.522 504.595 354.149 503.166 352.846L503.155 352.856ZM521.895 371.947C520.617 371.987 519.933 373.438 520.718 374.425C531.376 388.156 536.62 407.789 540.847 430.177C545.074 452.565 548.294 477.667 555.199 502.286C558.812 515.148 563.461 527.882 569.782 540.013H573.214C566.672 527.694 561.911 514.684 558.208 501.476C551.384 477.144 548.163 452.14 543.916 429.624C540.031 409.003 535.291 390.426 525.911 376.34C524.744 375.027 523.556 373.704 522.348 372.391C522.217 372.243 522.077 372.095 521.936 371.947H521.885H521.895ZM539.075 391.65C537.395 392.055 536.72 394.039 537.827 395.352C547.55 407.197 552.984 425.409 557.986 446.425C562.988 467.441 567.618 491.201 576.314 514.131C579.655 522.956 583.63 531.662 588.451 540.023H593.765C588.522 531.208 584.275 521.969 580.702 512.532C572.197 490.075 567.588 466.533 562.546 445.389C558.51 428.44 554.242 413.011 547.228 400.87C547.087 400.731 546.946 400.603 546.805 400.455C545.909 399.576 545.033 398.658 544.168 397.701C543.302 396.743 542.447 395.746 541.602 394.72C540.806 393.743 539.961 392.716 539.075 391.65ZM555.36 407.464C554.242 407.76 553.83 409.102 554.595 409.961C575.207 433.405 577.461 492.918 607.775 540.023H611.428C581.497 494.182 579.464 435.201 557.906 409.073C557.05 408.569 556.195 408.036 555.36 407.473V407.464ZM562.898 411.629C562.948 411.856 563.049 412.063 563.19 412.241C581.155 435.764 587.576 480.332 610.633 518.869C615.021 526.204 620.043 533.321 625.861 540.023H629.937C623.516 532.896 618.061 525.246 613.32 517.32C591.591 481.004 585.06 438.696 567.9 413.505C567.578 413.406 567.266 413.307 566.944 413.209C565.927 412.873 564.921 412.498 563.924 412.083C563.582 411.935 563.23 411.787 562.888 411.629H562.898ZM596.382 413.445C594.601 413.653 592.99 413.87 591.571 414.087C591.612 414.265 591.672 414.442 591.752 414.61C608.439 449.495 625.992 480.026 657.946 500.47C685.754 518.257 724.23 528.247 782 527.22V522.62C724.824 523.647 687.344 513.776 660.513 496.61C629.927 477.045 612.868 447.797 596.382 413.445ZM571.624 414.462C588.592 440.887 597.841 480.836 622.539 514.111C629.464 523.44 637.636 532.225 647.529 540.023H652.521C641.481 531.83 632.564 522.393 625.066 512.305C601.525 480.589 592.256 442.19 575.7 415.114C574.834 415.015 573.969 414.897 573.113 414.748C572.62 414.66 572.127 414.561 571.624 414.462ZM588.24 414.66C587.697 414.758 587.163 414.847 586.62 414.926C603.347 446.563 617.94 479.651 646.905 504.013C669.299 522.847 700.277 536.401 747.308 540.023H782V539.372C715.051 540.764 675.106 525.71 647.932 502.849C619.43 478.881 604.907 446.218 588.24 414.66ZM581.728 415.36C581.134 415.38 580.541 415.38 579.947 415.38C596.624 444.322 608.53 480.372 635.029 508.84C646.382 521.041 660.432 531.82 678.649 540.033H682.423C662.857 531.751 648.053 520.567 636.177 507.814C610.18 479.898 598.294 444.372 581.728 415.37V415.36Z" fill="#E7ECF8"/>
<path d="M631.698 423.475C630.712 423.475 629.706 423.504 628.709 423.554C620.708 423.909 612.385 425.548 603.458 429.299C602.25 429.792 601.686 431.154 602.2 432.329C602.713 433.504 604.112 434.047 605.299 433.523C622.137 426.446 636.227 427.324 651.193 430.069C666.159 432.813 681.9 437.521 701.173 437.689C702.159 437.689 703.045 437.107 703.387 436.199C702.189 435.31 700.992 434.422 699.814 433.533C699.603 433.375 699.392 433.217 699.18 433.05C681.578 432.586 666.813 428.252 652.049 425.548C645.346 424.324 638.623 423.445 631.678 423.484L631.698 423.475ZM676.978 440.67C653.951 440.631 632.836 445.398 617.377 453.256C614.619 454.667 616.763 458.734 619.53 457.343C642.88 445.477 681.225 440.779 718.433 450.729C719.641 451.064 720.899 450.413 721.302 449.248C719.52 447.925 717.749 446.642 715.988 445.359C702.824 442.161 689.609 440.69 676.978 440.67ZM683.148 447.787C658.641 447.758 635.513 452.516 620.144 460.333C619.359 460.709 619.037 461.656 619.44 462.416C619.842 463.176 620.809 463.473 621.584 463.058C645.074 451.114 689.206 446.346 726.555 456.336C727.612 456.642 728.659 455.803 728.548 454.727C727.864 454.194 727.179 453.68 726.495 453.157C712.435 449.485 697.55 447.817 683.148 447.797V447.787ZM693.262 454.352C691.441 454.352 689.629 454.391 687.828 454.46C663.774 455.329 641.239 461.242 626.072 468.951C625.68 469.139 625.519 469.612 625.72 469.997C625.921 470.382 626.404 470.521 626.797 470.313C650.619 458.201 693.544 450.492 731.074 460.531C732.071 460.778 732.473 459.327 731.487 459.05C719.017 455.714 705.984 454.302 693.262 454.352ZM739.045 463.196C717.88 465.526 701.042 464.065 684.758 464.045C668.131 464.035 652.049 465.615 633.238 474.538C632.061 475.081 631.568 476.463 632.131 477.618C632.695 478.763 634.114 479.247 635.281 478.684C653.357 470.106 668.423 468.635 684.758 468.645C701.092 468.655 718.645 470.224 740.958 467.609C741.722 467.53 742.407 467.095 742.779 466.434C741.531 465.328 740.283 464.252 739.045 463.196ZM734.154 472.821H730.45C700.7 472.978 668.152 476.808 647.64 486.541C646.473 487.094 645.99 488.476 646.553 489.611C647.117 490.756 648.516 491.23 649.683 490.677C675.227 478.546 723.949 475.703 758.339 478.388C759.476 478.506 760.533 477.796 760.845 476.71C758.55 475.811 756.396 474.903 754.404 473.956C754.031 473.778 753.679 473.61 753.317 473.433C747.208 473.067 740.766 472.85 734.144 472.821H734.154ZM773.919 486.008C739.508 486.097 695.185 492.721 672.016 503.717C670.809 504.24 670.285 505.652 670.859 506.817C671.433 507.982 672.882 508.455 674.059 507.853C697.509 496.719 747.52 489.759 782 490.727V486.117C780.43 486.077 778.84 486.038 777.21 486.018C776.123 486.008 775.026 486.008 773.908 486.008H773.919ZM778.558 499.621C776.465 499.621 774.371 499.65 772.308 499.7C747.469 500.381 724.804 505.237 704.625 514.812C703.407 515.336 702.884 516.747 703.468 517.922C704.041 519.096 705.501 519.56 706.668 518.958C728.689 508.505 753.9 503.816 782 504.25V499.65C780.853 499.64 779.695 499.621 778.558 499.621Z" fill="#E7ECF8"/>
<path d="M198.798 427.245C197.429 427.235 196.04 427.383 194.641 427.758C191.451 428.617 188.421 430.71 185.825 434.194C180.903 440.838 179.011 447.116 176.847 450.748C175.76 452.565 174.754 453.641 173.335 454.292C171.916 454.944 169.832 455.25 166.39 454.726C162.194 454.095 158.812 454.726 156.668 456.878C154.524 459.03 154.051 461.853 153.75 464.726C153.136 470.461 153.357 477.223 149.754 483.274C146.262 489.137 136.026 496.945 125.408 503.697C114.79 510.449 103.901 516.332 98.4356 519.906C92.729 523.637 89.3977 528.415 85.221 532.797C82.8055 535.324 80.1083 537.782 76.4448 540.043V546.114C82.0608 543.142 85.9758 539.727 89.1461 536.4C93.655 531.682 96.7045 527.378 101.425 524.288C106.386 521.041 117.518 515 128.337 508.11C139.156 501.229 149.774 493.698 154.404 485.919C158.913 478.338 158.56 470.323 159.104 465.269C159.376 462.742 159.919 461.162 160.533 460.55C161.147 459.928 162.244 459.425 165.585 459.928C169.671 460.55 172.952 460.284 175.63 459.05C178.307 457.816 180.118 455.704 181.497 453.404C184.255 448.794 185.845 443.148 190.183 437.284C192.226 434.52 194.118 433.355 196.07 432.822C198.023 432.299 200.217 432.457 202.743 433.039C207.795 434.214 213.764 437.225 220.456 437.225C225.801 437.225 233.409 438.597 239.669 441.262C245.929 443.927 250.549 447.787 251.435 452.15C252.824 458.941 258.329 464.39 264.579 468.585C270.829 472.771 277.975 475.703 283.621 476.936C288.472 477.993 295.004 480.49 300.408 483.481C305.813 486.472 309.959 490.292 310.623 492.247C311.409 494.547 313.009 495.445 315.082 496.827C317.155 498.209 319.853 499.699 323.023 501.289C329.363 504.467 337.596 508.04 346.03 511.466C354.474 514.891 363.119 518.168 370.245 520.735C377.381 523.301 382.846 525.137 385.513 525.789C389.79 526.835 399.834 530.29 409.577 532.61C414.448 533.765 419.279 534.663 423.546 534.811C427.813 534.959 431.729 534.545 434.416 531.909C435.966 530.389 437.012 529.905 437.334 529.846C437.656 529.787 437.586 529.737 438.17 530.211C439.327 531.169 441.31 534.436 444.52 537.585C447.671 540.675 453.528 545.255 459.859 548.808C463.029 550.585 466.3 552.095 469.49 552.964C472.681 553.833 475.871 554.139 478.759 552.915C482.393 551.395 489.226 549.687 495.889 549.144C502.542 548.601 509.053 549.391 512.063 551.503C515.213 553.704 520.144 555.916 525.891 557.949V552.273C521.131 550.467 517.216 548.641 515.193 547.219C510.09 543.646 502.693 543.3 495.446 543.893C488.2 544.485 481.135 546.192 476.646 548.078C475.489 548.571 473.466 548.581 470.929 547.89C468.393 547.199 465.434 545.867 462.526 544.238C456.698 540.971 450.962 536.46 448.315 533.873C445.738 531.346 444.239 528.365 441.632 526.194C440.323 525.108 438.301 524.279 436.278 524.683C434.245 525.078 432.534 526.302 430.611 528.197C429.826 528.967 427.371 529.688 423.737 529.56C420.104 529.431 415.525 528.612 410.835 527.497C401.465 525.266 391.803 521.909 386.811 520.685C384.838 520.202 379.162 518.346 372.097 515.799C365.032 513.252 356.447 509.995 348.083 506.609C339.72 503.213 331.578 499.68 325.468 496.61C322.409 495.08 319.863 493.648 318.091 492.484C316.33 491.309 315.505 490.006 315.706 490.598C314.055 485.732 308.923 482.168 303.035 478.911C297.147 475.653 290.344 473.027 284.768 471.813C279.987 470.767 273.224 468.023 267.598 464.252C261.972 460.481 257.624 455.714 256.688 451.143C255.259 444.135 248.868 439.475 241.803 436.465C234.738 433.454 226.696 431.983 220.456 431.983C215.555 431.983 209.949 429.318 203.981 427.936C202.491 427.591 200.952 427.334 199.392 427.265C199.2 427.265 198.999 427.245 198.808 427.245H198.798Z" fill="#E7ECF8"/>
<path d="M198.788 429.881C198.284 429.881 197.791 429.89 197.298 429.94C196.916 429.979 196.533 430.039 196.161 430.108C196.201 430.354 196.292 430.581 196.433 430.779C214.116 456.424 208.399 490.855 209.859 527.388C210.664 547.456 213.774 568.146 224.351 588.155C224.784 588.115 225.227 588.076 225.68 588.016C226.314 587.947 226.988 587.849 227.673 587.75C216.924 567.968 213.894 547.466 213.079 527.26C211.65 491.536 217.568 456.76 199.704 429.91C199.563 429.91 199.422 429.9 199.281 429.89C199.11 429.89 198.949 429.881 198.778 429.881H198.788ZM218.323 434.49C218.333 434.727 218.403 434.964 218.514 435.172C231.89 459.889 223.123 490.371 221.362 523.449C220.275 543.873 222.057 565.293 233.711 586.644C234.738 586.417 235.795 586.18 236.861 585.914C225.146 564.948 223.496 544.001 224.583 523.617C226.294 491.398 235.291 460.6 221.865 434.648C221.382 434.629 220.909 434.619 220.446 434.619C219.732 434.619 219.027 434.569 218.313 434.5L218.323 434.49ZM243.111 440.778C242.004 440.828 241.28 441.923 241.682 442.93C250.78 466.72 238.703 492.395 233.439 521.159C229.836 540.823 229.696 561.947 242.155 584.493C243.162 584.196 244.178 583.88 245.195 583.555C232.745 561.552 233.047 541.178 236.61 521.722C241.783 493.48 254.384 467.154 244.702 441.825C244.48 441.223 243.927 440.818 243.272 440.778C243.222 440.778 243.162 440.778 243.111 440.778ZM265.092 465.743C265.092 465.802 265.102 465.871 265.122 465.93C267.538 477.371 264.971 487.232 260.633 496.916C256.296 506.599 250.156 516.036 245.708 526.371C241.26 536.706 238.532 548.019 241.209 561.226C242.528 567.712 245.124 574.631 249.402 582.123C249.895 581.946 250.378 581.768 250.871 581.59C251.394 581.393 251.918 581.186 252.441 580.978C248.174 573.585 245.627 566.843 244.369 560.614C241.843 548.147 244.369 537.605 248.677 527.595C252.985 517.586 259.104 508.169 263.582 498.179C267.709 488.959 270.416 479.177 268.776 468.112C267.86 467.579 266.954 467.016 266.078 466.424C265.746 466.197 265.414 465.97 265.082 465.743H265.092ZM289.659 476.443C289.055 476.443 288.572 476.946 288.592 477.539C288.904 488.653 284.456 496.945 278.337 504.457C272.218 511.969 264.418 518.603 258.248 526.223C252.079 533.844 247.56 542.53 248.274 553.931C248.727 561.157 251.243 569.439 256.648 579.231C257.302 578.935 257.956 578.629 258.6 578.323C253.276 568.689 250.851 560.673 250.418 553.803C249.744 543.004 253.941 534.939 259.929 527.536C265.917 520.133 273.727 513.489 280.018 505.78C286.308 498.061 291.068 489.187 290.746 477.489C290.746 476.907 290.253 476.443 289.659 476.453V476.443ZM312.103 489.414C310.241 500.173 303.87 506.915 295.95 512.246C288.019 517.586 278.548 521.436 270.708 526.322C262.868 531.208 256.618 537.19 255.37 546.735C254.404 554.109 256.406 563.526 262.757 576.161C262.928 576.063 263.099 575.964 263.27 575.875C263.411 575.796 263.552 575.707 263.693 575.628C257.433 563.151 255.521 553.941 256.437 546.874C257.634 537.713 263.562 532.017 271.282 527.21C279.001 522.403 288.492 518.543 296.553 513.114C304.293 507.912 310.724 501.2 312.918 490.835C312.817 490.608 312.697 490.371 312.566 490.144C312.425 489.907 312.274 489.66 312.103 489.414ZM334.214 503.618C333.6 506.343 332.242 508.504 330.269 510.34C327.753 512.69 324.21 514.476 320.014 515.937C311.62 518.859 300.69 520.458 290.545 523.153C280.4 525.858 270.929 529.668 265.615 537.368C260.311 545.057 259.426 556.409 265.927 573.555C265.988 573.733 266.109 573.891 266.249 574.009C266.41 573.901 266.582 573.782 266.743 573.674C267.155 573.387 267.548 573.101 267.93 572.805C261.569 556.014 262.566 545.541 267.387 538.552C272.208 531.563 281.125 527.852 291.098 525.196C301.072 522.541 312.012 520.962 320.728 517.931C325.086 516.411 328.9 514.526 331.739 511.87C333.872 509.876 335.432 507.438 336.197 504.497C335.744 504.299 335.271 504.102 334.828 503.904C334.617 503.816 334.416 503.717 334.204 503.628L334.214 503.618ZM356.879 512.937C350.901 522.206 342.195 526.075 332.232 527.753C322.077 529.471 310.724 528.77 300.378 528.957C290.022 529.145 280.491 530.172 274.22 536.035C267.94 541.908 265.565 552.243 268.715 569.794C268.836 570.446 269.359 570.959 270.024 571.078C270.708 570.456 271.322 569.824 271.875 569.182C268.826 552.155 271.241 543.192 276.445 538.335C281.648 533.469 290.283 532.314 300.438 532.126C310.593 531.938 322.097 532.679 332.785 530.882C343.454 529.076 353.417 524.604 359.939 514.121C359.828 514.082 359.718 514.042 359.607 513.993C358.711 513.647 357.795 513.302 356.889 512.946L356.879 512.937Z" fill="#E7ECF8"/>
<path d="M184.798 441.252C184.698 441.252 184.607 441.252 184.506 441.272C184.084 442.042 183.701 442.802 183.329 443.542C183.409 443.7 183.52 443.848 183.661 443.977C194.098 453.937 198.637 468.625 200.499 484.409C202.018 497.31 201.727 510.528 201.535 522.65C191.471 499.245 174.19 483.284 155.994 477.45C155.652 477.341 155.279 477.351 154.937 477.469C154.776 478.121 154.595 478.772 154.394 479.434C154.343 479.602 154.283 479.769 154.223 479.937C154.414 480.184 154.686 480.362 154.987 480.46C173.949 486.541 192.477 504.516 201.525 531.366C202.099 533.064 204.655 532.669 204.665 530.882C204.736 517.092 205.591 500.193 203.689 484.063C201.787 467.924 197.127 452.456 185.895 441.726C185.603 441.44 185.201 441.272 184.778 441.262L184.798 441.252ZM177.22 454.707C177.22 454.707 177.169 454.766 177.139 454.795C176.757 455.18 176.354 455.536 175.911 455.852C175.74 455.97 175.559 456.089 175.378 456.207C175.358 456.661 175.539 457.095 175.861 457.411C186.298 467.608 190.263 478.97 192.487 492.108C183.329 476.621 168.766 467.124 156.819 465.269C156.678 465.249 156.547 465.239 156.407 465.249C156.306 466.226 156.235 467.273 156.155 468.358C156.205 468.368 156.266 468.378 156.316 468.388C168.947 470.352 186.328 482.494 194.027 502.434C194.702 504.171 197.349 503.549 197.137 501.703C195.114 483.945 191.813 468.546 178.136 455.171C177.894 454.924 177.572 454.766 177.22 454.716V454.707ZM146.735 495.001C145.235 494.991 143.695 495.04 142.105 495.139C142.065 495.178 142.024 495.208 141.974 495.247C141.018 496.027 140.022 496.797 138.995 497.577C139.297 498.159 139.931 498.505 140.585 498.436C154.162 497.133 164.176 500.41 172.127 506.422C180.078 512.433 185.946 521.278 190.736 531.149C200.318 550.891 205.33 574.523 215.495 587.177C215.555 587.256 215.626 587.326 215.696 587.385C216.119 587.474 216.612 587.592 217.135 587.73C218.272 587.454 218.745 586.121 218.021 585.213C208.782 573.713 203.458 550.003 193.645 529.787C188.733 519.679 182.644 510.38 174.1 503.914C167.689 499.068 159.889 495.869 150.378 495.149C149.19 495.06 147.973 495.011 146.725 495.001H146.735ZM133.58 503.677C132.463 503.677 131.336 503.707 130.179 503.766C129.082 504.487 127.985 505.207 126.868 505.908C126.566 506.106 126.264 506.293 125.952 506.481C126.284 506.945 126.847 507.191 127.421 507.132C141.018 505.829 151.515 508.82 160.1 514.397C168.695 519.975 175.378 528.217 180.994 537.466C192.226 555.955 198.959 578.313 209.043 590.859C209.094 590.929 209.154 590.998 209.214 591.057C209.365 590.889 209.516 590.711 209.647 590.553C210.332 589.724 210.825 589.053 211.268 588.52C202.089 576.803 195.155 554.613 183.762 535.847C178.005 526.361 171.04 517.714 161.882 511.762C155.008 507.3 146.896 504.388 137.254 503.786C136.046 503.707 134.818 503.668 133.57 503.668L133.58 503.677ZM121.503 511.041C120.477 511.041 119.44 511.071 118.383 511.12C116.813 512.058 115.283 512.966 113.794 513.835C114.136 514.328 114.73 514.585 115.334 514.506C142.538 511.9 159.446 525.779 172.339 543.626C185.231 561.473 193.675 583.15 203.669 595.598C203.76 595.716 203.87 595.825 203.991 595.904C204.474 595.548 204.937 595.183 205.39 594.808C205.752 594.502 206.084 594.216 206.396 593.929C206.346 593.831 206.286 593.732 206.205 593.643C196.795 581.936 188.18 560.091 174.965 541.8C163.401 525.789 147.963 512.403 125.217 511.13C123.999 511.061 122.761 511.031 121.503 511.031V511.041ZM111.036 517.092C110.07 517.092 109.084 517.132 108.087 517.171C106.94 517.842 105.843 518.484 104.826 519.086C104.313 519.392 103.87 519.659 103.397 519.945C103.739 520.389 104.283 520.626 104.847 520.577C132.071 517.961 150.227 531.386 164.327 548.719C178.387 566.014 188.039 587.089 197.962 599.477C198.164 599.388 198.365 599.299 198.556 599.201C199.321 598.835 200.076 598.431 200.811 598.006C200.75 597.858 200.67 597.72 200.569 597.601C191.109 585.825 181.296 564.494 166.853 546.745C154.223 531.208 137.757 518.326 114.79 517.171C113.562 517.112 112.314 517.082 111.046 517.092H111.036ZM97.8115 529.678C95.7081 529.688 93.5644 529.787 91.3804 529.964C90.5753 530.872 89.7701 531.79 88.9347 532.718C89.287 533.103 89.8204 533.301 90.3438 533.232C117.659 530.616 137.797 541.612 153.739 556.399C169.601 571.107 181.115 589.537 190.907 601.757C191.531 601.639 192.155 601.501 192.769 601.343C193.162 601.244 193.544 601.125 193.937 601.017C193.947 600.642 193.826 600.286 193.584 599.99C183.993 588.056 172.308 569.271 155.954 554.109C141.642 540.842 123.607 530.32 100.338 529.717C99.5024 529.688 98.667 529.688 97.8216 529.688L97.8115 529.678ZM85.7242 546.37C84.9492 546.37 84.1743 546.37 83.3893 546.38C81.1147 546.41 78.7999 546.508 76.4448 546.666V549.835C128.629 546.104 158.943 577.247 177.975 600.731C178.277 600.849 178.568 600.967 178.88 601.076C179.504 601.293 180.138 601.481 180.783 601.639C181.044 601.698 181.306 601.757 181.568 601.807C181.94 601.244 181.9 600.504 181.477 599.98C163.492 577.593 134.406 546.755 85.7141 546.38L85.7242 546.37ZM98.1034 566.774C96.785 566.774 95.4666 566.794 94.1481 566.833C88.3108 567.03 82.3828 567.692 76.4549 568.837V572.065C109.869 565.421 142.87 574.74 160.261 595.548C161.439 595.647 162.596 595.775 163.733 595.933C163.915 595.42 163.824 594.857 163.492 594.433C149.241 576.694 124.824 566.823 98.1135 566.764L98.1034 566.774ZM104.233 580.465C95.225 580.524 86.0865 582.262 76.4448 585.499V588.816C100.67 580.327 120.839 581.63 144.752 595.479C145.758 595.41 146.805 595.351 147.862 595.311C148.073 595.311 148.285 595.301 148.496 595.292C148.667 594.61 148.355 593.89 147.721 593.544C132.997 584.789 119.39 580.633 105.531 580.475H104.233V580.465ZM106.034 590.79C101.505 590.81 97.2077 591.383 93.0209 592.449C87.3748 593.88 81.9501 596.17 76.4448 599.072V602.685C82.3426 599.467 88.0088 596.989 93.8361 595.519C104.152 592.903 115.052 593.337 129.092 598.45C130.259 598.085 131.266 597.779 132.131 597.513C132.242 596.762 131.799 596.052 131.074 595.795C123.627 593.011 116.904 591.462 110.654 590.978C109.094 590.85 107.554 590.79 106.044 590.8L106.034 590.79Z" fill="#E7ECF8"/>
<path d="M104.172 400.435C104.172 400.435 86.348 397.79 79.8565 398.846C73.3649 399.902 67.9603 405.213 57.1512 405.213C46.342 405.213 22.5598 444.441 8.49982 449.752C-5.55009 455.053 -4.47319 451.874 -5.55008 459.297C-6.62697 466.72 -10.9547 466.72 -14.1954 470.965C-17.4362 475.209 -10.9547 490.056 -18.5231 494.29C-26.0915 498.535 -25.5481 508.604 -25.5481 508.604" stroke="#E7ECF8" stroke-width="5" stroke-miterlimit="10"/>
<path d="M105.933 444.579C105.933 444.579 95.5269 452.397 82.5539 453.463C69.5808 454.519 46.8755 455.585 39.3071 464.065C31.7387 472.544 19.5003 478.338 15.5249 481.033C-22.8507 507.014 -60.6929 535.641 -60.6929 535.641" stroke="#E7ECF8" stroke-width="4" stroke-miterlimit="10"/>
</g>
<defs>
<clipPath id="clip0_11_15">
<rect width="1277.19" height="464" fill="white" transform="translate(997.812)"/>
</clipPath>
<clipPath id="clip1_11_15">
<rect width="870.35" height="332.893" fill="white" transform="translate(0 131.107)"/>
</clipPath>
</defs>
</svg>
