<svg width="32" height="26" viewBox="0 0 32 26" fill="none" xmlns="http://www.w3.org/2000/svg">
<path id="Vector" d="M13.3534 14.6167C14.0481 15.6946 14.3955 16.9708 14.3955 18.4416C14.3955 20.5506 13.7244 22.2549 12.3824 23.5506C11.0403 24.8502 9.3233 25.5 7.23523 25.5C5.14716 25.5 3.41828 24.8385 2.05255 23.5156C0.682867 22.1926 0 20.5 0 18.4416C0 17.4611 0.122363 16.4805 0.371037 15.5C0.619711 14.5195 1.16443 13.0486 2.01308 11.0875L6.34316 0.5H13.7284L10.4443 12.1887C11.6877 12.7296 12.6547 13.5389 13.3534 14.6167ZM30.954 14.6167C31.6487 15.6946 32 16.9708 32 18.4416C32 20.5506 31.329 22.2549 29.9869 23.5506C28.6449 24.8502 26.9278 25.5 24.8398 25.5C22.7517 25.5 21.0228 24.8385 19.6571 23.5156C18.2874 22.1926 17.6045 20.5 17.6045 18.4416C17.6045 17.4611 17.7269 16.4805 17.9756 15.5C18.2242 14.5195 18.769 13.0486 19.6176 11.0875L23.9477 0.5H31.3329L28.0528 12.1887C29.2962 12.7296 30.2632 13.5389 30.9619 14.6167H30.954Z" fill="#178DCE"/>
</svg>
