<svg width="32" height="26" viewBox="0 0 32 26" fill="none" xmlns="http://www.w3.org/2000/svg">
<path id="Vector" d="M18.6466 11.3833C17.9519 10.3054 17.6045 9.02918 17.6045 7.55837C17.6045 5.44942 18.2756 3.74513 19.6176 2.44941C20.9597 1.1498 22.6767 0.5 24.7648 0.5C26.8528 0.5 28.5817 1.16148 29.9474 2.48444C31.3171 3.8074 32 5.5 32 7.55837C32 8.53891 31.8776 9.51945 31.629 10.5C31.3803 11.4805 30.8356 12.9514 29.9869 14.9124L25.6608 25.5H18.2756L21.5596 13.8113C20.3163 13.2704 19.3492 12.4611 18.6505 11.3833H18.6466ZM1.04602 11.3833C0.351311 10.3054 0 9.02918 0 7.55837C0 5.44942 0.671015 3.74513 2.01307 2.44941C3.35512 1.1498 5.07217 0.5 7.16024 0.5C9.24831 0.5 10.9772 1.16148 12.3429 2.48444C13.7126 3.8074 14.3954 5.5 14.3954 7.55837C14.3954 8.53891 14.2731 9.51945 14.0244 10.5C13.7758 11.4805 13.231 12.9514 12.3824 14.9124L8.05624 25.5H0.67103L3.95116 13.8113C2.70779 13.2704 1.74072 12.4611 1.04207 11.3833H1.04602Z" fill="#178DCE"/>
</svg>
