<svg width="152" height="142" viewBox="0 0 152 142" fill="none" xmlns="http://www.w3.org/2000/svg">
<path d="M437.198 112.065C437.198 112.065 451.222 88.5022 420.367 85.1361C420.367 85.1361 419.244 58.207 393.998 44.1827C368.752 30.1584 344.069 50.3551 344.069 50.3551C344.069 50.3551 334.531 35.2076 318.823 44.7425C318.823 44.7425 312.654 8.83831 277.87 3.22931C243.085 -2.37968 230.744 18.9367 230.744 18.9367C230.744 18.9367 198.206 9.96157 185.865 36.8906C185.865 36.8906 169.034 15.5706 148.837 21.1832C128.64 26.7922 125.838 50.9149 125.838 50.9149C125.838 50.9149 104.518 39.1335 86.0039 48.6721C67.4902 58.2107 70.2965 80.0905 70.2965 80.0905C70.2965 80.0905 54.5892 72.7985 45.0542 78.9673C35.512 85.1397 34.3924 87.9424 34.3924 87.9424C34.3924 87.9424 2.41411 86.8191 2.41411 99.1641C2.41411 111.505 15.875 117.678 27.093 112.069C38.3183 106.46 41.6807 104.777 41.6807 104.777C41.6807 104.777 48.4167 122.167 63.5606 120.484C78.7082 118.801 84.3209 104.777 84.3209 104.777C84.3209 104.777 85.4441 120.718 110.127 120.601C134.813 120.484 137.056 101.411 137.056 101.411C137.056 101.411 150.52 135.072 185.301 136.755C220.086 138.438 229.061 120.484 229.061 120.484C229.061 120.484 241.966 126.097 249.258 119.924C256.55 113.752 257.113 108.143 257.113 108.143C257.113 108.143 255.99 121.607 277.87 124.414C299.75 127.22 306.482 112.632 306.482 112.632C306.482 112.632 314.897 138.438 344.633 139.561C374.368 140.685 385.026 117.122 385.026 117.122C385.026 117.122 391.758 136.755 408.026 135.635C424.296 134.512 424.856 116.562 424.856 116.562C424.856 116.562 434.735 118.19 437.198 112.072V112.065Z" fill="#00D8DB" stroke="#E7ECF8" stroke-width="3" stroke-linecap="round" stroke-linejoin="round"/>
<path d="M167.772 78.5904C168.068 78.5904 168.364 78.5904 168.668 78.5831C188.096 78.2647 205.845 63.6623 220.108 51.9248C230.652 43.2497 239.745 35.771 246.484 36.3418C264.68 37.926 269.648 52.9456 269.696 53.0956L271.068 52.6638C271.017 52.5029 265.788 36.5759 246.605 34.9075C239.295 34.2709 229.976 41.9361 219.189 50.8125C205.099 62.4037 187.566 76.8305 168.642 77.1415C150.714 77.4232 144.139 68.9384 143.989 60.8853C143.865 54.2664 148.047 48.7965 153.312 48.6867C159.206 48.5367 163.74 50.9479 165.759 55.2287C167.325 58.5363 166.952 62.2866 164.815 64.7783C162.152 67.8883 157.223 68.0676 153.941 66.6552C152.503 66.0369 149.203 64.1599 149.624 60.1096C149.946 57.0142 151.57 54.8957 153.974 54.4384C156.221 54.0103 159.312 55.1702 161.16 58.7229L162.437 58.0606C160.542 54.4128 157.029 52.3931 153.703 53.0261C150.641 53.6078 148.581 56.2019 148.19 59.9632C147.831 63.4318 149.77 66.4284 153.37 67.9797C157.22 69.6299 162.763 69.3884 165.909 65.7186C168.416 62.7952 168.866 58.4375 167.062 54.6177C164.819 49.8722 159.682 47.1317 153.279 47.2524C147.224 47.3805 142.409 53.509 142.548 60.9182C142.701 69.1323 149.419 78.594 167.772 78.594V78.5904Z" fill="#E7ECF8"/>
<path d="M193.007 116.876C195.308 116.876 197.452 116.489 199.439 115.709C207.613 112.504 209.954 103.917 210.053 103.555L208.659 103.189C208.637 103.269 206.391 111.447 198.897 114.377C192.44 116.902 184.057 114.934 173.973 108.527C162.613 101.308 154.296 94.4734 147.611 88.9852C136.624 79.9588 129.365 73.9986 118.227 73.3107C109.058 72.7363 103.947 78.7075 102.948 84.8653C101.858 91.5939 105.246 100.046 115.256 102.702C122.15 104.532 125.936 102.406 127.905 100.306C130.525 97.5029 131.377 92.9331 130.02 88.9413C128.893 85.6154 126.522 83.4201 123.514 82.9225C117.916 81.9858 114.572 85.0666 113.745 88.5315C112.966 91.8025 114.426 94.9161 117.148 95.765L117.58 94.3893C115.311 93.6795 114.634 91.0122 115.147 88.8644C115.769 86.2557 118.275 83.5079 123.276 84.3421C125.743 84.7555 127.704 86.5996 128.655 89.4059C129.844 92.9111 129.12 96.8992 126.851 99.325C125.153 101.143 121.824 102.962 115.626 101.315C106.482 98.886 103.38 91.2061 104.371 85.0995C105.198 79.9844 109.3 74.2144 118.139 74.7523C128.812 75.4072 135.929 81.254 146.697 90.1011C153.411 95.6186 161.767 102.483 173.198 109.745C180.676 114.498 187.31 116.884 192.999 116.884L193.007 116.876Z" fill="#E7ECF8"/>
<path d="M198.506 136.184C203.489 136.184 208.41 135.339 212.907 133.744L212.424 132.386C195.978 138.219 173.644 133.678 164.643 113.767C155.302 93.1014 140.682 83.3689 140.535 83.2701L139.745 84.4775C139.888 84.5726 154.172 94.0966 163.33 114.359C170.216 129.595 184.595 136.181 198.502 136.181L198.506 136.184Z" fill="#E7ECF8"/>
<path d="M53.2097 106.712C61.8043 106.712 66.1364 97.7774 70.6917 88.3815C75.353 78.7697 80.6364 67.8737 91.269 64.2843C113.281 56.8606 130.492 78.1038 130.66 78.3196L131.791 77.4232C131.615 77.2 113.785 55.1665 90.808 62.9196C79.6046 66.6992 74.1822 77.8842 69.4001 87.7521C64.3143 98.2384 59.9237 107.294 50.0741 104.865C43.9931 103.364 40.1843 100.404 39.3537 96.5333C38.7317 93.6246 39.9611 90.3719 42.4308 88.44C44.6115 86.7313 47.2165 86.4093 49.5911 87.5582C53.2902 89.3547 55.1489 91.561 54.8123 93.7709C54.5159 95.7723 52.3572 97.5871 49.7924 97.9932C47.7764 98.3042 46.5397 96.9395 46.1006 96.3358C45.2445 95.1613 45.003 93.7197 45.4933 92.7538C46.0311 91.6964 47.2934 91.4732 48.2557 91.4732V90.0316C45.6433 90.0389 44.6042 91.3341 44.2127 92.1025C43.4663 93.5624 43.7553 95.5564 44.9408 97.1846C46.1775 98.8896 48.0764 99.7275 50.0192 99.4165C53.2317 98.9116 55.8514 96.6248 56.2429 93.9868C56.4917 92.3184 56.0417 89.0949 50.2205 86.2666C47.3812 84.8873 44.1321 85.2751 41.5417 87.3094C38.611 89.6072 37.195 93.3502 37.9487 96.837C38.5049 99.4092 40.7697 104.052 49.7302 106.262C50.9669 106.566 52.1267 106.712 53.2171 106.712H53.2097Z" fill="#E7ECF8"/>
</svg>
