<svg width="98" height="105" viewBox="0 0 98 105" fill="none" xmlns="http://www.w3.org/2000/svg">
<path d="M-223.744 83.0823C-223.744 83.0823 -234.073 65.7321 -211.351 63.2514C-211.351 63.2514 -210.524 43.4205 -191.934 33.0916C-173.343 22.7627 -155.166 37.6359 -155.166 37.6359C-155.166 37.6359 -148.145 26.4801 -136.575 33.505C-136.575 33.505 -132.031 7.06626 -106.419 2.93178C-80.8038 -1.19905 -71.7152 14.501 -71.7152 14.501C-71.7152 14.501 -47.7535 7.89316 -38.6649 27.7204C-38.6649 27.7204 -26.2688 12.0203 -11.3993 16.1548C3.47391 20.2856 5.53749 38.0493 5.53749 38.0493C5.53749 38.0493 21.2376 29.3742 34.8704 36.3955C48.5032 43.4205 46.4397 59.5303 46.4397 59.5303C46.4397 59.5303 58.0052 54.1592 65.0266 58.7034C72.0552 63.2477 72.8784 65.3113 72.8784 65.3113C72.8784 65.3113 96.4267 64.4844 96.4267 73.573C96.4267 82.6615 86.5112 87.2058 78.2532 83.075C69.9879 78.9441 67.5109 77.7038 67.5109 77.7038C67.5109 77.7038 62.5532 90.5097 51.3974 89.273C40.2416 88.0327 36.1107 77.7038 36.1107 77.7038C36.1107 77.7038 35.2838 89.4413 17.1067 89.3572C-1.07037 89.273 -2.72417 75.2268 -2.72417 75.2268C-2.72417 75.2268 -12.6396 100.015 -38.2515 101.252C-63.867 102.492 -70.4749 89.2694 -70.4749 89.2694C-70.4749 89.2694 -79.9769 93.4002 -85.3481 88.8559C-90.7192 84.3117 -91.1327 80.1808 -91.1327 80.1808C-91.1327 80.1808 -90.3058 90.0963 -106.419 92.1599C-122.533 94.2271 -127.487 83.4848 -127.487 83.4848C-127.487 83.4848 -133.685 102.489 -155.579 103.316C-177.474 104.143 -185.326 86.7923 -185.326 86.7923C-185.326 86.7923 -190.284 101.252 -202.263 100.425C-214.245 99.5983 -214.655 86.3789 -214.655 86.3789C-214.655 86.3789 -221.932 87.579 -223.744 83.075V83.0823Z" fill="#00D8DB" stroke="#E7ECF8" stroke-width="3" stroke-linecap="round" stroke-linejoin="round"/>
<path d="M-43.9227 86.624C-45.6167 86.624 -47.1973 86.3387 -48.6609 85.7642C-54.6796 83.4043 -56.4066 77.0818 -56.4761 76.811L-55.4517 76.5403C-55.437 76.5988 -53.7832 82.6213 -48.2657 84.78C-43.5129 86.6387 -37.3368 85.1898 -29.913 80.4699C-21.5489 75.1536 -15.424 70.1227 -10.4992 66.0797C-2.4095 59.4316 2.93607 55.041 11.1392 54.536C17.8897 54.1153 21.6547 58.5095 22.3901 63.0428C23.1914 67.9969 20.6997 74.2206 13.3272 76.1781C8.25238 77.5245 5.46068 75.9622 4.01544 74.4108C2.08723 72.3473 1.45791 68.9848 2.45677 66.0431C3.28733 63.5953 5.03258 61.9781 7.24618 61.6086C11.3697 60.9207 13.8321 63.1855 14.4395 65.7394C15.0139 68.1506 13.9382 70.441 11.9332 71.0667L11.6148 70.0532C13.2833 69.53 13.7845 67.5652 13.404 65.9845C12.9467 64.0636 11.1026 62.0403 7.41449 62.655C5.59971 62.9587 4.15446 64.3161 3.45197 66.3834C2.5775 68.9665 3.11169 71.9009 4.78012 73.6864C6.03145 75.0255 8.48288 76.3647 13.0454 75.1499C19.7777 73.3608 22.0608 67.7078 21.3327 63.2111C20.7253 59.4462 17.7031 55.1946 11.1941 55.5934C3.33489 56.0764 -1.90456 60.3829 -9.83692 66.8956C-14.78 70.9569 -20.9342 76.0134 -29.3532 81.3626C-34.8597 84.8641 -39.7443 86.6204 -43.9373 86.6204L-43.9227 86.624Z" fill="#E7ECF8"/>
<path d="M59.026 79.1381C52.6962 79.1381 49.5094 72.5595 46.1542 65.637C42.7223 58.5571 38.8329 50.5333 31.003 47.8916C14.7944 42.4253 2.12013 58.0668 1.99572 58.2278L1.16516 57.5692C1.29688 57.4046 14.4248 41.1776 31.3433 46.8891C39.594 49.6698 43.5857 57.9095 47.1092 65.176C50.8558 72.8961 54.0866 79.5662 61.3421 77.777C65.8205 76.672 68.6232 74.495 69.2379 71.6411C69.6952 69.497 68.7915 67.1042 66.973 65.6809C65.3668 64.4222 63.4496 64.1844 61.7006 65.0333C58.9785 66.3578 57.6101 67.9823 57.8552 69.6068C58.0711 71.0813 59.6627 72.4168 61.5506 72.7168C63.0361 72.9473 63.9472 71.9411 64.2692 71.4948C64.9021 70.6276 65.0777 69.5702 64.7155 68.8567C64.3204 68.0811 63.391 67.9164 62.6812 67.9128V66.8517C64.6058 66.8554 65.3705 67.8103 65.6595 68.3774C66.2083 69.4531 65.9961 70.9203 65.1253 72.1204C64.2143 73.3754 62.8166 73.9938 61.386 73.7633C59.0187 73.39 57.0905 71.707 56.8015 69.7641C56.6185 68.5348 56.9515 66.1602 61.236 64.0783C63.3288 63.0611 65.7181 63.3502 67.628 64.8467C69.7867 66.5407 70.8294 69.2958 70.2733 71.8643C69.8635 73.7596 68.1951 77.1769 61.5982 78.8051C60.6872 79.0283 59.8346 79.1344 59.0297 79.1344L59.026 79.1381Z" fill="#E7ECF8"/>
</svg>
