<svg width="82" height="61" viewBox="0 0 82 61" fill="none" xmlns="http://www.w3.org/2000/svg">
<path id="Vector" d="M33.82 34.0966C35.58 36.6937 36.46 39.7689 36.46 43.313C36.46 48.3947 34.76 52.5013 31.36 55.6235C27.96 58.755 23.61 60.3208 18.32 60.3208C13.03 60.3208 8.65001 58.7269 5.19001 55.5391C1.72001 52.3513 -0.00999451 48.2728 -0.00999451 43.313C-0.00999451 40.9503 0.300005 38.5876 0.930005 36.2249C1.56001 33.8622 2.94001 30.3181 5.09001 25.5927L16.06 0.0810547H34.77L26.45 28.246C29.6 29.5493 32.05 31.4995 33.82 34.0966ZM78.41 34.0966C80.17 36.6937 81.06 39.7689 81.06 43.313C81.06 48.3947 79.36 52.5013 75.96 55.6235C72.56 58.755 68.21 60.3208 62.92 60.3208C57.63 60.3208 53.25 58.7269 49.79 55.5391C46.32 52.3513 44.59 48.2728 44.59 43.313C44.59 40.9503 44.9 38.5876 45.53 36.2249C46.16 33.8622 47.54 30.3181 49.69 25.5927L60.66 0.0810547H79.37L71.06 28.246C74.21 29.5493 76.66 31.4995 78.43 34.0966H78.41Z" fill="#178DCE"/>
</svg>
