<svg width="82" height="61" viewBox="0 0 82 61" fill="none" xmlns="http://www.w3.org/2000/svg">
<path id="Vector" d="M47.24 26.7095C45.48 24.1124 44.6 21.0372 44.6 17.4931C44.6 12.4114 46.3 8.30479 49.7 5.18264C53.1 2.05111 57.45 0.485352 62.74 0.485352C68.03 0.485352 72.41 2.07925 75.87 5.26703C79.34 8.45481 81.07 12.5333 81.07 17.4931C81.07 19.8558 80.76 22.2185 80.13 24.5812C79.5 26.9439 78.12 30.488 75.97 35.2134L65.01 60.7251H46.3L54.62 32.5601C51.47 31.2568 49.02 29.3067 47.25 26.7095H47.24ZM2.65002 26.7095C0.890024 24.1124 0 21.0372 0 17.4931C0 12.4114 1.69998 8.30479 5.09998 5.18264C8.49998 2.05111 12.85 0.485352 18.14 0.485352C23.43 0.485352 27.81 2.07925 31.27 5.26703C34.74 8.45481 36.47 12.5333 36.47 17.4931C36.47 19.8558 36.16 22.2185 35.53 24.5812C34.9 26.9439 33.52 30.488 31.37 35.2134L20.41 60.7251H1.70001L10.01 32.5601C6.86001 31.2568 4.41001 29.3067 2.64001 26.7095H2.65002Z" fill="#178DCE"/>
</svg>
