<?xml version="1.0" encoding="UTF-8"?>
<svg id="Layer_1" data-name="Layer 1" xmlns="http://www.w3.org/2000/svg" viewBox="0 0 400 400">
  <defs>
    <style>
      .cls-1 {
        fill: #fff;
        stroke-width: 0px;
      }
    </style>
  </defs>
  <path class="cls-1" d="m156.42,218.11c-3.98-1.83-9.56-2.77-16.78-2.84h-41.32v44.75h40.77c7.27,0,12.95-.98,16.99-2.96,7.35-3.65,11.03-10.64,11.03-20.96,0-8.73-3.57-14.73-10.69-17.99Z"/>
  <path class="cls-1" d="m292.79,195.18c-5.17-4.45-11.6-6.68-19.26-6.68-8.32,0-14.78,2.36-19.37,7.09-4.58,4.73-7.47,11.13-8.65,19.21h55.93c-.59-8.61-3.47-15.16-8.65-19.62Z"/>
  <path class="cls-1" d="m156.88,183.31c4.55-2.77,6.83-7.69,6.83-14.75,0-7.82-3-12.99-9.02-15.48-5.19-1.75-11.8-2.63-19.84-2.63h-36.52v37.02h40.8c7.29,0,13.22-1.39,17.75-4.16Z"/>
  <path class="cls-1" d="m200,.79C89.98.79.79,89.98.79,200h0c0,110.02,89.19,199.21,199.21,199.21s199.21-89.19,199.21-199.21h0C399.21,89.98,310.02.79,200,.79Zm34.93,130.16h72.95v16.94h-72.95v-16.94Zm-39.86,134.32c-3.17,5.23-7.15,9.64-11.89,13.2-5.36,4.11-11.69,6.92-18.97,8.42-7.28,1.52-15.2,2.28-23.72,2.28h-75.65V121.3h81.14c20.46.3,34.97,6.27,43.5,17.88,5.14,7.14,7.71,15.68,7.71,25.63s-2.6,18.5-7.77,24.72c-2.91,3.5-7.17,6.68-12.81,9.56,8.57,3.12,15.03,8.06,19.4,14.81,4.35,6.75,6.54,14.96,6.54,24.59s-2.49,18.87-7.47,26.78Zm140.06-29.06h-90.41c.5,12.46,4.83,21.19,12.99,26.2,4.95,3.11,10.91,4.67,17.89,4.67,7.39,0,13.4-1.9,18.02-5.7,2.53-2.05,4.76-4.89,6.68-8.53h33.14c-.87,7.35-4.88,14.84-12.04,22.44-11.11,12.08-26.68,18.11-46.7,18.11-16.52,0-31.1-5.09-43.72-15.28-12.63-10.19-18.94-26.75-18.94-49.71,0-21.5,5.7-38,17.1-49.46,11.4-11.48,26.2-17.21,44.39-17.21,10.81,0,20.55,1.94,29.19,5.81,8.67,3.88,15.83,10.01,21.46,18.37,5.09,7.37,8.39,15.93,9.89,25.66.87,5.7,1.23,13.92,1.07,24.63Z"/>
</svg>